%TF.GenerationSoftware,KiCad,Pcbnew,8.0.2*%
%TF.CreationDate,2024-09-09T19:27:49+02:00*%
%TF.ProjectId,AGS_Klingel_V2-1,4147535f-4b6c-4696-9e67-656c5f56322d,rev?*%
%TF.SameCoordinates,Original*%
%TF.FileFunction,Legend,Bot*%
%TF.FilePolarity,Positive*%
%FSLAX46Y46*%
G04 Gerber Fmt 4.6, Leading zero omitted, Abs format (unit mm)*
G04 Created by KiCad (PCBNEW 8.0.2) date 2024-09-09 19:27:49*
%MOMM*%
%LPD*%
G01*
G04 APERTURE LIST*
%ADD10C,0.000000*%
%ADD11C,0.200000*%
%ADD12C,0.010000*%
G04 APERTURE END LIST*
D10*
G36*
X-7382579Y-12098146D02*
G01*
X-7375124Y-12143292D01*
X-7366124Y-12188470D01*
X-7355587Y-12233613D01*
X-7343518Y-12278654D01*
X-7329922Y-12323524D01*
X-7314807Y-12368159D01*
X-7298177Y-12412490D01*
X-7280041Y-12456448D01*
X-7260401Y-12499968D01*
X-7239266Y-12542982D01*
X-7216642Y-12585422D01*
X-7192533Y-12627222D01*
X-7166946Y-12668314D01*
X-7139889Y-12708630D01*
X-7111365Y-12748104D01*
X-7081381Y-12786667D01*
X-7048794Y-12832876D01*
X-7013740Y-12878013D01*
X-6976303Y-12922040D01*
X-6936567Y-12964921D01*
X-6894615Y-13006618D01*
X-6850531Y-13047096D01*
X-6804400Y-13086317D01*
X-6756304Y-13124244D01*
X-6706328Y-13160839D01*
X-6654555Y-13196066D01*
X-6601070Y-13229889D01*
X-6545956Y-13262270D01*
X-6489296Y-13293173D01*
X-6431174Y-13322559D01*
X-6371676Y-13350394D01*
X-6310883Y-13376638D01*
X-6249667Y-13400932D01*
X-6188620Y-13423029D01*
X-6127771Y-13442921D01*
X-6067152Y-13460597D01*
X-6006792Y-13476047D01*
X-5946722Y-13489260D01*
X-5886973Y-13500227D01*
X-5827573Y-13508936D01*
X-5768554Y-13515379D01*
X-5709947Y-13519541D01*
X-5651781Y-13521417D01*
X-5594087Y-13520995D01*
X-5536895Y-13518262D01*
X-5480236Y-13513211D01*
X-5424141Y-13505830D01*
X-5368638Y-13496109D01*
X-5319111Y-13486792D01*
X-5270670Y-13476461D01*
X-5223244Y-13465112D01*
X-5176770Y-13452738D01*
X-5131180Y-13439333D01*
X-5086408Y-13424892D01*
X-5042387Y-13409407D01*
X-4999050Y-13392874D01*
X-4956332Y-13375285D01*
X-4914165Y-13356638D01*
X-4872482Y-13336922D01*
X-4831219Y-13316134D01*
X-4790307Y-13294268D01*
X-4749680Y-13271319D01*
X-4709273Y-13247278D01*
X-4669017Y-13222141D01*
X-3244951Y-13812008D01*
X-3297078Y-13874056D01*
X-3350340Y-13933739D01*
X-3404830Y-13991291D01*
X-3460639Y-14046951D01*
X-3517861Y-14100953D01*
X-3576584Y-14153534D01*
X-3636904Y-14204928D01*
X-3698910Y-14255375D01*
X-3787208Y-14322920D01*
X-3876206Y-14387005D01*
X-3965931Y-14447617D01*
X-4056412Y-14504744D01*
X-4147681Y-14558373D01*
X-4239765Y-14608491D01*
X-4332692Y-14655087D01*
X-4426494Y-14698148D01*
X-4521198Y-14737662D01*
X-4616833Y-14773614D01*
X-4713430Y-14805995D01*
X-4811016Y-14834792D01*
X-4909622Y-14859990D01*
X-5009276Y-14881580D01*
X-5110007Y-14899546D01*
X-5211845Y-14913878D01*
X-5311699Y-14929631D01*
X-5410543Y-14941637D01*
X-5508431Y-14949939D01*
X-5605415Y-14954583D01*
X-5701551Y-14955612D01*
X-5796892Y-14953071D01*
X-5891491Y-14947003D01*
X-5985401Y-14937452D01*
X-6078677Y-14924464D01*
X-6171372Y-14908081D01*
X-6263540Y-14888349D01*
X-6355234Y-14865309D01*
X-6446509Y-14839008D01*
X-6537417Y-14809490D01*
X-6628013Y-14776796D01*
X-6718350Y-14740974D01*
X-6782742Y-14713245D01*
X-6845953Y-14683887D01*
X-6908012Y-14652891D01*
X-6968948Y-14620243D01*
X-7028791Y-14585930D01*
X-7087570Y-14549941D01*
X-7145314Y-14512262D01*
X-7202055Y-14472881D01*
X-7257819Y-14431785D01*
X-7312637Y-14388962D01*
X-7366540Y-14344399D01*
X-7419554Y-14298084D01*
X-7471711Y-14250004D01*
X-7523039Y-14200146D01*
X-7573569Y-14148497D01*
X-7623330Y-14095047D01*
X-7666872Y-14038212D01*
X-7708947Y-13980366D01*
X-7749539Y-13921481D01*
X-7788637Y-13861528D01*
X-7826227Y-13800478D01*
X-7862296Y-13738304D01*
X-7896833Y-13674976D01*
X-7929823Y-13610466D01*
X-7961253Y-13544745D01*
X-7991111Y-13477785D01*
X-8019384Y-13409558D01*
X-8046059Y-13340034D01*
X-8071122Y-13269185D01*
X-8094562Y-13196983D01*
X-8116364Y-13123400D01*
X-8136518Y-13048406D01*
X-8171698Y-13158802D01*
X-8201970Y-13267470D01*
X-8227337Y-13374339D01*
X-8247802Y-13479342D01*
X-8263370Y-13582411D01*
X-8274043Y-13683477D01*
X-8279829Y-13782470D01*
X-8280728Y-13879323D01*
X-8276745Y-13973966D01*
X-8267886Y-14066330D01*
X-8254152Y-14156348D01*
X-8235549Y-14243951D01*
X-8212080Y-14329068D01*
X-8183750Y-14411633D01*
X-8150561Y-14491576D01*
X-8112519Y-14568829D01*
X-8068843Y-14648313D01*
X-8022686Y-14724616D01*
X-7973974Y-14797803D01*
X-7922635Y-14867936D01*
X-7868597Y-14935080D01*
X-7811791Y-14999300D01*
X-7752142Y-15060660D01*
X-7689580Y-15119222D01*
X-7624032Y-15175052D01*
X-7555427Y-15228213D01*
X-7483692Y-15278770D01*
X-7408757Y-15326785D01*
X-7330550Y-15372324D01*
X-7248997Y-15415451D01*
X-7164028Y-15456229D01*
X-7075572Y-15494722D01*
X-6981094Y-15531692D01*
X-6884976Y-15564841D01*
X-6836278Y-15579912D01*
X-6787142Y-15593945D01*
X-6737556Y-15606910D01*
X-6687512Y-15618780D01*
X-6637001Y-15629526D01*
X-6586010Y-15639122D01*
X-6534533Y-15647538D01*
X-6482557Y-15654748D01*
X-6430075Y-15660722D01*
X-6377076Y-15665432D01*
X-6323550Y-15668852D01*
X-6269488Y-15670953D01*
X-6219243Y-15670120D01*
X-6169978Y-15667859D01*
X-6121704Y-15664196D01*
X-6074433Y-15659157D01*
X-6028180Y-15652769D01*
X-5982957Y-15645057D01*
X-5938778Y-15636048D01*
X-5895656Y-15625767D01*
X-5853603Y-15614243D01*
X-5812633Y-15601500D01*
X-5772759Y-15587564D01*
X-5733994Y-15572463D01*
X-5696351Y-15556221D01*
X-5659844Y-15538867D01*
X-5624485Y-15520424D01*
X-5590288Y-15500922D01*
X-4069852Y-16130707D01*
X-4156967Y-16223590D01*
X-4246210Y-16311434D01*
X-4337607Y-16394292D01*
X-4431180Y-16472221D01*
X-4526956Y-16545275D01*
X-4624959Y-16613511D01*
X-4725213Y-16676984D01*
X-4827745Y-16735750D01*
X-4932578Y-16789864D01*
X-5039738Y-16839383D01*
X-5149251Y-16884360D01*
X-5261139Y-16924854D01*
X-5375429Y-16960918D01*
X-5492145Y-16992608D01*
X-5611312Y-17019981D01*
X-5732955Y-17043092D01*
X-5850881Y-17059952D01*
X-5969201Y-17072892D01*
X-6087805Y-17081892D01*
X-6206587Y-17086930D01*
X-6325437Y-17087983D01*
X-6444249Y-17085029D01*
X-6562914Y-17078047D01*
X-6681323Y-17067015D01*
X-6799368Y-17051911D01*
X-6916942Y-17032714D01*
X-7033935Y-17009400D01*
X-7150241Y-16981948D01*
X-7265750Y-16950338D01*
X-7380356Y-16914546D01*
X-7493948Y-16874550D01*
X-7606421Y-16830330D01*
X-7681390Y-16798230D01*
X-7754794Y-16764729D01*
X-7826712Y-16729861D01*
X-7897223Y-16693660D01*
X-7966404Y-16656162D01*
X-8034335Y-16617399D01*
X-8166760Y-16536215D01*
X-8295125Y-16450383D01*
X-8420060Y-16360176D01*
X-8542194Y-16265868D01*
X-8662154Y-16167730D01*
X-8716179Y-16114997D01*
X-8769154Y-16061115D01*
X-8821052Y-16006091D01*
X-8871845Y-15949937D01*
X-8921507Y-15892664D01*
X-8970011Y-15834281D01*
X-9017329Y-15774799D01*
X-9063436Y-15714229D01*
X-9108302Y-15652581D01*
X-9151903Y-15589866D01*
X-9194211Y-15526093D01*
X-9235197Y-15461273D01*
X-9274837Y-15395417D01*
X-9313104Y-15328536D01*
X-9349969Y-15260638D01*
X-9385406Y-15191736D01*
X-9417720Y-15118682D01*
X-9448259Y-15045225D01*
X-9476971Y-14971323D01*
X-9503805Y-14896931D01*
X-9528708Y-14822007D01*
X-9551627Y-14746507D01*
X-9572511Y-14670389D01*
X-9591308Y-14593609D01*
X-9607966Y-14516125D01*
X-9622431Y-14437892D01*
X-9634652Y-14358867D01*
X-9644577Y-14279008D01*
X-9652154Y-14198271D01*
X-9657331Y-14116612D01*
X-9660054Y-14033991D01*
X-9660273Y-13950361D01*
X-9661528Y-13864814D01*
X-9660173Y-13779249D01*
X-9656224Y-13693628D01*
X-9649699Y-13607909D01*
X-9640612Y-13522054D01*
X-9628982Y-13436025D01*
X-9614823Y-13349782D01*
X-9598151Y-13263286D01*
X-9578983Y-13176497D01*
X-9557335Y-13089377D01*
X-9533224Y-13001888D01*
X-9506665Y-12913988D01*
X-9477675Y-12825639D01*
X-9446269Y-12736803D01*
X-9412466Y-12647441D01*
X-9376280Y-12557511D01*
X-8921899Y-11460539D01*
X-7382579Y-12098146D01*
G37*
G36*
X-11542470Y-5956046D02*
G01*
X-11392978Y-5965839D01*
X-11243553Y-5982809D01*
X-11094864Y-6006977D01*
X-10947581Y-6038359D01*
X-10802376Y-6076978D01*
X-10659918Y-6122852D01*
X-10520878Y-6176000D01*
X-10405623Y-6223740D01*
X-10220671Y-6311747D01*
X-10039196Y-6412194D01*
X-9862789Y-6524058D01*
X-9693043Y-6646323D01*
X-9531551Y-6777968D01*
X-9379902Y-6917975D01*
X-9239690Y-7065324D01*
X-9112507Y-7218996D01*
X-8999943Y-7377971D01*
X-8903592Y-7541230D01*
X-8825045Y-7707756D01*
X-8792946Y-7791925D01*
X-8765895Y-7876527D01*
X-8744090Y-7961436D01*
X-8727732Y-8046524D01*
X-8717018Y-8131665D01*
X-8712149Y-8216730D01*
X-8713322Y-8301593D01*
X-8720738Y-8386124D01*
X-8734594Y-8470198D01*
X-8755090Y-8553687D01*
X-8802203Y-8731642D01*
X-8828937Y-8815239D01*
X-8857837Y-8895283D01*
X-8881013Y-8952302D01*
X-8888940Y-8971803D01*
X-8922281Y-9044825D01*
X-8957897Y-9114375D01*
X-8995823Y-9180480D01*
X-9036096Y-9243167D01*
X-9078752Y-9302460D01*
X-9123826Y-9358390D01*
X-9171354Y-9410979D01*
X-9221374Y-9460258D01*
X-9273920Y-9506250D01*
X-9329029Y-9548984D01*
X-9386737Y-9588486D01*
X-9447079Y-9624782D01*
X-9510093Y-9657898D01*
X-9575813Y-9687863D01*
X-9644276Y-9714702D01*
X-9715517Y-9738441D01*
X-9789574Y-9759108D01*
X-9866482Y-9776729D01*
X-9946276Y-9791330D01*
X-10028993Y-9802939D01*
X-10114671Y-9811582D01*
X-10295045Y-9820075D01*
X-10487688Y-9817023D01*
X-10692888Y-9802639D01*
X-10799188Y-9791442D01*
X-10905914Y-9778211D01*
X-11012486Y-9763446D01*
X-11118329Y-9747647D01*
X-11522887Y-9684142D01*
X-11728464Y-9650154D01*
X-11932931Y-9618842D01*
X-12034433Y-9604954D01*
X-12135277Y-9592652D01*
X-12235338Y-9582242D01*
X-12334488Y-9574031D01*
X-12342400Y-9593131D01*
X-14316592Y-8753017D01*
X-14263071Y-8706457D01*
X-13665903Y-8706457D01*
X-12280473Y-9280321D01*
X-12181335Y-9288633D01*
X-12081558Y-9299046D01*
X-11981487Y-9311154D01*
X-11881471Y-9324551D01*
X-11488891Y-9382903D01*
X-11283356Y-9416994D01*
X-11078982Y-9448530D01*
X-10977529Y-9462538D01*
X-10876728Y-9474944D01*
X-10776698Y-9485427D01*
X-10677559Y-9493667D01*
X-10658242Y-9501668D01*
X-10566354Y-9509546D01*
X-10477679Y-9515016D01*
X-10392173Y-9518062D01*
X-10309796Y-9518668D01*
X-10230507Y-9516815D01*
X-10154263Y-9512490D01*
X-10081023Y-9505673D01*
X-10010745Y-9496350D01*
X-9943388Y-9484501D01*
X-9878910Y-9470114D01*
X-9817270Y-9453167D01*
X-9758427Y-9433647D01*
X-9702338Y-9411536D01*
X-9648962Y-9386819D01*
X-9598257Y-9359476D01*
X-9550182Y-9329493D01*
X-9505757Y-9300253D01*
X-9463252Y-9268050D01*
X-9422615Y-9232840D01*
X-9383793Y-9194577D01*
X-9346734Y-9153215D01*
X-9311383Y-9108709D01*
X-9277688Y-9061011D01*
X-9245595Y-9010079D01*
X-9215051Y-8955864D01*
X-9186002Y-8898321D01*
X-9158397Y-8837405D01*
X-9132181Y-8773070D01*
X-9107301Y-8705270D01*
X-9083704Y-8633958D01*
X-9061336Y-8559091D01*
X-9040145Y-8480623D01*
X-9059898Y-8472441D01*
X-9051986Y-8453341D01*
X-9041739Y-8415691D01*
X-9033605Y-8377964D01*
X-9027498Y-8340200D01*
X-9023339Y-8302437D01*
X-9021042Y-8264712D01*
X-9020525Y-8227064D01*
X-9021706Y-8189532D01*
X-9024501Y-8152154D01*
X-9028827Y-8114969D01*
X-9034602Y-8078015D01*
X-9050165Y-8004954D01*
X-9070528Y-7933279D01*
X-9095025Y-7863297D01*
X-9122995Y-7795315D01*
X-9153773Y-7729642D01*
X-9186696Y-7666584D01*
X-9221101Y-7606450D01*
X-9256324Y-7549548D01*
X-9291702Y-7496183D01*
X-9326572Y-7446666D01*
X-9360270Y-7401301D01*
X-9417400Y-7332134D01*
X-9477412Y-7263999D01*
X-9540170Y-7197050D01*
X-9605538Y-7131443D01*
X-9673382Y-7067329D01*
X-9743566Y-7004863D01*
X-9815954Y-6944199D01*
X-9890414Y-6885492D01*
X-9966807Y-6828894D01*
X-10045001Y-6774561D01*
X-10124859Y-6722645D01*
X-10206246Y-6673301D01*
X-10289028Y-6626683D01*
X-10373069Y-6582944D01*
X-10458234Y-6542239D01*
X-10544387Y-6504722D01*
X-10545534Y-6502214D01*
X-10546831Y-6499771D01*
X-10548270Y-6497392D01*
X-10549840Y-6495077D01*
X-10551536Y-6492824D01*
X-10553348Y-6490635D01*
X-10557286Y-6486442D01*
X-10561586Y-6482492D01*
X-10566183Y-6478779D01*
X-10571006Y-6475300D01*
X-10575991Y-6472050D01*
X-10581068Y-6469024D01*
X-10586171Y-6466217D01*
X-10591230Y-6463625D01*
X-10596180Y-6461241D01*
X-10605480Y-6457082D01*
X-10613529Y-6453705D01*
X-10632630Y-6445793D01*
X-10755282Y-6402839D01*
X-10881636Y-6365484D01*
X-11010981Y-6333761D01*
X-11142603Y-6307699D01*
X-11275791Y-6287333D01*
X-11409830Y-6272693D01*
X-11544008Y-6263812D01*
X-11677612Y-6260722D01*
X-11809930Y-6263453D01*
X-11940249Y-6272039D01*
X-12067856Y-6286510D01*
X-12192038Y-6306900D01*
X-12312083Y-6333240D01*
X-12427276Y-6365561D01*
X-12536908Y-6403896D01*
X-12640262Y-6448277D01*
X-12683412Y-6472737D01*
X-12725213Y-6497745D01*
X-12765666Y-6523300D01*
X-12804770Y-6549405D01*
X-12842524Y-6576060D01*
X-12878927Y-6603266D01*
X-12913978Y-6631025D01*
X-12947677Y-6659337D01*
X-12980025Y-6688203D01*
X-13011018Y-6717625D01*
X-13040658Y-6747603D01*
X-13068943Y-6778139D01*
X-13095872Y-6809233D01*
X-13121445Y-6840886D01*
X-13145661Y-6873101D01*
X-13168520Y-6905877D01*
X-12340691Y-7248775D01*
X-12310952Y-7219124D01*
X-12280501Y-7190365D01*
X-12249330Y-7162563D01*
X-12217436Y-7135788D01*
X-12184809Y-7110103D01*
X-12151448Y-7085579D01*
X-12117343Y-7062281D01*
X-12082492Y-7040277D01*
X-12046887Y-7019634D01*
X-12010522Y-7000420D01*
X-11973393Y-6982701D01*
X-11935493Y-6966543D01*
X-11896817Y-6952016D01*
X-11857359Y-6939186D01*
X-11817113Y-6928120D01*
X-11776074Y-6918885D01*
X-11707252Y-6907229D01*
X-11639155Y-6899299D01*
X-11571911Y-6894844D01*
X-11505648Y-6893615D01*
X-11440494Y-6895359D01*
X-11376574Y-6899827D01*
X-11314018Y-6906767D01*
X-11252952Y-6915927D01*
X-11193503Y-6927057D01*
X-11135799Y-6939908D01*
X-11079969Y-6954226D01*
X-11026138Y-6969762D01*
X-10974434Y-6986264D01*
X-10924985Y-7003481D01*
X-10833358Y-7039060D01*
X-10783249Y-7060822D01*
X-10733781Y-7084157D01*
X-10684857Y-7108845D01*
X-10636377Y-7134671D01*
X-10588241Y-7161414D01*
X-10540350Y-7188857D01*
X-10444908Y-7244972D01*
X-10382248Y-7289673D01*
X-10319784Y-7338068D01*
X-10258219Y-7389933D01*
X-10198252Y-7445041D01*
X-10140583Y-7503167D01*
X-10085913Y-7564084D01*
X-10034944Y-7627566D01*
X-9988375Y-7693386D01*
X-9946906Y-7761319D01*
X-9911238Y-7831139D01*
X-9882072Y-7902620D01*
X-9870147Y-7938913D01*
X-9860109Y-7975536D01*
X-9852047Y-8012461D01*
X-9846048Y-8049659D01*
X-9842201Y-8087103D01*
X-9840591Y-8124765D01*
X-9841307Y-8162616D01*
X-9844437Y-8200627D01*
X-9850068Y-8238771D01*
X-9858288Y-8277020D01*
X-9864281Y-8309844D01*
X-9873115Y-8344414D01*
X-9885147Y-8380315D01*
X-9900734Y-8417134D01*
X-9920229Y-8454456D01*
X-9931554Y-8473176D01*
X-9943991Y-8491868D01*
X-9957583Y-8510479D01*
X-9972373Y-8528957D01*
X-9988410Y-8547250D01*
X-10005735Y-8565308D01*
X-10024394Y-8583077D01*
X-10044431Y-8600507D01*
X-10065889Y-8617545D01*
X-10088816Y-8634141D01*
X-10113254Y-8650241D01*
X-10139247Y-8665795D01*
X-10166842Y-8680751D01*
X-10196081Y-8695057D01*
X-10227010Y-8708662D01*
X-10259673Y-8721512D01*
X-10294114Y-8733558D01*
X-10330378Y-8744746D01*
X-10368511Y-8755027D01*
X-10408555Y-8764346D01*
X-10450556Y-8772654D01*
X-10494558Y-8779898D01*
X-10592677Y-8792203D01*
X-10689393Y-8801117D01*
X-10784797Y-8806866D01*
X-10878986Y-8809676D01*
X-10972052Y-8809773D01*
X-11064089Y-8807382D01*
X-11155193Y-8802730D01*
X-11245456Y-8796043D01*
X-11423835Y-8777465D01*
X-11599981Y-8753456D01*
X-11774643Y-8725825D01*
X-11948575Y-8696377D01*
X-12008674Y-8680902D01*
X-12067868Y-8667677D01*
X-12126288Y-8656376D01*
X-12184058Y-8646674D01*
X-12241308Y-8638251D01*
X-12298165Y-8630778D01*
X-12411216Y-8617395D01*
X-12443306Y-8610172D01*
X-12485359Y-8602631D01*
X-12536564Y-8595207D01*
X-12596110Y-8588334D01*
X-12663186Y-8582443D01*
X-12736979Y-8577969D01*
X-12816679Y-8575344D01*
X-12901474Y-8575003D01*
X-12990554Y-8577378D01*
X-13083106Y-8582902D01*
X-13178319Y-8592010D01*
X-13275382Y-8605134D01*
X-13373483Y-8622708D01*
X-13471811Y-8645164D01*
X-13569555Y-8672936D01*
X-13617955Y-8688951D01*
X-13665903Y-8706457D01*
X-14263071Y-8706457D01*
X-14210847Y-8661025D01*
X-14151995Y-8614907D01*
X-14091383Y-8572255D01*
X-14029196Y-8532949D01*
X-13965621Y-8496871D01*
X-13900842Y-8463903D01*
X-13835048Y-8433926D01*
X-13768422Y-8406822D01*
X-13701153Y-8382472D01*
X-13565425Y-8341561D01*
X-13429353Y-8310243D01*
X-13294426Y-8287572D01*
X-13162131Y-8272598D01*
X-13033960Y-8264374D01*
X-12911398Y-8261952D01*
X-12795936Y-8264384D01*
X-12689061Y-8270720D01*
X-12592265Y-8280014D01*
X-12507033Y-8291316D01*
X-12434855Y-8303680D01*
X-12377221Y-8316156D01*
X-11886609Y-8384092D01*
X-11722644Y-8416720D01*
X-11557926Y-8446283D01*
X-11392444Y-8471460D01*
X-11226192Y-8490927D01*
X-11142775Y-8498106D01*
X-11059161Y-8503363D01*
X-10975351Y-8506530D01*
X-10891343Y-8507444D01*
X-10807136Y-8505938D01*
X-10722729Y-8501848D01*
X-10638120Y-8495007D01*
X-10553310Y-8485252D01*
X-10521757Y-8480661D01*
X-10489906Y-8474673D01*
X-10458005Y-8467250D01*
X-10426301Y-8458355D01*
X-10395040Y-8447951D01*
X-10364472Y-8435998D01*
X-10334843Y-8422459D01*
X-10306400Y-8407298D01*
X-10279391Y-8390476D01*
X-10266502Y-8381430D01*
X-10254063Y-8371955D01*
X-10242107Y-8362046D01*
X-10230664Y-8351698D01*
X-10219764Y-8340907D01*
X-10209441Y-8329668D01*
X-10199723Y-8317976D01*
X-10190641Y-8305827D01*
X-10182227Y-8293214D01*
X-10174512Y-8280135D01*
X-10167526Y-8266585D01*
X-10161300Y-8252558D01*
X-10155867Y-8238050D01*
X-10151255Y-8223056D01*
X-10146804Y-8199758D01*
X-10144131Y-8176133D01*
X-10143179Y-8152216D01*
X-10143892Y-8128041D01*
X-10146216Y-8103645D01*
X-10150093Y-8079062D01*
X-10155471Y-8054328D01*
X-10162292Y-8029480D01*
X-10170498Y-8004550D01*
X-10180038Y-7979576D01*
X-10190853Y-7954591D01*
X-10202889Y-7929632D01*
X-10216088Y-7904734D01*
X-10230399Y-7879933D01*
X-10245761Y-7855262D01*
X-10262121Y-7830759D01*
X-10297612Y-7782392D01*
X-10336424Y-7735118D01*
X-10378114Y-7689217D01*
X-10422236Y-7644971D01*
X-10468342Y-7602665D01*
X-10515990Y-7562578D01*
X-10564733Y-7524995D01*
X-10614126Y-7490199D01*
X-10654920Y-7465831D01*
X-10696319Y-7443069D01*
X-10738242Y-7421682D01*
X-10780602Y-7401440D01*
X-10823317Y-7382111D01*
X-10866303Y-7363466D01*
X-10952753Y-7327303D01*
X-10996422Y-7309768D01*
X-11040853Y-7293086D01*
X-11085966Y-7277388D01*
X-11131682Y-7262804D01*
X-11177920Y-7249463D01*
X-11224602Y-7237497D01*
X-11271645Y-7227034D01*
X-11318972Y-7218204D01*
X-11366502Y-7211138D01*
X-11414155Y-7205965D01*
X-11461851Y-7202816D01*
X-11509510Y-7201820D01*
X-11557054Y-7203108D01*
X-11604400Y-7206808D01*
X-11651470Y-7213051D01*
X-11698183Y-7221968D01*
X-11738995Y-7230959D01*
X-11778428Y-7241605D01*
X-11816549Y-7253911D01*
X-11853431Y-7267885D01*
X-11889143Y-7283530D01*
X-11923756Y-7300853D01*
X-11957338Y-7319860D01*
X-11989961Y-7340556D01*
X-12021694Y-7362945D01*
X-12052610Y-7387035D01*
X-12082774Y-7412831D01*
X-12112260Y-7440338D01*
X-12141137Y-7469562D01*
X-12169476Y-7500508D01*
X-12197345Y-7533183D01*
X-12224816Y-7567592D01*
X-12248730Y-7625326D01*
X-13576425Y-7075377D01*
X-13544599Y-6998542D01*
X-13519601Y-6933020D01*
X-13491249Y-6869447D01*
X-13459612Y-6807828D01*
X-13424757Y-6748170D01*
X-13386752Y-6690481D01*
X-13345666Y-6634766D01*
X-13301565Y-6581031D01*
X-13254518Y-6529283D01*
X-13204593Y-6479530D01*
X-13151858Y-6431777D01*
X-13096380Y-6386031D01*
X-13038228Y-6342298D01*
X-12977469Y-6300585D01*
X-12914170Y-6260899D01*
X-12848402Y-6223245D01*
X-12780230Y-6187631D01*
X-12660316Y-6133713D01*
X-12534432Y-6086797D01*
X-12403254Y-6046901D01*
X-12267446Y-6014044D01*
X-12127682Y-5988248D01*
X-11984632Y-5969530D01*
X-11838967Y-5957910D01*
X-11691356Y-5953409D01*
X-11542470Y-5956046D01*
G37*
G36*
X-13175216Y-9698759D02*
G01*
X-13204370Y-9722884D01*
X-13230395Y-9748751D01*
X-13253359Y-9776250D01*
X-13273327Y-9805271D01*
X-13290364Y-9835704D01*
X-13304538Y-9867440D01*
X-13315911Y-9900367D01*
X-13324552Y-9934378D01*
X-13330526Y-9969360D01*
X-13333898Y-10005205D01*
X-13334735Y-10041803D01*
X-13333102Y-10079045D01*
X-13329065Y-10116818D01*
X-13322689Y-10155016D01*
X-13314040Y-10193527D01*
X-13303185Y-10232240D01*
X-13290188Y-10271048D01*
X-13275116Y-10309839D01*
X-13258034Y-10348504D01*
X-13239009Y-10386932D01*
X-13218105Y-10425015D01*
X-13195390Y-10462641D01*
X-13170928Y-10499702D01*
X-13144784Y-10536086D01*
X-13117026Y-10571685D01*
X-13087719Y-10606390D01*
X-13056928Y-10640088D01*
X-13024720Y-10672671D01*
X-12991160Y-10704028D01*
X-12956313Y-10734050D01*
X-12920246Y-10762629D01*
X-12883024Y-10789651D01*
X-12752588Y-10876098D01*
X-12616779Y-10953453D01*
X-12476837Y-11020969D01*
X-12334006Y-11077896D01*
X-12189527Y-11123491D01*
X-12044643Y-11157004D01*
X-11900594Y-11177687D01*
X-11758623Y-11184796D01*
X-11688806Y-11183025D01*
X-11619973Y-11177581D01*
X-11552281Y-11168368D01*
X-11485885Y-11155295D01*
X-11420939Y-11138268D01*
X-11357599Y-11117192D01*
X-11296022Y-11091975D01*
X-11236360Y-11062525D01*
X-11178772Y-11028745D01*
X-11123409Y-10990546D01*
X-11070430Y-10947829D01*
X-11019988Y-10900506D01*
X-10972239Y-10848481D01*
X-10927338Y-10791661D01*
X-10885440Y-10729952D01*
X-10846702Y-10663261D01*
X-9576522Y-11189387D01*
X-9610016Y-11288720D01*
X-9647826Y-11384346D01*
X-9689840Y-11476240D01*
X-9735950Y-11564377D01*
X-9786046Y-11648731D01*
X-9840018Y-11729279D01*
X-9897758Y-11805997D01*
X-9959154Y-11878858D01*
X-10024099Y-11947839D01*
X-10092482Y-12012915D01*
X-10164194Y-12074061D01*
X-10239126Y-12131252D01*
X-10317168Y-12184465D01*
X-10398210Y-12233674D01*
X-10482143Y-12278854D01*
X-10568859Y-12319981D01*
X-10658246Y-12357030D01*
X-10750195Y-12389978D01*
X-10844598Y-12418797D01*
X-10941344Y-12443465D01*
X-11040325Y-12463956D01*
X-11141430Y-12480246D01*
X-11244550Y-12492310D01*
X-11349577Y-12500124D01*
X-11456398Y-12503662D01*
X-11564907Y-12502901D01*
X-11674993Y-12497815D01*
X-11786546Y-12488379D01*
X-11899459Y-12474569D01*
X-12013619Y-12456361D01*
X-12128919Y-12433730D01*
X-12245248Y-12406650D01*
X-12472851Y-12338395D01*
X-12557746Y-12311230D01*
X-12636542Y-12283955D01*
X-12719119Y-12253003D01*
X-12815358Y-12214810D01*
X-13088341Y-12102439D01*
X-13229710Y-12036713D01*
X-13364501Y-11967912D01*
X-13492753Y-11896170D01*
X-13614505Y-11821619D01*
X-13729795Y-11744392D01*
X-13838662Y-11664621D01*
X-13941145Y-11582440D01*
X-14037280Y-11497981D01*
X-14127110Y-11411377D01*
X-14210671Y-11322760D01*
X-14288002Y-11232264D01*
X-14359142Y-11140022D01*
X-14424128Y-11046166D01*
X-14483002Y-10950829D01*
X-14535800Y-10854143D01*
X-14582563Y-10756243D01*
X-14623326Y-10657259D01*
X-14658131Y-10557325D01*
X-14687015Y-10456576D01*
X-14710017Y-10355141D01*
X-14727176Y-10253155D01*
X-14738530Y-10150751D01*
X-14744119Y-10048061D01*
X-14743981Y-9945217D01*
X-14738153Y-9842353D01*
X-14726676Y-9739602D01*
X-14709588Y-9637096D01*
X-14686926Y-9534968D01*
X-14658732Y-9433352D01*
X-14625042Y-9332379D01*
X-14585895Y-9232182D01*
X-14541331Y-9132895D01*
X-13175216Y-9698759D01*
G37*
G36*
X-6143767Y-8237481D02*
G01*
X-6446658Y-8968723D01*
X-6393588Y-8924653D01*
X-6339783Y-8883916D01*
X-6285194Y-8846401D01*
X-6229777Y-8811996D01*
X-6173483Y-8780590D01*
X-6116265Y-8752071D01*
X-6058077Y-8726328D01*
X-5998872Y-8703250D01*
X-5938602Y-8682727D01*
X-5877222Y-8664645D01*
X-5814684Y-8648893D01*
X-5750942Y-8635362D01*
X-5685948Y-8623939D01*
X-5619656Y-8614512D01*
X-5552019Y-8606971D01*
X-5482989Y-8601203D01*
X-5408271Y-8595467D01*
X-5333560Y-8592334D01*
X-5258847Y-8591776D01*
X-5184120Y-8593765D01*
X-5109369Y-8598272D01*
X-5034583Y-8605267D01*
X-4959752Y-8614722D01*
X-4884867Y-8626608D01*
X-4809915Y-8640897D01*
X-4734888Y-8657559D01*
X-4659773Y-8676566D01*
X-4584562Y-8697888D01*
X-4509243Y-8721498D01*
X-4433805Y-8747365D01*
X-4358239Y-8775462D01*
X-4282535Y-8805759D01*
X-4199991Y-8841275D01*
X-4118430Y-8879057D01*
X-4037890Y-8919124D01*
X-3958410Y-8961489D01*
X-3880027Y-9006169D01*
X-3802781Y-9053185D01*
X-3726709Y-9102550D01*
X-3651853Y-9154282D01*
X-3578249Y-9208398D01*
X-3505936Y-9264914D01*
X-3434953Y-9323846D01*
X-3365338Y-9385213D01*
X-3297130Y-9449031D01*
X-3230368Y-9515318D01*
X-3165090Y-9584087D01*
X-3101335Y-9655358D01*
X-3039608Y-9728960D01*
X-2980427Y-9804694D01*
X-2923844Y-9882538D01*
X-2869915Y-9962467D01*
X-2818693Y-10044457D01*
X-2770232Y-10128485D01*
X-2724587Y-10214524D01*
X-2681812Y-10302555D01*
X-2641960Y-10392550D01*
X-2605087Y-10484487D01*
X-2571246Y-10578342D01*
X-2540491Y-10674090D01*
X-2512878Y-10771709D01*
X-2488459Y-10871173D01*
X-2467289Y-10972460D01*
X-2449422Y-11075544D01*
X-2430259Y-11177812D01*
X-2415160Y-11280994D01*
X-2404115Y-11385063D01*
X-2397113Y-11489989D01*
X-2394147Y-11595746D01*
X-2395205Y-11702306D01*
X-2400280Y-11809641D01*
X-2409359Y-11917722D01*
X-2422435Y-12026525D01*
X-2439498Y-12136018D01*
X-2460538Y-12246177D01*
X-2485545Y-12356972D01*
X-2514510Y-12468376D01*
X-2547423Y-12580362D01*
X-2584275Y-12692901D01*
X-2625057Y-12805966D01*
X-2633460Y-12825623D01*
X-2658868Y-12885059D01*
X-2694370Y-12963152D01*
X-2731475Y-13040026D01*
X-2770101Y-13115463D01*
X-2810164Y-13189245D01*
X-2851578Y-13261152D01*
X-2894259Y-13330968D01*
X-2938123Y-13398473D01*
X-2962038Y-13456208D01*
X-4309485Y-12898077D01*
X-4250070Y-12809274D01*
X-4215656Y-12764406D01*
X-4183035Y-12718796D01*
X-4152211Y-12672441D01*
X-4123183Y-12625343D01*
X-4095957Y-12577497D01*
X-4070535Y-12528905D01*
X-4046919Y-12479565D01*
X-4025110Y-12429476D01*
X-4002036Y-12371854D01*
X-3980669Y-12314530D01*
X-3960986Y-12257444D01*
X-3942964Y-12200538D01*
X-3926578Y-12143755D01*
X-3911803Y-12087037D01*
X-3898618Y-12030324D01*
X-3886995Y-11973560D01*
X-3876912Y-11916684D01*
X-3868345Y-11859641D01*
X-3861269Y-11802371D01*
X-3855661Y-11744816D01*
X-3851495Y-11686918D01*
X-3848749Y-11628619D01*
X-3847398Y-11569860D01*
X-3847418Y-11510585D01*
X-3854104Y-11453460D01*
X-3862495Y-11396701D01*
X-3872576Y-11340350D01*
X-3884330Y-11284447D01*
X-3897744Y-11229035D01*
X-3912800Y-11174154D01*
X-3929485Y-11119845D01*
X-3947782Y-11066151D01*
X-3967678Y-11013113D01*
X-3989155Y-10960771D01*
X-4012200Y-10909167D01*
X-4036796Y-10858343D01*
X-4062929Y-10808339D01*
X-4090582Y-10759198D01*
X-4119742Y-10710960D01*
X-4150393Y-10663666D01*
X-4184764Y-10612743D01*
X-4220996Y-10563656D01*
X-4259101Y-10516368D01*
X-4299094Y-10470837D01*
X-4340993Y-10427027D01*
X-4384810Y-10384894D01*
X-4430562Y-10344404D01*
X-4478262Y-10305513D01*
X-4527926Y-10268184D01*
X-4579569Y-10232378D01*
X-4633206Y-10198054D01*
X-4688852Y-10165173D01*
X-4746522Y-10133697D01*
X-4806231Y-10103585D01*
X-4867993Y-10074799D01*
X-4931825Y-10047299D01*
X-4986137Y-10025857D01*
X-5040738Y-10006405D01*
X-5095629Y-9988944D01*
X-5150812Y-9973474D01*
X-5206287Y-9959993D01*
X-5262055Y-9948502D01*
X-5318118Y-9939002D01*
X-5374477Y-9931491D01*
X-5431133Y-9925970D01*
X-5488086Y-9922440D01*
X-5545340Y-9920898D01*
X-5602891Y-9921347D01*
X-5660745Y-9923785D01*
X-5718901Y-9928212D01*
X-5777360Y-9934629D01*
X-5836123Y-9943037D01*
X-5894731Y-9953318D01*
X-5952963Y-9965357D01*
X-6010757Y-9979176D01*
X-6068056Y-9994797D01*
X-6124801Y-10012241D01*
X-6180933Y-10031531D01*
X-6236392Y-10052690D01*
X-6291121Y-10075739D01*
X-6345059Y-10100701D01*
X-6398148Y-10127597D01*
X-6450329Y-10156450D01*
X-6501543Y-10187282D01*
X-6551731Y-10220117D01*
X-6600834Y-10254974D01*
X-6648793Y-10291878D01*
X-6695549Y-10330850D01*
X-6743045Y-10366458D01*
X-6788919Y-10403256D01*
X-6833172Y-10441248D01*
X-6875805Y-10480432D01*
X-6916818Y-10520811D01*
X-6956212Y-10562384D01*
X-6993988Y-10605154D01*
X-7030145Y-10649118D01*
X-7064687Y-10694282D01*
X-7097612Y-10740642D01*
X-7128921Y-10788201D01*
X-7158616Y-10836960D01*
X-7186697Y-10886919D01*
X-7213164Y-10938080D01*
X-7238018Y-10990444D01*
X-7261261Y-11044008D01*
X-7284223Y-11101979D01*
X-7305303Y-11160484D01*
X-7324401Y-11219298D01*
X-7341416Y-11278194D01*
X-7356250Y-11336944D01*
X-7368802Y-11395322D01*
X-7378972Y-11453102D01*
X-7386662Y-11510055D01*
X-7407658Y-11614771D01*
X-8754673Y-11056820D01*
X-8689135Y-10898598D01*
X-8373562Y-10898598D01*
X-7642535Y-11201399D01*
X-7531053Y-10932257D01*
X-7504714Y-10871235D01*
X-7476560Y-10811020D01*
X-7446573Y-10751648D01*
X-7414735Y-10693156D01*
X-7381030Y-10635584D01*
X-7345439Y-10578967D01*
X-7307945Y-10523343D01*
X-7268529Y-10468750D01*
X-7227175Y-10415225D01*
X-7183865Y-10362805D01*
X-7138581Y-10311529D01*
X-7091306Y-10261433D01*
X-7042021Y-10212556D01*
X-6990710Y-10164934D01*
X-6937356Y-10118605D01*
X-6881938Y-10073607D01*
X-6826574Y-10033706D01*
X-6770252Y-9995313D01*
X-6712997Y-9958485D01*
X-6654831Y-9923281D01*
X-6595780Y-9889758D01*
X-6535863Y-9857975D01*
X-6475105Y-9827989D01*
X-6413529Y-9799861D01*
X-6351157Y-9773647D01*
X-6288014Y-9749407D01*
X-6224122Y-9727198D01*
X-6159503Y-9707078D01*
X-6094181Y-9689106D01*
X-6028179Y-9673339D01*
X-5961520Y-9659838D01*
X-5894227Y-9648659D01*
X-5825299Y-9636406D01*
X-5756583Y-9627185D01*
X-5688086Y-9620929D01*
X-5619813Y-9617566D01*
X-5551769Y-9617026D01*
X-5483960Y-9619241D01*
X-5416393Y-9624140D01*
X-5349072Y-9631653D01*
X-5282003Y-9641712D01*
X-5215194Y-9654245D01*
X-5148647Y-9669182D01*
X-5082370Y-9686456D01*
X-5016368Y-9705994D01*
X-4950648Y-9727729D01*
X-4885214Y-9751590D01*
X-4820073Y-9777506D01*
X-4745510Y-9809705D01*
X-4673211Y-9843576D01*
X-4603161Y-9879090D01*
X-4535356Y-9916219D01*
X-4469782Y-9954937D01*
X-4406430Y-9995213D01*
X-4345292Y-10037021D01*
X-4286357Y-10080332D01*
X-4229615Y-10125119D01*
X-4175057Y-10171353D01*
X-4122674Y-10219006D01*
X-4072453Y-10268051D01*
X-4024388Y-10318460D01*
X-3978468Y-10370202D01*
X-3934683Y-10423254D01*
X-3893023Y-10477585D01*
X-3854976Y-10536386D01*
X-3819279Y-10595810D01*
X-3785902Y-10655866D01*
X-3754815Y-10716566D01*
X-3725986Y-10777920D01*
X-3699385Y-10839939D01*
X-3674982Y-10902633D01*
X-3652746Y-10966016D01*
X-3632645Y-11030094D01*
X-3614652Y-11094882D01*
X-3598733Y-11160388D01*
X-3584859Y-11226623D01*
X-3573000Y-11293600D01*
X-3563124Y-11361328D01*
X-3555202Y-11429818D01*
X-3549202Y-11499080D01*
X-3548551Y-11567057D01*
X-3549303Y-11634503D01*
X-3551511Y-11701464D01*
X-3555227Y-11767988D01*
X-3560501Y-11834121D01*
X-3567386Y-11899909D01*
X-3575934Y-11965400D01*
X-3586196Y-12030640D01*
X-3598225Y-12095676D01*
X-3612070Y-12160554D01*
X-3627785Y-12225322D01*
X-3645422Y-12290026D01*
X-3665032Y-12354714D01*
X-3686667Y-12419431D01*
X-3710378Y-12484223D01*
X-3736217Y-12549140D01*
X-3760403Y-12606675D01*
X-3773069Y-12635226D01*
X-3786416Y-12663500D01*
X-3800669Y-12691401D01*
X-3808205Y-12705179D01*
X-3816052Y-12718827D01*
X-3824237Y-12732330D01*
X-3832789Y-12745680D01*
X-3841735Y-12758861D01*
X-3851104Y-12771861D01*
X-3100761Y-13082663D01*
X-3044893Y-12987910D01*
X-3017756Y-12940858D01*
X-2991577Y-12894197D01*
X-2966674Y-12848056D01*
X-2943366Y-12802564D01*
X-2921973Y-12757853D01*
X-2902814Y-12714053D01*
X-2868311Y-12607073D01*
X-2837006Y-12501371D01*
X-2808917Y-12396905D01*
X-2784059Y-12293637D01*
X-2762454Y-12191527D01*
X-2744117Y-12090536D01*
X-2729067Y-11990624D01*
X-2717322Y-11891749D01*
X-2708898Y-11793873D01*
X-2703815Y-11696957D01*
X-2702089Y-11600961D01*
X-2703739Y-11505844D01*
X-2708782Y-11411567D01*
X-2717237Y-11318089D01*
X-2729121Y-11225373D01*
X-2744450Y-11133377D01*
X-2762673Y-11042320D01*
X-2783462Y-10952392D01*
X-2806809Y-10863662D01*
X-2832706Y-10776199D01*
X-2861147Y-10690069D01*
X-2892123Y-10605340D01*
X-2925627Y-10522081D01*
X-2961651Y-10440360D01*
X-3000187Y-10360243D01*
X-3041229Y-10281801D01*
X-3084768Y-10205099D01*
X-3130797Y-10130208D01*
X-3179307Y-10057193D01*
X-3230293Y-9986123D01*
X-3283745Y-9917068D01*
X-3339656Y-9850093D01*
X-3397357Y-9785179D01*
X-3456022Y-9722517D01*
X-3515680Y-9662094D01*
X-3576359Y-9603900D01*
X-3638084Y-9547919D01*
X-3700884Y-9494143D01*
X-3764785Y-9442559D01*
X-3829817Y-9393152D01*
X-3896005Y-9345913D01*
X-3963378Y-9300830D01*
X-4031963Y-9257888D01*
X-4101785Y-9217078D01*
X-4172875Y-9178386D01*
X-4245259Y-9141800D01*
X-4318964Y-9107310D01*
X-4394018Y-9074902D01*
X-4459147Y-9048979D01*
X-4524534Y-9025060D01*
X-4590150Y-9003157D01*
X-4655969Y-8983280D01*
X-4721966Y-8965441D01*
X-4788112Y-8949652D01*
X-4854382Y-8935924D01*
X-4920749Y-8924268D01*
X-4987187Y-8914696D01*
X-5053668Y-8907218D01*
X-5120166Y-8901848D01*
X-5186655Y-8898594D01*
X-5253109Y-8897470D01*
X-5319499Y-8898486D01*
X-5385801Y-8901655D01*
X-5451986Y-8906987D01*
X-5494373Y-8909726D01*
X-5543779Y-8915517D01*
X-5598928Y-8923996D01*
X-5658548Y-8934800D01*
X-5786105Y-8961934D01*
X-5916260Y-8994017D01*
X-6038824Y-9028146D01*
X-6143608Y-9061423D01*
X-6186148Y-9076835D01*
X-6220422Y-9090945D01*
X-6245156Y-9103390D01*
X-6259077Y-9113809D01*
X-6936282Y-9442326D01*
X-6732366Y-8895389D01*
X-6525045Y-8394871D01*
X-7217651Y-8107983D01*
X-8373562Y-10898598D01*
X-8689135Y-10898598D01*
X-7375528Y-7727270D01*
X-6143767Y-8237481D01*
G37*
G36*
X522470Y-10976084D02*
G01*
X219580Y-11707325D01*
X269406Y-11662203D01*
X320643Y-11621114D01*
X373287Y-11583827D01*
X427332Y-11550111D01*
X482774Y-11519737D01*
X539608Y-11492473D01*
X597828Y-11468087D01*
X657429Y-11446352D01*
X718407Y-11427032D01*
X780757Y-11409900D01*
X844473Y-11394725D01*
X909551Y-11381275D01*
X975985Y-11369320D01*
X1043771Y-11358629D01*
X1183378Y-11340114D01*
X1258402Y-11334459D01*
X1333799Y-11331572D01*
X1409524Y-11331398D01*
X1485531Y-11333888D01*
X1561774Y-11338989D01*
X1638210Y-11346647D01*
X1714794Y-11356812D01*
X1791479Y-11369430D01*
X1868223Y-11384450D01*
X1944978Y-11401820D01*
X2021700Y-11421486D01*
X2098343Y-11443399D01*
X2174865Y-11467503D01*
X2251217Y-11493749D01*
X2327357Y-11522083D01*
X2403237Y-11552454D01*
X2485663Y-11588175D01*
X2566984Y-11626576D01*
X2647211Y-11667628D01*
X2726357Y-11711302D01*
X2804434Y-11757570D01*
X2881453Y-11806403D01*
X2957424Y-11857771D01*
X3032361Y-11911646D01*
X3106274Y-11968000D01*
X3179174Y-12026804D01*
X3251075Y-12088028D01*
X3321986Y-12151646D01*
X3391920Y-12217627D01*
X3460888Y-12285942D01*
X3528900Y-12356563D01*
X3595971Y-12429461D01*
X3657634Y-12503031D01*
X3716812Y-12578726D01*
X3773489Y-12656503D01*
X3827649Y-12736323D01*
X3879274Y-12818142D01*
X3928349Y-12901922D01*
X3974855Y-12987617D01*
X4018779Y-13075189D01*
X4060101Y-13164595D01*
X4098805Y-13255793D01*
X4134876Y-13348743D01*
X4168296Y-13443401D01*
X4199049Y-13539729D01*
X4227118Y-13637682D01*
X4252487Y-13737222D01*
X4275137Y-13838304D01*
X4290931Y-13939099D01*
X4303083Y-14041037D01*
X4311595Y-14144117D01*
X4316466Y-14248340D01*
X4317698Y-14353705D01*
X4315290Y-14460210D01*
X4309242Y-14567855D01*
X4299555Y-14676641D01*
X4286228Y-14786564D01*
X4269263Y-14897626D01*
X4248659Y-15009825D01*
X4224417Y-15123161D01*
X4196536Y-15237633D01*
X4165018Y-15353242D01*
X4129862Y-15469985D01*
X4091068Y-15587862D01*
X4059866Y-15660640D01*
X4026325Y-15733966D01*
X3990625Y-15807405D01*
X3952946Y-15880522D01*
X3913469Y-15952882D01*
X3872373Y-16024050D01*
X3829839Y-16093591D01*
X3786046Y-16161071D01*
X3734899Y-16230158D01*
X2388038Y-15672270D01*
X2447236Y-15583377D01*
X2481994Y-15537679D01*
X2515521Y-15489881D01*
X2547628Y-15440432D01*
X2578123Y-15389786D01*
X2606818Y-15338395D01*
X2633521Y-15286709D01*
X2658044Y-15235181D01*
X2680196Y-15184262D01*
X2701946Y-15129826D01*
X2722287Y-15074883D01*
X2741171Y-15019477D01*
X2758544Y-14963651D01*
X2774356Y-14907449D01*
X2788558Y-14850912D01*
X2801098Y-14794087D01*
X2811925Y-14737014D01*
X2820987Y-14679739D01*
X2828237Y-14622305D01*
X2833621Y-14564753D01*
X2837089Y-14507130D01*
X2838590Y-14449477D01*
X2838075Y-14391837D01*
X2835491Y-14334256D01*
X2830788Y-14276775D01*
X2828791Y-14217609D01*
X2824476Y-14159053D01*
X2817870Y-14101121D01*
X2808999Y-14043823D01*
X2797892Y-13987177D01*
X2784573Y-13931192D01*
X2769072Y-13875884D01*
X2751413Y-13821266D01*
X2731624Y-13767351D01*
X2709733Y-13714153D01*
X2685765Y-13661684D01*
X2659748Y-13609959D01*
X2631709Y-13558990D01*
X2601674Y-13508791D01*
X2569670Y-13459376D01*
X2535724Y-13410757D01*
X2499888Y-13363166D01*
X2462384Y-13317000D01*
X2423183Y-13272246D01*
X2382254Y-13228891D01*
X2339571Y-13186923D01*
X2295101Y-13146330D01*
X2248816Y-13107098D01*
X2200688Y-13069216D01*
X2150685Y-13032670D01*
X2098779Y-12997449D01*
X2044941Y-12963538D01*
X1989140Y-12930927D01*
X1931349Y-12899602D01*
X1871536Y-12869551D01*
X1809672Y-12840761D01*
X1745730Y-12813220D01*
X1691274Y-12791719D01*
X1636121Y-12772039D01*
X1580327Y-12754204D01*
X1523951Y-12738239D01*
X1467049Y-12724167D01*
X1409680Y-12712014D01*
X1351901Y-12701803D01*
X1293770Y-12693559D01*
X1235346Y-12687304D01*
X1176684Y-12683066D01*
X1117845Y-12680868D01*
X1058883Y-12680733D01*
X999859Y-12682686D01*
X940828Y-12686751D01*
X881850Y-12692952D01*
X822982Y-12701316D01*
X764226Y-12711531D01*
X705862Y-12723477D01*
X647931Y-12737136D01*
X590471Y-12752487D01*
X533522Y-12769513D01*
X477121Y-12788195D01*
X421309Y-12808514D01*
X366124Y-12830450D01*
X311607Y-12853987D01*
X257795Y-12879103D01*
X204728Y-12905781D01*
X152445Y-12934002D01*
X100984Y-12963747D01*
X50386Y-12994997D01*
X688Y-13027733D01*
X-48068Y-13061936D01*
X-92329Y-13099136D01*
X-135545Y-13137746D01*
X-177667Y-13177725D01*
X-218643Y-13219027D01*
X-258425Y-13261609D01*
X-296961Y-13305428D01*
X-334202Y-13350440D01*
X-370098Y-13396601D01*
X-404597Y-13443868D01*
X-437651Y-13492196D01*
X-469209Y-13541543D01*
X-499221Y-13591864D01*
X-527638Y-13643116D01*
X-554407Y-13695255D01*
X-579480Y-13748237D01*
X-602808Y-13802020D01*
X-623174Y-13853722D01*
X-642403Y-13907749D01*
X-660396Y-13963873D01*
X-677056Y-14021866D01*
X-692287Y-14081501D01*
X-705990Y-14142549D01*
X-718069Y-14204783D01*
X-728426Y-14267975D01*
X-749205Y-14372781D01*
X-2134638Y-13798916D01*
X-2064376Y-13629288D01*
X-1726424Y-13629288D01*
X-975648Y-13940270D01*
X-972952Y-13924255D01*
X-969674Y-13908016D01*
X-965862Y-13891600D01*
X-961570Y-13875052D01*
X-951748Y-13841739D01*
X-940621Y-13808436D01*
X-928597Y-13775505D01*
X-916089Y-13743304D01*
X-891268Y-13682536D01*
X-863327Y-13618242D01*
X-833392Y-13555347D01*
X-801531Y-13493855D01*
X-767810Y-13433769D01*
X-732299Y-13375093D01*
X-695064Y-13317831D01*
X-656173Y-13261982D01*
X-615695Y-13207555D01*
X-573694Y-13154549D01*
X-530242Y-13102969D01*
X-485404Y-13052818D01*
X-439248Y-13004100D01*
X-391843Y-12956817D01*
X-343255Y-12910973D01*
X-293552Y-12866571D01*
X-242802Y-12823615D01*
X-185865Y-12780547D01*
X-127904Y-12739964D01*
X-68952Y-12701785D01*
X-9044Y-12665928D01*
X51787Y-12632313D01*
X113506Y-12600859D01*
X176078Y-12571483D01*
X239470Y-12544105D01*
X303647Y-12518643D01*
X368575Y-12495018D01*
X434221Y-12473147D01*
X500550Y-12452948D01*
X567527Y-12434342D01*
X635120Y-12417246D01*
X703292Y-12401580D01*
X772012Y-12387262D01*
X843135Y-12379650D01*
X913943Y-12374074D01*
X984426Y-12370558D01*
X1054569Y-12369130D01*
X1124363Y-12369815D01*
X1193791Y-12372640D01*
X1262845Y-12377630D01*
X1331511Y-12384813D01*
X1399777Y-12394213D01*
X1467630Y-12405858D01*
X1535058Y-12419774D01*
X1602049Y-12435986D01*
X1668591Y-12454521D01*
X1734669Y-12475406D01*
X1800274Y-12498665D01*
X1865393Y-12524326D01*
X1940062Y-12556573D01*
X2012431Y-12590503D01*
X2082504Y-12626119D01*
X2150281Y-12663425D01*
X2215763Y-12702422D01*
X2278952Y-12743112D01*
X2339847Y-12785499D01*
X2398453Y-12829584D01*
X2454767Y-12875368D01*
X2508795Y-12922857D01*
X2560534Y-12972051D01*
X2609988Y-13022953D01*
X2657156Y-13075564D01*
X2702041Y-13129889D01*
X2744644Y-13185928D01*
X2784966Y-13243685D01*
X2824568Y-13299148D01*
X2862063Y-13355830D01*
X2897433Y-13413689D01*
X2930658Y-13472684D01*
X2961723Y-13532769D01*
X2990607Y-13593906D01*
X3017294Y-13656050D01*
X3041767Y-13719159D01*
X3064007Y-13783190D01*
X3083997Y-13848102D01*
X3101717Y-13913852D01*
X3117152Y-13980397D01*
X3130283Y-14047696D01*
X3141091Y-14115705D01*
X3149560Y-14184383D01*
X3155672Y-14253686D01*
X3156199Y-14321860D01*
X3155179Y-14389875D01*
X3152596Y-14457692D01*
X3148430Y-14525272D01*
X3142664Y-14592578D01*
X3135282Y-14659569D01*
X3126265Y-14726208D01*
X3115595Y-14792457D01*
X3103256Y-14858275D01*
X3089230Y-14923626D01*
X3073498Y-14988471D01*
X3056044Y-15052770D01*
X3036851Y-15116486D01*
X3015901Y-15179580D01*
X2993175Y-15242013D01*
X2968656Y-15303746D01*
X2944432Y-15361373D01*
X2931765Y-15389928D01*
X2918423Y-15418188D01*
X2904180Y-15446064D01*
X2896650Y-15459829D01*
X2888809Y-15473463D01*
X2880629Y-15486956D01*
X2872081Y-15500295D01*
X2863137Y-15513469D01*
X2853770Y-15526467D01*
X3623929Y-15845477D01*
X3650836Y-15798472D01*
X3675607Y-15752163D01*
X3698655Y-15706185D01*
X3720400Y-15660169D01*
X3741257Y-15613749D01*
X3761639Y-15566559D01*
X3802651Y-15468396D01*
X3839003Y-15366003D01*
X3871678Y-15263722D01*
X3900707Y-15161633D01*
X3926125Y-15059816D01*
X3947962Y-14958352D01*
X3966248Y-14857319D01*
X3981018Y-14756800D01*
X3992302Y-14656873D01*
X4000131Y-14557620D01*
X4004539Y-14459120D01*
X4005556Y-14361454D01*
X4003214Y-14264701D01*
X3997546Y-14168943D01*
X3988583Y-14074258D01*
X3976356Y-13980729D01*
X3960897Y-13888432D01*
X3942568Y-13797584D01*
X3921517Y-13708257D01*
X3897772Y-13620467D01*
X3871363Y-13534222D01*
X3842318Y-13449536D01*
X3810667Y-13366418D01*
X3776439Y-13284879D01*
X3739662Y-13204933D01*
X3700367Y-13126590D01*
X3658582Y-13049861D01*
X3614336Y-12974757D01*
X3567660Y-12901290D01*
X3518580Y-12829471D01*
X3467126Y-12759312D01*
X3413328Y-12690823D01*
X3357215Y-12624016D01*
X3299374Y-12559045D01*
X3240161Y-12496156D01*
X3179608Y-12435362D01*
X3117742Y-12376675D01*
X3054593Y-12320106D01*
X2990192Y-12265667D01*
X2924567Y-12213368D01*
X2857748Y-12163222D01*
X2789765Y-12115239D01*
X2720646Y-12069431D01*
X2650422Y-12025812D01*
X2579122Y-11984389D01*
X2506776Y-11945177D01*
X2433413Y-11908186D01*
X2359063Y-11873428D01*
X2283754Y-11840913D01*
X2215383Y-11813397D01*
X2147327Y-11787661D01*
X2079560Y-11763763D01*
X2012061Y-11741757D01*
X1944808Y-11721701D01*
X1877779Y-11703650D01*
X1810951Y-11687661D01*
X1744303Y-11673791D01*
X1677812Y-11662095D01*
X1611455Y-11652632D01*
X1545211Y-11645456D01*
X1479058Y-11640623D01*
X1412972Y-11638191D01*
X1346933Y-11638215D01*
X1280916Y-11640753D01*
X1214902Y-11645859D01*
X1120673Y-11659922D01*
X1004657Y-11682048D01*
X876655Y-11710235D01*
X746466Y-11742480D01*
X623887Y-11776781D01*
X568514Y-11794077D01*
X518719Y-11811136D01*
X475726Y-11827708D01*
X440761Y-11843543D01*
X415047Y-11858389D01*
X406042Y-11865364D01*
X399811Y-11871999D01*
X-288710Y-12173197D01*
X-92578Y-11645667D01*
X114743Y-11145150D01*
X-578516Y-10857992D01*
X-1726424Y-13629288D01*
X-2064376Y-13629288D01*
X-747492Y-10450048D01*
X522470Y-10976084D01*
G37*
G36*
X-762114Y-14840433D02*
G01*
X-752709Y-14890369D01*
X-742012Y-14939736D01*
X-730011Y-14988506D01*
X-716695Y-15036653D01*
X-702049Y-15084150D01*
X-686062Y-15130969D01*
X-668721Y-15177083D01*
X-650014Y-15222465D01*
X-629930Y-15267090D01*
X-608455Y-15310930D01*
X-585579Y-15353957D01*
X-561287Y-15396145D01*
X-535568Y-15437467D01*
X-508410Y-15477896D01*
X-479801Y-15517405D01*
X-449727Y-15555967D01*
X-413979Y-15603530D01*
X-376616Y-15649662D01*
X-337665Y-15694349D01*
X-297153Y-15737581D01*
X-255107Y-15779342D01*
X-211554Y-15819620D01*
X-166520Y-15858403D01*
X-120034Y-15895676D01*
X-72122Y-15931428D01*
X-22810Y-15965644D01*
X27875Y-15998312D01*
X79903Y-16029419D01*
X133250Y-16058951D01*
X187889Y-16086897D01*
X243790Y-16113242D01*
X300931Y-16137973D01*
X351785Y-16158245D01*
X403158Y-16177145D01*
X455022Y-16194662D01*
X507352Y-16210784D01*
X560119Y-16225500D01*
X613299Y-16238797D01*
X666863Y-16250663D01*
X720784Y-16261087D01*
X775038Y-16270057D01*
X829595Y-16277561D01*
X884430Y-16283587D01*
X939516Y-16288124D01*
X994825Y-16291159D01*
X1050332Y-16292681D01*
X1106010Y-16292677D01*
X1161832Y-16291137D01*
X1222340Y-16286102D01*
X1281889Y-16279545D01*
X1340500Y-16271412D01*
X1398201Y-16261646D01*
X1455015Y-16250189D01*
X1510967Y-16236985D01*
X1566081Y-16221976D01*
X1620383Y-16205108D01*
X1673897Y-16186320D01*
X1726648Y-16165560D01*
X1778660Y-16142767D01*
X1829957Y-16117886D01*
X1880566Y-16090860D01*
X1930509Y-16061632D01*
X1979813Y-16030145D01*
X2028501Y-15996344D01*
X3510000Y-16610000D01*
X3457587Y-16672902D01*
X3403707Y-16734890D01*
X3348678Y-16795834D01*
X3292815Y-16855607D01*
X3236434Y-16914082D01*
X3179853Y-16971130D01*
X3123390Y-17026623D01*
X3067359Y-17080432D01*
X2984074Y-17146121D01*
X2899935Y-17208809D01*
X2814938Y-17268496D01*
X2729084Y-17325178D01*
X2642370Y-17378859D01*
X2554795Y-17429534D01*
X2466359Y-17477203D01*
X2377060Y-17521867D01*
X2286896Y-17563523D01*
X2195866Y-17602171D01*
X2103969Y-17637809D01*
X2011205Y-17670438D01*
X1917570Y-17700056D01*
X1823064Y-17726662D01*
X1727686Y-17750255D01*
X1631434Y-17770835D01*
X1532431Y-17783252D01*
X1433218Y-17792368D01*
X1333804Y-17798153D01*
X1234204Y-17800584D01*
X1134429Y-17799630D01*
X1034491Y-17795266D01*
X934403Y-17787465D01*
X834174Y-17776200D01*
X733819Y-17761442D01*
X633349Y-17743167D01*
X532775Y-17721345D01*
X432109Y-17695950D01*
X331365Y-17666956D01*
X230553Y-17634335D01*
X129686Y-17598060D01*
X28776Y-17558104D01*
X-39250Y-17528860D01*
X-106137Y-17497912D01*
X-171945Y-17465167D01*
X-236734Y-17430531D01*
X-300564Y-17393917D01*
X-363495Y-17355229D01*
X-425587Y-17314377D01*
X-486900Y-17271268D01*
X-547492Y-17225811D01*
X-607426Y-17177914D01*
X-666760Y-17127486D01*
X-725554Y-17074433D01*
X-783870Y-17018664D01*
X-841764Y-16960088D01*
X-899299Y-16898613D01*
X-956534Y-16834147D01*
X-1010311Y-16773083D01*
X-1061307Y-16711619D01*
X-1109564Y-16649768D01*
X-1155119Y-16587547D01*
X-1198012Y-16524972D01*
X-1238282Y-16462057D01*
X-1275970Y-16398819D01*
X-1311113Y-16335274D01*
X-1343751Y-16271438D01*
X-1373924Y-16207325D01*
X-1401671Y-16142953D01*
X-1427030Y-16078336D01*
X-1450043Y-16013491D01*
X-1470747Y-15948433D01*
X-1489183Y-15883178D01*
X-1505388Y-15817741D01*
X-1824371Y-16587836D01*
X-3055914Y-16077714D01*
X-2282550Y-14210648D01*
X-762114Y-14840433D01*
G37*
D11*
X-9218473Y8029356D02*
X-9244244Y8091573D01*
X-9244244Y8091573D02*
X-9314009Y8172013D01*
X-9314009Y8172013D02*
X-9533981Y8263128D01*
X-9533981Y8263128D02*
X-9640192Y8255580D01*
X-9640192Y8255580D02*
X-9702410Y8229809D01*
X-9702410Y8229809D02*
X-9782850Y8160043D01*
X-9782850Y8160043D02*
X-9819296Y8072055D01*
X-9819296Y8072055D02*
X-9829971Y7921849D01*
X-9829971Y7921849D02*
X-9520716Y7175242D01*
X-9520716Y7175242D02*
X-10092641Y7412141D01*
X-10838217Y5664424D02*
X-10310286Y5445748D01*
X-10574252Y5555086D02*
X-10191568Y6478965D01*
X-10191568Y6478965D02*
X-10158249Y6310536D01*
X-10158249Y6310536D02*
X-10106706Y6186102D01*
X-10106706Y6186102D02*
X-10036941Y6105662D01*
X662977Y8841542D02*
X1190908Y8622866D01*
X926942Y8732204D02*
X1309626Y9656083D01*
X1309626Y9656083D02*
X1342945Y9487654D01*
X1342945Y9487654D02*
X1394488Y9363220D01*
X1394488Y9363220D02*
X1464253Y9282780D01*
X17921094Y3410688D02*
X18365561Y3855155D01*
X18365561Y3855155D02*
X18486779Y3895562D01*
X18486779Y3895562D02*
X18607998Y3855155D01*
X18607998Y3855155D02*
X18769622Y3693531D01*
X18769622Y3693531D02*
X18810028Y3572313D01*
X17961500Y3451094D02*
X18001906Y3329876D01*
X18001906Y3329876D02*
X18203937Y3127846D01*
X18203937Y3127846D02*
X18325155Y3087440D01*
X18325155Y3087440D02*
X18446373Y3127846D01*
X18446373Y3127846D02*
X18527185Y3208658D01*
X18527185Y3208658D02*
X18567592Y3329876D01*
X18567592Y3329876D02*
X18527185Y3451094D01*
X18527185Y3451094D02*
X18325155Y3653125D01*
X18325155Y3653125D02*
X18284749Y3774343D01*
X17719064Y4744090D02*
X17032160Y4057186D01*
X17032160Y4057186D02*
X16991754Y3935967D01*
X16991754Y3935967D02*
X16991754Y3855155D01*
X16991754Y3855155D02*
X17032160Y3733937D01*
X17032160Y3733937D02*
X17153378Y3612719D01*
X17153378Y3612719D02*
X17274596Y3572313D01*
X17193784Y4218810D02*
X17234190Y4097592D01*
X17234190Y4097592D02*
X17395815Y3935967D01*
X17395815Y3935967D02*
X17517033Y3895561D01*
X17517033Y3895561D02*
X17597845Y3895561D01*
X17597845Y3895561D02*
X17719064Y3935967D01*
X17719064Y3935967D02*
X17961500Y4178404D01*
X17961500Y4178404D02*
X18001906Y4299622D01*
X18001906Y4299622D02*
X18001906Y4380435D01*
X18001906Y4380435D02*
X17961500Y4501653D01*
X17961500Y4501653D02*
X17799876Y4663277D01*
X17799876Y4663277D02*
X17678657Y4703683D01*
X16830130Y4582465D02*
X16708911Y4622871D01*
X16708911Y4622871D02*
X16547287Y4784495D01*
X16547287Y4784495D02*
X16506881Y4905714D01*
X16506881Y4905714D02*
X16547287Y5026932D01*
X16547287Y5026932D02*
X16587693Y5067338D01*
X16587693Y5067338D02*
X16708911Y5107744D01*
X16708911Y5107744D02*
X16830130Y5067338D01*
X16830130Y5067338D02*
X16951348Y4946120D01*
X16951348Y4946120D02*
X17072566Y4905714D01*
X17072566Y4905714D02*
X17193784Y4946120D01*
X17193784Y4946120D02*
X17234191Y4986526D01*
X17234191Y4986526D02*
X17274597Y5107744D01*
X17274597Y5107744D02*
X17234191Y5228963D01*
X17234191Y5228963D02*
X17112972Y5350181D01*
X17112972Y5350181D02*
X16991754Y5390587D01*
X16385662Y5592618D02*
X15739164Y6239115D01*
X14648200Y6683582D02*
X15496728Y7532110D01*
X14688606Y6723988D02*
X14729012Y6602770D01*
X14729012Y6602770D02*
X14890637Y6441146D01*
X14890637Y6441146D02*
X15011855Y6400740D01*
X15011855Y6400740D02*
X15092667Y6400740D01*
X15092667Y6400740D02*
X15213885Y6441146D01*
X15213885Y6441146D02*
X15456322Y6683582D01*
X15456322Y6683582D02*
X15496728Y6804801D01*
X15496728Y6804801D02*
X15496728Y6885613D01*
X15496728Y6885613D02*
X15456322Y7006831D01*
X15456322Y7006831D02*
X15294698Y7168456D01*
X15294698Y7168456D02*
X15173479Y7208862D01*
X14122921Y7208861D02*
X14244139Y7168455D01*
X14244139Y7168455D02*
X14324951Y7168455D01*
X14324951Y7168455D02*
X14446170Y7208861D01*
X14446170Y7208861D02*
X14688606Y7451298D01*
X14688606Y7451298D02*
X14729012Y7572516D01*
X14729012Y7572516D02*
X14729012Y7653329D01*
X14729012Y7653329D02*
X14688606Y7774547D01*
X14688606Y7774547D02*
X14567388Y7895765D01*
X14567388Y7895765D02*
X14446170Y7936171D01*
X14446170Y7936171D02*
X14365357Y7936171D01*
X14365357Y7936171D02*
X14244139Y7895765D01*
X14244139Y7895765D02*
X14001703Y7653329D01*
X14001703Y7653329D02*
X13961296Y7532110D01*
X13961296Y7532110D02*
X13961296Y7451298D01*
X13961296Y7451298D02*
X14001703Y7330080D01*
X14001703Y7330080D02*
X14122921Y7208861D01*
X13355205Y7976577D02*
X13476423Y7936171D01*
X13476423Y7936171D02*
X13557236Y7936171D01*
X13557236Y7936171D02*
X13678454Y7976577D01*
X13678454Y7976577D02*
X13920891Y8219014D01*
X13920891Y8219014D02*
X13961297Y8340232D01*
X13961297Y8340232D02*
X13961297Y8421044D01*
X13961297Y8421044D02*
X13920891Y8542263D01*
X13920891Y8542263D02*
X13799672Y8663481D01*
X13799672Y8663481D02*
X13678454Y8703887D01*
X13678454Y8703887D02*
X13597642Y8703887D01*
X13597642Y8703887D02*
X13476423Y8663481D01*
X13476423Y8663481D02*
X13233987Y8421044D01*
X13233987Y8421044D02*
X13193581Y8299826D01*
X13193581Y8299826D02*
X13193581Y8219014D01*
X13193581Y8219014D02*
X13233987Y8097795D01*
X13233987Y8097795D02*
X13355205Y7976577D01*
X12708708Y8623075D02*
X13274393Y9188760D01*
X13112769Y9027136D02*
X13153175Y9148354D01*
X13153175Y9148354D02*
X13153175Y9229166D01*
X13153175Y9229166D02*
X13112769Y9350384D01*
X13112769Y9350384D02*
X13031956Y9431197D01*
X12183428Y9148354D02*
X13031957Y9996882D01*
X12708708Y9673633D02*
X12668302Y9794851D01*
X12668302Y9794851D02*
X12506677Y9956476D01*
X12506677Y9956476D02*
X12385459Y9996882D01*
X12385459Y9996882D02*
X12304647Y9996882D01*
X12304647Y9996882D02*
X12183428Y9956476D01*
X12183428Y9956476D02*
X11940992Y9714039D01*
X11940992Y9714039D02*
X11900586Y9592821D01*
X11900586Y9592821D02*
X11900586Y9512009D01*
X11900586Y9512009D02*
X11940992Y9390790D01*
X11940992Y9390790D02*
X12102616Y9229166D01*
X12102616Y9229166D02*
X12223835Y9188760D01*
X11132870Y10279724D02*
X11173276Y10158506D01*
X11173276Y10158506D02*
X11334901Y9996882D01*
X11334901Y9996882D02*
X11456119Y9956476D01*
X11456119Y9956476D02*
X11577337Y9996882D01*
X11577337Y9996882D02*
X11900586Y10320131D01*
X11900586Y10320131D02*
X11940992Y10441349D01*
X11940992Y10441349D02*
X11900586Y10562567D01*
X11900586Y10562567D02*
X11738962Y10724192D01*
X11738962Y10724192D02*
X11617743Y10764598D01*
X11617743Y10764598D02*
X11496525Y10724192D01*
X11496525Y10724192D02*
X11415713Y10643379D01*
X11415713Y10643379D02*
X11738962Y10158506D01*
X10567185Y10764597D02*
X10688403Y10724191D01*
X10688403Y10724191D02*
X10809621Y10764597D01*
X10809621Y10764597D02*
X11536931Y11491907D01*
X10122718Y11209064D02*
X10243936Y11168658D01*
X10243936Y11168658D02*
X10365155Y11209064D01*
X10365155Y11209064D02*
X11092465Y11936374D01*
X17645977Y953639D02*
X18494506Y1802167D01*
X18494506Y1802167D02*
X17605571Y1478918D01*
X17605571Y1478918D02*
X17928820Y2367852D01*
X17928820Y2367852D02*
X17080292Y1519324D01*
X16312576Y2287040D02*
X16757043Y2731508D01*
X16757043Y2731508D02*
X16878261Y2771914D01*
X16878261Y2771914D02*
X16999480Y2731508D01*
X16999480Y2731508D02*
X17161104Y2569883D01*
X17161104Y2569883D02*
X17201510Y2448665D01*
X16352982Y2327447D02*
X16393388Y2206228D01*
X16393388Y2206228D02*
X16595419Y2004198D01*
X16595419Y2004198D02*
X16716637Y1963792D01*
X16716637Y1963792D02*
X16837855Y2004198D01*
X16837855Y2004198D02*
X16918667Y2085010D01*
X16918667Y2085010D02*
X16959073Y2206228D01*
X16959073Y2206228D02*
X16918667Y2327447D01*
X16918667Y2327447D02*
X16716637Y2529477D01*
X16716637Y2529477D02*
X16676231Y2650695D01*
X15989327Y2610289D02*
X16110545Y3620442D01*
X16555013Y3175975D02*
X15544860Y3054756D01*
X14575113Y4024503D02*
X15423641Y4873031D01*
X15423641Y4873031D02*
X14090240Y4509376D01*
X14090240Y4509376D02*
X14938768Y5357905D01*
X13564960Y5034656D02*
X13686179Y4994250D01*
X13686179Y4994250D02*
X13766991Y4994250D01*
X13766991Y4994250D02*
X13888209Y5034656D01*
X13888209Y5034656D02*
X14130646Y5277092D01*
X14130646Y5277092D02*
X14171052Y5398311D01*
X14171052Y5398311D02*
X14171052Y5479123D01*
X14171052Y5479123D02*
X14130646Y5600341D01*
X14130646Y5600341D02*
X14009428Y5721560D01*
X14009428Y5721560D02*
X13888209Y5761966D01*
X13888209Y5761966D02*
X13807397Y5761966D01*
X13807397Y5761966D02*
X13686179Y5721560D01*
X13686179Y5721560D02*
X13443742Y5479123D01*
X13443742Y5479123D02*
X13403336Y5357905D01*
X13403336Y5357905D02*
X13403336Y5277092D01*
X13403336Y5277092D02*
X13443742Y5155874D01*
X13443742Y5155874D02*
X13564960Y5034656D01*
X13564961Y6166026D02*
X12837651Y5761965D01*
X12837651Y5761965D02*
X13080087Y6327651D01*
X13080087Y6327651D02*
X12514402Y6085214D01*
X12514402Y6085214D02*
X12918463Y6812524D01*
X12029529Y6570088D02*
X12878057Y7418616D01*
X12271965Y6974149D02*
X11706280Y6893336D01*
X12271965Y7459022D02*
X12271965Y6812524D01*
X10978970Y7620647D02*
X11423437Y8065114D01*
X11423437Y8065114D02*
X11544655Y8105520D01*
X11544655Y8105520D02*
X11665873Y8065114D01*
X11665873Y8065114D02*
X11827498Y7903489D01*
X11827498Y7903489D02*
X11867904Y7782271D01*
X11019376Y7661053D02*
X11059782Y7539834D01*
X11059782Y7539834D02*
X11261812Y7337804D01*
X11261812Y7337804D02*
X11383031Y7297398D01*
X11383031Y7297398D02*
X11504249Y7337804D01*
X11504249Y7337804D02*
X11585061Y7418616D01*
X11585061Y7418616D02*
X11625467Y7539834D01*
X11625467Y7539834D02*
X11585061Y7661053D01*
X11585061Y7661053D02*
X11383031Y7863083D01*
X11383031Y7863083D02*
X11342625Y7984301D01*
X9928411Y8671205D02*
X10776939Y9519733D01*
X10776939Y9519733D02*
X10453690Y9842982D01*
X10453690Y9842982D02*
X10332472Y9883388D01*
X10332472Y9883388D02*
X10251660Y9883388D01*
X10251660Y9883388D02*
X10130442Y9842982D01*
X10130442Y9842982D02*
X10009223Y9721764D01*
X10009223Y9721764D02*
X9968817Y9600545D01*
X9968817Y9600545D02*
X9968817Y9519733D01*
X9968817Y9519733D02*
X10009223Y9398515D01*
X10009223Y9398515D02*
X10332472Y9075266D01*
X8635416Y9964200D02*
X9120289Y9479327D01*
X8877852Y9721764D02*
X9726381Y10570292D01*
X9726381Y10570292D02*
X9685975Y10368261D01*
X9685975Y10368261D02*
X9685975Y10206637D01*
X9685975Y10206637D02*
X9726381Y10085419D01*
X8352573Y10408667D02*
X8271761Y10408667D01*
X8271761Y10408667D02*
X8271761Y10327855D01*
X8271761Y10327855D02*
X8352573Y10327855D01*
X8352573Y10327855D02*
X8352573Y10408667D01*
X8352573Y10408667D02*
X8271761Y10327855D01*
X7423233Y11176384D02*
X7908106Y10691510D01*
X7665669Y10933947D02*
X8514197Y11782475D01*
X8514197Y11782475D02*
X8473791Y11580445D01*
X8473791Y11580445D02*
X8473791Y11418820D01*
X8473791Y11418820D02*
X8514197Y11297602D01*
X14784868Y2779639D02*
X14178776Y2173547D01*
X14178776Y2173547D02*
X14097964Y2011923D01*
X14097964Y2011923D02*
X14097964Y1850299D01*
X14097964Y1850299D02*
X14178776Y1688674D01*
X14178776Y1688674D02*
X14259588Y1607862D01*
X13734309Y3264512D02*
X13168623Y2698827D01*
X14097964Y2900857D02*
X13653497Y2456390D01*
X13653497Y2456390D02*
X13532278Y2415984D01*
X13532278Y2415984D02*
X13411060Y2456390D01*
X13411060Y2456390D02*
X13289842Y2577609D01*
X13289842Y2577609D02*
X13249436Y2698827D01*
X13249436Y2698827D02*
X13249436Y2779639D01*
X12643344Y3224106D02*
X12764563Y3183700D01*
X12764563Y3183700D02*
X12885781Y3224106D01*
X12885781Y3224106D02*
X13613091Y3951416D01*
X12966593Y4032228D02*
X12198877Y3668573D01*
X12562532Y4436289D02*
X12198877Y3668573D01*
X12198877Y3668573D02*
X12077659Y3385730D01*
X12077659Y3385730D02*
X12077659Y3304918D01*
X12077659Y3304918D02*
X12118065Y3183700D01*
X11835222Y5567660D02*
X11835222Y5648472D01*
X11835222Y5648472D02*
X11794816Y5769690D01*
X11794816Y5769690D02*
X11592786Y5971721D01*
X11592786Y5971721D02*
X11471567Y6012127D01*
X11471567Y6012127D02*
X11390755Y6012127D01*
X11390755Y6012127D02*
X11269537Y5971721D01*
X11269537Y5971721D02*
X11188725Y5890909D01*
X11188725Y5890909D02*
X11107912Y5729284D01*
X11107912Y5729284D02*
X11107912Y4759538D01*
X11107912Y4759538D02*
X10582633Y5284817D01*
X10905882Y6658625D02*
X10825070Y6739437D01*
X10825070Y6739437D02*
X10703851Y6779843D01*
X10703851Y6779843D02*
X10623039Y6779843D01*
X10623039Y6779843D02*
X10501821Y6739437D01*
X10501821Y6739437D02*
X10299790Y6618219D01*
X10299790Y6618219D02*
X10097760Y6416188D01*
X10097760Y6416188D02*
X9976542Y6214158D01*
X9976542Y6214158D02*
X9936135Y6092939D01*
X9936135Y6092939D02*
X9936135Y6012127D01*
X9936135Y6012127D02*
X9976542Y5890909D01*
X9976542Y5890909D02*
X10057354Y5810096D01*
X10057354Y5810096D02*
X10178572Y5769690D01*
X10178572Y5769690D02*
X10259384Y5769690D01*
X10259384Y5769690D02*
X10380603Y5810096D01*
X10380603Y5810096D02*
X10582633Y5931315D01*
X10582633Y5931315D02*
X10784664Y6133345D01*
X10784664Y6133345D02*
X10905882Y6335376D01*
X10905882Y6335376D02*
X10946288Y6456594D01*
X10946288Y6456594D02*
X10946288Y6537406D01*
X10946288Y6537406D02*
X10905882Y6658625D01*
X10218978Y7183904D02*
X10218978Y7264716D01*
X10218978Y7264716D02*
X10178572Y7385934D01*
X10178572Y7385934D02*
X9976542Y7587965D01*
X9976542Y7587965D02*
X9855323Y7628371D01*
X9855323Y7628371D02*
X9774511Y7628371D01*
X9774511Y7628371D02*
X9653293Y7587965D01*
X9653293Y7587965D02*
X9572481Y7507153D01*
X9572481Y7507153D02*
X9491668Y7345528D01*
X9491668Y7345528D02*
X9491668Y6375782D01*
X9491668Y6375782D02*
X8966389Y6901061D01*
X8804765Y8194056D02*
X8239079Y7628371D01*
X9330044Y8315275D02*
X8925983Y7507153D01*
X8925983Y7507153D02*
X8400704Y8032432D01*
X5749654Y7887198D02*
X6189597Y7704968D01*
X6189597Y7704968D02*
X6051361Y7246803D01*
X6051361Y7246803D02*
X6025590Y7309020D01*
X6025590Y7309020D02*
X5955824Y7389460D01*
X5955824Y7389460D02*
X5735853Y7480575D01*
X5735853Y7480575D02*
X5629642Y7473027D01*
X5629642Y7473027D02*
X5567424Y7447256D01*
X5567424Y7447256D02*
X5486984Y7377490D01*
X5486984Y7377490D02*
X5395869Y7157519D01*
X5395869Y7157519D02*
X5403417Y7051307D01*
X5403417Y7051307D02*
X5429188Y6989090D01*
X5429188Y6989090D02*
X5498954Y6908650D01*
X5498954Y6908650D02*
X5718925Y6817535D01*
X5718925Y6817535D02*
X5825137Y6825083D01*
X5825137Y6825083D02*
X5887354Y6850854D01*
X9614997Y-1681887D02*
X10054940Y-1864117D01*
X10054940Y-1864117D02*
X9916704Y-2322282D01*
X9916704Y-2322282D02*
X9890933Y-2260065D01*
X9890933Y-2260065D02*
X9821167Y-2179625D01*
X9821167Y-2179625D02*
X9601196Y-2088510D01*
X9601196Y-2088510D02*
X9494985Y-2096058D01*
X9494985Y-2096058D02*
X9432767Y-2121829D01*
X9432767Y-2121829D02*
X9352327Y-2191595D01*
X9352327Y-2191595D02*
X9261212Y-2411566D01*
X9261212Y-2411566D02*
X9268760Y-2517778D01*
X9268760Y-2517778D02*
X9294531Y-2579995D01*
X9294531Y-2579995D02*
X9364297Y-2660435D01*
X9364297Y-2660435D02*
X9584268Y-2751550D01*
X9584268Y-2751550D02*
X9690480Y-2744002D01*
X9690480Y-2744002D02*
X9752697Y-2718231D01*
X10351649Y-27888D02*
X10527626Y-100780D01*
X10527626Y-100780D02*
X10597391Y-181220D01*
X10597391Y-181220D02*
X10623163Y-243437D01*
X10623163Y-243437D02*
X10656482Y-411866D01*
X10656482Y-411866D02*
X10627584Y-606066D01*
X10627584Y-606066D02*
X10481800Y-958020D01*
X10481800Y-958020D02*
X10401360Y-1027786D01*
X10401360Y-1027786D02*
X10339142Y-1053557D01*
X10339142Y-1053557D02*
X10232931Y-1061105D01*
X10232931Y-1061105D02*
X10056954Y-988213D01*
X10056954Y-988213D02*
X9987188Y-907773D01*
X9987188Y-907773D02*
X9961417Y-845556D01*
X9961417Y-845556D02*
X9953869Y-739344D01*
X9953869Y-739344D02*
X10044984Y-519373D01*
X10044984Y-519373D02*
X10125424Y-449607D01*
X10125424Y-449607D02*
X10187642Y-423836D01*
X10187642Y-423836D02*
X10293853Y-416288D01*
X10293853Y-416288D02*
X10469830Y-489180D01*
X10469830Y-489180D02*
X10539596Y-569620D01*
X10539596Y-569620D02*
X10565367Y-631837D01*
X10565367Y-631837D02*
X10572915Y-738049D01*
D10*
%TO.C,kibuzzard-63B84F07*%
G36*
X786245Y3608663D02*
G01*
X808136Y3505949D01*
X825270Y3400049D01*
X834642Y3298225D01*
X629310Y3383276D01*
X761747Y3703008D01*
X786245Y3608663D01*
G37*
G36*
X120454Y4083766D02*
G01*
X192384Y4023042D01*
X196120Y3930425D01*
X127759Y3860798D01*
X67524Y3847087D01*
X-18986Y3842540D01*
X-52840Y3943337D01*
X-39405Y4029700D01*
X26956Y4092424D01*
X120454Y4083766D01*
G37*
G36*
X-2112417Y4982018D02*
G01*
X-2062499Y4965637D01*
X-2020573Y4946552D01*
X-1982796Y4925750D01*
X-2069063Y4717484D01*
X-2139462Y4746645D01*
X-2231140Y4819844D01*
X-2232016Y4917290D01*
X-2200183Y4965105D01*
X-2159559Y4984361D01*
X-2112417Y4982018D01*
G37*
G36*
X-2227828Y4607981D02*
G01*
X-2131029Y4567885D01*
X-2233090Y4321486D01*
X-2276713Y4334400D01*
X-2322053Y4351463D01*
X-2380060Y4381504D01*
X-2424228Y4422137D01*
X-2445225Y4477228D01*
X-2432858Y4548570D01*
X-2351874Y4625856D01*
X-2227828Y4607981D01*
G37*
G36*
X53912Y3582952D02*
G01*
X42801Y3493907D01*
X-35753Y3422489D01*
X-147207Y3433429D01*
X-239011Y3508399D01*
X-246591Y3600031D01*
X-214328Y3646808D01*
X-162422Y3672560D01*
X-84901Y3683408D01*
X22131Y3684608D01*
X53912Y3582952D01*
G37*
G36*
X2365344Y3131564D02*
G01*
X2389973Y3120503D01*
X2417787Y3104686D01*
X2304791Y2831889D01*
X2265191Y2848290D01*
X2189346Y2890231D01*
X2146609Y2939507D01*
X2147764Y3058450D01*
X2184584Y3116227D01*
X2235505Y3145824D01*
X2296951Y3150013D01*
X2365344Y3131564D01*
G37*
G36*
X-2825266Y5837168D02*
G01*
X2796438Y3508582D01*
X3101991Y3382017D01*
X2455804Y1821982D01*
X2150250Y1948546D01*
X1512253Y2212813D01*
X1155855Y2360438D01*
X728552Y2537433D01*
X1646715Y2537433D01*
X1835914Y2459064D01*
X1908164Y2530302D01*
X1984548Y2595962D01*
X2064876Y2658699D01*
X2148958Y2721169D01*
X2242826Y2682288D01*
X2104312Y2347890D01*
X2284712Y2273166D01*
X2655293Y3167828D01*
X2601916Y3202826D01*
X2541154Y3236585D01*
X2481073Y3265767D01*
X2430348Y3288496D01*
X2354459Y3314776D01*
X2282258Y3329217D01*
X2214328Y3331152D01*
X2151248Y3319907D01*
X2043004Y3255632D01*
X1999415Y3201733D01*
X1963825Y3132922D01*
X1940605Y3054048D01*
X1936556Y2975825D01*
X1955914Y2901222D01*
X2002918Y2833210D01*
X1915187Y2770749D01*
X1820825Y2696426D01*
X1728307Y2616186D01*
X1646715Y2537433D01*
X728552Y2537433D01*
X164394Y2771115D01*
X-266843Y2949739D01*
X1032450Y2949739D01*
X1059744Y2839846D01*
X1108490Y2774311D01*
X1182715Y2716359D01*
X1282420Y2665992D01*
X1386491Y2629972D01*
X1472842Y2615469D01*
X1592571Y2618283D01*
X1600522Y2786819D01*
X1487697Y2782004D01*
X1420269Y2791892D01*
X1344993Y2817057D01*
X1273408Y2857878D01*
X1236678Y2904022D01*
X1228273Y2952179D01*
X1239594Y2998179D01*
X1276383Y3041362D01*
X1333549Y3063219D01*
X1402040Y3070934D01*
X1474271Y3071085D01*
X1573310Y3069582D01*
X1673290Y3084873D01*
X1762761Y3132868D01*
X1830880Y3230947D01*
X1857246Y3353195D01*
X1830635Y3464737D01*
X1785003Y3530415D01*
X1718904Y3585859D01*
X1632339Y3631071D01*
X1552080Y3658730D01*
X1478507Y3672452D01*
X1356024Y3673356D01*
X1351110Y3512152D01*
X1447090Y3513636D01*
X1556563Y3485473D01*
X1631623Y3440828D01*
X1665157Y3386271D01*
X1657164Y3321804D01*
X1623361Y3281680D01*
X1571380Y3261972D01*
X1508809Y3256101D01*
X1443229Y3257490D01*
X1339612Y3258312D01*
X1232676Y3240748D01*
X1134856Y3185042D01*
X1093147Y3137237D01*
X1058588Y3071436D01*
X1032450Y2949739D01*
X-266843Y2949739D01*
X-332804Y2977061D01*
X-1000133Y3253478D01*
X-2501806Y3875491D01*
X-1137695Y3875491D01*
X-1108806Y3754412D01*
X-1072420Y3698102D01*
X-1021389Y3646035D01*
X-955257Y3599312D01*
X-873569Y3559032D01*
X-799880Y3533663D01*
X-724924Y3515503D01*
X-657680Y3505691D01*
X-609197Y3504511D01*
X-598971Y3571116D01*
X-438130Y3571116D01*
X-417580Y3467239D01*
X-344651Y3367440D01*
X-284842Y3322046D01*
X-206239Y3282615D01*
X-138677Y3259569D01*
X-73854Y3247539D01*
X42993Y3255844D01*
X137525Y3307757D01*
X166962Y3350570D01*
X289286Y3350570D01*
X387552Y3309867D01*
X298856Y3095735D01*
X479254Y3021011D01*
X567951Y3235143D01*
X946349Y3078406D01*
X1001025Y3210405D01*
X994413Y3284668D01*
X982925Y3369972D01*
X967174Y3462625D01*
X947786Y3558934D01*
X924882Y3657128D01*
X898590Y3755437D01*
X869008Y3849953D01*
X836237Y3936771D01*
X674905Y4003597D01*
X448911Y3458000D01*
X350644Y3498703D01*
X289286Y3350570D01*
X166962Y3350570D01*
X202354Y3402044D01*
X222005Y3472301D01*
X223853Y3545208D01*
X206188Y3619753D01*
X167305Y3694926D01*
X240404Y3717914D01*
X294185Y3752342D01*
X361392Y3848221D01*
X383961Y3946266D01*
X370369Y4052416D01*
X307025Y4152541D01*
X252437Y4197060D01*
X179487Y4234580D01*
X55654Y4266972D01*
X-54777Y4256010D01*
X-143812Y4204398D01*
X-203462Y4114838D01*
X-221657Y4049133D01*
X-223997Y3978149D01*
X-207558Y3905829D01*
X-169420Y3836119D01*
X-261694Y3815061D01*
X-331227Y3779425D01*
X-381983Y3729999D01*
X-417939Y3667567D01*
X-438130Y3571116D01*
X-598971Y3571116D01*
X-583897Y3669297D01*
X-678180Y3673985D01*
X-738381Y3687322D01*
X-808314Y3712423D01*
X-890720Y3760303D01*
X-932533Y3812848D01*
X-942351Y3865886D01*
X-929637Y3917323D01*
X-888313Y3981827D01*
X-815969Y4015437D01*
X-695056Y4006592D01*
X-611617Y3982985D01*
X-509495Y3944336D01*
X-472194Y4071719D01*
X-433025Y4195321D01*
X-392655Y4314559D01*
X-351756Y4428854D01*
X-815221Y4620827D01*
X-877187Y4471228D01*
X-564789Y4341829D01*
X-598158Y4240524D01*
X-625453Y4153888D01*
X-742641Y4184863D01*
X-845234Y4192993D01*
X-933234Y4178277D01*
X-1006835Y4141176D01*
X-1066222Y4082152D01*
X-1111399Y4001203D01*
X-1137695Y3875491D01*
X-2501806Y3875491D01*
X-2501992Y3875568D01*
X-3471454Y4277132D01*
X-3777007Y4403697D01*
X-3748134Y4473403D01*
X-2639259Y4473403D01*
X-2600177Y4354116D01*
X-2559805Y4304317D01*
X-2506685Y4260406D01*
X-2443363Y4221934D01*
X-2372390Y4188455D01*
X-2310473Y4164741D01*
X-2244990Y4143417D01*
X-2177407Y4125088D01*
X-2109189Y4110363D01*
X-1744076Y4991825D01*
X-1850630Y5054004D01*
X-1969629Y5111026D01*
X-2064964Y5144287D01*
X-2145636Y5159016D01*
X-2269922Y5145202D01*
X-2351682Y5088857D01*
X-2400117Y5009258D01*
X-2417446Y4945127D01*
X-2415970Y4881798D01*
X-2364443Y4767666D01*
X-2458396Y4760188D01*
X-2527508Y4728676D01*
X-2576558Y4680261D01*
X-2610324Y4622079D01*
X-2634568Y4543843D01*
X-2639259Y4473403D01*
X-3748134Y4473403D01*
X-3575898Y4889217D01*
X-3217920Y4889217D01*
X-2816055Y4722760D01*
X-2742546Y4900226D01*
X-3144411Y5066683D01*
X-3217920Y4889217D01*
X-3575898Y4889217D01*
X-3130820Y5963732D01*
X-2825266Y5837168D01*
G37*
%TO.C,kibuzzard-63B84B1C*%
G36*
X-455265Y-4839758D02*
G01*
X-408434Y-4913577D01*
X-386209Y-5022321D01*
X-382042Y-5086615D01*
X-380653Y-5155671D01*
X-382042Y-5224926D01*
X-386209Y-5289815D01*
X-408434Y-5398558D01*
X-455265Y-5471583D01*
X-536228Y-5498571D01*
X-616396Y-5471583D01*
X-664022Y-5397765D01*
X-686247Y-5289021D01*
X-690414Y-5224727D01*
X-691803Y-5155671D01*
X-690414Y-5086416D01*
X-686247Y-5021527D01*
X-664022Y-4912783D01*
X-617190Y-4839758D01*
X-536228Y-4812771D01*
X-455265Y-4839758D01*
G37*
G36*
X1274581Y-5999163D02*
G01*
X943851Y-5999163D01*
X568672Y-5999163D01*
X-537815Y-5999163D01*
X-1265419Y-5999163D01*
X-1596149Y-5999163D01*
X-1596149Y-5155671D01*
X-890240Y-5155671D01*
X-884486Y-5274882D01*
X-867221Y-5378516D01*
X-838448Y-5466573D01*
X-798165Y-5539052D01*
X-728315Y-5610931D01*
X-641532Y-5654058D01*
X-537815Y-5668433D01*
X-431541Y-5654058D01*
X-343435Y-5610931D01*
X-273496Y-5539052D01*
X-233561Y-5466573D01*
X-205036Y-5378516D01*
X-187920Y-5274882D01*
X-182215Y-5155671D01*
X-188069Y-5036460D01*
X-205631Y-4932826D01*
X-234900Y-4844769D01*
X-244913Y-4827058D01*
X-55215Y-4827058D01*
X157510Y-4827058D01*
X157510Y-5485871D01*
X-55215Y-5485871D01*
X-55215Y-5647796D01*
X568672Y-5647796D01*
X568672Y-5485871D01*
X354360Y-5485871D01*
X354360Y-4827058D01*
X568672Y-4827058D01*
X568672Y-4665133D01*
X-55215Y-4665133D01*
X-55215Y-4827058D01*
X-244913Y-4827058D01*
X-275878Y-4772290D01*
X-346433Y-4700411D01*
X-433217Y-4657284D01*
X-536228Y-4642908D01*
X-642414Y-4657284D01*
X-730256Y-4700411D01*
X-799753Y-4772290D01*
X-839341Y-4844769D01*
X-867618Y-4932826D01*
X-884585Y-5036460D01*
X-890240Y-5155671D01*
X-1596149Y-5155671D01*
X-1596149Y-4312179D01*
X-1265419Y-4312179D01*
X943851Y-4312179D01*
X1274581Y-4312179D01*
X1274581Y-5999163D01*
G37*
%TO.C,kibuzzard-63BC5929*%
G36*
X10245016Y-7901924D02*
G01*
X10160826Y-7986113D01*
X10063797Y-8063358D01*
X9971399Y-8096403D01*
X9879842Y-8080617D01*
X9785339Y-8011370D01*
X9720092Y-7921288D01*
X9706201Y-7832888D01*
X9735667Y-7746594D01*
X9800493Y-7662824D01*
X9852691Y-7612310D01*
X9908256Y-7565164D01*
X10245016Y-7901924D01*
G37*
G36*
X9766817Y-9107523D02*
G01*
X9749979Y-9127729D01*
X9731458Y-9146250D01*
X9585809Y-9238017D01*
X9434267Y-9241385D01*
X9280200Y-9171507D01*
X9202745Y-9112995D01*
X9125290Y-9041855D01*
X9004057Y-8900416D01*
X8926602Y-8752241D01*
X8917341Y-8604909D01*
X9000689Y-8462628D01*
X9031840Y-8433162D01*
X9066357Y-8407063D01*
X9766817Y-9107523D01*
G37*
G36*
X13486888Y-6469573D02*
G01*
X12224040Y-7732421D01*
X11872126Y-8084335D01*
X11149777Y-8806684D01*
X10292724Y-9663737D01*
X9673086Y-10283375D01*
X9011354Y-10945108D01*
X7748505Y-12207956D01*
X7215246Y-12741215D01*
X5970976Y-10430427D01*
X6871247Y-9530156D01*
X7596402Y-9530156D01*
X7768150Y-9701904D01*
X7993778Y-9476275D01*
X8692555Y-10175051D01*
X8466926Y-10400680D01*
X8638673Y-10572427D01*
X9300405Y-9910695D01*
X9128658Y-9738947D01*
X8901346Y-9966260D01*
X8202569Y-9267484D01*
X8429882Y-9040171D01*
X8258134Y-8868423D01*
X7596402Y-9530156D01*
X6871247Y-9530156D01*
X7233824Y-9167579D01*
X7680312Y-8721091D01*
X8632780Y-8721091D01*
X8654037Y-8847166D01*
X8706024Y-8977871D01*
X8791899Y-9112995D01*
X8914816Y-9252330D01*
X9057939Y-9377352D01*
X9197694Y-9462805D01*
X9333239Y-9512056D01*
X9463734Y-9528473D01*
X9589177Y-9513739D01*
X9709568Y-9469540D01*
X9824488Y-9398820D01*
X9933514Y-9304527D01*
X10036225Y-9190030D01*
X10130518Y-9057009D01*
X9113504Y-8039995D01*
X8960278Y-8152809D01*
X8839045Y-8263940D01*
X8748330Y-8369809D01*
X8681609Y-8481992D01*
X8642041Y-8599437D01*
X8632780Y-8721091D01*
X7680312Y-8721091D01*
X8552519Y-7848884D01*
X9417430Y-7848884D01*
X9422574Y-7975637D01*
X9475052Y-8101080D01*
X9574864Y-8225213D01*
X9700214Y-8326054D01*
X9827060Y-8379374D01*
X9955403Y-8385174D01*
X10085429Y-8347756D01*
X10217327Y-8271424D01*
X10351095Y-8156177D01*
X10425183Y-8082090D01*
X10777096Y-8434004D01*
X10984204Y-8226896D01*
X9955403Y-7198096D01*
X9875423Y-7254504D01*
X9791232Y-7323539D01*
X9711252Y-7395101D01*
X9643900Y-7459085D01*
X9530431Y-7590702D01*
X9454941Y-7720635D01*
X9417430Y-7848884D01*
X8552519Y-7848884D01*
X9373371Y-7028032D01*
X10098525Y-7028032D01*
X10763626Y-7693133D01*
X10854551Y-7775639D01*
X10945477Y-7841307D01*
X11037244Y-7886770D01*
X11130693Y-7908659D01*
X11225618Y-7905922D01*
X11321805Y-7877509D01*
X11420097Y-7820891D01*
X11521335Y-7733544D01*
X11607209Y-7633779D01*
X11662774Y-7536540D01*
X11691399Y-7347954D01*
X11668247Y-7255767D01*
X11622363Y-7164420D01*
X11556695Y-7073496D01*
X11474189Y-6982570D01*
X10809089Y-6317469D01*
X10600298Y-6526260D01*
X11251928Y-7177890D01*
X11355481Y-7294914D01*
X11404311Y-7389207D01*
X11398418Y-7472555D01*
X11337801Y-7556745D01*
X11253611Y-7617362D01*
X11168579Y-7623256D01*
X11072603Y-7574425D01*
X10955579Y-7470871D01*
X10305633Y-6820925D01*
X10098525Y-7028032D01*
X9373371Y-7028032D01*
X10446511Y-5954892D01*
X11709359Y-4692044D01*
X12242618Y-4158785D01*
X13486888Y-6469573D01*
G37*
%TO.C,kibuzzard-63B84D9B*%
G36*
X-5539174Y6413122D02*
G01*
X-5494744Y6393859D01*
X-5451530Y6371662D01*
X-5573033Y6078332D01*
X-5646365Y6108707D01*
X-5718695Y6148763D01*
X-5762621Y6197242D01*
X-5776256Y6257661D01*
X-5757716Y6333534D01*
X-5718878Y6396703D01*
X-5667975Y6427811D01*
X-5607307Y6431678D01*
X-5539174Y6413122D01*
G37*
G36*
X-7161862Y7627098D02*
G01*
X-3611082Y6156316D01*
X-3305527Y6029751D01*
X-3946855Y4481449D01*
X-4252409Y4608014D01*
X-5427203Y5094629D01*
X-5612508Y5171385D01*
X-4694344Y5171385D01*
X-4117947Y4932634D01*
X-4055981Y5082233D01*
X-4253980Y5164247D01*
X-4001863Y5772911D01*
X-3803865Y5690897D01*
X-3741899Y5840496D01*
X-4318295Y6079247D01*
X-4380261Y5929648D01*
X-4183729Y5848242D01*
X-4435846Y5239578D01*
X-4632378Y5320984D01*
X-4694344Y5171385D01*
X-5612508Y5171385D01*
X-5899467Y5290248D01*
X-6356104Y5479393D01*
X-5437940Y5479393D01*
X-5292741Y5419249D01*
X-5208770Y5502362D01*
X-5122422Y5584299D01*
X-5033698Y5665061D01*
X-4942529Y5744810D01*
X-4848848Y5823710D01*
X-4752655Y5901760D01*
X-5002342Y5298962D01*
X-4839544Y5231529D01*
X-4463495Y6139391D01*
X-4608692Y6199534D01*
X-4677630Y6149261D01*
X-4748844Y6093488D01*
X-4820571Y6034922D01*
X-4891046Y5976266D01*
X-4958973Y5918058D01*
X-5023056Y5860834D01*
X-5081010Y5807517D01*
X-5130553Y5761024D01*
X-4899092Y6319821D01*
X-5061891Y6387255D01*
X-5437940Y5479393D01*
X-6356104Y5479393D01*
X-6736929Y5637136D01*
X-7564125Y5979772D01*
X-7803190Y6078796D01*
X-8100052Y6201760D01*
X-6828242Y6201760D01*
X-6817883Y6138618D01*
X-6791980Y6080850D01*
X-6749940Y6028855D01*
X-6689992Y5982760D01*
X-6610365Y5942690D01*
X-6527009Y5915250D01*
X-6452942Y5905834D01*
X-6329485Y5936317D01*
X-6278611Y5974096D01*
X-6234056Y6025660D01*
X-6194807Y6089304D01*
X-6159853Y6163318D01*
X-6138880Y6213951D01*
X-5973733Y6213951D01*
X-5944561Y6133422D01*
X-5888342Y6062883D01*
X-5807678Y6001119D01*
X-5702568Y5948130D01*
X-5638035Y5921400D01*
X-5765005Y5614867D01*
X-5584606Y5540144D01*
X-5213417Y6436273D01*
X-5268564Y6471143D01*
X-5332564Y6505385D01*
X-5397044Y6536390D01*
X-5453637Y6561549D01*
X-5563650Y6597858D01*
X-5662938Y6611206D01*
X-5751499Y6601590D01*
X-5828257Y6566084D01*
X-5892130Y6501758D01*
X-5943123Y6408614D01*
X-5973253Y6305682D01*
X-5973733Y6213951D01*
X-6138880Y6213951D01*
X-5919886Y6742648D01*
X-6101752Y6817980D01*
X-6336859Y6250382D01*
X-6382517Y6156746D01*
X-6428136Y6102614D01*
X-6480975Y6084981D01*
X-6548295Y6100837D01*
X-6607108Y6137227D01*
X-6632432Y6188096D01*
X-6626842Y6259667D01*
X-6592917Y6358164D01*
X-6358418Y6924294D01*
X-6538816Y6999018D01*
X-6778783Y6419687D01*
X-6806403Y6342635D01*
X-6823652Y6269879D01*
X-6828242Y6201760D01*
X-8100052Y6201760D01*
X-8108743Y6205360D01*
X-8347825Y6304391D01*
X-7429663Y6304391D01*
X-7247797Y6229060D01*
X-6933714Y6987323D01*
X-6694649Y6888299D01*
X-6632683Y7037898D01*
X-7292679Y7311278D01*
X-7354645Y7161678D01*
X-7115580Y7062655D01*
X-7429663Y6304391D01*
X-8347825Y6304391D01*
X-8573235Y6397759D01*
X-7467416Y7753662D01*
X-7161862Y7627098D01*
G37*
%TO.C,kibuzzard-63B850B2*%
G36*
X269941Y6456615D02*
G01*
X248643Y6305636D01*
X223399Y6157579D01*
X192579Y6005389D01*
X-73620Y6115652D01*
X11101Y6245516D01*
X96844Y6368513D01*
X188542Y6490332D01*
X289841Y6619772D01*
X269941Y6456615D01*
G37*
G36*
X2585054Y5720613D02*
G01*
X2621998Y5704022D01*
X2663720Y5680297D01*
X2494224Y5271099D01*
X2434824Y5295703D01*
X2321056Y5358614D01*
X2256952Y5432528D01*
X2258686Y5610942D01*
X2313914Y5697607D01*
X2390296Y5742004D01*
X2482464Y5748287D01*
X2585054Y5720613D01*
G37*
G36*
X-3948695Y9257778D02*
G01*
X9517066Y3680077D01*
X11167057Y2996628D01*
X11868413Y2706117D01*
X10198687Y658774D01*
X8548695Y1342223D01*
X6662389Y2123557D01*
X4900199Y2853480D01*
X4622240Y2968614D01*
X5999487Y2968614D01*
X6864082Y2610487D01*
X6957031Y2834886D01*
X6660032Y2957907D01*
X7038207Y3870902D01*
X7335206Y3747881D01*
X7428155Y3972279D01*
X6563560Y4330406D01*
X6470611Y4106008D01*
X6765409Y3983899D01*
X6387234Y3070903D01*
X6092436Y3193013D01*
X5999487Y2968614D01*
X4622240Y2968614D01*
X3894803Y3269928D01*
X3506844Y3430626D01*
X4884093Y3430626D01*
X5101892Y3340411D01*
X5227847Y3465079D01*
X5357368Y3587984D01*
X5490455Y3709127D01*
X5627209Y3828750D01*
X5767730Y3947100D01*
X5912019Y4064175D01*
X5537489Y3159980D01*
X5781688Y3058830D01*
X6345761Y4420622D01*
X6127962Y4510837D01*
X6024558Y4435428D01*
X5917737Y4351769D01*
X5810146Y4263918D01*
X5704433Y4175935D01*
X5602542Y4088622D01*
X5506418Y4002787D01*
X5419486Y3922811D01*
X5345173Y3853072D01*
X5692364Y4691267D01*
X5448166Y4792418D01*
X4884093Y3430626D01*
X3506844Y3430626D01*
X3342607Y3498655D01*
X2719248Y3756859D01*
X4096497Y3756859D01*
X4369295Y3643862D01*
X4840419Y4781256D01*
X5199017Y4632719D01*
X5291966Y4857118D01*
X4301972Y5267187D01*
X4209023Y5042788D01*
X4567620Y4894253D01*
X4096497Y3756859D01*
X2719248Y3756859D01*
X1305418Y4342487D01*
X1293656Y4347359D01*
X2670904Y4347359D01*
X3544300Y3985586D01*
X4108373Y5347378D01*
X3283377Y5689102D01*
X3190428Y5464704D01*
X3744825Y5235064D01*
X3618159Y4929267D01*
X3136362Y5128834D01*
X3043413Y4904436D01*
X3525212Y4704868D01*
X3366650Y4322070D01*
X2763853Y4571757D01*
X2670904Y4347359D01*
X1293656Y4347359D01*
X1142619Y4409920D01*
X129861Y4829418D01*
X1507111Y4829418D01*
X1790909Y4711865D01*
X1899285Y4818721D01*
X2013859Y4917210D01*
X2134351Y5011315D01*
X2260476Y5105021D01*
X2401276Y5046700D01*
X2193507Y4545103D01*
X2464106Y4433017D01*
X3019977Y5775010D01*
X2939912Y5827504D01*
X2848769Y5878145D01*
X2758647Y5921918D01*
X2682559Y5956012D01*
X2568726Y5995430D01*
X2460425Y6017093D01*
X2358529Y6019994D01*
X2263909Y6003128D01*
X2101544Y5906713D01*
X2036161Y5825866D01*
X1982775Y5722650D01*
X1947945Y5604339D01*
X1941871Y5487004D01*
X1970909Y5375099D01*
X2041415Y5273082D01*
X1909818Y5179388D01*
X1768275Y5067906D01*
X1629498Y4947545D01*
X1507111Y4829418D01*
X129861Y4829418D01*
X-608572Y5135287D01*
X-1569967Y5533510D01*
X-2074524Y5742505D01*
X-697278Y5742505D01*
X-406878Y5622218D01*
X-212768Y5910389D01*
X150229Y5760030D01*
X81519Y5419917D01*
X363117Y5303275D01*
X389829Y5477528D01*
X413996Y5646136D01*
X433887Y5796057D01*
X822401Y5796057D01*
X1315198Y5591933D01*
X1073713Y5008937D01*
X1344312Y4896851D01*
X1908385Y6258643D01*
X1074589Y6604012D01*
X981640Y6379614D01*
X1544837Y6146330D01*
X1408147Y5816332D01*
X915350Y6020455D01*
X822401Y5796057D01*
X433887Y5796057D01*
X435617Y5809095D01*
X454694Y5966408D01*
X471225Y6118073D01*
X489827Y6301823D01*
X507489Y6480970D01*
X524211Y6655512D01*
X539992Y6825450D01*
X245194Y6947559D01*
X133956Y6815712D01*
X20978Y6679269D01*
X-93743Y6538230D01*
X-210205Y6392599D01*
X-304781Y6271921D01*
X-400777Y6146572D01*
X-498192Y6016553D01*
X-597025Y5881864D01*
X-697278Y5742505D01*
X-2074524Y5742505D01*
X-2157363Y5776818D01*
X-3285455Y6244089D01*
X-1721534Y6244089D01*
X-1593317Y6114945D01*
X-1497220Y6049044D01*
X-1380121Y5991839D01*
X-1194638Y5939067D01*
X-1022457Y5939916D01*
X-863577Y5994386D01*
X-754847Y6069040D01*
X-657006Y6171077D01*
X-570052Y6300500D01*
X-493984Y6457306D01*
X-439240Y6622140D01*
X-415342Y6777841D01*
X-420155Y6922561D01*
X-451547Y7054449D01*
X-508485Y7172111D01*
X-589936Y7274151D01*
X-693767Y7358721D01*
X-817843Y7423968D01*
X-953754Y7466088D01*
X-1067444Y7480962D01*
X-1154813Y7478490D01*
X-1210848Y7470772D01*
X-1229753Y7226012D01*
X-1084415Y7231536D01*
X-910948Y7186747D01*
X-796218Y7112161D01*
X-720312Y6990509D01*
X-703001Y6814515D01*
X-722643Y6704089D01*
X-766250Y6577815D01*
X-834556Y6438145D01*
X-910683Y6330065D01*
X-994629Y6253578D01*
X-1139119Y6204208D01*
X-1309015Y6238175D01*
X-1473890Y6334820D01*
X-1564941Y6429238D01*
X-1721534Y6244089D01*
X-3285455Y6244089D01*
X-4206313Y6625521D01*
X-2829066Y6625521D01*
X-1955670Y6263748D01*
X-1391597Y7625540D01*
X-2216593Y7967265D01*
X-2309542Y7742866D01*
X-1755145Y7513228D01*
X-1881811Y7207429D01*
X-2363609Y7406996D01*
X-2456557Y7182598D01*
X-1974760Y6983031D01*
X-2133320Y6600232D01*
X-2736117Y6849919D01*
X-2829066Y6625521D01*
X-4206313Y6625521D01*
X-4917065Y6919924D01*
X-6567057Y7603373D01*
X-7268413Y7893884D01*
X-5598686Y9941227D01*
X-3948695Y9257778D01*
G37*
%TO.C,kibuzzard-63B84F03*%
G36*
X7333190Y901656D02*
G01*
X7355080Y798943D01*
X7372214Y693043D01*
X7381586Y591218D01*
X7176254Y676270D01*
X7308691Y996001D01*
X7333190Y901656D01*
G37*
G36*
X4435563Y2130245D02*
G01*
X4421364Y2029592D01*
X4404535Y1930888D01*
X4383988Y1829427D01*
X4206522Y1902936D01*
X4263002Y1989512D01*
X4320165Y2071510D01*
X4381297Y2152723D01*
X4448829Y2239017D01*
X4435563Y2130245D01*
G37*
G36*
X6667398Y1376759D02*
G01*
X6739330Y1316035D01*
X6743064Y1223418D01*
X6674703Y1153791D01*
X6614468Y1140080D01*
X6527958Y1135533D01*
X6494104Y1236330D01*
X6507540Y1322693D01*
X6573901Y1385417D01*
X6667398Y1376759D01*
G37*
G36*
X6600855Y875946D02*
G01*
X6589745Y786900D01*
X6511192Y715482D01*
X6399738Y726422D01*
X6307933Y801392D01*
X6300353Y893024D01*
X6332617Y939801D01*
X6384523Y965553D01*
X6462043Y976401D01*
X6569075Y977601D01*
X6600855Y875946D01*
G37*
G36*
X8912289Y424557D02*
G01*
X8936918Y413496D01*
X8964732Y397679D01*
X8851735Y124881D01*
X8812136Y141283D01*
X8736291Y183225D01*
X8693553Y232500D01*
X8694709Y351443D01*
X8731529Y409220D01*
X8782449Y438817D01*
X8843896Y443007D01*
X8912289Y424557D01*
G37*
G36*
X3614613Y3174509D02*
G01*
X9343382Y801575D01*
X9648936Y675010D01*
X10116946Y481154D01*
X9002748Y-885025D01*
X8697193Y-758460D01*
X8059197Y-494193D01*
X7702800Y-346569D01*
X7275496Y-169574D01*
X8193659Y-169574D01*
X8382859Y-247942D01*
X8455109Y-176705D01*
X8531492Y-111044D01*
X8611820Y-48308D01*
X8695903Y14162D01*
X8789769Y-24718D01*
X8651257Y-359117D01*
X8831656Y-433841D01*
X9202237Y460821D01*
X9148861Y495818D01*
X9088098Y529578D01*
X9028017Y558761D01*
X8977292Y581489D01*
X8901403Y607769D01*
X8829203Y622210D01*
X8761272Y624145D01*
X8698192Y612900D01*
X8589950Y548624D01*
X8546359Y494726D01*
X8510770Y425915D01*
X8487548Y347042D01*
X8483500Y268818D01*
X8502858Y194215D01*
X8549862Y126203D01*
X8462131Y63741D01*
X8367769Y-10581D01*
X8275252Y-90821D01*
X8193659Y-169574D01*
X7275496Y-169574D01*
X6711338Y64108D01*
X6280102Y242732D01*
X7579395Y242732D01*
X7606689Y132839D01*
X7655435Y67304D01*
X7729659Y9352D01*
X7829364Y-41015D01*
X7933436Y-77035D01*
X8019787Y-91538D01*
X8139516Y-88724D01*
X8147467Y79812D01*
X8034642Y74997D01*
X7967213Y84885D01*
X7891939Y110050D01*
X7820354Y150871D01*
X7783622Y197015D01*
X7775217Y245172D01*
X7786539Y291172D01*
X7823328Y334356D01*
X7880493Y356212D01*
X7948984Y363927D01*
X8021215Y364078D01*
X8120254Y362575D01*
X8220235Y377866D01*
X8309706Y425861D01*
X8377824Y523940D01*
X8404190Y646188D01*
X8377580Y757730D01*
X8331947Y823408D01*
X8265850Y878852D01*
X8179282Y924065D01*
X8099025Y951723D01*
X8025452Y965445D01*
X7902969Y966349D01*
X7898055Y805147D01*
X7994034Y806629D01*
X8103509Y778466D01*
X8178567Y733821D01*
X8212101Y679264D01*
X8204108Y614797D01*
X8170305Y574673D01*
X8118326Y554966D01*
X8055753Y549094D01*
X7990174Y550483D01*
X7886558Y551305D01*
X7779621Y533741D01*
X7681800Y478035D01*
X7640091Y430230D01*
X7605533Y364429D01*
X7579395Y242732D01*
X6280102Y242732D01*
X6214141Y270054D01*
X5546811Y546471D01*
X4045139Y1168484D01*
X5409249Y1168484D01*
X5438139Y1047407D01*
X5474525Y991095D01*
X5525555Y939028D01*
X5591688Y892304D01*
X5673376Y852025D01*
X5747064Y826656D01*
X5822020Y808497D01*
X5889266Y798684D01*
X5937748Y797504D01*
X5947974Y864109D01*
X6108815Y864109D01*
X6129364Y760232D01*
X6202293Y660433D01*
X6262103Y615039D01*
X6340705Y575608D01*
X6408268Y552562D01*
X6473091Y540532D01*
X6589939Y548836D01*
X6684469Y600750D01*
X6713906Y643563D01*
X6836230Y643563D01*
X6934497Y602860D01*
X6845800Y388728D01*
X7026199Y314004D01*
X7114894Y528137D01*
X7493293Y371399D01*
X7547969Y503398D01*
X7541357Y577662D01*
X7529868Y662966D01*
X7514120Y755618D01*
X7494731Y851927D01*
X7471827Y950122D01*
X7445535Y1048430D01*
X7415953Y1142948D01*
X7383182Y1229764D01*
X7221849Y1296590D01*
X6995856Y750993D01*
X6897589Y791696D01*
X6836230Y643563D01*
X6713906Y643563D01*
X6749299Y695037D01*
X6768950Y765294D01*
X6770797Y838202D01*
X6753132Y912746D01*
X6714249Y987919D01*
X6787349Y1010907D01*
X6841129Y1045335D01*
X6908337Y1141214D01*
X6930907Y1239259D01*
X6917312Y1345410D01*
X6853970Y1445534D01*
X6799382Y1490053D01*
X6726431Y1527573D01*
X6602599Y1559965D01*
X6492169Y1549004D01*
X6403132Y1497391D01*
X6343483Y1407831D01*
X6325287Y1342126D01*
X6322948Y1271142D01*
X6339386Y1198822D01*
X6377525Y1129113D01*
X6285250Y1108054D01*
X6215719Y1072417D01*
X6164961Y1022992D01*
X6129006Y960562D01*
X6108815Y864109D01*
X5947974Y864109D01*
X5963048Y962291D01*
X5868765Y966978D01*
X5808564Y980315D01*
X5738630Y1005416D01*
X5656225Y1053296D01*
X5614413Y1105841D01*
X5604592Y1158880D01*
X5617307Y1210317D01*
X5658631Y1274820D01*
X5730975Y1308430D01*
X5851888Y1299585D01*
X5935328Y1275978D01*
X6037451Y1237329D01*
X6074751Y1364712D01*
X6113920Y1488315D01*
X6154289Y1607552D01*
X6195188Y1721847D01*
X5731724Y1913820D01*
X5669758Y1764221D01*
X5982156Y1634822D01*
X5948786Y1533517D01*
X5921491Y1446881D01*
X5804305Y1477856D01*
X5701710Y1485986D01*
X5613709Y1471270D01*
X5540110Y1434170D01*
X5480723Y1375145D01*
X5435546Y1294197D01*
X5409249Y1168484D01*
X4045139Y1168484D01*
X3849887Y1249360D01*
X3198690Y1519095D01*
X2968425Y1614473D01*
X2872586Y1654171D01*
X3790750Y1654171D01*
X3984349Y1573980D01*
X4113756Y1766095D01*
X4355755Y1665856D01*
X4309947Y1439113D01*
X4497679Y1361352D01*
X4515488Y1477521D01*
X4531600Y1589925D01*
X4546014Y1698566D01*
X4558731Y1803440D01*
X4569752Y1904551D01*
X4582154Y2027051D01*
X4593928Y2146482D01*
X4605076Y2262843D01*
X4615596Y2376136D01*
X4419064Y2457542D01*
X4344906Y2369643D01*
X4269587Y2278680D01*
X4193107Y2184656D01*
X4115465Y2087568D01*
X4052413Y2007115D01*
X3988417Y1923550D01*
X3923474Y1836870D01*
X3857585Y1747078D01*
X3790750Y1654171D01*
X2872586Y1654171D01*
X2662872Y1741038D01*
X2873701Y2250025D01*
X3231679Y2250025D01*
X3461944Y2154646D01*
X3356238Y1899447D01*
X3511703Y1835051D01*
X3617410Y2090250D01*
X3847676Y1994871D01*
X3909035Y2143004D01*
X3678769Y2238383D01*
X3784476Y2493582D01*
X3629010Y2557978D01*
X3523303Y2302779D01*
X3293038Y2398158D01*
X3231679Y2250025D01*
X2873701Y2250025D01*
X3309059Y3301073D01*
X3614613Y3174509D01*
G37*
%TO.C,kibuzzard-63B84F81*%
G36*
X-563332Y2329316D02*
G01*
X-498859Y2273400D01*
X-483842Y2187278D01*
X-504924Y2078307D01*
X-525678Y2017312D01*
X-550821Y1952981D01*
X-578607Y1889530D01*
X-607289Y1831175D01*
X-669435Y1739214D01*
X-740648Y1689670D01*
X-825776Y1695719D01*
X-889515Y1751332D01*
X-905265Y1837756D01*
X-884184Y1946728D01*
X-863430Y2007722D01*
X-838285Y2072053D01*
X-810500Y2135505D01*
X-781819Y2193860D01*
X-719671Y2285821D01*
X-648458Y2335366D01*
X-563332Y2329316D01*
G37*
G36*
X-3549157Y4107922D02*
G01*
X2091368Y1771540D01*
X2396922Y1644976D01*
X1751341Y86406D01*
X1445787Y212970D01*
X-351481Y957423D01*
X-1018810Y1233840D01*
X-1463208Y1417915D01*
X-1495141Y1431142D01*
X-452525Y1431142D01*
X-367048Y1345047D01*
X-302982Y1301112D01*
X-224916Y1262978D01*
X-101261Y1227795D01*
X13526Y1228361D01*
X119446Y1264675D01*
X191932Y1314443D01*
X257160Y1382469D01*
X315130Y1468749D01*
X365841Y1573288D01*
X402337Y1683177D01*
X418270Y1786978D01*
X415060Y1883457D01*
X394132Y1971383D01*
X356174Y2049824D01*
X301873Y2117850D01*
X232653Y2174232D01*
X149935Y2217729D01*
X59328Y2245809D01*
X-16466Y2255725D01*
X-74711Y2254078D01*
X-112068Y2248931D01*
X-124671Y2085758D01*
X-27780Y2089441D01*
X87865Y2059581D01*
X164352Y2009857D01*
X214955Y1928755D01*
X226497Y1811427D01*
X213401Y1737810D01*
X184331Y1653627D01*
X138793Y1560513D01*
X88042Y1488461D01*
X32077Y1437469D01*
X-64249Y1404555D01*
X-177513Y1427200D01*
X-287429Y1491630D01*
X-348130Y1554576D01*
X-452525Y1431142D01*
X-1495141Y1431142D01*
X-2792001Y1968319D01*
X-2823309Y1981287D01*
X-1905143Y1981287D01*
X-1328746Y1742536D01*
X-1287987Y1840936D01*
X-1092746Y1840936D01*
X-1083267Y1758559D01*
X-1046240Y1665421D01*
X-982566Y1592366D01*
X-892246Y1539394D01*
X-788560Y1512006D01*
X-690657Y1518133D01*
X-598536Y1557777D01*
X-533903Y1609456D01*
X-473851Y1679894D01*
X-418379Y1769089D01*
X-367488Y1877043D01*
X-327277Y1989419D01*
X-303843Y2091885D01*
X-297186Y2184440D01*
X-307308Y2267084D01*
X-344986Y2360490D01*
X-408660Y2433546D01*
X-498328Y2486249D01*
X-601932Y2513604D01*
X-699592Y2507374D01*
X-791306Y2467562D01*
X-855617Y2415750D01*
X-915439Y2345217D01*
X-970774Y2255964D01*
X-1021618Y2147992D01*
X-1061922Y2035653D01*
X-1085631Y1933301D01*
X-1092746Y1840936D01*
X-1287987Y1840936D01*
X-1266780Y1892135D01*
X-1464779Y1974149D01*
X-1212662Y2582813D01*
X-1014663Y2500799D01*
X-952697Y2650398D01*
X-1529094Y2889150D01*
X-1591060Y2739550D01*
X-1394527Y2658144D01*
X-1646644Y2049480D01*
X-1843178Y2130887D01*
X-1905143Y1981287D01*
X-2823309Y1981287D01*
X-3575705Y2292940D01*
X-2657539Y2292940D01*
X-2087008Y2056619D01*
X-1710959Y2964481D01*
X-1892825Y3039812D01*
X-2206908Y2281549D01*
X-2595573Y2442539D01*
X-2657539Y2292940D01*
X-3575705Y2292940D01*
X-4194738Y2549352D01*
X-4500292Y2675916D01*
X-3854711Y4234486D01*
X-3549157Y4107922D01*
G37*
%TO.C,kibuzzard-63B84A0B*%
G36*
X10458466Y-10643201D02*
G01*
X10546023Y-10694838D01*
X10630774Y-10748158D01*
X10716648Y-10805968D01*
X10580821Y-10941795D01*
X10522450Y-10856482D01*
X10468568Y-10772293D01*
X10416932Y-10684735D01*
X10363050Y-10589320D01*
X10458466Y-10643201D01*
G37*
G36*
X11453029Y-10395122D02*
G01*
X11441804Y-10408592D01*
X11429455Y-10420940D01*
X11332356Y-10482118D01*
X11231329Y-10484363D01*
X11128617Y-10437778D01*
X11076980Y-10398770D01*
X11025344Y-10351342D01*
X10944522Y-10257050D01*
X10892885Y-10158268D01*
X10886711Y-10060045D01*
X10942277Y-9965192D01*
X10963044Y-9945548D01*
X10986055Y-9928148D01*
X11453029Y-10395122D01*
G37*
G36*
X12180056Y-10378284D02*
G01*
X11946195Y-10612145D01*
X11798021Y-10760319D01*
X11042556Y-11515783D01*
X10534050Y-12024290D01*
X10351077Y-12207263D01*
X10117216Y-12441124D01*
X8945666Y-11269574D01*
X9413388Y-11269574D01*
X9527886Y-11384073D01*
X9710859Y-11201099D01*
X10291209Y-11781449D01*
X10430403Y-11642255D01*
X9850053Y-11061905D01*
X10033026Y-10878933D01*
X9918527Y-10764435D01*
X9413388Y-11269574D01*
X8945666Y-11269574D01*
X8937808Y-11261716D01*
X9171669Y-11027855D01*
X9666331Y-10533193D01*
X10149769Y-10533193D01*
X10202598Y-10635343D01*
X10257813Y-10739738D01*
X10315413Y-10846379D01*
X10375398Y-10955265D01*
X10425597Y-11044304D01*
X10478312Y-11135409D01*
X10533540Y-11228579D01*
X10591284Y-11323815D01*
X10651541Y-11421116D01*
X10799715Y-11272942D01*
X10671747Y-11079866D01*
X10856964Y-10894649D01*
X11048917Y-11023740D01*
X11192601Y-10880056D01*
X11092090Y-10819147D01*
X10994407Y-10761247D01*
X10899553Y-10706355D01*
X10807527Y-10654471D01*
X10718332Y-10605596D01*
X10609902Y-10547260D01*
X10504068Y-10490677D01*
X10400830Y-10435849D01*
X10300188Y-10382774D01*
X10149769Y-10533193D01*
X9666331Y-10533193D01*
X10062023Y-10137501D01*
X10697003Y-10137501D01*
X10711175Y-10221550D01*
X10745833Y-10308687D01*
X10803083Y-10398770D01*
X10885027Y-10491659D01*
X10980443Y-10575007D01*
X11073612Y-10631976D01*
X11163976Y-10664810D01*
X11250973Y-10675754D01*
X11334601Y-10665933D01*
X11414862Y-10636466D01*
X11491475Y-10589320D01*
X11564160Y-10526458D01*
X11632634Y-10450125D01*
X11695496Y-10361445D01*
X11017487Y-9683436D01*
X10915336Y-9758646D01*
X10834513Y-9832733D01*
X10774037Y-9903312D01*
X10729556Y-9978101D01*
X10703177Y-10056398D01*
X10697003Y-10137501D01*
X10062023Y-10137501D01*
X10766787Y-9432737D01*
X11000648Y-9198876D01*
X12180056Y-10378284D01*
G37*
%TO.C,kibuzzard-63BC5952*%
G36*
X10002835Y-12549834D02*
G01*
X9768973Y-12783695D01*
X9581511Y-12971158D01*
X9038205Y-13514463D01*
X8699201Y-13853468D01*
X8465340Y-14087329D01*
X8112191Y-14440478D01*
X7288178Y-12910167D01*
X7755900Y-12910167D01*
X7842194Y-12966434D01*
X7939433Y-13027472D01*
X8045654Y-13091597D01*
X8158888Y-13157124D01*
X8237653Y-13201091D01*
X8318288Y-13244682D01*
X8400794Y-13287899D01*
X8483799Y-13329994D01*
X8565931Y-13370218D01*
X8647190Y-13408572D01*
X8789752Y-13266010D01*
X8735028Y-13155721D01*
X8671886Y-13033646D01*
X8626673Y-12948770D01*
X8580836Y-12864767D01*
X8534375Y-12781637D01*
X8488165Y-12700752D01*
X8443076Y-12623485D01*
X8399110Y-12549835D01*
X8339055Y-12452735D01*
X8289102Y-12376965D01*
X8143173Y-12522894D01*
X8192986Y-12589544D01*
X8248129Y-12668262D01*
X8306361Y-12754837D01*
X8365435Y-12845060D01*
X8423806Y-12937108D01*
X8479932Y-13029155D01*
X8531289Y-13117274D01*
X8575348Y-13197536D01*
X8496069Y-13154178D01*
X8408652Y-13102682D01*
X8317166Y-13045994D01*
X8225679Y-12987061D01*
X8135736Y-12927426D01*
X8048880Y-12868634D01*
X7969181Y-12813629D01*
X7900706Y-12765361D01*
X7755900Y-12910167D01*
X7288178Y-12910167D01*
X7522039Y-12676306D01*
X7921286Y-12277059D01*
X8389008Y-12277059D01*
X8503506Y-12391557D01*
X8742605Y-12152458D01*
X8823428Y-12222055D01*
X8893024Y-12280427D01*
X8819562Y-12376840D01*
X8772789Y-12468513D01*
X8752708Y-12555447D01*
X8758820Y-12637642D01*
X8790625Y-12715096D01*
X8848123Y-12787811D01*
X8954202Y-12860214D01*
X9077120Y-12879859D01*
X9143069Y-12867792D01*
X9210701Y-12840571D01*
X9279176Y-12797352D01*
X9347650Y-12737297D01*
X9399287Y-12678926D01*
X9444749Y-12616625D01*
X9479548Y-12558253D01*
X9499192Y-12513914D01*
X9356630Y-12427478D01*
X9316219Y-12512791D01*
X9280860Y-12563305D01*
X9230907Y-12618309D01*
X9155136Y-12676120D01*
X9090591Y-12694641D01*
X9037831Y-12683416D01*
X8995175Y-12651985D01*
X8951396Y-12589123D01*
X8948029Y-12509424D01*
X9002472Y-12401099D01*
X9056212Y-12333045D01*
X9131001Y-12253486D01*
X9027588Y-12170278D01*
X8928384Y-12086790D01*
X8833670Y-12003863D01*
X8743728Y-11922339D01*
X8389008Y-12277059D01*
X7921286Y-12277059D01*
X8591812Y-11606534D01*
X8825673Y-11372672D01*
X10002835Y-12549834D01*
G37*
D12*
%TO.C,REF\u002A\u002A*%
X-3243977Y16709753D02*
X-3236101Y16691695D01*
X-3213834Y16637350D01*
X-3185002Y16563979D01*
X-3150954Y16475272D01*
X-3113037Y16374921D01*
X-3072601Y16266620D01*
X-3030997Y16154059D01*
X-2989567Y16040930D01*
X-2949665Y15930927D01*
X-2912640Y15827740D01*
X-2879838Y15735062D01*
X-2852611Y15656585D01*
X-2832304Y15596001D01*
X-2820268Y15557001D01*
X-2817852Y15543278D01*
X-2820722Y15543062D01*
X-2848658Y15539798D01*
X-2904117Y15532858D01*
X-2984753Y15522546D01*
X-3088228Y15509169D01*
X-3212198Y15493032D01*
X-3354322Y15474439D01*
X-3512261Y15453697D01*
X-3683672Y15431111D01*
X-3866213Y15406985D01*
X-4057544Y15381624D01*
X-4129062Y15372136D01*
X-4317025Y15347232D01*
X-4495118Y15323684D01*
X-4661026Y15301799D01*
X-4812434Y15281877D01*
X-4947027Y15264221D01*
X-5062490Y15249137D01*
X-5156509Y15236927D01*
X-5226768Y15227894D01*
X-5270951Y15222341D01*
X-5286745Y15220572D01*
X-5284602Y15224110D01*
X-5265060Y15241453D01*
X-5231291Y15268103D01*
X-5210884Y15283703D01*
X-5167438Y15317003D01*
X-5103482Y15366058D01*
X-5021097Y15429274D01*
X-4922357Y15505060D01*
X-4809342Y15591817D01*
X-4684129Y15687952D01*
X-4548797Y15791870D01*
X-4405421Y15901976D01*
X-4256082Y16016674D01*
X-4109870Y16128944D01*
X-3967760Y16237998D01*
X-3834172Y16340450D01*
X-3711108Y16434764D01*
X-3600575Y16519406D01*
X-3504576Y16592841D01*
X-3425116Y16653537D01*
X-3364201Y16699957D01*
X-3323834Y16730567D01*
X-3306021Y16743834D01*
X-3270514Y16768545D01*
X-3243977Y16709753D01*
G36*
X-3243977Y16709753D02*
G01*
X-3236101Y16691695D01*
X-3213834Y16637350D01*
X-3185002Y16563979D01*
X-3150954Y16475272D01*
X-3113037Y16374921D01*
X-3072601Y16266620D01*
X-3030997Y16154059D01*
X-2989567Y16040930D01*
X-2949665Y15930927D01*
X-2912640Y15827740D01*
X-2879838Y15735062D01*
X-2852611Y15656585D01*
X-2832304Y15596001D01*
X-2820268Y15557001D01*
X-2817852Y15543278D01*
X-2820722Y15543062D01*
X-2848658Y15539798D01*
X-2904117Y15532858D01*
X-2984753Y15522546D01*
X-3088228Y15509169D01*
X-3212198Y15493032D01*
X-3354322Y15474439D01*
X-3512261Y15453697D01*
X-3683672Y15431111D01*
X-3866213Y15406985D01*
X-4057544Y15381624D01*
X-4129062Y15372136D01*
X-4317025Y15347232D01*
X-4495118Y15323684D01*
X-4661026Y15301799D01*
X-4812434Y15281877D01*
X-4947027Y15264221D01*
X-5062490Y15249137D01*
X-5156509Y15236927D01*
X-5226768Y15227894D01*
X-5270951Y15222341D01*
X-5286745Y15220572D01*
X-5284602Y15224110D01*
X-5265060Y15241453D01*
X-5231291Y15268103D01*
X-5210884Y15283703D01*
X-5167438Y15317003D01*
X-5103482Y15366058D01*
X-5021097Y15429274D01*
X-4922357Y15505060D01*
X-4809342Y15591817D01*
X-4684129Y15687952D01*
X-4548797Y15791870D01*
X-4405421Y15901976D01*
X-4256082Y16016674D01*
X-4109870Y16128944D01*
X-3967760Y16237998D01*
X-3834172Y16340450D01*
X-3711108Y16434764D01*
X-3600575Y16519406D01*
X-3504576Y16592841D01*
X-3425116Y16653537D01*
X-3364201Y16699957D01*
X-3323834Y16730567D01*
X-3306021Y16743834D01*
X-3270514Y16768545D01*
X-3243977Y16709753D01*
G37*
X-402637Y18963134D02*
X-398616Y18942705D01*
X-391082Y18894502D01*
X-380364Y18821061D01*
X-366794Y18724916D01*
X-350705Y18608601D01*
X-332428Y18474650D01*
X-312294Y18325600D01*
X-290634Y18163984D01*
X-267780Y17992337D01*
X-244064Y17813193D01*
X-219816Y17629087D01*
X-195370Y17442552D01*
X-171056Y17256126D01*
X-147205Y17072341D01*
X-124148Y16893732D01*
X-102219Y16722833D01*
X-81749Y16562179D01*
X-63067Y16414304D01*
X-46507Y16281745D01*
X-32399Y16167034D01*
X-21075Y16072705D01*
X-12866Y16001295D01*
X-8105Y15955338D01*
X-7122Y15937367D01*
X-7162Y15937249D01*
X-25277Y15926321D01*
X-69651Y15913461D01*
X-135772Y15899751D01*
X-219126Y15886286D01*
X-274501Y15878521D01*
X-353658Y15868615D01*
X-407792Y15864132D01*
X-440429Y15865019D01*
X-455094Y15871221D01*
X-455311Y15882686D01*
X-454979Y15884403D01*
X-459096Y15908732D01*
X-471610Y15952387D01*
X-490247Y16007251D01*
X-499377Y16031282D01*
X-530615Y16098734D01*
X-570000Y16161640D01*
X-620367Y16222544D01*
X-684553Y16283984D01*
X-765394Y16348503D01*
X-865728Y16418642D01*
X-988390Y16496941D01*
X-1136219Y16585942D01*
X-1306599Y16687817D01*
X-1470123Y16789163D01*
X-1611588Y16881453D01*
X-1734076Y16966937D01*
X-1840676Y17047864D01*
X-1934473Y17126486D01*
X-2018551Y17205051D01*
X-2095996Y17285809D01*
X-2151368Y17348890D01*
X-2202880Y17412472D01*
X-2242096Y17466429D01*
X-2265953Y17506528D01*
X-2271395Y17528537D01*
X-2270514Y17529627D01*
X-2252274Y17545352D01*
X-2212343Y17577563D01*
X-2153031Y17624487D01*
X-2076645Y17684351D01*
X-1985495Y17755383D01*
X-1881890Y17835807D01*
X-1768136Y17923853D01*
X-1646544Y18017746D01*
X-1519422Y18115714D01*
X-1389079Y18215981D01*
X-1257822Y18316777D01*
X-1127962Y18416327D01*
X-1001806Y18512859D01*
X-881662Y18604599D01*
X-769840Y18689775D01*
X-668648Y18766611D01*
X-580395Y18833337D01*
X-507389Y18888178D01*
X-451939Y18929362D01*
X-416353Y18955114D01*
X-402941Y18963662D01*
X-402637Y18963134D01*
G36*
X-402637Y18963134D02*
G01*
X-398616Y18942705D01*
X-391082Y18894502D01*
X-380364Y18821061D01*
X-366794Y18724916D01*
X-350705Y18608601D01*
X-332428Y18474650D01*
X-312294Y18325600D01*
X-290634Y18163984D01*
X-267780Y17992337D01*
X-244064Y17813193D01*
X-219816Y17629087D01*
X-195370Y17442552D01*
X-171056Y17256126D01*
X-147205Y17072341D01*
X-124148Y16893732D01*
X-102219Y16722833D01*
X-81749Y16562179D01*
X-63067Y16414304D01*
X-46507Y16281745D01*
X-32399Y16167034D01*
X-21075Y16072705D01*
X-12866Y16001295D01*
X-8105Y15955338D01*
X-7122Y15937367D01*
X-7162Y15937249D01*
X-25277Y15926321D01*
X-69651Y15913461D01*
X-135772Y15899751D01*
X-219126Y15886286D01*
X-274501Y15878521D01*
X-353658Y15868615D01*
X-407792Y15864132D01*
X-440429Y15865019D01*
X-455094Y15871221D01*
X-455311Y15882686D01*
X-454979Y15884403D01*
X-459096Y15908732D01*
X-471610Y15952387D01*
X-490247Y16007251D01*
X-499377Y16031282D01*
X-530615Y16098734D01*
X-570000Y16161640D01*
X-620367Y16222544D01*
X-684553Y16283984D01*
X-765394Y16348503D01*
X-865728Y16418642D01*
X-988390Y16496941D01*
X-1136219Y16585942D01*
X-1306599Y16687817D01*
X-1470123Y16789163D01*
X-1611588Y16881453D01*
X-1734076Y16966937D01*
X-1840676Y17047864D01*
X-1934473Y17126486D01*
X-2018551Y17205051D01*
X-2095996Y17285809D01*
X-2151368Y17348890D01*
X-2202880Y17412472D01*
X-2242096Y17466429D01*
X-2265953Y17506528D01*
X-2271395Y17528537D01*
X-2270514Y17529627D01*
X-2252274Y17545352D01*
X-2212343Y17577563D01*
X-2153031Y17624487D01*
X-2076645Y17684351D01*
X-1985495Y17755383D01*
X-1881890Y17835807D01*
X-1768136Y17923853D01*
X-1646544Y18017746D01*
X-1519422Y18115714D01*
X-1389079Y18215981D01*
X-1257822Y18316777D01*
X-1127962Y18416327D01*
X-1001806Y18512859D01*
X-881662Y18604599D01*
X-769840Y18689775D01*
X-668648Y18766611D01*
X-580395Y18833337D01*
X-507389Y18888178D01*
X-451939Y18929362D01*
X-416353Y18955114D01*
X-402941Y18963662D01*
X-402637Y18963134D01*
G37*
X58762Y15288898D02*
X78026Y15283050D01*
X86588Y15272088D01*
X88619Y15261954D01*
X94713Y15222931D01*
X104196Y15157465D01*
X116722Y15068101D01*
X131944Y14957383D01*
X149516Y14827860D01*
X169091Y14682075D01*
X190322Y14522574D01*
X212861Y14351903D01*
X236363Y14172606D01*
X242791Y14123391D01*
X268211Y13928797D01*
X293806Y13732912D01*
X319054Y13539738D01*
X343432Y13353274D01*
X366416Y13177521D01*
X387484Y13016481D01*
X406111Y12874154D01*
X421776Y12754540D01*
X433955Y12661641D01*
X491517Y12222891D01*
X-2372467Y13409192D01*
X-2490862Y13458246D01*
X-2772990Y13575234D01*
X-3046429Y13688756D01*
X-3309850Y13798256D01*
X-3561923Y13903174D01*
X-3801319Y14002956D01*
X-4026709Y14097042D01*
X-4236764Y14184876D01*
X-4430153Y14265900D01*
X-4605548Y14339557D01*
X-4761619Y14405290D01*
X-4897037Y14462541D01*
X-5010473Y14510753D01*
X-5100597Y14549368D01*
X-5166079Y14577832D01*
X-5205592Y14595582D01*
X-5217804Y14602065D01*
X-5205814Y14604307D01*
X-5165120Y14610420D01*
X-5098544Y14619821D01*
X-5008781Y14632159D01*
X-4898525Y14647082D01*
X-4770471Y14664241D01*
X-4627312Y14683286D01*
X-4471745Y14703864D01*
X-4306465Y14725625D01*
X-4134164Y14748220D01*
X-3957540Y14771296D01*
X-3779285Y14794504D01*
X-3602094Y14817492D01*
X-3428663Y14839911D01*
X-3261686Y14861408D01*
X-3103857Y14881634D01*
X-2957872Y14900238D01*
X-2826424Y14916869D01*
X-2712210Y14931177D01*
X-2617923Y14942811D01*
X-2546258Y14951419D01*
X-2499909Y14956654D01*
X-2481573Y14958160D01*
X-2472505Y14952149D01*
X-2450040Y14922321D01*
X-2421110Y14872320D01*
X-2388971Y14807446D01*
X-2361853Y14744597D01*
X-2328929Y14660647D01*
X-2293299Y14563801D01*
X-2256680Y14459289D01*
X-2220784Y14352342D01*
X-2187332Y14248190D01*
X-2158038Y14152063D01*
X-2134619Y14069193D01*
X-2118791Y14004810D01*
X-2112271Y13964144D01*
X-2108759Y13934964D01*
X-2092888Y13871011D01*
X-2067985Y13799653D01*
X-2037912Y13730315D01*
X-2006526Y13672431D01*
X-1977690Y13635423D01*
X-1938104Y13613233D01*
X-1876886Y13603888D01*
X-1811104Y13613353D01*
X-1751499Y13641348D01*
X-1739572Y13650076D01*
X-1722622Y13665441D01*
X-1707210Y13685997D01*
X-1690908Y13716527D01*
X-1671295Y13761816D01*
X-1645945Y13826648D01*
X-1612435Y13915807D01*
X-1593455Y13967548D01*
X-1564574Y14049846D01*
X-1540654Y14122435D01*
X-1523768Y14178923D01*
X-1515992Y14212918D01*
X-1513991Y14254604D01*
X-1523022Y14342065D01*
X-1547975Y14451601D01*
X-1589174Y14584509D01*
X-1646939Y14742086D01*
X-1672603Y14809027D01*
X-1701811Y14887551D01*
X-1725390Y14953636D01*
X-1741405Y15001833D01*
X-1747924Y15026689D01*
X-1748156Y15030303D01*
X-1744570Y15043964D01*
X-1729793Y15054635D01*
X-1698925Y15063909D01*
X-1647065Y15073371D01*
X-1569313Y15084611D01*
X-1503451Y15093601D01*
X-1382389Y15109805D01*
X-1287321Y15121964D01*
X-1215072Y15130436D01*
X-1162471Y15135582D01*
X-1126344Y15137759D01*
X-1103518Y15137327D01*
X-1079659Y15137455D01*
X-1063030Y15144012D01*
X-1060798Y15146257D01*
X-1037187Y15154114D01*
X-997399Y15160348D01*
X-935946Y15166595D01*
X-913155Y15116692D01*
X-905846Y15097273D01*
X-891109Y15046621D01*
X-874915Y14980433D01*
X-859640Y14907987D01*
X-828918Y14749184D01*
X-966042Y14427283D01*
X-1103164Y14105381D01*
X-1169174Y14079147D01*
X-1191743Y14069395D01*
X-1272801Y14017158D01*
X-1338486Y13942323D01*
X-1392139Y13841322D01*
X-1412978Y13783929D01*
X-1436473Y13677196D01*
X-1441829Y13573119D01*
X-1428007Y13482102D01*
X-1408465Y13442908D01*
X-1362535Y13400262D01*
X-1302049Y13372484D01*
X-1235320Y13361757D01*
X-1170656Y13370267D01*
X-1116367Y13400197D01*
X-1114192Y13402137D01*
X-1074233Y13437479D01*
X-1032168Y13474286D01*
X-994738Y13509692D01*
X-936525Y13571388D01*
X-868368Y13648948D01*
X-793003Y13738789D01*
X-713165Y13837332D01*
X-631590Y13940994D01*
X-551012Y14046196D01*
X-474168Y14149355D01*
X-403793Y14246891D01*
X-342622Y14335222D01*
X-293391Y14410766D01*
X-258835Y14469944D01*
X-241688Y14509174D01*
X-239692Y14518873D01*
X-237658Y14571312D01*
X-243638Y14645072D01*
X-257173Y14733518D01*
X-263054Y14765807D01*
X-286058Y14897066D01*
X-304558Y15011181D01*
X-318197Y15105521D01*
X-326617Y15177445D01*
X-329459Y15224316D01*
X-326365Y15243495D01*
X-325632Y15243913D01*
X-303277Y15249390D01*
X-257115Y15257206D01*
X-193434Y15266377D01*
X-118520Y15275924D01*
X-112209Y15276678D01*
X-31459Y15285621D01*
X23899Y15289724D01*
X58762Y15288898D01*
G36*
X58762Y15288898D02*
G01*
X78026Y15283050D01*
X86588Y15272088D01*
X88619Y15261954D01*
X94713Y15222931D01*
X104196Y15157465D01*
X116722Y15068101D01*
X131944Y14957383D01*
X149516Y14827860D01*
X169091Y14682075D01*
X190322Y14522574D01*
X212861Y14351903D01*
X236363Y14172606D01*
X242791Y14123391D01*
X268211Y13928797D01*
X293806Y13732912D01*
X319054Y13539738D01*
X343432Y13353274D01*
X366416Y13177521D01*
X387484Y13016481D01*
X406111Y12874154D01*
X421776Y12754540D01*
X433955Y12661641D01*
X491517Y12222891D01*
X-2372467Y13409192D01*
X-2490862Y13458246D01*
X-2772990Y13575234D01*
X-3046429Y13688756D01*
X-3309850Y13798256D01*
X-3561923Y13903174D01*
X-3801319Y14002956D01*
X-4026709Y14097042D01*
X-4236764Y14184876D01*
X-4430153Y14265900D01*
X-4605548Y14339557D01*
X-4761619Y14405290D01*
X-4897037Y14462541D01*
X-5010473Y14510753D01*
X-5100597Y14549368D01*
X-5166079Y14577832D01*
X-5205592Y14595582D01*
X-5217804Y14602065D01*
X-5205814Y14604307D01*
X-5165120Y14610420D01*
X-5098544Y14619821D01*
X-5008781Y14632159D01*
X-4898525Y14647082D01*
X-4770471Y14664241D01*
X-4627312Y14683286D01*
X-4471745Y14703864D01*
X-4306465Y14725625D01*
X-4134164Y14748220D01*
X-3957540Y14771296D01*
X-3779285Y14794504D01*
X-3602094Y14817492D01*
X-3428663Y14839911D01*
X-3261686Y14861408D01*
X-3103857Y14881634D01*
X-2957872Y14900238D01*
X-2826424Y14916869D01*
X-2712210Y14931177D01*
X-2617923Y14942811D01*
X-2546258Y14951419D01*
X-2499909Y14956654D01*
X-2481573Y14958160D01*
X-2472505Y14952149D01*
X-2450040Y14922321D01*
X-2421110Y14872320D01*
X-2388971Y14807446D01*
X-2361853Y14744597D01*
X-2328929Y14660647D01*
X-2293299Y14563801D01*
X-2256680Y14459289D01*
X-2220784Y14352342D01*
X-2187332Y14248190D01*
X-2158038Y14152063D01*
X-2134619Y14069193D01*
X-2118791Y14004810D01*
X-2112271Y13964144D01*
X-2108759Y13934964D01*
X-2092888Y13871011D01*
X-2067985Y13799653D01*
X-2037912Y13730315D01*
X-2006526Y13672431D01*
X-1977690Y13635423D01*
X-1938104Y13613233D01*
X-1876886Y13603888D01*
X-1811104Y13613353D01*
X-1751499Y13641348D01*
X-1739572Y13650076D01*
X-1722622Y13665441D01*
X-1707210Y13685997D01*
X-1690908Y13716527D01*
X-1671295Y13761816D01*
X-1645945Y13826648D01*
X-1612435Y13915807D01*
X-1593455Y13967548D01*
X-1564574Y14049846D01*
X-1540654Y14122435D01*
X-1523768Y14178923D01*
X-1515992Y14212918D01*
X-1513991Y14254604D01*
X-1523022Y14342065D01*
X-1547975Y14451601D01*
X-1589174Y14584509D01*
X-1646939Y14742086D01*
X-1672603Y14809027D01*
X-1701811Y14887551D01*
X-1725390Y14953636D01*
X-1741405Y15001833D01*
X-1747924Y15026689D01*
X-1748156Y15030303D01*
X-1744570Y15043964D01*
X-1729793Y15054635D01*
X-1698925Y15063909D01*
X-1647065Y15073371D01*
X-1569313Y15084611D01*
X-1503451Y15093601D01*
X-1382389Y15109805D01*
X-1287321Y15121964D01*
X-1215072Y15130436D01*
X-1162471Y15135582D01*
X-1126344Y15137759D01*
X-1103518Y15137327D01*
X-1079659Y15137455D01*
X-1063030Y15144012D01*
X-1060798Y15146257D01*
X-1037187Y15154114D01*
X-997399Y15160348D01*
X-935946Y15166595D01*
X-913155Y15116692D01*
X-905846Y15097273D01*
X-891109Y15046621D01*
X-874915Y14980433D01*
X-859640Y14907987D01*
X-828918Y14749184D01*
X-966042Y14427283D01*
X-1103164Y14105381D01*
X-1169174Y14079147D01*
X-1191743Y14069395D01*
X-1272801Y14017158D01*
X-1338486Y13942323D01*
X-1392139Y13841322D01*
X-1412978Y13783929D01*
X-1436473Y13677196D01*
X-1441829Y13573119D01*
X-1428007Y13482102D01*
X-1408465Y13442908D01*
X-1362535Y13400262D01*
X-1302049Y13372484D01*
X-1235320Y13361757D01*
X-1170656Y13370267D01*
X-1116367Y13400197D01*
X-1114192Y13402137D01*
X-1074233Y13437479D01*
X-1032168Y13474286D01*
X-994738Y13509692D01*
X-936525Y13571388D01*
X-868368Y13648948D01*
X-793003Y13738789D01*
X-713165Y13837332D01*
X-631590Y13940994D01*
X-551012Y14046196D01*
X-474168Y14149355D01*
X-403793Y14246891D01*
X-342622Y14335222D01*
X-293391Y14410766D01*
X-258835Y14469944D01*
X-241688Y14509174D01*
X-239692Y14518873D01*
X-237658Y14571312D01*
X-243638Y14645072D01*
X-257173Y14733518D01*
X-263054Y14765807D01*
X-286058Y14897066D01*
X-304558Y15011181D01*
X-318197Y15105521D01*
X-326617Y15177445D01*
X-329459Y15224316D01*
X-326365Y15243495D01*
X-325632Y15243913D01*
X-303277Y15249390D01*
X-257115Y15257206D01*
X-193434Y15266377D01*
X-118520Y15275924D01*
X-112209Y15276678D01*
X-31459Y15285621D01*
X23899Y15289724D01*
X58762Y15288898D01*
G37*
D10*
%TO.C,kibuzzard-63BC590D*%
G36*
X-1777181Y-5985628D02*
G01*
X-2107911Y-5985628D01*
X-2373023Y-5985628D01*
X-3141373Y-5985628D01*
X-3620798Y-5985628D01*
X-3951527Y-5985628D01*
X-4450955Y-5985628D01*
X-4050746Y-4651599D01*
X-3620798Y-4651599D01*
X-3599565Y-4752405D01*
X-3573967Y-4864324D01*
X-3544201Y-4984776D01*
X-3510467Y-5111180D01*
X-3485861Y-5197964D01*
X-3459667Y-5285805D01*
X-3431886Y-5374705D01*
X-3402958Y-5463164D01*
X-3373324Y-5549683D01*
X-3342986Y-5634262D01*
X-3141373Y-5634262D01*
X-3102082Y-5517580D01*
X-3060411Y-5386612D01*
X-3045406Y-5337399D01*
X-2761961Y-5337399D01*
X-2738148Y-5463605D01*
X-2665123Y-5564412D01*
X-2609957Y-5602512D01*
X-2542886Y-5631087D01*
X-2463907Y-5648946D01*
X-2373023Y-5654899D01*
X-2295236Y-5650137D01*
X-2219036Y-5638230D01*
X-2153154Y-5621562D01*
X-2107911Y-5604099D01*
X-2147598Y-5442174D01*
X-2236498Y-5473924D01*
X-2297220Y-5484640D01*
X-2371436Y-5488212D01*
X-2465892Y-5475512D01*
X-2524629Y-5442968D01*
X-2553998Y-5397724D01*
X-2561936Y-5345337D01*
X-2548442Y-5269930D01*
X-2494467Y-5211193D01*
X-2379373Y-5173093D01*
X-2293251Y-5162972D01*
X-2184111Y-5159599D01*
X-2198398Y-5027638D01*
X-2209511Y-4898455D01*
X-2217845Y-4772844D01*
X-2223798Y-4651599D01*
X-2725448Y-4651599D01*
X-2725448Y-4813524D01*
X-2387311Y-4813524D01*
X-2379373Y-4919887D01*
X-2371436Y-5010374D01*
X-2491556Y-5026602D01*
X-2589452Y-5058352D01*
X-2665123Y-5105624D01*
X-2718922Y-5168066D01*
X-2751201Y-5245324D01*
X-2761961Y-5337399D01*
X-3045406Y-5337399D01*
X-3032365Y-5294625D01*
X-3005377Y-5202814D01*
X-2979448Y-5111180D01*
X-2954930Y-5021310D01*
X-2932176Y-4934791D01*
X-2911186Y-4851624D01*
X-2884992Y-4740499D01*
X-2866736Y-4651599D01*
X-3073111Y-4651599D01*
X-3085017Y-4733951D01*
X-3101686Y-4828605D01*
X-3121728Y-4930999D01*
X-3143754Y-5036568D01*
X-3167567Y-5142930D01*
X-3192967Y-5247705D01*
X-3218962Y-5346329D01*
X-3244561Y-5434237D01*
X-3269961Y-5347519D01*
X-3295361Y-5249293D01*
X-3319967Y-5144518D01*
X-3342986Y-5038155D01*
X-3364417Y-4932388D01*
X-3384261Y-4829399D01*
X-3401723Y-4734149D01*
X-3416011Y-4651599D01*
X-3620798Y-4651599D01*
X-4050746Y-4651599D01*
X-3951527Y-4320870D01*
X-3620798Y-4320870D01*
X-2107911Y-4320870D01*
X-1777181Y-4320870D01*
X-1777181Y-5985628D01*
G37*
%TO.C,kibuzzard-63BC58F7*%
G36*
X2188256Y-2426131D02*
G01*
X2258503Y-2536859D01*
X2291841Y-2699975D01*
X2298091Y-2796416D01*
X2300175Y-2900000D01*
X2298091Y-3003882D01*
X2291841Y-3101216D01*
X2258503Y-3264331D01*
X2188256Y-3373869D01*
X2066812Y-3414350D01*
X1946559Y-3373869D01*
X1875122Y-3263141D01*
X1841784Y-3100025D01*
X1835534Y-3003584D01*
X1833450Y-2900000D01*
X1835534Y-2796118D01*
X1841784Y-2698784D01*
X1875122Y-2535669D01*
X1945369Y-2426131D01*
X2066812Y-2385650D01*
X2188256Y-2426131D01*
G37*
G36*
X4949779Y-4165237D02*
G01*
X4453685Y-4165237D01*
X3109800Y-4165237D01*
X2064431Y-4165237D01*
X880950Y-4165237D01*
X-423975Y-4165237D01*
X-1993219Y-4165237D01*
X-2653685Y-4165237D01*
X-3149779Y-4165237D01*
X-3908921Y-4165237D01*
X-3750806Y-3638187D01*
X-1993219Y-3638187D01*
X-1700325Y-3638187D01*
X-1700325Y-2988106D01*
X-1309800Y-2988106D01*
X-1309800Y-3638187D01*
X-1016906Y-3638187D01*
X-1016906Y-3566750D01*
X-835931Y-3566750D01*
X-668053Y-3636997D01*
X-554051Y-3661107D01*
X-423975Y-3669144D01*
X-232417Y-3646919D01*
X-73667Y-3580244D01*
X52275Y-3469119D01*
X124159Y-3358539D01*
X175505Y-3226827D01*
X200103Y-3104787D01*
X373744Y-3104787D01*
X379697Y-3227422D01*
X397556Y-3338150D01*
X430298Y-3435186D01*
X480900Y-3516744D01*
X549956Y-3581930D01*
X638062Y-3629853D01*
X747600Y-3659321D01*
X880950Y-3669144D01*
X1012216Y-3659321D01*
X1120266Y-3629853D01*
X1273856Y-3516744D01*
X1322672Y-3435186D01*
X1354819Y-3338150D01*
X1372678Y-3227422D01*
X1378631Y-3104787D01*
X1378631Y-2900000D01*
X1535794Y-2900000D01*
X1544426Y-3078817D01*
X1570322Y-3234268D01*
X1613482Y-3366353D01*
X1673906Y-3475072D01*
X1778681Y-3582890D01*
X1908856Y-3647580D01*
X2064431Y-3669144D01*
X2223843Y-3647580D01*
X2356002Y-3582890D01*
X2460909Y-3475072D01*
X2520813Y-3366353D01*
X2563601Y-3234268D01*
X2589274Y-3078817D01*
X2597831Y-2900000D01*
X2589050Y-2721183D01*
X2562708Y-2565732D01*
X2518804Y-2433647D01*
X2503784Y-2407081D01*
X2721656Y-2407081D01*
X3109800Y-2407081D01*
X3109800Y-3638187D01*
X3405075Y-3638187D01*
X3405075Y-2407081D01*
X3793219Y-2407081D01*
X3793219Y-2164194D01*
X2721656Y-2164194D01*
X2721656Y-2407081D01*
X2503784Y-2407081D01*
X2457337Y-2324928D01*
X2351504Y-2217110D01*
X2221329Y-2152420D01*
X2066812Y-2130856D01*
X1907533Y-2152420D01*
X1775771Y-2217110D01*
X1671525Y-2324928D01*
X1612143Y-2433647D01*
X1569727Y-2565732D01*
X1544277Y-2721183D01*
X1535794Y-2900000D01*
X1378631Y-2900000D01*
X1378631Y-2164194D01*
X1083356Y-2164194D01*
X1083356Y-3085737D01*
X1073831Y-3241709D01*
X1041684Y-3342912D01*
X978581Y-3397681D01*
X876187Y-3414350D01*
X773794Y-3397681D01*
X709500Y-3341722D01*
X676162Y-3239328D01*
X666637Y-3083356D01*
X666637Y-2164194D01*
X373744Y-2164194D01*
X373744Y-3104787D01*
X200103Y-3104787D01*
X206312Y-3073980D01*
X216581Y-2900000D01*
X204080Y-2726764D01*
X166575Y-2573769D01*
X106746Y-2441907D01*
X27272Y-2332072D01*
X-70359Y-2245156D01*
X-184659Y-2182053D01*
X-312949Y-2143655D01*
X-452550Y-2130856D01*
X-594234Y-2143953D01*
X-704963Y-2173719D01*
X-784734Y-2209437D01*
X-833550Y-2238012D01*
X-757350Y-2471375D01*
X-625191Y-2410653D01*
X-447788Y-2385650D01*
X-313247Y-2410653D01*
X-196566Y-2493997D01*
X-113222Y-2649969D01*
X-89112Y-2759506D01*
X-81075Y-2892856D01*
X-90732Y-3048034D01*
X-119704Y-3177019D01*
X-167991Y-3279809D01*
X-282588Y-3380715D01*
X-452550Y-3414350D01*
X-641859Y-3388156D01*
X-762113Y-3335769D01*
X-835931Y-3566750D01*
X-1016906Y-3566750D01*
X-1016906Y-2164194D01*
X-1309800Y-2164194D01*
X-1309800Y-2745219D01*
X-1700325Y-2745219D01*
X-1700325Y-2164194D01*
X-1993219Y-2164194D01*
X-1993219Y-3638187D01*
X-3750806Y-3638187D01*
X-3149779Y-1634762D01*
X-2653685Y-1634762D01*
X4453685Y-1634762D01*
X4949779Y-1634762D01*
X5708921Y-1634762D01*
X4949779Y-4165237D01*
G37*
%TO.C,kibuzzard-63BC5902*%
G36*
X2231417Y-4824677D02*
G01*
X2259992Y-4828646D01*
X2259992Y-5489046D01*
X2242529Y-5490633D01*
X2225067Y-5490633D01*
X2113148Y-5465233D01*
X2040123Y-5395383D01*
X2000436Y-5289815D01*
X1991506Y-5225719D01*
X1988529Y-5155671D01*
X1998055Y-5031846D01*
X2031392Y-4925483D01*
X2096480Y-4851665D01*
X2202842Y-4823883D01*
X2231417Y-4824677D01*
G37*
G36*
X4416346Y-5999163D02*
G01*
X4085617Y-5999163D01*
X3683980Y-5999163D01*
X2771167Y-5999163D01*
X2245705Y-5999163D01*
X1790092Y-5999163D01*
X1459363Y-5999163D01*
X1459363Y-5155671D01*
X1790092Y-5155671D01*
X1798625Y-5282076D01*
X1824223Y-5388240D01*
X1864903Y-5475354D01*
X1918679Y-5544608D01*
X1984759Y-5596798D01*
X2062348Y-5632715D01*
X2149859Y-5653551D01*
X2245705Y-5660496D01*
X2348098Y-5654940D01*
X2390029Y-5647796D01*
X2614004Y-5647796D01*
X2771167Y-5647796D01*
X2816940Y-5538876D01*
X2865359Y-5430132D01*
X2916423Y-5321565D01*
X2970134Y-5212997D01*
X3026490Y-5104254D01*
X3085492Y-4995333D01*
X3085492Y-5647796D01*
X3261705Y-5647796D01*
X3261705Y-4714346D01*
X3391880Y-4714346D01*
X3442680Y-4869921D01*
X3528405Y-4830233D01*
X3633180Y-4812771D01*
X3750655Y-4838171D01*
X3829236Y-4908815D01*
X3873686Y-5016765D01*
X3883806Y-5082844D01*
X3887180Y-5155671D01*
X3881006Y-5262827D01*
X3862485Y-5349346D01*
X3831617Y-5415227D01*
X3762958Y-5477735D01*
X3668105Y-5498571D01*
X3630005Y-5496983D01*
X3591905Y-5492221D01*
X3591905Y-5133446D01*
X3396642Y-5133446D01*
X3396642Y-5623983D01*
X3505386Y-5652558D01*
X3586944Y-5664465D01*
X3683980Y-5668433D01*
X3771490Y-5660298D01*
X3849873Y-5635890D01*
X3918334Y-5595408D01*
X3976080Y-5539052D01*
X4022514Y-5466821D01*
X4057042Y-5378715D01*
X4078473Y-5274932D01*
X4085617Y-5155671D01*
X4077283Y-5037601D01*
X4052280Y-4934215D01*
X4012989Y-4845910D01*
X3961792Y-4773083D01*
X3899483Y-4716132D01*
X3826855Y-4675452D01*
X3746289Y-4651044D01*
X3660167Y-4642908D01*
X3557773Y-4651640D01*
X3479192Y-4671483D01*
X3424423Y-4695296D01*
X3391880Y-4714346D01*
X3261705Y-4714346D01*
X3261705Y-4665133D01*
X3104542Y-4665133D01*
X3060092Y-4737960D01*
X3015642Y-4816740D01*
X2971787Y-4898298D01*
X2929123Y-4979458D01*
X2888642Y-5059230D01*
X2851336Y-5136621D01*
X2818197Y-5208058D01*
X2790217Y-5269971D01*
X2790217Y-4665133D01*
X2614004Y-4665133D01*
X2614004Y-5647796D01*
X2390029Y-5647796D01*
X2455255Y-5636683D01*
X2455255Y-4677833D01*
X2329842Y-4658783D01*
X2220305Y-4654021D01*
X2127634Y-4661165D01*
X2043298Y-4682596D01*
X1969281Y-4719307D01*
X1907567Y-4772290D01*
X1858156Y-4841743D01*
X1821048Y-4927865D01*
X1797831Y-5032044D01*
X1790092Y-5155671D01*
X1459363Y-5155671D01*
X1459363Y-4312179D01*
X1790092Y-4312179D01*
X4085617Y-4312179D01*
X4416346Y-4312179D01*
X4922441Y-4312179D01*
X4416346Y-5999163D01*
G37*
%TO.C,kibuzzard-668AB654*%
G36*
X5703200Y-264461D02*
G01*
X5759671Y-311694D01*
X5782416Y-392639D01*
X5778530Y-464247D01*
X5759024Y-548670D01*
X5723903Y-645907D01*
X5679643Y-740313D01*
X5633537Y-814291D01*
X5585583Y-867836D01*
X5512262Y-908990D01*
X5438934Y-902457D01*
X5437654Y-901397D01*
X5381546Y-854846D01*
X5358985Y-773976D01*
X5363346Y-702374D01*
X5383297Y-617563D01*
X5385439Y-611655D01*
X5489797Y-611655D01*
X5535883Y-664251D01*
X5607863Y-660559D01*
X5658112Y-601472D01*
X5664665Y-523427D01*
X5616682Y-469186D01*
X5546599Y-474522D01*
X5495313Y-534039D01*
X5489797Y-611655D01*
X5385439Y-611655D01*
X5418838Y-519545D01*
X5462678Y-425920D01*
X5508338Y-352330D01*
X5555818Y-298779D01*
X5628956Y-257550D01*
X5703200Y-264461D01*
G37*
G36*
X2952612Y1413270D02*
G01*
X8067432Y-705358D01*
X8372986Y-831922D01*
X8840556Y-1025596D01*
X7727405Y-2390492D01*
X7421851Y-2263928D01*
X5247973Y-1363478D01*
X4608509Y-1098604D01*
X3638539Y-696829D01*
X4556706Y-696829D01*
X4742972Y-773983D01*
X4753076Y-762405D01*
X5180671Y-762405D01*
X5188473Y-843389D01*
X5223398Y-934225D01*
X5285419Y-1005736D01*
X5374538Y-1057923D01*
X5474455Y-1084037D01*
X5568877Y-1077327D01*
X5657804Y-1037792D01*
X5720585Y-986044D01*
X5779661Y-914720D01*
X5835034Y-823818D01*
X5886702Y-713340D01*
X5927663Y-599932D01*
X5952131Y-497303D01*
X5960106Y-405455D01*
X5951586Y-324388D01*
X5916172Y-233351D01*
X5854640Y-162043D01*
X5766989Y-110462D01*
X5667104Y-84266D01*
X5572784Y-90733D01*
X5484026Y-129860D01*
X5421416Y-181196D01*
X5362547Y-252016D01*
X5307422Y-342321D01*
X5256039Y-452111D01*
X5214454Y-566766D01*
X5189331Y-670197D01*
X5180671Y-762405D01*
X4753076Y-762405D01*
X4823923Y-681219D01*
X4912542Y-576167D01*
X4973656Y-501915D01*
X5033723Y-427421D01*
X5092745Y-352685D01*
X5149789Y-279039D01*
X5203920Y-207813D01*
X5255139Y-139008D01*
X5321865Y-46366D01*
X5372752Y28780D01*
X5182087Y107757D01*
X5139572Y36230D01*
X5087949Y-44841D01*
X5030248Y-131770D01*
X4969500Y-220874D01*
X4906796Y-310028D01*
X4843234Y-397107D01*
X4781476Y-478275D01*
X4724185Y-549695D01*
X4733903Y-459859D01*
X4748027Y-359389D01*
X4765389Y-253173D01*
X4784826Y-146099D01*
X4805501Y-40181D01*
X4826580Y62563D01*
X4846898Y157245D01*
X4865288Y238979D01*
X4676090Y317347D01*
X4657129Y216088D01*
X4637950Y102894D01*
X4619355Y-19780D01*
X4602148Y-149473D01*
X4591670Y-239066D01*
X4582255Y-330246D01*
X4573901Y-423010D01*
X4566775Y-515805D01*
X4561043Y-607079D01*
X4556706Y-696829D01*
X3638539Y-696829D01*
X2307031Y-145300D01*
X2001478Y-18736D01*
X2647058Y1539834D01*
X2952612Y1413270D01*
G37*
%TO.C,kibuzzard-63BC594B*%
G36*
X12506411Y-9343984D02*
G01*
X12495185Y-9357455D01*
X12482837Y-9369802D01*
X12385738Y-9430981D01*
X12284710Y-9433226D01*
X12182000Y-9386641D01*
X12130362Y-9347632D01*
X12078726Y-9300206D01*
X11997904Y-9205913D01*
X11946267Y-9107130D01*
X11940094Y-9008909D01*
X11995659Y-8914054D01*
X12016426Y-8894410D01*
X12039438Y-8877011D01*
X12506411Y-9343984D01*
G37*
G36*
X14391891Y-8179919D02*
G01*
X14158030Y-8413780D01*
X13874030Y-8697780D01*
X13228573Y-9343236D01*
X12857016Y-9714794D01*
X12534849Y-10036961D01*
X12300988Y-10270822D01*
X11116530Y-9086364D01*
X11750386Y-9086364D01*
X11764558Y-9170413D01*
X11799216Y-9257550D01*
X11856465Y-9347632D01*
X11938410Y-9440522D01*
X12033825Y-9523870D01*
X12126995Y-9580839D01*
X12217359Y-9613673D01*
X12304354Y-9624618D01*
X12387984Y-9614796D01*
X12468245Y-9585329D01*
X12544858Y-9538183D01*
X12617542Y-9475320D01*
X12686016Y-9398989D01*
X12748878Y-9310308D01*
X12070869Y-8632298D01*
X11968718Y-8707508D01*
X11887896Y-8781596D01*
X11827419Y-8852175D01*
X11782939Y-8926964D01*
X11756560Y-9005261D01*
X11750386Y-9086364D01*
X11116530Y-9086364D01*
X11108110Y-9077944D01*
X11341971Y-8844083D01*
X11674988Y-8511066D01*
X12174141Y-8511066D01*
X12868988Y-9205913D01*
X12980119Y-9094782D01*
X12935468Y-8985398D01*
X12892812Y-8874267D01*
X12852151Y-8761391D01*
X12813361Y-8646642D01*
X12776318Y-8529900D01*
X12741020Y-8411160D01*
X13202381Y-8872521D01*
X13326982Y-8747920D01*
X12632135Y-8053072D01*
X12521004Y-8164203D01*
X12541069Y-8247130D01*
X12565344Y-8334267D01*
X12592004Y-8422948D01*
X12619225Y-8510504D01*
X12647008Y-8595536D01*
X12675352Y-8676639D01*
X12702433Y-8750585D01*
X12726427Y-8814149D01*
X12298742Y-8386464D01*
X12174141Y-8511066D01*
X11674988Y-8511066D01*
X12190231Y-7995823D01*
X12758981Y-7995823D01*
X12904910Y-8069910D01*
X12937463Y-7981230D01*
X12999203Y-7894795D01*
X13100231Y-7829688D01*
X13205749Y-7824076D01*
X13313512Y-7868977D01*
X13367393Y-7908546D01*
X13421275Y-7957657D01*
X13492680Y-8037794D01*
X13540762Y-8112068D01*
X13565520Y-8180480D01*
X13561170Y-8273229D01*
X13508832Y-8355033D01*
X13480769Y-8380851D01*
X13450461Y-8404425D01*
X13196768Y-8150733D01*
X13058697Y-8288804D01*
X13405559Y-8635666D01*
X13502658Y-8578978D01*
X13568748Y-8529728D01*
X13640168Y-8463919D01*
X13696295Y-8396287D01*
X13734461Y-8323603D01*
X13754245Y-8246569D01*
X13755228Y-8165887D01*
X13736987Y-8081978D01*
X13699101Y-7995262D01*
X13640870Y-7906723D01*
X13561591Y-7817341D01*
X13472210Y-7739746D01*
X13381425Y-7684321D01*
X13291201Y-7649663D01*
X13203503Y-7634368D01*
X13119173Y-7638157D01*
X13039053Y-7660747D01*
X12964825Y-7700457D01*
X12898174Y-7755601D01*
X12831945Y-7834179D01*
X12790411Y-7903776D01*
X12768522Y-7959341D01*
X12758981Y-7995823D01*
X12190231Y-7995823D01*
X12965152Y-7220902D01*
X13199013Y-6987041D01*
X13556876Y-6629178D01*
X14391891Y-8179919D01*
G37*
%TO.C,kibuzzard-668AB662*%
G36*
X-7359911Y4942681D02*
G01*
X-7338021Y4839967D01*
X-7320886Y4734067D01*
X-7311514Y4632243D01*
X-7516847Y4717294D01*
X-7384409Y5037026D01*
X-7359911Y4942681D01*
G37*
G36*
X-8391275Y6100736D02*
G01*
X-4384699Y4441158D01*
X-4079145Y4314593D01*
X-4724726Y2756023D01*
X-5030280Y2882588D01*
X-5479643Y3068720D01*
X-6484305Y3484865D01*
X-6981317Y3690734D01*
X-5617205Y3690734D01*
X-5588315Y3569656D01*
X-5551930Y3513345D01*
X-5500898Y3461278D01*
X-5434767Y3414555D01*
X-5353078Y3374275D01*
X-5279390Y3348906D01*
X-5204434Y3330746D01*
X-5137188Y3320934D01*
X-5088706Y3319754D01*
X-5063406Y3484541D01*
X-5157689Y3489228D01*
X-5217890Y3502565D01*
X-5287823Y3527666D01*
X-5370229Y3575546D01*
X-5412041Y3628091D01*
X-5421860Y3681130D01*
X-5409147Y3732567D01*
X-5367823Y3797069D01*
X-5295479Y3830680D01*
X-5174564Y3821835D01*
X-5091126Y3798228D01*
X-4989003Y3759579D01*
X-4951703Y3886961D01*
X-4912534Y4010565D01*
X-4872165Y4129802D01*
X-4831266Y4244097D01*
X-5294730Y4436070D01*
X-5356696Y4286471D01*
X-5044298Y4157072D01*
X-5077668Y4055767D01*
X-5104963Y3969131D01*
X-5222150Y4000106D01*
X-5324744Y4008236D01*
X-5412745Y3993520D01*
X-5486344Y3956420D01*
X-5545731Y3897395D01*
X-5590908Y3816447D01*
X-5617205Y3690734D01*
X-6981317Y3690734D01*
X-7327633Y3834183D01*
X-7981763Y4105132D01*
X-8111334Y4158802D01*
X-7193171Y4158802D01*
X-6600640Y3913369D01*
X-6581786Y3948516D01*
X-6569763Y3979621D01*
X-6547384Y4052830D01*
X-6543526Y4096950D01*
X-6230770Y4096950D01*
X-5828906Y3930493D01*
X-5755397Y4107959D01*
X-6157261Y4274418D01*
X-6230770Y4096950D01*
X-6543526Y4096950D01*
X-6541004Y4125792D01*
X-6547275Y4197766D01*
X-6562855Y4268011D01*
X-6585315Y4336166D01*
X-6612226Y4401869D01*
X-6640276Y4464822D01*
X-6666152Y4524726D01*
X-6702280Y4632479D01*
X-6697215Y4721451D01*
X-6627941Y4793277D01*
X-6530422Y4788109D01*
X-6449462Y4730516D01*
X-6385614Y4623312D01*
X-6243903Y4712386D01*
X-6284979Y4792118D01*
X-6341902Y4859514D01*
X-6409607Y4913332D01*
X-6483018Y4952332D01*
X-6596768Y4980546D01*
X-6707748Y4969813D01*
X-6804531Y4914535D01*
X-6875080Y4810589D01*
X-6894841Y4713100D01*
X-6882840Y4609327D01*
X-6849646Y4502790D01*
X-6805222Y4398474D01*
X-6778536Y4338448D01*
X-6752258Y4269143D01*
X-6736425Y4201584D01*
X-6741073Y4146805D01*
X-7131205Y4308403D01*
X-7193171Y4158802D01*
X-8111334Y4158802D01*
X-8389494Y4274020D01*
X-9036856Y4542166D01*
X-9342410Y4668731D01*
X-9359464Y4675795D01*
X-8441299Y4675795D01*
X-8255031Y4598641D01*
X-8180028Y4684588D01*
X-7856870Y4684588D01*
X-7758604Y4643885D01*
X-7847300Y4429753D01*
X-7666902Y4355029D01*
X-7578205Y4569161D01*
X-7199807Y4412424D01*
X-7145131Y4544423D01*
X-7151743Y4618686D01*
X-7163233Y4703990D01*
X-7178981Y4796643D01*
X-7198370Y4892952D01*
X-7221274Y4991146D01*
X-7247566Y5089455D01*
X-7277148Y5183971D01*
X-7309919Y5270789D01*
X-7471251Y5337615D01*
X-7697245Y4792018D01*
X-7795512Y4832721D01*
X-7856870Y4684588D01*
X-8180028Y4684588D01*
X-8174080Y4691404D01*
X-8085461Y4796457D01*
X-8024348Y4870709D01*
X-7964280Y4945202D01*
X-7905258Y5019938D01*
X-7848214Y5093585D01*
X-7794083Y5164810D01*
X-7742864Y5233615D01*
X-7676138Y5326257D01*
X-7625251Y5401404D01*
X-7815917Y5480380D01*
X-7858431Y5408853D01*
X-7910054Y5327782D01*
X-7967755Y5240853D01*
X-8028504Y5151749D01*
X-8091207Y5062595D01*
X-8154770Y4975516D01*
X-8216527Y4894348D01*
X-8273818Y4822928D01*
X-8264100Y4912764D01*
X-8249977Y5013234D01*
X-8232614Y5119450D01*
X-8213178Y5226525D01*
X-8192502Y5332442D01*
X-8171423Y5435186D01*
X-8151105Y5529868D01*
X-8132715Y5611602D01*
X-8321914Y5689971D01*
X-8340874Y5588712D01*
X-8360054Y5475517D01*
X-8378648Y5352843D01*
X-8395855Y5223151D01*
X-8406333Y5133557D01*
X-8415748Y5042378D01*
X-8424103Y4949614D01*
X-8431229Y4856818D01*
X-8436961Y4765545D01*
X-8441299Y4675795D01*
X-9359464Y4675795D01*
X-9809981Y4862405D01*
X-8696829Y6227301D01*
X-8391275Y6100736D01*
G37*
%TD*%
M02*
