M48
; DRILL file {KiCad 8.0.2} date 2024-09-09T19:27:52+0200
; FORMAT={-:-/ absolute / inch / decimal}
; #@! TF.CreationDate,2024-09-09T19:27:52+02:00
; #@! TF.GenerationSoftware,Kicad,Pcbnew,8.0.2
; #@! TF.FileFunction,MixedPlating,1,2
FMAT,2
INCH
; #@! TA.AperFunction,Plated,PTH,ComponentDrill
T1C0.0079
; #@! TA.AperFunction,Plated,PTH,ViaDrill
T2C0.0157
; #@! TA.AperFunction,Plated,PTH,ComponentDrill
T3C0.0197
; #@! TA.AperFunction,Plated,PTH,ComponentDrill
T4C0.0394
; #@! TA.AperFunction,NonPlated,NPTH,ComponentDrill
T5C0.0454
; #@! TA.AperFunction,NonPlated,NPTH,ComponentDrill
T6C0.1260
%
G90
G05
T1
X-0.2405Y0.1772
X-0.2405Y0.1398
X-0.2405Y0.1024
T2
X-0.6533Y0.0155
X-0.6533Y-0.016
X-0.6533Y-0.0475
X-0.6533Y-0.0751
X-0.6232Y0.1575
X-0.6232Y0.0902
X-0.5944Y-0.3602
X-0.5894Y0.0154
X-0.5799Y-0.1862
X-0.5783Y-0.3874
X-0.565Y0.1303
X-0.5554Y-0.4067
X-0.5543Y-0.2492
X-0.5496Y-0.1866
X-0.5276Y0.4055
X-0.5224Y-0.2583
X-0.5039Y0.4291
X-0.4961Y-0.1913
X-0.4803Y0.4528
X-0.4756Y0.1791
X-0.4669Y0.2811
X-0.4642Y-0.4654
X-0.4591Y-0.1354
X-0.4555Y-0.2339
X-0.4543Y-0.0311
X-0.4543Y-0.0716
X-0.4429Y-0.487
X-0.4197Y-0.5083
X-0.402Y0.5571
X-0.3929Y-0.4366
X-0.3819Y0.5819
X-0.3799Y0.2283
X-0.3701Y-0.0677
X-0.3562Y0.5998
X-0.3555Y0.4748
X-0.3406Y-0.1622
X-0.3394Y-0.4858
X-0.333Y0.1807
X-0.315Y0.3461
X-0.3039Y-0.5626
X-0.2886Y-0.4846
X-0.2769Y0.5539
X-0.2598Y-0.4488
X-0.2539Y0.5311
X-0.2405Y0.0364
X-0.2331Y-0.3382
X-0.2323Y-0.2484
X-0.2307Y-0.5717
X-0.2307Y-0.602
X-0.2252Y0.472
X-0.2248Y-0.6543
X-0.2102Y-0.1614
X-0.1996Y-0.5713
X-0.1988Y0.4913
X-0.1984Y-0.602
X-0.1957Y-0.6559
X-0.1854Y0.5744
X-0.1854Y0.5445
X-0.1837Y0.0364
X-0.1752Y-0.374
X-0.1705Y-0.3118
X-0.1638Y-0.1079
X-0.1579Y0.1947
X-0.1504Y-0.4835
X-0.15Y0.0748
X-0.1378Y-0.3354
X-0.1315Y-0.2094
X-0.1303Y0.1988
X-0.1234Y0.0364
X-0.1189Y0.0953
X-0.106Y0.5134
X-0.0906Y0.0634
X-0.0906Y-0.0622
X-0.0807Y-0.6217
X-0.0795Y-0.3331
X-0.0669Y0.6575
X-0.0449Y0.0565
X-0.0425Y0.2681
X-0.0425Y0.2358
X-0.0402Y-0.3771
X-0.0362Y-0.0431
X-0.0362Y-0.0744
X-0.0354Y0.6575
X-0.0157Y-0.6614
X-0.0156Y0.4337
X-0.0148Y0.4703
X-0.0063Y-0.0431
X-0.0039Y0.6575
X0.0118Y0.3927
X0.0157Y-0.6614
X0.0177Y0.4724
X0.0248Y0.3669
X0.0256Y0.1408
X0.0276Y0.6575
X0.0319Y-0.5921
X0.0339Y0.2346
X0.0453Y0.3894
X0.0472Y-0.6614
X0.0551Y0.5815
X0.0614Y0.4703
X0.0787Y-0.6614
X0.1035Y0.1984
X0.113Y0.0965
X0.1141Y0.1406
X0.128Y-0.578
X0.1366Y0.2224
X0.1461Y0.0961
X0.1469Y0.139
X0.1673Y-0.6736
X0.1713Y-0.5087
X0.1777Y-0.1488
X0.1803Y0.211
X0.2224Y-0.265
X0.2228Y-0.3287
X0.2339Y0.1004
X0.2382Y-0.5555
X0.2409Y-0.2175
X0.263Y-0.5276
X0.2732Y0.3445
X0.2742Y0.1896
X0.2768Y0.1575
X0.3114Y0.0821
X0.3373Y-0.1094
X0.3374Y-0.1416
X0.3543Y-0.4646
X0.3555Y0.2701
X0.3591Y-0.5941
X0.37Y-0.1102
X0.3705Y-0.1425
X0.3744Y0.1681
X0.3815Y0.4321
X0.3854Y-0.576
X0.4016Y-0.5488
X0.4134Y0.5118
X0.4165Y-0.2638
X0.437Y0.4882
X0.4543Y0.0803
X0.4606Y0.4646
X0.4654Y0.3535
X0.4705Y0.2264
X0.4717Y-0.3886
X0.4795Y0.1055
X0.4803Y-0.4528
X0.5039Y-0.4291
X0.5051Y-0.2626
X0.5173Y0.1429
X0.5205Y-0.3472
X0.5236Y0.2602
X0.5276Y-0.4055
X0.55Y-0.174
X0.5524Y0.272
X0.5563Y0.4071
X0.5783Y0.3854
X0.5811Y0.0512
X0.5811Y-0.0154
X0.5835Y0.1457
X0.5953Y-0.126
X0.5969Y0.3599
X0.6276Y-0.1602
X0.6409Y-0.1079
X0.6535Y0.0748
X0.6535Y0.0433
X0.6535Y0.0118
X0.6535Y-0.0197
T3
X-0.4689Y0.222
X0.5028Y0.1882
T4
X-0.4035Y-0.1535
X-0.2775Y-0.1535
X-0.0955Y-0.2736
X0.0045Y-0.2736
X0.1045Y-0.2736
X0.3154Y-0.2717
X0.3861Y-0.2009
X0.4568Y-0.1302
T5
X-0.6689Y0.1315
X0.5654Y-0.3791
T6
X-0.6008Y0.248
X0.6004Y-0.2484
M30
