%TF.GenerationSoftware,KiCad,Pcbnew,8.0.2*%
%TF.CreationDate,2024-09-09T19:27:49+02:00*%
%TF.ProjectId,AGS_Klingel_V2-1,4147535f-4b6c-4696-9e67-656c5f56322d,rev?*%
%TF.SameCoordinates,Original*%
%TF.FileFunction,Legend,Top*%
%TF.FilePolarity,Positive*%
%FSLAX46Y46*%
G04 Gerber Fmt 4.6, Leading zero omitted, Abs format (unit mm)*
G04 Created by KiCad (PCBNEW 8.0.2) date 2024-09-09 19:27:49*
%MOMM*%
%LPD*%
G01*
G04 APERTURE LIST*
%ADD10C,0.150000*%
%ADD11C,0.200000*%
%ADD12C,0.300000*%
%ADD13C,0.120000*%
G04 APERTURE END LIST*
D10*
X-5010000Y-5810000D02*
X-3750000Y-5810000D01*
X-3610000Y-3980000D02*
X-4990000Y-3970000D01*
X-1599936Y5199792D02*
X-1599936Y8499660D01*
X-1000000Y-8850000D02*
X-975000Y-12100000D01*
X-1940000Y-4930000D02*
X-1789511Y-5343465D01*
X-6410000Y-1607524D02*
X-10720000Y-1604813D01*
X-5450000Y-12275000D02*
X-8350000Y-12300000D01*
D11*
X17990000Y-6270000D02*
G75*
G02*
X12490000Y-6270000I-2750000J0D01*
G01*
X12490000Y-6270000D02*
G75*
G02*
X17990000Y-6270000I2750000J0D01*
G01*
D10*
X-6410000Y-6400000D02*
X-6410000Y-1580000D01*
X-9749610Y-15749370D02*
X-9749610Y-17349306D01*
D11*
X-12560000Y6340000D02*
G75*
G02*
X-18060000Y6340000I-2750000J0D01*
G01*
X-18060000Y6340000D02*
G75*
G02*
X-12560000Y6340000I2750000J0D01*
G01*
D10*
X-1480000Y-1390000D02*
X-1480000Y1650000D01*
X5600000Y-14875000D02*
X2800000Y-14875000D01*
X2100000Y1525000D02*
X2100000Y-1575000D01*
X-4990000Y-3970000D02*
X-4990000Y-5800000D01*
X-7830000Y5200000D02*
X-7830000Y4370000D01*
X10500000Y1525000D02*
X8875000Y1525000D01*
X-4199832Y-14999400D02*
X-4200000Y-13050000D01*
X-9349239Y6019526D02*
G75*
G02*
X-10974663Y6019526I-812712J0D01*
G01*
X-10974663Y6019526D02*
G75*
G02*
X-9349239Y6019526I812712J0D01*
G01*
X3550000Y-12125000D02*
X6375000Y-12125000D01*
X-9889988Y-2417524D02*
G75*
G02*
X-11515412Y-2417524I-812712J0D01*
G01*
X-11515412Y-2417524D02*
G75*
G02*
X-9889988Y-2417524I812712J0D01*
G01*
X-950000Y5190000D02*
X-4920000Y5190000D01*
X-1070000Y-4850000D02*
X-3070000Y-5590000D01*
X-3610000Y-5810000D02*
X-3610000Y-3980000D01*
X-7200000Y5200000D02*
X-7830000Y5200000D01*
X-3620000Y-5600000D02*
X-3070000Y-5590000D01*
X3525000Y-8850000D02*
X3550000Y-11925000D01*
X-1000000Y-8850000D02*
X3525000Y-8850000D01*
X-1053200Y-4851992D02*
X-1940000Y-4930000D01*
X-1789511Y-5343465D02*
X-1053200Y-4851992D01*
X-3727288Y-2177289D02*
G75*
G02*
X-5352712Y-2177289I-812712J0D01*
G01*
X-5352712Y-2177289D02*
G75*
G02*
X-3727288Y-2177289I812712J0D01*
G01*
X-1480000Y1650000D02*
X-900000Y1650000D01*
X-9549618Y-17599296D02*
X-5649774Y-17599296D01*
X-6099756Y8499660D02*
X-8899644Y8499660D01*
X-9349626Y6199752D02*
X-9349626Y8249670D01*
X9025423Y2050000D02*
G75*
G02*
X7399999Y2050000I-812712J0D01*
G01*
X7399999Y2050000D02*
G75*
G02*
X9025423Y2050000I812712J0D01*
G01*
X-10940000Y-3200000D02*
X-10930000Y-6390000D01*
X-6370000Y-1360000D02*
X-1480000Y-1390000D01*
X-3750000Y-5810000D02*
X-3610000Y-5810000D01*
X7625000Y1525000D02*
X2100000Y1525000D01*
X-1464972Y-4948655D02*
X-1783569Y-5213601D01*
X3550000Y-11900000D02*
X3550000Y-12125000D01*
X-1868211Y-5010289D02*
X-1464972Y-4948655D01*
D11*
X-4388021Y1649934D02*
G75*
G02*
X-4611619Y1649934I-111799J0D01*
G01*
X-4611619Y1649934D02*
G75*
G02*
X-4388021Y1649934I111799J0D01*
G01*
D10*
X-4199832Y-17599296D02*
X-4199832Y-14999400D01*
X-10940000Y-6390000D02*
X-6410000Y-6400000D01*
X-975000Y-12100000D02*
X1100000Y-12096201D01*
X-4124347Y-18049278D02*
G75*
G02*
X-5749771Y-18049278I-812712J0D01*
G01*
X-5749771Y-18049278D02*
G75*
G02*
X-4124347Y-18049278I812712J0D01*
G01*
X10500000Y-1600000D02*
X10500000Y1525000D01*
X-9775000Y-14825000D02*
X-9775000Y-13700000D01*
X-3824999Y-12350000D02*
G75*
G02*
X-5450423Y-12350000I-812712J0D01*
G01*
X-5450423Y-12350000D02*
G75*
G02*
X-3824999Y-12350000I812712J0D01*
G01*
X2100000Y-1575000D02*
X10500000Y-1600000D01*
X6375000Y-12125000D02*
X6382565Y-14565674D01*
X-1599936Y8499660D02*
X-6299748Y8499660D01*
X-7830000Y5200000D02*
X-10199592Y5200000D01*
X-9649614Y-14999400D02*
X-4199832Y-14999400D01*
D12*
X-6098761Y-3952550D02*
X-4955904Y-3952550D01*
X-5527332Y-4523978D02*
X-5527332Y-3381121D01*
D10*
X-5212772Y-17599335D02*
X-5165153Y-17551716D01*
X-5165153Y-17551716D02*
X-5069915Y-17504097D01*
X-5069915Y-17504097D02*
X-4831820Y-17504097D01*
X-4831820Y-17504097D02*
X-4736582Y-17551716D01*
X-4736582Y-17551716D02*
X-4688963Y-17599335D01*
X-4688963Y-17599335D02*
X-4641344Y-17694573D01*
X-4641344Y-17694573D02*
X-4641344Y-17789811D01*
X-4641344Y-17789811D02*
X-4688963Y-17932668D01*
X-4688963Y-17932668D02*
X-5260391Y-18504097D01*
X-5260391Y-18504097D02*
X-4641344Y-18504097D01*
X-10406985Y-2872343D02*
X-10978413Y-2872343D01*
X-10692699Y-2872343D02*
X-10692699Y-1872343D01*
X-10692699Y-1872343D02*
X-10787937Y-2015200D01*
X-10787937Y-2015200D02*
X-10883175Y-2110438D01*
X-10883175Y-2110438D02*
X-10978413Y-2158057D01*
X-10437664Y6469468D02*
X-10390045Y6517087D01*
X-10390045Y6517087D02*
X-10294807Y6564706D01*
X-10294807Y6564706D02*
X-10056712Y6564706D01*
X-10056712Y6564706D02*
X-9961474Y6517087D01*
X-9961474Y6517087D02*
X-9913855Y6469468D01*
X-9913855Y6469468D02*
X-9866236Y6374230D01*
X-9866236Y6374230D02*
X-9866236Y6278992D01*
X-9866236Y6278992D02*
X-9913855Y6136135D01*
X-9913855Y6136135D02*
X-10485283Y5564706D01*
X-10485283Y5564706D02*
X-9866236Y5564706D01*
D11*
X4025604Y5913191D02*
X3849627Y5986083D01*
X3849627Y5986083D02*
X3743415Y5978535D01*
X3743415Y5978535D02*
X3681198Y5952763D01*
X3681198Y5952763D02*
X3538540Y5857227D01*
X3538540Y5857227D02*
X3421654Y5699473D01*
X3421654Y5699473D02*
X3275870Y5347519D01*
X3275870Y5347519D02*
X3283418Y5241307D01*
X3283418Y5241307D02*
X3309189Y5179090D01*
X3309189Y5179090D02*
X3378955Y5098649D01*
X3378955Y5098649D02*
X3554932Y5025757D01*
X3554932Y5025757D02*
X3661143Y5033306D01*
X3661143Y5033306D02*
X3723361Y5059077D01*
X3723361Y5059077D02*
X3803801Y5128842D01*
X3803801Y5128842D02*
X3894916Y5348814D01*
X3894916Y5348814D02*
X3887368Y5455025D01*
X3887368Y5455025D02*
X3861597Y5517242D01*
X3861597Y5517242D02*
X3791831Y5597683D01*
X3791831Y5597683D02*
X3615854Y5670575D01*
X3615854Y5670575D02*
X3509642Y5663027D01*
X3509642Y5663027D02*
X3447425Y5637255D01*
X3447425Y5637255D02*
X3366985Y5567490D01*
D10*
X7889378Y2595180D02*
X8508425Y2595180D01*
X8508425Y2595180D02*
X8175092Y2214228D01*
X8175092Y2214228D02*
X8317949Y2214228D01*
X8317949Y2214228D02*
X8413187Y2166609D01*
X8413187Y2166609D02*
X8460806Y2118990D01*
X8460806Y2118990D02*
X8508425Y2023752D01*
X8508425Y2023752D02*
X8508425Y1785657D01*
X8508425Y1785657D02*
X8460806Y1690419D01*
X8460806Y1690419D02*
X8413187Y1642800D01*
X8413187Y1642800D02*
X8317949Y1595180D01*
X8317949Y1595180D02*
X8032235Y1595180D01*
X8032235Y1595180D02*
X7936997Y1642800D01*
X7936997Y1642800D02*
X7889378Y1690419D01*
D11*
X1199215Y7017433D02*
X1261432Y7043204D01*
X1261432Y7043204D02*
X1367644Y7050752D01*
X1367644Y7050752D02*
X1587615Y6959637D01*
X1587615Y6959637D02*
X1657381Y6879197D01*
X1657381Y6879197D02*
X1683152Y6816979D01*
X1683152Y6816979D02*
X1690700Y6710768D01*
X1690700Y6710768D02*
X1654254Y6622779D01*
X1654254Y6622779D02*
X1555591Y6509019D01*
X1555591Y6509019D02*
X808983Y6199765D01*
X808983Y6199765D02*
X1380909Y5962865D01*
D10*
X-4961043Y-11804819D02*
X-4341996Y-11804819D01*
X-4341996Y-11804819D02*
X-4675329Y-12185771D01*
X-4675329Y-12185771D02*
X-4532472Y-12185771D01*
X-4532472Y-12185771D02*
X-4437234Y-12233390D01*
X-4437234Y-12233390D02*
X-4389615Y-12281009D01*
X-4389615Y-12281009D02*
X-4341996Y-12376247D01*
X-4341996Y-12376247D02*
X-4341996Y-12614342D01*
X-4341996Y-12614342D02*
X-4389615Y-12709580D01*
X-4389615Y-12709580D02*
X-4437234Y-12757200D01*
X-4437234Y-12757200D02*
X-4532472Y-12804819D01*
X-4532472Y-12804819D02*
X-4818186Y-12804819D01*
X-4818186Y-12804819D02*
X-4913424Y-12757200D01*
X-4913424Y-12757200D02*
X-4961043Y-12709580D01*
X-4244285Y-2632108D02*
X-4815713Y-2632108D01*
X-4529999Y-2632108D02*
X-4529999Y-1632108D01*
X-4529999Y-1632108D02*
X-4625237Y-1774965D01*
X-4625237Y-1774965D02*
X-4720475Y-1870203D01*
X-4720475Y-1870203D02*
X-4815713Y-1917822D01*
D11*
X2698043Y6125231D02*
X2442920Y5509311D01*
X2623855Y6568300D02*
X2130539Y5999501D01*
X2130539Y5999501D02*
X2702464Y5762602D01*
D10*
X-9064770Y16968819D02*
X-9678051Y16714790D01*
X-9678051Y16714790D02*
X-9735258Y16648829D01*
X-9735258Y16648829D02*
X-9756391Y16597811D01*
X-9756391Y16597811D02*
X-9762580Y16510718D01*
X-9762580Y16510718D02*
X-9702809Y16366416D01*
X-9702809Y16366416D02*
X-9636848Y16309209D01*
X-9636848Y16309209D02*
X-9585829Y16288076D01*
X-9585829Y16288076D02*
X-9498736Y16281887D01*
X-9498736Y16281887D02*
X-8885456Y16535916D01*
X-8765913Y16247313D02*
X-8556713Y15742259D01*
X-8556713Y15742259D02*
X-9448780Y15753136D01*
X-2988451Y-3697142D02*
X-3378927Y-3970475D01*
X-2988451Y-4165713D02*
X-3808451Y-4165713D01*
X-3808451Y-4165713D02*
X-3808451Y-3853332D01*
X-3808451Y-3853332D02*
X-3769403Y-3775237D01*
X-3769403Y-3775237D02*
X-3730356Y-3736190D01*
X-3730356Y-3736190D02*
X-3652260Y-3697142D01*
X-3652260Y-3697142D02*
X-3535118Y-3697142D01*
X-3535118Y-3697142D02*
X-3457022Y-3736190D01*
X-3457022Y-3736190D02*
X-3417975Y-3775237D01*
X-3417975Y-3775237D02*
X-3378927Y-3853332D01*
X-3378927Y-3853332D02*
X-3378927Y-4165713D01*
X-2988451Y-2916190D02*
X-2988451Y-3384761D01*
X-2988451Y-3150475D02*
X-3808451Y-3150475D01*
X-3808451Y-3150475D02*
X-3691308Y-3228571D01*
X-3691308Y-3228571D02*
X-3613213Y-3306666D01*
X-3613213Y-3306666D02*
X-3574165Y-3384761D01*
X-3457022Y-2447619D02*
X-3496070Y-2525714D01*
X-3496070Y-2525714D02*
X-3535118Y-2564761D01*
X-3535118Y-2564761D02*
X-3613213Y-2603809D01*
X-3613213Y-2603809D02*
X-3652260Y-2603809D01*
X-3652260Y-2603809D02*
X-3730356Y-2564761D01*
X-3730356Y-2564761D02*
X-3769403Y-2525714D01*
X-3769403Y-2525714D02*
X-3808451Y-2447619D01*
X-3808451Y-2447619D02*
X-3808451Y-2291428D01*
X-3808451Y-2291428D02*
X-3769403Y-2213333D01*
X-3769403Y-2213333D02*
X-3730356Y-2174285D01*
X-3730356Y-2174285D02*
X-3652260Y-2135238D01*
X-3652260Y-2135238D02*
X-3613213Y-2135238D01*
X-3613213Y-2135238D02*
X-3535118Y-2174285D01*
X-3535118Y-2174285D02*
X-3496070Y-2213333D01*
X-3496070Y-2213333D02*
X-3457022Y-2291428D01*
X-3457022Y-2291428D02*
X-3457022Y-2447619D01*
X-3457022Y-2447619D02*
X-3417975Y-2525714D01*
X-3417975Y-2525714D02*
X-3378927Y-2564761D01*
X-3378927Y-2564761D02*
X-3300832Y-2603809D01*
X-3300832Y-2603809D02*
X-3144641Y-2603809D01*
X-3144641Y-2603809D02*
X-3066546Y-2564761D01*
X-3066546Y-2564761D02*
X-3027499Y-2525714D01*
X-3027499Y-2525714D02*
X-2988451Y-2447619D01*
X-2988451Y-2447619D02*
X-2988451Y-2291428D01*
X-2988451Y-2291428D02*
X-3027499Y-2213333D01*
X-3027499Y-2213333D02*
X-3066546Y-2174285D01*
X-3066546Y-2174285D02*
X-3144641Y-2135238D01*
X-3144641Y-2135238D02*
X-3300832Y-2135238D01*
X-3300832Y-2135238D02*
X-3378927Y-2174285D01*
X-3378927Y-2174285D02*
X-3417975Y-2213333D01*
X-3417975Y-2213333D02*
X-3457022Y-2291428D01*
X4195238Y-5796548D02*
X4195238Y-6460358D01*
X4195238Y-6460358D02*
X4234285Y-6538453D01*
X4234285Y-6538453D02*
X4273333Y-6577501D01*
X4273333Y-6577501D02*
X4351428Y-6616548D01*
X4351428Y-6616548D02*
X4507619Y-6616548D01*
X4507619Y-6616548D02*
X4585714Y-6577501D01*
X4585714Y-6577501D02*
X4624761Y-6538453D01*
X4624761Y-6538453D02*
X4663809Y-6460358D01*
X4663809Y-6460358D02*
X4663809Y-5796548D01*
X5405714Y-6069881D02*
X5405714Y-6616548D01*
X5210476Y-5757501D02*
X5015238Y-6343215D01*
X5015238Y-6343215D02*
X5522857Y-6343215D01*
X2714762Y1598451D02*
X2714762Y2418451D01*
X2714762Y2418451D02*
X2910000Y2418451D01*
X2910000Y2418451D02*
X3027143Y2379403D01*
X3027143Y2379403D02*
X3105238Y2301308D01*
X3105238Y2301308D02*
X3144285Y2223213D01*
X3144285Y2223213D02*
X3183333Y2067022D01*
X3183333Y2067022D02*
X3183333Y1949879D01*
X3183333Y1949879D02*
X3144285Y1793689D01*
X3144285Y1793689D02*
X3105238Y1715594D01*
X3105238Y1715594D02*
X3027143Y1637499D01*
X3027143Y1637499D02*
X2910000Y1598451D01*
X2910000Y1598451D02*
X2714762Y1598451D01*
X3651904Y2067022D02*
X3573809Y2106070D01*
X3573809Y2106070D02*
X3534762Y2145118D01*
X3534762Y2145118D02*
X3495714Y2223213D01*
X3495714Y2223213D02*
X3495714Y2262260D01*
X3495714Y2262260D02*
X3534762Y2340356D01*
X3534762Y2340356D02*
X3573809Y2379403D01*
X3573809Y2379403D02*
X3651904Y2418451D01*
X3651904Y2418451D02*
X3808095Y2418451D01*
X3808095Y2418451D02*
X3886190Y2379403D01*
X3886190Y2379403D02*
X3925238Y2340356D01*
X3925238Y2340356D02*
X3964285Y2262260D01*
X3964285Y2262260D02*
X3964285Y2223213D01*
X3964285Y2223213D02*
X3925238Y2145118D01*
X3925238Y2145118D02*
X3886190Y2106070D01*
X3886190Y2106070D02*
X3808095Y2067022D01*
X3808095Y2067022D02*
X3651904Y2067022D01*
X3651904Y2067022D02*
X3573809Y2027975D01*
X3573809Y2027975D02*
X3534762Y1988927D01*
X3534762Y1988927D02*
X3495714Y1910832D01*
X3495714Y1910832D02*
X3495714Y1754641D01*
X3495714Y1754641D02*
X3534762Y1676546D01*
X3534762Y1676546D02*
X3573809Y1637499D01*
X3573809Y1637499D02*
X3651904Y1598451D01*
X3651904Y1598451D02*
X3808095Y1598451D01*
X3808095Y1598451D02*
X3886190Y1637499D01*
X3886190Y1637499D02*
X3925238Y1676546D01*
X3925238Y1676546D02*
X3964285Y1754641D01*
X3964285Y1754641D02*
X3964285Y1910832D01*
X3964285Y1910832D02*
X3925238Y1988927D01*
X3925238Y1988927D02*
X3886190Y2027975D01*
X3886190Y2027975D02*
X3808095Y2067022D01*
X10175859Y-15420865D02*
X10120637Y-15420865D01*
X10120637Y-15420865D02*
X10010194Y-15365643D01*
X10010194Y-15365643D02*
X9954972Y-15310421D01*
X9954972Y-15310421D02*
X9899750Y-15199978D01*
X9899750Y-15199978D02*
X9899750Y-15089535D01*
X9899750Y-15089535D02*
X9927361Y-15006702D01*
X9927361Y-15006702D02*
X10010194Y-14868648D01*
X10010194Y-14868648D02*
X10093026Y-14785815D01*
X10093026Y-14785815D02*
X10231081Y-14702983D01*
X10231081Y-14702983D02*
X10313913Y-14675372D01*
X10313913Y-14675372D02*
X10424356Y-14675372D01*
X10424356Y-14675372D02*
X10534800Y-14730594D01*
X10534800Y-14730594D02*
X10590021Y-14785815D01*
X10590021Y-14785815D02*
X10645243Y-14896259D01*
X10645243Y-14896259D02*
X10645243Y-14951480D01*
X11225071Y-15420865D02*
X10948962Y-15144756D01*
X10948962Y-15144756D02*
X10645243Y-15393254D01*
X10645243Y-15393254D02*
X10700465Y-15393254D01*
X10700465Y-15393254D02*
X10783297Y-15420865D01*
X10783297Y-15420865D02*
X10921351Y-15558919D01*
X10921351Y-15558919D02*
X10948962Y-15641751D01*
X10948962Y-15641751D02*
X10948962Y-15696973D01*
X10948962Y-15696973D02*
X10921351Y-15779805D01*
X10921351Y-15779805D02*
X10783297Y-15917860D01*
X10783297Y-15917860D02*
X10700465Y-15945470D01*
X10700465Y-15945470D02*
X10645243Y-15945470D01*
X10645243Y-15945470D02*
X10562411Y-15917860D01*
X10562411Y-15917860D02*
X10424356Y-15779805D01*
X10424356Y-15779805D02*
X10396746Y-15696973D01*
X10396746Y-15696973D02*
X10396746Y-15641751D01*
X6021548Y-13311666D02*
X5631072Y-13584999D01*
X6021548Y-13780237D02*
X5201548Y-13780237D01*
X5201548Y-13780237D02*
X5201548Y-13467856D01*
X5201548Y-13467856D02*
X5240596Y-13389761D01*
X5240596Y-13389761D02*
X5279643Y-13350714D01*
X5279643Y-13350714D02*
X5357739Y-13311666D01*
X5357739Y-13311666D02*
X5474881Y-13311666D01*
X5474881Y-13311666D02*
X5552977Y-13350714D01*
X5552977Y-13350714D02*
X5592024Y-13389761D01*
X5592024Y-13389761D02*
X5631072Y-13467856D01*
X5631072Y-13467856D02*
X5631072Y-13780237D01*
X5474881Y-12608809D02*
X6021548Y-12608809D01*
X5162501Y-12804047D02*
X5748215Y-12999285D01*
X5748215Y-12999285D02*
X5748215Y-12491666D01*
X-13088790Y-18074584D02*
X-12757460Y-17743254D01*
X-12343297Y-18488746D02*
X-12923125Y-17908919D01*
X-11984356Y-18129805D02*
X-12564184Y-17549978D01*
X-12564184Y-17549978D02*
X-12343297Y-17329091D01*
X-12343297Y-17329091D02*
X-12260464Y-17301480D01*
X-12260464Y-17301480D02*
X-12205243Y-17301480D01*
X-12205243Y-17301480D02*
X-12122410Y-17329091D01*
X-12122410Y-17329091D02*
X-12039578Y-17411923D01*
X-12039578Y-17411923D02*
X-12011967Y-17494756D01*
X-12011967Y-17494756D02*
X-12011967Y-17549978D01*
X-12011967Y-17549978D02*
X-12039578Y-17632810D01*
X-12039578Y-17632810D02*
X-12260464Y-17853697D01*
X-11542583Y-16914928D02*
X-11156031Y-17301480D01*
X-11901524Y-16832096D02*
X-11625415Y-17384313D01*
X-11625415Y-17384313D02*
X-11266474Y-17025372D01*
X-7826504Y-5687142D02*
X-7787457Y-5726190D01*
X-7787457Y-5726190D02*
X-7748409Y-5843332D01*
X-7748409Y-5843332D02*
X-7748409Y-5921428D01*
X-7748409Y-5921428D02*
X-7787457Y-6038571D01*
X-7787457Y-6038571D02*
X-7865552Y-6116666D01*
X-7865552Y-6116666D02*
X-7943647Y-6155713D01*
X-7943647Y-6155713D02*
X-8099837Y-6194761D01*
X-8099837Y-6194761D02*
X-8216980Y-6194761D01*
X-8216980Y-6194761D02*
X-8373171Y-6155713D01*
X-8373171Y-6155713D02*
X-8451266Y-6116666D01*
X-8451266Y-6116666D02*
X-8529361Y-6038571D01*
X-8529361Y-6038571D02*
X-8568409Y-5921428D01*
X-8568409Y-5921428D02*
X-8568409Y-5843332D01*
X-8568409Y-5843332D02*
X-8529361Y-5726190D01*
X-8529361Y-5726190D02*
X-8490314Y-5687142D01*
X-7748409Y-4906190D02*
X-7748409Y-5374761D01*
X-7748409Y-5140475D02*
X-8568409Y-5140475D01*
X-8568409Y-5140475D02*
X-8451266Y-5218571D01*
X-8451266Y-5218571D02*
X-8373171Y-5296666D01*
X-8373171Y-5296666D02*
X-8334123Y-5374761D01*
X-8490314Y-4593809D02*
X-8529361Y-4554761D01*
X-8529361Y-4554761D02*
X-8568409Y-4476666D01*
X-8568409Y-4476666D02*
X-8568409Y-4281428D01*
X-8568409Y-4281428D02*
X-8529361Y-4203333D01*
X-8529361Y-4203333D02*
X-8490314Y-4164285D01*
X-8490314Y-4164285D02*
X-8412218Y-4125238D01*
X-8412218Y-4125238D02*
X-8334123Y-4125238D01*
X-8334123Y-4125238D02*
X-8216980Y-4164285D01*
X-8216980Y-4164285D02*
X-7748409Y-4632857D01*
X-7748409Y-4632857D02*
X-7748409Y-4125238D01*
X5021362Y-8436334D02*
X4630886Y-8709667D01*
X5021362Y-8904905D02*
X4201362Y-8904905D01*
X4201362Y-8904905D02*
X4201362Y-8592524D01*
X4201362Y-8592524D02*
X4240410Y-8514429D01*
X4240410Y-8514429D02*
X4279457Y-8475382D01*
X4279457Y-8475382D02*
X4357553Y-8436334D01*
X4357553Y-8436334D02*
X4474695Y-8436334D01*
X4474695Y-8436334D02*
X4552791Y-8475382D01*
X4552791Y-8475382D02*
X4591838Y-8514429D01*
X4591838Y-8514429D02*
X4630886Y-8592524D01*
X4630886Y-8592524D02*
X4630886Y-8904905D01*
X4201362Y-7694429D02*
X4201362Y-8084905D01*
X4201362Y-8084905D02*
X4591838Y-8123953D01*
X4591838Y-8123953D02*
X4552791Y-8084905D01*
X4552791Y-8084905D02*
X4513743Y-8006810D01*
X4513743Y-8006810D02*
X4513743Y-7811572D01*
X4513743Y-7811572D02*
X4552791Y-7733477D01*
X4552791Y-7733477D02*
X4591838Y-7694429D01*
X4591838Y-7694429D02*
X4669934Y-7655382D01*
X4669934Y-7655382D02*
X4865172Y-7655382D01*
X4865172Y-7655382D02*
X4943267Y-7694429D01*
X4943267Y-7694429D02*
X4982315Y-7733477D01*
X4982315Y-7733477D02*
X5021362Y-7811572D01*
X5021362Y-7811572D02*
X5021362Y-8006810D01*
X5021362Y-8006810D02*
X4982315Y-8084905D01*
X4982315Y-8084905D02*
X4943267Y-8123953D01*
X-12580692Y7435243D02*
X-12000864Y8015070D01*
X-12000864Y8015070D02*
X-11862810Y7877016D01*
X-11862810Y7877016D02*
X-11807588Y7766573D01*
X-11807588Y7766573D02*
X-11807588Y7656129D01*
X-11807588Y7656129D02*
X-11835199Y7573297D01*
X-11835199Y7573297D02*
X-11918032Y7435243D01*
X-11918032Y7435243D02*
X-12000864Y7352410D01*
X-12000864Y7352410D02*
X-12138918Y7269578D01*
X-12138918Y7269578D02*
X-12221751Y7241967D01*
X-12221751Y7241967D02*
X-12332194Y7241967D01*
X-12332194Y7241967D02*
X-12442638Y7297189D01*
X-12442638Y7297189D02*
X-12580692Y7435243D01*
X-11973253Y6827804D02*
X-11862810Y6717361D01*
X-11862810Y6717361D02*
X-11779978Y6689750D01*
X-11779978Y6689750D02*
X-11724756Y6689750D01*
X-11724756Y6689750D02*
X-11586702Y6717361D01*
X-11586702Y6717361D02*
X-11448648Y6800194D01*
X-11448648Y6800194D02*
X-11227761Y7021080D01*
X-11227761Y7021080D02*
X-11200150Y7103913D01*
X-11200150Y7103913D02*
X-11200150Y7159134D01*
X-11200150Y7159134D02*
X-11227761Y7241967D01*
X-11227761Y7241967D02*
X-11338204Y7352410D01*
X-11338204Y7352410D02*
X-11421037Y7380021D01*
X-11421037Y7380021D02*
X-11476258Y7380021D01*
X-11476258Y7380021D02*
X-11559091Y7352410D01*
X-11559091Y7352410D02*
X-11697145Y7214356D01*
X-11697145Y7214356D02*
X-11724756Y7131524D01*
X-11724756Y7131524D02*
X-11724756Y7076302D01*
X-11724756Y7076302D02*
X-11697145Y6993469D01*
X-11697145Y6993469D02*
X-11586702Y6883026D01*
X-11586702Y6883026D02*
X-11503869Y6855415D01*
X-11503869Y6855415D02*
X-11448648Y6855415D01*
X-11448648Y6855415D02*
X-11365815Y6883026D01*
X-8703451Y-14627142D02*
X-9093927Y-14900475D01*
X-8703451Y-15095713D02*
X-9523451Y-15095713D01*
X-9523451Y-15095713D02*
X-9523451Y-14783332D01*
X-9523451Y-14783332D02*
X-9484403Y-14705237D01*
X-9484403Y-14705237D02*
X-9445356Y-14666190D01*
X-9445356Y-14666190D02*
X-9367260Y-14627142D01*
X-9367260Y-14627142D02*
X-9250118Y-14627142D01*
X-9250118Y-14627142D02*
X-9172022Y-14666190D01*
X-9172022Y-14666190D02*
X-9132975Y-14705237D01*
X-9132975Y-14705237D02*
X-9093927Y-14783332D01*
X-9093927Y-14783332D02*
X-9093927Y-15095713D01*
X-8703451Y-13846190D02*
X-8703451Y-14314761D01*
X-8703451Y-14080475D02*
X-9523451Y-14080475D01*
X-9523451Y-14080475D02*
X-9406308Y-14158571D01*
X-9406308Y-14158571D02*
X-9328213Y-14236666D01*
X-9328213Y-14236666D02*
X-9289165Y-14314761D01*
X-9523451Y-13572857D02*
X-9523451Y-13026190D01*
X-9523451Y-13026190D02*
X-8703451Y-13377619D01*
X-3286546Y-18396666D02*
X-3247499Y-18435714D01*
X-3247499Y-18435714D02*
X-3208451Y-18552856D01*
X-3208451Y-18552856D02*
X-3208451Y-18630952D01*
X-3208451Y-18630952D02*
X-3247499Y-18748095D01*
X-3247499Y-18748095D02*
X-3325594Y-18826190D01*
X-3325594Y-18826190D02*
X-3403689Y-18865237D01*
X-3403689Y-18865237D02*
X-3559879Y-18904285D01*
X-3559879Y-18904285D02*
X-3677022Y-18904285D01*
X-3677022Y-18904285D02*
X-3833213Y-18865237D01*
X-3833213Y-18865237D02*
X-3911308Y-18826190D01*
X-3911308Y-18826190D02*
X-3989403Y-18748095D01*
X-3989403Y-18748095D02*
X-4028451Y-18630952D01*
X-4028451Y-18630952D02*
X-4028451Y-18552856D01*
X-4028451Y-18552856D02*
X-3989403Y-18435714D01*
X-3989403Y-18435714D02*
X-3950356Y-18396666D01*
X-4028451Y-18123333D02*
X-4028451Y-17576666D01*
X-4028451Y-17576666D02*
X-3208451Y-17928095D01*
X-11925243Y-7730692D02*
X-12505070Y-7150864D01*
X-12505070Y-7150864D02*
X-12367016Y-7012810D01*
X-12367016Y-7012810D02*
X-12256573Y-6957588D01*
X-12256573Y-6957588D02*
X-12146129Y-6957588D01*
X-12146129Y-6957588D02*
X-12063297Y-6985199D01*
X-12063297Y-6985199D02*
X-11925243Y-7068032D01*
X-11925243Y-7068032D02*
X-11842410Y-7150864D01*
X-11842410Y-7150864D02*
X-11759578Y-7288918D01*
X-11759578Y-7288918D02*
X-11731967Y-7371751D01*
X-11731967Y-7371751D02*
X-11731967Y-7482194D01*
X-11731967Y-7482194D02*
X-11787189Y-7592638D01*
X-11787189Y-7592638D02*
X-11925243Y-7730692D01*
X-11649134Y-6294928D02*
X-11925243Y-6571037D01*
X-11925243Y-6571037D02*
X-11676745Y-6874756D01*
X-11676745Y-6874756D02*
X-11676745Y-6819534D01*
X-11676745Y-6819534D02*
X-11649134Y-6736702D01*
X-11649134Y-6736702D02*
X-11511080Y-6598648D01*
X-11511080Y-6598648D02*
X-11428248Y-6571037D01*
X-11428248Y-6571037D02*
X-11373026Y-6571037D01*
X-11373026Y-6571037D02*
X-11290194Y-6598648D01*
X-11290194Y-6598648D02*
X-11152139Y-6736702D01*
X-11152139Y-6736702D02*
X-11124529Y-6819534D01*
X-11124529Y-6819534D02*
X-11124529Y-6874756D01*
X-11124529Y-6874756D02*
X-11152139Y-6957588D01*
X-11152139Y-6957588D02*
X-11290194Y-7095643D01*
X-11290194Y-7095643D02*
X-11373026Y-7123253D01*
X-11373026Y-7123253D02*
X-11428248Y-7123253D01*
X-20914761Y10998451D02*
X-20446190Y10998451D01*
X-20680476Y10178451D02*
X-20680476Y10998451D01*
X-20172856Y10178451D02*
X-20172856Y10998451D01*
X-20172856Y10998451D02*
X-19860475Y10998451D01*
X-19860475Y10998451D02*
X-19782380Y10959403D01*
X-19782380Y10959403D02*
X-19743333Y10920356D01*
X-19743333Y10920356D02*
X-19704285Y10842260D01*
X-19704285Y10842260D02*
X-19704285Y10725118D01*
X-19704285Y10725118D02*
X-19743333Y10647022D01*
X-19743333Y10647022D02*
X-19782380Y10607975D01*
X-19782380Y10607975D02*
X-19860475Y10568927D01*
X-19860475Y10568927D02*
X-20172856Y10568927D01*
X-19001428Y10998451D02*
X-19157618Y10998451D01*
X-19157618Y10998451D02*
X-19235714Y10959403D01*
X-19235714Y10959403D02*
X-19274761Y10920356D01*
X-19274761Y10920356D02*
X-19352856Y10803213D01*
X-19352856Y10803213D02*
X-19391904Y10647022D01*
X-19391904Y10647022D02*
X-19391904Y10334641D01*
X-19391904Y10334641D02*
X-19352856Y10256546D01*
X-19352856Y10256546D02*
X-19313809Y10217499D01*
X-19313809Y10217499D02*
X-19235714Y10178451D01*
X-19235714Y10178451D02*
X-19079523Y10178451D01*
X-19079523Y10178451D02*
X-19001428Y10217499D01*
X-19001428Y10217499D02*
X-18962380Y10256546D01*
X-18962380Y10256546D02*
X-18923333Y10334641D01*
X-18923333Y10334641D02*
X-18923333Y10529879D01*
X-18923333Y10529879D02*
X-18962380Y10607975D01*
X-18962380Y10607975D02*
X-19001428Y10647022D01*
X-19001428Y10647022D02*
X-19079523Y10686070D01*
X-19079523Y10686070D02*
X-19235714Y10686070D01*
X-19235714Y10686070D02*
X-19313809Y10647022D01*
X-19313809Y10647022D02*
X-19352856Y10607975D01*
X-19352856Y10607975D02*
X-19391904Y10529879D01*
X13948328Y6567610D02*
X14127643Y6134706D01*
X13280404Y6037357D02*
X14037986Y6351158D01*
X13474662Y5568378D02*
X14232243Y5882179D01*
X14232243Y5882179D02*
X14351786Y5593577D01*
X14351786Y5593577D02*
X14345597Y5506483D01*
X14345597Y5506483D02*
X14324464Y5455465D01*
X14324464Y5455465D02*
X14267256Y5389504D01*
X14267256Y5389504D02*
X14159031Y5344675D01*
X14159031Y5344675D02*
X14071937Y5350865D01*
X14071937Y5350865D02*
X14020919Y5371997D01*
X14020919Y5371997D02*
X13954958Y5429205D01*
X13954958Y5429205D02*
X13835415Y5717807D01*
X14266194Y4881886D02*
X14272384Y4968979D01*
X14272384Y4968979D02*
X14293516Y5019998D01*
X14293516Y5019998D02*
X14350724Y5085959D01*
X14350724Y5085959D02*
X14386799Y5100901D01*
X14386799Y5100901D02*
X14473893Y5094712D01*
X14473893Y5094712D02*
X14524911Y5073580D01*
X14524911Y5073580D02*
X14590872Y5016372D01*
X14590872Y5016372D02*
X14650644Y4872071D01*
X14650644Y4872071D02*
X14644454Y4784977D01*
X14644454Y4784977D02*
X14623322Y4733959D01*
X14623322Y4733959D02*
X14566114Y4667998D01*
X14566114Y4667998D02*
X14530039Y4653055D01*
X14530039Y4653055D02*
X14442945Y4659245D01*
X14442945Y4659245D02*
X14391927Y4680377D01*
X14391927Y4680377D02*
X14325966Y4737585D01*
X14325966Y4737585D02*
X14266194Y4881886D01*
X14266194Y4881886D02*
X14200233Y4939094D01*
X14200233Y4939094D02*
X14149215Y4960226D01*
X14149215Y4960226D02*
X14062122Y4966416D01*
X14062122Y4966416D02*
X13917821Y4906644D01*
X13917821Y4906644D02*
X13860613Y4840683D01*
X13860613Y4840683D02*
X13839480Y4789665D01*
X13839480Y4789665D02*
X13833291Y4702571D01*
X13833291Y4702571D02*
X13893062Y4558270D01*
X13893062Y4558270D02*
X13959023Y4501062D01*
X13959023Y4501062D02*
X14010042Y4479930D01*
X14010042Y4479930D02*
X14097135Y4473741D01*
X14097135Y4473741D02*
X14241436Y4533512D01*
X14241436Y4533512D02*
X14298644Y4599473D01*
X14298644Y4599473D02*
X14319776Y4650491D01*
X14319776Y4650491D02*
X14325966Y4737585D01*
X15371181Y9565229D02*
X15625210Y8951948D01*
X15625210Y8951948D02*
X15691171Y8894741D01*
X15691171Y8894741D02*
X15742189Y8873608D01*
X15742189Y8873608D02*
X15829282Y8867419D01*
X15829282Y8867419D02*
X15973584Y8927190D01*
X15973584Y8927190D02*
X16030791Y8993151D01*
X16030791Y8993151D02*
X16051924Y9044170D01*
X16051924Y9044170D02*
X16058113Y9131263D01*
X16058113Y9131263D02*
X15804084Y9744543D01*
X16875466Y9300762D02*
X16442563Y9121448D01*
X16659015Y9211105D02*
X16345214Y9968686D01*
X16345214Y9968686D02*
X16317892Y9830575D01*
X16317892Y9830575D02*
X16275627Y9728538D01*
X16275627Y9728538D02*
X16218420Y9662577D01*
X-13775237Y2908451D02*
X-13775237Y3728451D01*
X-13775237Y3728451D02*
X-13579999Y3728451D01*
X-13579999Y3728451D02*
X-13462856Y3689403D01*
X-13462856Y3689403D02*
X-13384761Y3611308D01*
X-13384761Y3611308D02*
X-13345714Y3533213D01*
X-13345714Y3533213D02*
X-13306666Y3377022D01*
X-13306666Y3377022D02*
X-13306666Y3259879D01*
X-13306666Y3259879D02*
X-13345714Y3103689D01*
X-13345714Y3103689D02*
X-13384761Y3025594D01*
X-13384761Y3025594D02*
X-13462856Y2947499D01*
X-13462856Y2947499D02*
X-13579999Y2908451D01*
X-13579999Y2908451D02*
X-13775237Y2908451D01*
X-12603809Y3728451D02*
X-12759999Y3728451D01*
X-12759999Y3728451D02*
X-12838095Y3689403D01*
X-12838095Y3689403D02*
X-12877142Y3650356D01*
X-12877142Y3650356D02*
X-12955237Y3533213D01*
X-12955237Y3533213D02*
X-12994285Y3377022D01*
X-12994285Y3377022D02*
X-12994285Y3064641D01*
X-12994285Y3064641D02*
X-12955237Y2986546D01*
X-12955237Y2986546D02*
X-12916190Y2947499D01*
X-12916190Y2947499D02*
X-12838095Y2908451D01*
X-12838095Y2908451D02*
X-12681904Y2908451D01*
X-12681904Y2908451D02*
X-12603809Y2947499D01*
X-12603809Y2947499D02*
X-12564761Y2986546D01*
X-12564761Y2986546D02*
X-12525714Y3064641D01*
X-12525714Y3064641D02*
X-12525714Y3259879D01*
X-12525714Y3259879D02*
X-12564761Y3337975D01*
X-12564761Y3337975D02*
X-12603809Y3377022D01*
X-12603809Y3377022D02*
X-12681904Y3416070D01*
X-12681904Y3416070D02*
X-12838095Y3416070D01*
X-12838095Y3416070D02*
X-12916190Y3377022D01*
X-12916190Y3377022D02*
X-12955237Y3337975D01*
X-12955237Y3337975D02*
X-12994285Y3259879D01*
X655238Y1858451D02*
X655238Y1194641D01*
X655238Y1194641D02*
X694285Y1116546D01*
X694285Y1116546D02*
X733333Y1077499D01*
X733333Y1077499D02*
X811428Y1038451D01*
X811428Y1038451D02*
X967619Y1038451D01*
X967619Y1038451D02*
X1045714Y1077499D01*
X1045714Y1077499D02*
X1084761Y1116546D01*
X1084761Y1116546D02*
X1123809Y1194641D01*
X1123809Y1194641D02*
X1123809Y1858451D01*
X1553333Y1038451D02*
X1709524Y1038451D01*
X1709524Y1038451D02*
X1787619Y1077499D01*
X1787619Y1077499D02*
X1826667Y1116546D01*
X1826667Y1116546D02*
X1904762Y1233689D01*
X1904762Y1233689D02*
X1943809Y1389879D01*
X1943809Y1389879D02*
X1943809Y1702260D01*
X1943809Y1702260D02*
X1904762Y1780356D01*
X1904762Y1780356D02*
X1865714Y1819403D01*
X1865714Y1819403D02*
X1787619Y1858451D01*
X1787619Y1858451D02*
X1631428Y1858451D01*
X1631428Y1858451D02*
X1553333Y1819403D01*
X1553333Y1819403D02*
X1514286Y1780356D01*
X1514286Y1780356D02*
X1475238Y1702260D01*
X1475238Y1702260D02*
X1475238Y1507022D01*
X1475238Y1507022D02*
X1514286Y1428927D01*
X1514286Y1428927D02*
X1553333Y1389879D01*
X1553333Y1389879D02*
X1631428Y1350832D01*
X1631428Y1350832D02*
X1787619Y1350832D01*
X1787619Y1350832D02*
X1865714Y1389879D01*
X1865714Y1389879D02*
X1904762Y1428927D01*
X1904762Y1428927D02*
X1943809Y1507022D01*
X3921632Y-14052128D02*
X3531156Y-14325461D01*
X3921632Y-14520699D02*
X3101632Y-14520699D01*
X3101632Y-14520699D02*
X3101632Y-14208318D01*
X3101632Y-14208318D02*
X3140680Y-14130223D01*
X3140680Y-14130223D02*
X3179727Y-14091176D01*
X3179727Y-14091176D02*
X3257823Y-14052128D01*
X3257823Y-14052128D02*
X3374965Y-14052128D01*
X3374965Y-14052128D02*
X3453061Y-14091176D01*
X3453061Y-14091176D02*
X3492108Y-14130223D01*
X3492108Y-14130223D02*
X3531156Y-14208318D01*
X3531156Y-14208318D02*
X3531156Y-14520699D01*
X3921632Y-13271176D02*
X3921632Y-13739747D01*
X3921632Y-13505461D02*
X3101632Y-13505461D01*
X3101632Y-13505461D02*
X3218775Y-13583557D01*
X3218775Y-13583557D02*
X3296870Y-13661652D01*
X3296870Y-13661652D02*
X3335918Y-13739747D01*
X3921632Y-12490224D02*
X3921632Y-12958795D01*
X3921632Y-12724509D02*
X3101632Y-12724509D01*
X3101632Y-12724509D02*
X3218775Y-12802605D01*
X3218775Y-12802605D02*
X3296870Y-12880700D01*
X3296870Y-12880700D02*
X3335918Y-12958795D01*
X-4328263Y-8604917D02*
X-5148263Y-8604917D01*
X-5148263Y-8604917D02*
X-5148263Y-8409679D01*
X-5148263Y-8409679D02*
X-5109215Y-8292536D01*
X-5109215Y-8292536D02*
X-5031120Y-8214441D01*
X-5031120Y-8214441D02*
X-4953025Y-8175394D01*
X-4953025Y-8175394D02*
X-4796834Y-8136346D01*
X-4796834Y-8136346D02*
X-4679691Y-8136346D01*
X-4679691Y-8136346D02*
X-4523501Y-8175394D01*
X-4523501Y-8175394D02*
X-4445406Y-8214441D01*
X-4445406Y-8214441D02*
X-4367311Y-8292536D01*
X-4367311Y-8292536D02*
X-4328263Y-8409679D01*
X-4328263Y-8409679D02*
X-4328263Y-8604917D01*
X-5148263Y-7863013D02*
X-5148263Y-7316346D01*
X-5148263Y-7316346D02*
X-4328263Y-7667775D01*
X-17394761Y-3221548D02*
X-16926190Y-3221548D01*
X-17160476Y-4041548D02*
X-17160476Y-3221548D01*
X-16652856Y-4041548D02*
X-16652856Y-3221548D01*
X-16652856Y-3221548D02*
X-16340475Y-3221548D01*
X-16340475Y-3221548D02*
X-16262380Y-3260596D01*
X-16262380Y-3260596D02*
X-16223333Y-3299643D01*
X-16223333Y-3299643D02*
X-16184285Y-3377739D01*
X-16184285Y-3377739D02*
X-16184285Y-3494881D01*
X-16184285Y-3494881D02*
X-16223333Y-3572977D01*
X-16223333Y-3572977D02*
X-16262380Y-3612024D01*
X-16262380Y-3612024D02*
X-16340475Y-3651072D01*
X-16340475Y-3651072D02*
X-16652856Y-3651072D01*
X-15442380Y-3221548D02*
X-15832856Y-3221548D01*
X-15832856Y-3221548D02*
X-15871904Y-3612024D01*
X-15871904Y-3612024D02*
X-15832856Y-3572977D01*
X-15832856Y-3572977D02*
X-15754761Y-3533929D01*
X-15754761Y-3533929D02*
X-15559523Y-3533929D01*
X-15559523Y-3533929D02*
X-15481428Y-3572977D01*
X-15481428Y-3572977D02*
X-15442380Y-3612024D01*
X-15442380Y-3612024D02*
X-15403333Y-3690120D01*
X-15403333Y-3690120D02*
X-15403333Y-3885358D01*
X-15403333Y-3885358D02*
X-15442380Y-3963453D01*
X-15442380Y-3963453D02*
X-15481428Y-4002501D01*
X-15481428Y-4002501D02*
X-15559523Y-4041548D01*
X-15559523Y-4041548D02*
X-15754761Y-4041548D01*
X-15754761Y-4041548D02*
X-15832856Y-4002501D01*
X-15832856Y-4002501D02*
X-15871904Y-3963453D01*
X-5388451Y-13856666D02*
X-5778927Y-14129999D01*
X-5388451Y-14325237D02*
X-6208451Y-14325237D01*
X-6208451Y-14325237D02*
X-6208451Y-14012856D01*
X-6208451Y-14012856D02*
X-6169403Y-13934761D01*
X-6169403Y-13934761D02*
X-6130356Y-13895714D01*
X-6130356Y-13895714D02*
X-6052260Y-13856666D01*
X-6052260Y-13856666D02*
X-5935118Y-13856666D01*
X-5935118Y-13856666D02*
X-5857022Y-13895714D01*
X-5857022Y-13895714D02*
X-5817975Y-13934761D01*
X-5817975Y-13934761D02*
X-5778927Y-14012856D01*
X-5778927Y-14012856D02*
X-5778927Y-14325237D01*
X-5857022Y-13388095D02*
X-5896070Y-13466190D01*
X-5896070Y-13466190D02*
X-5935118Y-13505237D01*
X-5935118Y-13505237D02*
X-6013213Y-13544285D01*
X-6013213Y-13544285D02*
X-6052260Y-13544285D01*
X-6052260Y-13544285D02*
X-6130356Y-13505237D01*
X-6130356Y-13505237D02*
X-6169403Y-13466190D01*
X-6169403Y-13466190D02*
X-6208451Y-13388095D01*
X-6208451Y-13388095D02*
X-6208451Y-13231904D01*
X-6208451Y-13231904D02*
X-6169403Y-13153809D01*
X-6169403Y-13153809D02*
X-6130356Y-13114761D01*
X-6130356Y-13114761D02*
X-6052260Y-13075714D01*
X-6052260Y-13075714D02*
X-6013213Y-13075714D01*
X-6013213Y-13075714D02*
X-5935118Y-13114761D01*
X-5935118Y-13114761D02*
X-5896070Y-13153809D01*
X-5896070Y-13153809D02*
X-5857022Y-13231904D01*
X-5857022Y-13231904D02*
X-5857022Y-13388095D01*
X-5857022Y-13388095D02*
X-5817975Y-13466190D01*
X-5817975Y-13466190D02*
X-5778927Y-13505237D01*
X-5778927Y-13505237D02*
X-5700832Y-13544285D01*
X-5700832Y-13544285D02*
X-5544641Y-13544285D01*
X-5544641Y-13544285D02*
X-5466546Y-13505237D01*
X-5466546Y-13505237D02*
X-5427499Y-13466190D01*
X-5427499Y-13466190D02*
X-5388451Y-13388095D01*
X-5388451Y-13388095D02*
X-5388451Y-13231904D01*
X-5388451Y-13231904D02*
X-5427499Y-13153809D01*
X-5427499Y-13153809D02*
X-5466546Y-13114761D01*
X-5466546Y-13114761D02*
X-5544641Y-13075714D01*
X-5544641Y-13075714D02*
X-5700832Y-13075714D01*
X-5700832Y-13075714D02*
X-5778927Y-13114761D01*
X-5778927Y-13114761D02*
X-5817975Y-13153809D01*
X-5817975Y-13153809D02*
X-5857022Y-13231904D01*
X21901548Y-4154761D02*
X21081548Y-4154761D01*
X21472024Y-4154761D02*
X21472024Y-3686190D01*
X21901548Y-3686190D02*
X21081548Y-3686190D01*
X21159643Y-3334761D02*
X21120596Y-3295713D01*
X21120596Y-3295713D02*
X21081548Y-3217618D01*
X21081548Y-3217618D02*
X21081548Y-3022380D01*
X21081548Y-3022380D02*
X21120596Y-2944285D01*
X21120596Y-2944285D02*
X21159643Y-2905237D01*
X21159643Y-2905237D02*
X21237739Y-2866190D01*
X21237739Y-2866190D02*
X21315834Y-2866190D01*
X21315834Y-2866190D02*
X21432977Y-2905237D01*
X21432977Y-2905237D02*
X21901548Y-3373809D01*
X21901548Y-3373809D02*
X21901548Y-2866190D01*
X4921592Y-13661652D02*
X4531116Y-13934985D01*
X4921592Y-14130223D02*
X4101592Y-14130223D01*
X4101592Y-14130223D02*
X4101592Y-13817842D01*
X4101592Y-13817842D02*
X4140640Y-13739747D01*
X4140640Y-13739747D02*
X4179687Y-13700700D01*
X4179687Y-13700700D02*
X4257783Y-13661652D01*
X4257783Y-13661652D02*
X4374925Y-13661652D01*
X4374925Y-13661652D02*
X4453021Y-13700700D01*
X4453021Y-13700700D02*
X4492068Y-13739747D01*
X4492068Y-13739747D02*
X4531116Y-13817842D01*
X4531116Y-13817842D02*
X4531116Y-14130223D01*
X4921592Y-13271176D02*
X4921592Y-13114985D01*
X4921592Y-13114985D02*
X4882545Y-13036890D01*
X4882545Y-13036890D02*
X4843497Y-12997842D01*
X4843497Y-12997842D02*
X4726354Y-12919747D01*
X4726354Y-12919747D02*
X4570164Y-12880700D01*
X4570164Y-12880700D02*
X4257783Y-12880700D01*
X4257783Y-12880700D02*
X4179687Y-12919747D01*
X4179687Y-12919747D02*
X4140640Y-12958795D01*
X4140640Y-12958795D02*
X4101592Y-13036890D01*
X4101592Y-13036890D02*
X4101592Y-13193081D01*
X4101592Y-13193081D02*
X4140640Y-13271176D01*
X4140640Y-13271176D02*
X4179687Y-13310223D01*
X4179687Y-13310223D02*
X4257783Y-13349271D01*
X4257783Y-13349271D02*
X4453021Y-13349271D01*
X4453021Y-13349271D02*
X4531116Y-13310223D01*
X4531116Y-13310223D02*
X4570164Y-13271176D01*
X4570164Y-13271176D02*
X4609211Y-13193081D01*
X4609211Y-13193081D02*
X4609211Y-13036890D01*
X4609211Y-13036890D02*
X4570164Y-12958795D01*
X4570164Y-12958795D02*
X4531116Y-12919747D01*
X4531116Y-12919747D02*
X4453021Y-12880700D01*
X3081548Y-17234761D02*
X3081548Y-16766190D01*
X3901548Y-17000476D02*
X3081548Y-17000476D01*
X3901548Y-16492856D02*
X3081548Y-16492856D01*
X3081548Y-16492856D02*
X3081548Y-16180475D01*
X3081548Y-16180475D02*
X3120596Y-16102380D01*
X3120596Y-16102380D02*
X3159643Y-16063333D01*
X3159643Y-16063333D02*
X3237739Y-16024285D01*
X3237739Y-16024285D02*
X3354881Y-16024285D01*
X3354881Y-16024285D02*
X3432977Y-16063333D01*
X3432977Y-16063333D02*
X3472024Y-16102380D01*
X3472024Y-16102380D02*
X3511072Y-16180475D01*
X3511072Y-16180475D02*
X3511072Y-16492856D01*
X3081548Y-15750952D02*
X3081548Y-15243333D01*
X3081548Y-15243333D02*
X3393929Y-15516666D01*
X3393929Y-15516666D02*
X3393929Y-15399523D01*
X3393929Y-15399523D02*
X3432977Y-15321428D01*
X3432977Y-15321428D02*
X3472024Y-15282380D01*
X3472024Y-15282380D02*
X3550120Y-15243333D01*
X3550120Y-15243333D02*
X3745358Y-15243333D01*
X3745358Y-15243333D02*
X3823453Y-15282380D01*
X3823453Y-15282380D02*
X3862501Y-15321428D01*
X3862501Y-15321428D02*
X3901548Y-15399523D01*
X3901548Y-15399523D02*
X3901548Y-15633809D01*
X3901548Y-15633809D02*
X3862501Y-15711904D01*
X3862501Y-15711904D02*
X3823453Y-15750952D01*
X679286Y11303451D02*
X679286Y12123451D01*
X679286Y12123451D02*
X874524Y12123451D01*
X874524Y12123451D02*
X991667Y12084403D01*
X991667Y12084403D02*
X1069762Y12006308D01*
X1069762Y12006308D02*
X1108809Y11928213D01*
X1108809Y11928213D02*
X1147857Y11772022D01*
X1147857Y11772022D02*
X1147857Y11654879D01*
X1147857Y11654879D02*
X1108809Y11498689D01*
X1108809Y11498689D02*
X1069762Y11420594D01*
X1069762Y11420594D02*
X991667Y11342499D01*
X991667Y11342499D02*
X874524Y11303451D01*
X874524Y11303451D02*
X679286Y11303451D01*
X1928809Y11303451D02*
X1460238Y11303451D01*
X1694524Y11303451D02*
X1694524Y12123451D01*
X1694524Y12123451D02*
X1616428Y12006308D01*
X1616428Y12006308D02*
X1538333Y11928213D01*
X1538333Y11928213D02*
X1460238Y11889165D01*
X2436428Y12123451D02*
X2514523Y12123451D01*
X2514523Y12123451D02*
X2592619Y12084403D01*
X2592619Y12084403D02*
X2631666Y12045356D01*
X2631666Y12045356D02*
X2670714Y11967260D01*
X2670714Y11967260D02*
X2709761Y11811070D01*
X2709761Y11811070D02*
X2709761Y11615832D01*
X2709761Y11615832D02*
X2670714Y11459641D01*
X2670714Y11459641D02*
X2631666Y11381546D01*
X2631666Y11381546D02*
X2592619Y11342499D01*
X2592619Y11342499D02*
X2514523Y11303451D01*
X2514523Y11303451D02*
X2436428Y11303451D01*
X2436428Y11303451D02*
X2358333Y11342499D01*
X2358333Y11342499D02*
X2319285Y11381546D01*
X2319285Y11381546D02*
X2280238Y11459641D01*
X2280238Y11459641D02*
X2241190Y11615832D01*
X2241190Y11615832D02*
X2241190Y11811070D01*
X2241190Y11811070D02*
X2280238Y11967260D01*
X2280238Y11967260D02*
X2319285Y12045356D01*
X2319285Y12045356D02*
X2358333Y12084403D01*
X2358333Y12084403D02*
X2436428Y12123451D01*
X-5225237Y21488451D02*
X-4756666Y21488451D01*
X-4990952Y20668451D02*
X-4990952Y21488451D01*
X-4483332Y20668451D02*
X-4483332Y21488451D01*
X-4483332Y21488451D02*
X-4170951Y21488451D01*
X-4170951Y21488451D02*
X-4092856Y21449403D01*
X-4092856Y21449403D02*
X-4053809Y21410356D01*
X-4053809Y21410356D02*
X-4014761Y21332260D01*
X-4014761Y21332260D02*
X-4014761Y21215118D01*
X-4014761Y21215118D02*
X-4053809Y21137022D01*
X-4053809Y21137022D02*
X-4092856Y21097975D01*
X-4092856Y21097975D02*
X-4170951Y21058927D01*
X-4170951Y21058927D02*
X-4483332Y21058927D01*
X-3233809Y20668451D02*
X-3702380Y20668451D01*
X-3468094Y20668451D02*
X-3468094Y21488451D01*
X-3468094Y21488451D02*
X-3546190Y21371308D01*
X-3546190Y21371308D02*
X-3624285Y21293213D01*
X-3624285Y21293213D02*
X-3702380Y21254165D01*
X-2726190Y21488451D02*
X-2648095Y21488451D01*
X-2648095Y21488451D02*
X-2569999Y21449403D01*
X-2569999Y21449403D02*
X-2530952Y21410356D01*
X-2530952Y21410356D02*
X-2491904Y21332260D01*
X-2491904Y21332260D02*
X-2452857Y21176070D01*
X-2452857Y21176070D02*
X-2452857Y20980832D01*
X-2452857Y20980832D02*
X-2491904Y20824641D01*
X-2491904Y20824641D02*
X-2530952Y20746546D01*
X-2530952Y20746546D02*
X-2569999Y20707499D01*
X-2569999Y20707499D02*
X-2648095Y20668451D01*
X-2648095Y20668451D02*
X-2726190Y20668451D01*
X-2726190Y20668451D02*
X-2804285Y20707499D01*
X-2804285Y20707499D02*
X-2843333Y20746546D01*
X-2843333Y20746546D02*
X-2882380Y20824641D01*
X-2882380Y20824641D02*
X-2921428Y20980832D01*
X-2921428Y20980832D02*
X-2921428Y21176070D01*
X-2921428Y21176070D02*
X-2882380Y21332260D01*
X-2882380Y21332260D02*
X-2843333Y21410356D01*
X-2843333Y21410356D02*
X-2804285Y21449403D01*
X-2804285Y21449403D02*
X-2726190Y21488451D01*
X11913453Y2323333D02*
X11952501Y2284285D01*
X11952501Y2284285D02*
X11991548Y2167143D01*
X11991548Y2167143D02*
X11991548Y2089047D01*
X11991548Y2089047D02*
X11952501Y1971904D01*
X11952501Y1971904D02*
X11874405Y1893809D01*
X11874405Y1893809D02*
X11796310Y1854762D01*
X11796310Y1854762D02*
X11640120Y1815714D01*
X11640120Y1815714D02*
X11522977Y1815714D01*
X11522977Y1815714D02*
X11366786Y1854762D01*
X11366786Y1854762D02*
X11288691Y1893809D01*
X11288691Y1893809D02*
X11210596Y1971904D01*
X11210596Y1971904D02*
X11171548Y2089047D01*
X11171548Y2089047D02*
X11171548Y2167143D01*
X11171548Y2167143D02*
X11210596Y2284285D01*
X11210596Y2284285D02*
X11249643Y2323333D01*
X11249643Y2635714D02*
X11210596Y2674762D01*
X11210596Y2674762D02*
X11171548Y2752857D01*
X11171548Y2752857D02*
X11171548Y2948095D01*
X11171548Y2948095D02*
X11210596Y3026190D01*
X11210596Y3026190D02*
X11249643Y3065238D01*
X11249643Y3065238D02*
X11327739Y3104285D01*
X11327739Y3104285D02*
X11405834Y3104285D01*
X11405834Y3104285D02*
X11522977Y3065238D01*
X11522977Y3065238D02*
X11991548Y2596666D01*
X11991548Y2596666D02*
X11991548Y3104285D01*
X-3827010Y8578093D02*
X-4100343Y8968569D01*
X-4295581Y8578093D02*
X-4295581Y9398093D01*
X-4295581Y9398093D02*
X-3983200Y9398093D01*
X-3983200Y9398093D02*
X-3905105Y9359045D01*
X-3905105Y9359045D02*
X-3866058Y9319998D01*
X-3866058Y9319998D02*
X-3827010Y9241902D01*
X-3827010Y9241902D02*
X-3827010Y9124760D01*
X-3827010Y9124760D02*
X-3866058Y9046664D01*
X-3866058Y9046664D02*
X-3905105Y9007617D01*
X-3905105Y9007617D02*
X-3983200Y8968569D01*
X-3983200Y8968569D02*
X-4295581Y8968569D01*
X-3046058Y8578093D02*
X-3514629Y8578093D01*
X-3280343Y8578093D02*
X-3280343Y9398093D01*
X-3280343Y9398093D02*
X-3358439Y9280950D01*
X-3358439Y9280950D02*
X-3436534Y9202855D01*
X-3436534Y9202855D02*
X-3514629Y9163807D01*
X-2655582Y8578093D02*
X-2499391Y8578093D01*
X-2499391Y8578093D02*
X-2421296Y8617141D01*
X-2421296Y8617141D02*
X-2382248Y8656188D01*
X-2382248Y8656188D02*
X-2304153Y8773331D01*
X-2304153Y8773331D02*
X-2265106Y8929521D01*
X-2265106Y8929521D02*
X-2265106Y9241902D01*
X-2265106Y9241902D02*
X-2304153Y9319998D01*
X-2304153Y9319998D02*
X-2343201Y9359045D01*
X-2343201Y9359045D02*
X-2421296Y9398093D01*
X-2421296Y9398093D02*
X-2577487Y9398093D01*
X-2577487Y9398093D02*
X-2655582Y9359045D01*
X-2655582Y9359045D02*
X-2694629Y9319998D01*
X-2694629Y9319998D02*
X-2733677Y9241902D01*
X-2733677Y9241902D02*
X-2733677Y9046664D01*
X-2733677Y9046664D02*
X-2694629Y8968569D01*
X-2694629Y8968569D02*
X-2655582Y8929521D01*
X-2655582Y8929521D02*
X-2577487Y8890474D01*
X-2577487Y8890474D02*
X-2421296Y8890474D01*
X-2421296Y8890474D02*
X-2343201Y8929521D01*
X-2343201Y8929521D02*
X-2304153Y8968569D01*
X-2304153Y8968569D02*
X-2265106Y9046664D01*
X-9926420Y-5676668D02*
X-9887373Y-5715716D01*
X-9887373Y-5715716D02*
X-9848325Y-5832858D01*
X-9848325Y-5832858D02*
X-9848325Y-5910954D01*
X-9848325Y-5910954D02*
X-9887373Y-6028097D01*
X-9887373Y-6028097D02*
X-9965468Y-6106192D01*
X-9965468Y-6106192D02*
X-10043563Y-6145239D01*
X-10043563Y-6145239D02*
X-10199753Y-6184287D01*
X-10199753Y-6184287D02*
X-10316896Y-6184287D01*
X-10316896Y-6184287D02*
X-10473087Y-6145239D01*
X-10473087Y-6145239D02*
X-10551182Y-6106192D01*
X-10551182Y-6106192D02*
X-10629277Y-6028097D01*
X-10629277Y-6028097D02*
X-10668325Y-5910954D01*
X-10668325Y-5910954D02*
X-10668325Y-5832858D01*
X-10668325Y-5832858D02*
X-10629277Y-5715716D01*
X-10629277Y-5715716D02*
X-10590230Y-5676668D01*
X-9848325Y-5286192D02*
X-9848325Y-5130001D01*
X-9848325Y-5130001D02*
X-9887373Y-5051906D01*
X-9887373Y-5051906D02*
X-9926420Y-5012858D01*
X-9926420Y-5012858D02*
X-10043563Y-4934763D01*
X-10043563Y-4934763D02*
X-10199753Y-4895716D01*
X-10199753Y-4895716D02*
X-10512134Y-4895716D01*
X-10512134Y-4895716D02*
X-10590230Y-4934763D01*
X-10590230Y-4934763D02*
X-10629277Y-4973811D01*
X-10629277Y-4973811D02*
X-10668325Y-5051906D01*
X-10668325Y-5051906D02*
X-10668325Y-5208097D01*
X-10668325Y-5208097D02*
X-10629277Y-5286192D01*
X-10629277Y-5286192D02*
X-10590230Y-5325239D01*
X-10590230Y-5325239D02*
X-10512134Y-5364287D01*
X-10512134Y-5364287D02*
X-10316896Y-5364287D01*
X-10316896Y-5364287D02*
X-10238801Y-5325239D01*
X-10238801Y-5325239D02*
X-10199753Y-5286192D01*
X-10199753Y-5286192D02*
X-10160706Y-5208097D01*
X-10160706Y-5208097D02*
X-10160706Y-5051906D01*
X-10160706Y-5051906D02*
X-10199753Y-4973811D01*
X-10199753Y-4973811D02*
X-10238801Y-4934763D01*
X-10238801Y-4934763D02*
X-10316896Y-4895716D01*
X-4718451Y-6803333D02*
X-4132737Y-6803333D01*
X-4132737Y-6803333D02*
X-4015594Y-6842380D01*
X-4015594Y-6842380D02*
X-3937499Y-6920476D01*
X-3937499Y-6920476D02*
X-3898451Y-7037618D01*
X-3898451Y-7037618D02*
X-3898451Y-7115714D01*
X-4640356Y-6451904D02*
X-4679403Y-6412856D01*
X-4679403Y-6412856D02*
X-4718451Y-6334761D01*
X-4718451Y-6334761D02*
X-4718451Y-6139523D01*
X-4718451Y-6139523D02*
X-4679403Y-6061428D01*
X-4679403Y-6061428D02*
X-4640356Y-6022380D01*
X-4640356Y-6022380D02*
X-4562260Y-5983333D01*
X-4562260Y-5983333D02*
X-4484165Y-5983333D01*
X-4484165Y-5983333D02*
X-4367022Y-6022380D01*
X-4367022Y-6022380D02*
X-3898451Y-6490952D01*
X-3898451Y-6490952D02*
X-3898451Y-5983333D01*
X15095238Y4238451D02*
X15563809Y4238451D01*
X15329523Y3418451D02*
X15329523Y4238451D01*
X15837143Y3418451D02*
X15837143Y4238451D01*
X15837143Y4238451D02*
X16149524Y4238451D01*
X16149524Y4238451D02*
X16227619Y4199403D01*
X16227619Y4199403D02*
X16266666Y4160356D01*
X16266666Y4160356D02*
X16305714Y4082260D01*
X16305714Y4082260D02*
X16305714Y3965118D01*
X16305714Y3965118D02*
X16266666Y3887022D01*
X16266666Y3887022D02*
X16227619Y3847975D01*
X16227619Y3847975D02*
X16149524Y3808927D01*
X16149524Y3808927D02*
X15837143Y3808927D01*
X17086666Y3418451D02*
X16618095Y3418451D01*
X16852381Y3418451D02*
X16852381Y4238451D01*
X16852381Y4238451D02*
X16774285Y4121308D01*
X16774285Y4121308D02*
X16696190Y4043213D01*
X16696190Y4043213D02*
X16618095Y4004165D01*
X-6777827Y11849864D02*
X-6855922Y11888911D01*
X-6855922Y11888911D02*
X-6934017Y11967007D01*
X-6934017Y11967007D02*
X-7051160Y12084149D01*
X-7051160Y12084149D02*
X-7129255Y12123197D01*
X-7129255Y12123197D02*
X-7207351Y12123197D01*
X-7168303Y11927959D02*
X-7246398Y11967007D01*
X-7246398Y11967007D02*
X-7324493Y12045102D01*
X-7324493Y12045102D02*
X-7363541Y12201292D01*
X-7363541Y12201292D02*
X-7363541Y12474626D01*
X-7363541Y12474626D02*
X-7324493Y12630816D01*
X-7324493Y12630816D02*
X-7246398Y12708911D01*
X-7246398Y12708911D02*
X-7168303Y12747959D01*
X-7168303Y12747959D02*
X-7012112Y12747959D01*
X-7012112Y12747959D02*
X-6934017Y12708911D01*
X-6934017Y12708911D02*
X-6855922Y12630816D01*
X-6855922Y12630816D02*
X-6816874Y12474626D01*
X-6816874Y12474626D02*
X-6816874Y12201292D01*
X-6816874Y12201292D02*
X-6855922Y12045102D01*
X-6855922Y12045102D02*
X-6934017Y11967007D01*
X-6934017Y11967007D02*
X-7012112Y11927959D01*
X-7012112Y11927959D02*
X-7168303Y11927959D01*
X-6504493Y12669864D02*
X-6465445Y12708911D01*
X-6465445Y12708911D02*
X-6387350Y12747959D01*
X-6387350Y12747959D02*
X-6192112Y12747959D01*
X-6192112Y12747959D02*
X-6114017Y12708911D01*
X-6114017Y12708911D02*
X-6074969Y12669864D01*
X-6074969Y12669864D02*
X-6035922Y12591768D01*
X-6035922Y12591768D02*
X-6035922Y12513673D01*
X-6035922Y12513673D02*
X-6074969Y12396530D01*
X-6074969Y12396530D02*
X-6543541Y11927959D01*
X-6543541Y11927959D02*
X-6035922Y11927959D01*
X-4506354Y13272305D02*
X-4467307Y13233257D01*
X-4467307Y13233257D02*
X-4428259Y13116115D01*
X-4428259Y13116115D02*
X-4428259Y13038019D01*
X-4428259Y13038019D02*
X-4467307Y12920876D01*
X-4467307Y12920876D02*
X-4545402Y12842781D01*
X-4545402Y12842781D02*
X-4623497Y12803734D01*
X-4623497Y12803734D02*
X-4779687Y12764686D01*
X-4779687Y12764686D02*
X-4896830Y12764686D01*
X-4896830Y12764686D02*
X-5053021Y12803734D01*
X-5053021Y12803734D02*
X-5131116Y12842781D01*
X-5131116Y12842781D02*
X-5209211Y12920876D01*
X-5209211Y12920876D02*
X-5248259Y13038019D01*
X-5248259Y13038019D02*
X-5248259Y13116115D01*
X-5248259Y13116115D02*
X-5209211Y13233257D01*
X-5209211Y13233257D02*
X-5170164Y13272305D01*
X-4428259Y14053257D02*
X-4428259Y13584686D01*
X-4428259Y13818972D02*
X-5248259Y13818972D01*
X-5248259Y13818972D02*
X-5131116Y13740876D01*
X-5131116Y13740876D02*
X-5053021Y13662781D01*
X-5053021Y13662781D02*
X-5013973Y13584686D01*
X-4974926Y14756114D02*
X-4428259Y14756114D01*
X-5287307Y14560876D02*
X-4701592Y14365638D01*
X-4701592Y14365638D02*
X-4701592Y14873257D01*
X12069643Y4441904D02*
X12030596Y4363809D01*
X12030596Y4363809D02*
X11952501Y4285714D01*
X11952501Y4285714D02*
X11835358Y4168571D01*
X11835358Y4168571D02*
X11796310Y4090476D01*
X11796310Y4090476D02*
X11796310Y4012380D01*
X11991548Y4051428D02*
X11952501Y3973333D01*
X11952501Y3973333D02*
X11874405Y3895238D01*
X11874405Y3895238D02*
X11718215Y3856190D01*
X11718215Y3856190D02*
X11444881Y3856190D01*
X11444881Y3856190D02*
X11288691Y3895238D01*
X11288691Y3895238D02*
X11210596Y3973333D01*
X11210596Y3973333D02*
X11171548Y4051428D01*
X11171548Y4051428D02*
X11171548Y4207619D01*
X11171548Y4207619D02*
X11210596Y4285714D01*
X11210596Y4285714D02*
X11288691Y4363809D01*
X11288691Y4363809D02*
X11444881Y4402857D01*
X11444881Y4402857D02*
X11718215Y4402857D01*
X11718215Y4402857D02*
X11874405Y4363809D01*
X11874405Y4363809D02*
X11952501Y4285714D01*
X11952501Y4285714D02*
X11991548Y4207619D01*
X11991548Y4207619D02*
X11991548Y4051428D01*
X11991548Y5183809D02*
X11991548Y4715238D01*
X11991548Y4949524D02*
X11171548Y4949524D01*
X11171548Y4949524D02*
X11288691Y4871428D01*
X11288691Y4871428D02*
X11366786Y4793333D01*
X11366786Y4793333D02*
X11405834Y4715238D01*
X20385238Y-5611548D02*
X20853809Y-5611548D01*
X20619523Y-6431548D02*
X20619523Y-5611548D01*
X21127143Y-6431548D02*
X21127143Y-5611548D01*
X21127143Y-5611548D02*
X21439524Y-5611548D01*
X21439524Y-5611548D02*
X21517619Y-5650596D01*
X21517619Y-5650596D02*
X21556666Y-5689643D01*
X21556666Y-5689643D02*
X21595714Y-5767739D01*
X21595714Y-5767739D02*
X21595714Y-5884881D01*
X21595714Y-5884881D02*
X21556666Y-5962977D01*
X21556666Y-5962977D02*
X21517619Y-6002024D01*
X21517619Y-6002024D02*
X21439524Y-6041072D01*
X21439524Y-6041072D02*
X21127143Y-6041072D01*
X21908095Y-5689643D02*
X21947143Y-5650596D01*
X21947143Y-5650596D02*
X22025238Y-5611548D01*
X22025238Y-5611548D02*
X22220476Y-5611548D01*
X22220476Y-5611548D02*
X22298571Y-5650596D01*
X22298571Y-5650596D02*
X22337619Y-5689643D01*
X22337619Y-5689643D02*
X22376666Y-5767739D01*
X22376666Y-5767739D02*
X22376666Y-5845834D01*
X22376666Y-5845834D02*
X22337619Y-5962977D01*
X22337619Y-5962977D02*
X21869047Y-6431548D01*
X21869047Y-6431548D02*
X22376666Y-6431548D01*
X361548Y10272857D02*
X-28927Y9999524D01*
X361548Y9804286D02*
X-458451Y9804286D01*
X-458451Y9804286D02*
X-458451Y10116667D01*
X-458451Y10116667D02*
X-419403Y10194762D01*
X-419403Y10194762D02*
X-380356Y10233809D01*
X-380356Y10233809D02*
X-302260Y10272857D01*
X-302260Y10272857D02*
X-185118Y10272857D01*
X-185118Y10272857D02*
X-107022Y10233809D01*
X-107022Y10233809D02*
X-67975Y10194762D01*
X-67975Y10194762D02*
X-28927Y10116667D01*
X-28927Y10116667D02*
X-28927Y9804286D01*
X-380356Y10585238D02*
X-419403Y10624286D01*
X-419403Y10624286D02*
X-458451Y10702381D01*
X-458451Y10702381D02*
X-458451Y10897619D01*
X-458451Y10897619D02*
X-419403Y10975714D01*
X-419403Y10975714D02*
X-380356Y11014762D01*
X-380356Y11014762D02*
X-302260Y11053809D01*
X-302260Y11053809D02*
X-224165Y11053809D01*
X-224165Y11053809D02*
X-107022Y11014762D01*
X-107022Y11014762D02*
X361548Y10546190D01*
X361548Y10546190D02*
X361548Y11053809D01*
X-458451Y11561428D02*
X-458451Y11639523D01*
X-458451Y11639523D02*
X-419403Y11717619D01*
X-419403Y11717619D02*
X-380356Y11756666D01*
X-380356Y11756666D02*
X-302260Y11795714D01*
X-302260Y11795714D02*
X-146070Y11834761D01*
X-146070Y11834761D02*
X49167Y11834761D01*
X49167Y11834761D02*
X205358Y11795714D01*
X205358Y11795714D02*
X283453Y11756666D01*
X283453Y11756666D02*
X322501Y11717619D01*
X322501Y11717619D02*
X361548Y11639523D01*
X361548Y11639523D02*
X361548Y11561428D01*
X361548Y11561428D02*
X322501Y11483333D01*
X322501Y11483333D02*
X283453Y11444285D01*
X283453Y11444285D02*
X205358Y11405238D01*
X205358Y11405238D02*
X49167Y11366190D01*
X49167Y11366190D02*
X-146070Y11366190D01*
X-146070Y11366190D02*
X-302260Y11405238D01*
X-302260Y11405238D02*
X-380356Y11444285D01*
X-380356Y11444285D02*
X-419403Y11483333D01*
X-419403Y11483333D02*
X-458451Y11561428D01*
X-11460021Y-1585470D02*
X-11736130Y-1861579D01*
X-11736130Y-1861579D02*
X-12315957Y-1281751D01*
X-11321967Y-1392194D02*
X-11211523Y-1336972D01*
X-11211523Y-1336972D02*
X-11073469Y-1198918D01*
X-11073469Y-1198918D02*
X-11045858Y-1116086D01*
X-11045858Y-1116086D02*
X-11045858Y-1060864D01*
X-11045858Y-1060864D02*
X-11073469Y-978032D01*
X-11073469Y-978032D02*
X-11128691Y-922810D01*
X-11128691Y-922810D02*
X-11211523Y-895199D01*
X-11211523Y-895199D02*
X-11266745Y-895199D01*
X-11266745Y-895199D02*
X-11349577Y-922810D01*
X-11349577Y-922810D02*
X-11487632Y-1005642D01*
X-11487632Y-1005642D02*
X-11570464Y-1033253D01*
X-11570464Y-1033253D02*
X-11625686Y-1033253D01*
X-11625686Y-1033253D02*
X-11708518Y-1005642D01*
X-11708518Y-1005642D02*
X-11763740Y-950421D01*
X-11763740Y-950421D02*
X-11791351Y-867588D01*
X-11791351Y-867588D02*
X-11791351Y-812366D01*
X-11791351Y-812366D02*
X-11763740Y-729534D01*
X-11763740Y-729534D02*
X-11625686Y-591480D01*
X-11625686Y-591480D02*
X-11515242Y-536258D01*
X-10410809Y-536258D02*
X-10742139Y-867588D01*
X-10576474Y-701923D02*
X-11156302Y-122096D01*
X-11156302Y-122096D02*
X-11128691Y-260150D01*
X-11128691Y-260150D02*
X-11128691Y-370593D01*
X-11128691Y-370593D02*
X-11156302Y-453426D01*
X-3036171Y-991301D02*
X-3036171Y-229397D01*
X-2655218Y-610349D02*
X-3417123Y-610349D01*
X-9708451Y-3102591D02*
X-9044641Y-3102591D01*
X-9044641Y-3102591D02*
X-8966546Y-3063544D01*
X-8966546Y-3063544D02*
X-8927499Y-3024496D01*
X-8927499Y-3024496D02*
X-8888451Y-2946401D01*
X-8888451Y-2946401D02*
X-8888451Y-2790210D01*
X-8888451Y-2790210D02*
X-8927499Y-2712115D01*
X-8927499Y-2712115D02*
X-8966546Y-2673068D01*
X-8966546Y-2673068D02*
X-9044641Y-2634020D01*
X-9044641Y-2634020D02*
X-9708451Y-2634020D01*
X-9708451Y-1853067D02*
X-9708451Y-2243543D01*
X-9708451Y-2243543D02*
X-9317975Y-2282591D01*
X-9317975Y-2282591D02*
X-9357022Y-2243543D01*
X-9357022Y-2243543D02*
X-9396070Y-2165448D01*
X-9396070Y-2165448D02*
X-9396070Y-1970210D01*
X-9396070Y-1970210D02*
X-9357022Y-1892115D01*
X-9357022Y-1892115D02*
X-9317975Y-1853067D01*
X-9317975Y-1853067D02*
X-9239879Y-1814020D01*
X-9239879Y-1814020D02*
X-9044641Y-1814020D01*
X-9044641Y-1814020D02*
X-8966546Y-1853067D01*
X-8966546Y-1853067D02*
X-8927499Y-1892115D01*
X-8927499Y-1892115D02*
X-8888451Y-1970210D01*
X-8888451Y-1970210D02*
X-8888451Y-2165448D01*
X-8888451Y-2165448D02*
X-8927499Y-2243543D01*
X-8927499Y-2243543D02*
X-8966546Y-2282591D01*
X-7588451Y-14622142D02*
X-7978927Y-14895475D01*
X-7588451Y-15090713D02*
X-8408451Y-15090713D01*
X-8408451Y-15090713D02*
X-8408451Y-14778332D01*
X-8408451Y-14778332D02*
X-8369403Y-14700237D01*
X-8369403Y-14700237D02*
X-8330356Y-14661190D01*
X-8330356Y-14661190D02*
X-8252260Y-14622142D01*
X-8252260Y-14622142D02*
X-8135118Y-14622142D01*
X-8135118Y-14622142D02*
X-8057022Y-14661190D01*
X-8057022Y-14661190D02*
X-8017975Y-14700237D01*
X-8017975Y-14700237D02*
X-7978927Y-14778332D01*
X-7978927Y-14778332D02*
X-7978927Y-15090713D01*
X-7588451Y-13841190D02*
X-7588451Y-14309761D01*
X-7588451Y-14075475D02*
X-8408451Y-14075475D01*
X-8408451Y-14075475D02*
X-8291308Y-14153571D01*
X-8291308Y-14153571D02*
X-8213213Y-14231666D01*
X-8213213Y-14231666D02*
X-8174165Y-14309761D01*
X-8408451Y-13138333D02*
X-8408451Y-13294523D01*
X-8408451Y-13294523D02*
X-8369403Y-13372619D01*
X-8369403Y-13372619D02*
X-8330356Y-13411666D01*
X-8330356Y-13411666D02*
X-8213213Y-13489761D01*
X-8213213Y-13489761D02*
X-8057022Y-13528809D01*
X-8057022Y-13528809D02*
X-7744641Y-13528809D01*
X-7744641Y-13528809D02*
X-7666546Y-13489761D01*
X-7666546Y-13489761D02*
X-7627499Y-13450714D01*
X-7627499Y-13450714D02*
X-7588451Y-13372619D01*
X-7588451Y-13372619D02*
X-7588451Y-13216428D01*
X-7588451Y-13216428D02*
X-7627499Y-13138333D01*
X-7627499Y-13138333D02*
X-7666546Y-13099285D01*
X-7666546Y-13099285D02*
X-7744641Y-13060238D01*
X-7744641Y-13060238D02*
X-7939879Y-13060238D01*
X-7939879Y-13060238D02*
X-8017975Y-13099285D01*
X-8017975Y-13099285D02*
X-8057022Y-13138333D01*
X-8057022Y-13138333D02*
X-8096070Y-13216428D01*
X-8096070Y-13216428D02*
X-8096070Y-13372619D01*
X-8096070Y-13372619D02*
X-8057022Y-13450714D01*
X-8057022Y-13450714D02*
X-8017975Y-13489761D01*
X-8017975Y-13489761D02*
X-7939879Y-13528809D01*
X-13474770Y-5751180D02*
X-14088051Y-6005209D01*
X-14088051Y-6005209D02*
X-14145258Y-6071170D01*
X-14145258Y-6071170D02*
X-14166391Y-6122188D01*
X-14166391Y-6122188D02*
X-14172580Y-6209281D01*
X-14172580Y-6209281D02*
X-14112809Y-6353583D01*
X-14112809Y-6353583D02*
X-14046848Y-6410790D01*
X-14046848Y-6410790D02*
X-13995829Y-6431923D01*
X-13995829Y-6431923D02*
X-13908736Y-6438112D01*
X-13908736Y-6438112D02*
X-13295456Y-6184083D01*
X-13011541Y-6869514D02*
X-13071313Y-6725213D01*
X-13071313Y-6725213D02*
X-13137274Y-6668005D01*
X-13137274Y-6668005D02*
X-13188292Y-6646873D01*
X-13188292Y-6646873D02*
X-13326404Y-6619551D01*
X-13326404Y-6619551D02*
X-13485648Y-6643247D01*
X-13485648Y-6643247D02*
X-13774250Y-6762790D01*
X-13774250Y-6762790D02*
X-13831458Y-6828751D01*
X-13831458Y-6828751D02*
X-13852590Y-6879770D01*
X-13852590Y-6879770D02*
X-13858780Y-6966863D01*
X-13858780Y-6966863D02*
X-13799008Y-7111164D01*
X-13799008Y-7111164D02*
X-13733047Y-7168372D01*
X-13733047Y-7168372D02*
X-13682029Y-7189504D01*
X-13682029Y-7189504D02*
X-13594935Y-7195694D01*
X-13594935Y-7195694D02*
X-13414559Y-7120979D01*
X-13414559Y-7120979D02*
X-13357351Y-7055018D01*
X-13357351Y-7055018D02*
X-13336219Y-7004000D01*
X-13336219Y-7004000D02*
X-13330029Y-6916907D01*
X-13330029Y-6916907D02*
X-13389801Y-6772606D01*
X-13389801Y-6772606D02*
X-13455762Y-6715398D01*
X-13455762Y-6715398D02*
X-13506780Y-6694265D01*
X-13506780Y-6694265D02*
X-13593873Y-6688076D01*
X6261548Y-8386666D02*
X5871072Y-8659999D01*
X6261548Y-8855237D02*
X5441548Y-8855237D01*
X5441548Y-8855237D02*
X5441548Y-8542856D01*
X5441548Y-8542856D02*
X5480596Y-8464761D01*
X5480596Y-8464761D02*
X5519643Y-8425714D01*
X5519643Y-8425714D02*
X5597739Y-8386666D01*
X5597739Y-8386666D02*
X5714881Y-8386666D01*
X5714881Y-8386666D02*
X5792977Y-8425714D01*
X5792977Y-8425714D02*
X5832024Y-8464761D01*
X5832024Y-8464761D02*
X5871072Y-8542856D01*
X5871072Y-8542856D02*
X5871072Y-8855237D01*
X5441548Y-8113333D02*
X5441548Y-7605714D01*
X5441548Y-7605714D02*
X5753929Y-7879047D01*
X5753929Y-7879047D02*
X5753929Y-7761904D01*
X5753929Y-7761904D02*
X5792977Y-7683809D01*
X5792977Y-7683809D02*
X5832024Y-7644761D01*
X5832024Y-7644761D02*
X5910120Y-7605714D01*
X5910120Y-7605714D02*
X6105358Y-7605714D01*
X6105358Y-7605714D02*
X6183453Y-7644761D01*
X6183453Y-7644761D02*
X6222501Y-7683809D01*
X6222501Y-7683809D02*
X6261548Y-7761904D01*
X6261548Y-7761904D02*
X6261548Y-7996190D01*
X6261548Y-7996190D02*
X6222501Y-8074285D01*
X6222501Y-8074285D02*
X6183453Y-8113333D01*
X-19974761Y11908451D02*
X-19974761Y12728451D01*
X-19974761Y12337975D02*
X-19506190Y12337975D01*
X-19506190Y11908451D02*
X-19506190Y12728451D01*
X-18686190Y11908451D02*
X-19154761Y11908451D01*
X-18920475Y11908451D02*
X-18920475Y12728451D01*
X-18920475Y12728451D02*
X-18998571Y12611308D01*
X-18998571Y12611308D02*
X-19076666Y12533213D01*
X-19076666Y12533213D02*
X-19154761Y12494165D01*
X-5538259Y-16876488D02*
X-5928735Y-17149821D01*
X-5538259Y-17345059D02*
X-6358259Y-17345059D01*
X-6358259Y-17345059D02*
X-6358259Y-17032678D01*
X-6358259Y-17032678D02*
X-6319211Y-16954583D01*
X-6319211Y-16954583D02*
X-6280164Y-16915536D01*
X-6280164Y-16915536D02*
X-6202068Y-16876488D01*
X-6202068Y-16876488D02*
X-6084926Y-16876488D01*
X-6084926Y-16876488D02*
X-6006830Y-16915536D01*
X-6006830Y-16915536D02*
X-5967783Y-16954583D01*
X-5967783Y-16954583D02*
X-5928735Y-17032678D01*
X-5928735Y-17032678D02*
X-5928735Y-17345059D01*
X-5538259Y-16095536D02*
X-5538259Y-16564107D01*
X-5538259Y-16329821D02*
X-6358259Y-16329821D01*
X-6358259Y-16329821D02*
X-6241116Y-16407917D01*
X-6241116Y-16407917D02*
X-6163021Y-16486012D01*
X-6163021Y-16486012D02*
X-6123973Y-16564107D01*
X-6358259Y-15822203D02*
X-6358259Y-15314584D01*
X-6358259Y-15314584D02*
X-6045878Y-15587917D01*
X-6045878Y-15587917D02*
X-6045878Y-15470774D01*
X-6045878Y-15470774D02*
X-6006830Y-15392679D01*
X-6006830Y-15392679D02*
X-5967783Y-15353631D01*
X-5967783Y-15353631D02*
X-5889687Y-15314584D01*
X-5889687Y-15314584D02*
X-5694449Y-15314584D01*
X-5694449Y-15314584D02*
X-5616354Y-15353631D01*
X-5616354Y-15353631D02*
X-5577307Y-15392679D01*
X-5577307Y-15392679D02*
X-5538259Y-15470774D01*
X-5538259Y-15470774D02*
X-5538259Y-15705060D01*
X-5538259Y-15705060D02*
X-5577307Y-15783155D01*
X-5577307Y-15783155D02*
X-5616354Y-15822203D01*
X12584762Y2948451D02*
X12584762Y3768451D01*
X12584762Y3768451D02*
X12780000Y3768451D01*
X12780000Y3768451D02*
X12897143Y3729403D01*
X12897143Y3729403D02*
X12975238Y3651308D01*
X12975238Y3651308D02*
X13014285Y3573213D01*
X13014285Y3573213D02*
X13053333Y3417022D01*
X13053333Y3417022D02*
X13053333Y3299879D01*
X13053333Y3299879D02*
X13014285Y3143689D01*
X13014285Y3143689D02*
X12975238Y3065594D01*
X12975238Y3065594D02*
X12897143Y2987499D01*
X12897143Y2987499D02*
X12780000Y2948451D01*
X12780000Y2948451D02*
X12584762Y2948451D01*
X13365714Y3690356D02*
X13404762Y3729403D01*
X13404762Y3729403D02*
X13482857Y3768451D01*
X13482857Y3768451D02*
X13678095Y3768451D01*
X13678095Y3768451D02*
X13756190Y3729403D01*
X13756190Y3729403D02*
X13795238Y3690356D01*
X13795238Y3690356D02*
X13834285Y3612260D01*
X13834285Y3612260D02*
X13834285Y3534165D01*
X13834285Y3534165D02*
X13795238Y3417022D01*
X13795238Y3417022D02*
X13326666Y2948451D01*
X13326666Y2948451D02*
X13834285Y2948451D01*
X-1087735Y4987652D02*
X-1845316Y5301453D01*
X-1845316Y5301453D02*
X-1770601Y5481829D01*
X-1770601Y5481829D02*
X-1689697Y5575112D01*
X-1689697Y5575112D02*
X-1587661Y5617377D01*
X-1587661Y5617377D02*
X-1500568Y5623567D01*
X-1500568Y5623567D02*
X-1341324Y5599870D01*
X-1341324Y5599870D02*
X-1233098Y5555042D01*
X-1233098Y5555042D02*
X-1103739Y5459195D01*
X-1103739Y5459195D02*
X-1046532Y5393234D01*
X-1046532Y5393234D02*
X-1004267Y5291198D01*
X-1004267Y5291198D02*
X-1013020Y5168029D01*
X-1013020Y5168029D02*
X-1087735Y4987652D01*
X-609562Y6142062D02*
X-788877Y5709158D01*
X-699220Y5925610D02*
X-1456801Y6239410D01*
X-1456801Y6239410D02*
X-1378461Y6122431D01*
X-1378461Y6122431D02*
X-1336196Y6020395D01*
X-1336196Y6020395D02*
X-1330006Y5933301D01*
X-310705Y6863567D02*
X-490020Y6430664D01*
X-400362Y6647116D02*
X-1157944Y6960916D01*
X-1157944Y6960916D02*
X-1079603Y6843937D01*
X-1079603Y6843937D02*
X-1037339Y6741900D01*
X-1037339Y6741900D02*
X-1031149Y6654807D01*
X-7628131Y-16876504D02*
X-8018607Y-17149837D01*
X-7628131Y-17345075D02*
X-8448131Y-17345075D01*
X-8448131Y-17345075D02*
X-8448131Y-17032694D01*
X-8448131Y-17032694D02*
X-8409083Y-16954599D01*
X-8409083Y-16954599D02*
X-8370036Y-16915552D01*
X-8370036Y-16915552D02*
X-8291940Y-16876504D01*
X-8291940Y-16876504D02*
X-8174798Y-16876504D01*
X-8174798Y-16876504D02*
X-8096702Y-16915552D01*
X-8096702Y-16915552D02*
X-8057655Y-16954599D01*
X-8057655Y-16954599D02*
X-8018607Y-17032694D01*
X-8018607Y-17032694D02*
X-8018607Y-17345075D01*
X-7628131Y-16095552D02*
X-7628131Y-16564123D01*
X-7628131Y-16329837D02*
X-8448131Y-16329837D01*
X-8448131Y-16329837D02*
X-8330988Y-16407933D01*
X-8330988Y-16407933D02*
X-8252893Y-16486028D01*
X-8252893Y-16486028D02*
X-8213845Y-16564123D01*
X-8174798Y-15392695D02*
X-7628131Y-15392695D01*
X-8487179Y-15587933D02*
X-7901464Y-15783171D01*
X-7901464Y-15783171D02*
X-7901464Y-15275552D01*
X-7826546Y-2614496D02*
X-7787499Y-2653544D01*
X-7787499Y-2653544D02*
X-7748451Y-2770686D01*
X-7748451Y-2770686D02*
X-7748451Y-2848782D01*
X-7748451Y-2848782D02*
X-7787499Y-2965925D01*
X-7787499Y-2965925D02*
X-7865594Y-3044020D01*
X-7865594Y-3044020D02*
X-7943689Y-3083067D01*
X-7943689Y-3083067D02*
X-8099879Y-3122115D01*
X-8099879Y-3122115D02*
X-8217022Y-3122115D01*
X-8217022Y-3122115D02*
X-8373213Y-3083067D01*
X-8373213Y-3083067D02*
X-8451308Y-3044020D01*
X-8451308Y-3044020D02*
X-8529403Y-2965925D01*
X-8529403Y-2965925D02*
X-8568451Y-2848782D01*
X-8568451Y-2848782D02*
X-8568451Y-2770686D01*
X-8568451Y-2770686D02*
X-8529403Y-2653544D01*
X-8529403Y-2653544D02*
X-8490356Y-2614496D01*
X-8568451Y-1911639D02*
X-8568451Y-2067829D01*
X-8568451Y-2067829D02*
X-8529403Y-2145925D01*
X-8529403Y-2145925D02*
X-8490356Y-2184972D01*
X-8490356Y-2184972D02*
X-8373213Y-2263067D01*
X-8373213Y-2263067D02*
X-8217022Y-2302115D01*
X-8217022Y-2302115D02*
X-7904641Y-2302115D01*
X-7904641Y-2302115D02*
X-7826546Y-2263067D01*
X-7826546Y-2263067D02*
X-7787499Y-2224020D01*
X-7787499Y-2224020D02*
X-7748451Y-2145925D01*
X-7748451Y-2145925D02*
X-7748451Y-1989734D01*
X-7748451Y-1989734D02*
X-7787499Y-1911639D01*
X-7787499Y-1911639D02*
X-7826546Y-1872591D01*
X-7826546Y-1872591D02*
X-7904641Y-1833544D01*
X-7904641Y-1833544D02*
X-8099879Y-1833544D01*
X-8099879Y-1833544D02*
X-8177975Y-1872591D01*
X-8177975Y-1872591D02*
X-8217022Y-1911639D01*
X-8217022Y-1911639D02*
X-8256070Y-1989734D01*
X-8256070Y-1989734D02*
X-8256070Y-2145925D01*
X-8256070Y-2145925D02*
X-8217022Y-2224020D01*
X-8217022Y-2224020D02*
X-8177975Y-2263067D01*
X-8177975Y-2263067D02*
X-8099879Y-2302115D01*
X11464756Y6009308D02*
X10884929Y6589136D01*
X10884929Y6589136D02*
X11022983Y6727190D01*
X11022983Y6727190D02*
X11133426Y6782412D01*
X11133426Y6782412D02*
X11243870Y6782412D01*
X11243870Y6782412D02*
X11326702Y6754801D01*
X11326702Y6754801D02*
X11464756Y6671968D01*
X11464756Y6671968D02*
X11547589Y6589136D01*
X11547589Y6589136D02*
X11630421Y6451082D01*
X11630421Y6451082D02*
X11658032Y6368249D01*
X11658032Y6368249D02*
X11658032Y6257806D01*
X11658032Y6257806D02*
X11602810Y6147362D01*
X11602810Y6147362D02*
X11464756Y6009308D01*
X12348303Y6892855D02*
X12016973Y6561525D01*
X12182638Y6727190D02*
X11602810Y7307017D01*
X11602810Y7307017D02*
X11630421Y7168963D01*
X11630421Y7168963D02*
X11630421Y7058520D01*
X11630421Y7058520D02*
X11602810Y6975687D01*
X-12884287Y4848275D02*
X-12415716Y4848275D01*
X-12650002Y4028275D02*
X-12650002Y4848275D01*
X-12142382Y4028275D02*
X-12142382Y4848275D01*
X-12142382Y4848275D02*
X-11830001Y4848275D01*
X-11830001Y4848275D02*
X-11751906Y4809227D01*
X-11751906Y4809227D02*
X-11712859Y4770180D01*
X-11712859Y4770180D02*
X-11673811Y4692084D01*
X-11673811Y4692084D02*
X-11673811Y4574942D01*
X-11673811Y4574942D02*
X-11712859Y4496846D01*
X-11712859Y4496846D02*
X-11751906Y4457799D01*
X-11751906Y4457799D02*
X-11830001Y4418751D01*
X-11830001Y4418751D02*
X-12142382Y4418751D01*
X-11283335Y4028275D02*
X-11127144Y4028275D01*
X-11127144Y4028275D02*
X-11049049Y4067323D01*
X-11049049Y4067323D02*
X-11010001Y4106370D01*
X-11010001Y4106370D02*
X-10931906Y4223513D01*
X-10931906Y4223513D02*
X-10892859Y4379703D01*
X-10892859Y4379703D02*
X-10892859Y4692084D01*
X-10892859Y4692084D02*
X-10931906Y4770180D01*
X-10931906Y4770180D02*
X-10970954Y4809227D01*
X-10970954Y4809227D02*
X-11049049Y4848275D01*
X-11049049Y4848275D02*
X-11205240Y4848275D01*
X-11205240Y4848275D02*
X-11283335Y4809227D01*
X-11283335Y4809227D02*
X-11322382Y4770180D01*
X-11322382Y4770180D02*
X-11361430Y4692084D01*
X-11361430Y4692084D02*
X-11361430Y4496846D01*
X-11361430Y4496846D02*
X-11322382Y4418751D01*
X-11322382Y4418751D02*
X-11283335Y4379703D01*
X-11283335Y4379703D02*
X-11205240Y4340656D01*
X-11205240Y4340656D02*
X-11049049Y4340656D01*
X-11049049Y4340656D02*
X-10970954Y4379703D01*
X-10970954Y4379703D02*
X-10931906Y4418751D01*
X-10931906Y4418751D02*
X-10892859Y4496846D01*
X-18428790Y-21494584D02*
X-18097460Y-21163254D01*
X-17683297Y-21908746D02*
X-18263125Y-21328919D01*
X-17324356Y-21549805D02*
X-17904184Y-20969978D01*
X-17904184Y-20969978D02*
X-17683297Y-20749091D01*
X-17683297Y-20749091D02*
X-17600464Y-20721480D01*
X-17600464Y-20721480D02*
X-17545243Y-20721480D01*
X-17545243Y-20721480D02*
X-17462410Y-20749091D01*
X-17462410Y-20749091D02*
X-17379578Y-20831923D01*
X-17379578Y-20831923D02*
X-17351967Y-20914756D01*
X-17351967Y-20914756D02*
X-17351967Y-20969978D01*
X-17351967Y-20969978D02*
X-17379578Y-21052810D01*
X-17379578Y-21052810D02*
X-17600464Y-21273697D01*
X-17379578Y-20445372D02*
X-16993026Y-20058820D01*
X-16993026Y-20058820D02*
X-16661696Y-20887145D01*
X5359643Y4571904D02*
X5320596Y4493809D01*
X5320596Y4493809D02*
X5242501Y4415714D01*
X5242501Y4415714D02*
X5125358Y4298571D01*
X5125358Y4298571D02*
X5086310Y4220476D01*
X5086310Y4220476D02*
X5086310Y4142380D01*
X5281548Y4181428D02*
X5242501Y4103333D01*
X5242501Y4103333D02*
X5164405Y4025238D01*
X5164405Y4025238D02*
X5008215Y3986190D01*
X5008215Y3986190D02*
X4734881Y3986190D01*
X4734881Y3986190D02*
X4578691Y4025238D01*
X4578691Y4025238D02*
X4500596Y4103333D01*
X4500596Y4103333D02*
X4461548Y4181428D01*
X4461548Y4181428D02*
X4461548Y4337619D01*
X4461548Y4337619D02*
X4500596Y4415714D01*
X4500596Y4415714D02*
X4578691Y4493809D01*
X4578691Y4493809D02*
X4734881Y4532857D01*
X4734881Y4532857D02*
X5008215Y4532857D01*
X5008215Y4532857D02*
X5164405Y4493809D01*
X5164405Y4493809D02*
X5242501Y4415714D01*
X5242501Y4415714D02*
X5281548Y4337619D01*
X5281548Y4337619D02*
X5281548Y4181428D01*
X4734881Y5235714D02*
X5281548Y5235714D01*
X4422501Y5040476D02*
X5008215Y4845238D01*
X5008215Y4845238D02*
X5008215Y5352857D01*
X-8876462Y-6077142D02*
X-8837415Y-6116190D01*
X-8837415Y-6116190D02*
X-8798367Y-6233332D01*
X-8798367Y-6233332D02*
X-8798367Y-6311428D01*
X-8798367Y-6311428D02*
X-8837415Y-6428571D01*
X-8837415Y-6428571D02*
X-8915510Y-6506666D01*
X-8915510Y-6506666D02*
X-8993605Y-6545713D01*
X-8993605Y-6545713D02*
X-9149795Y-6584761D01*
X-9149795Y-6584761D02*
X-9266938Y-6584761D01*
X-9266938Y-6584761D02*
X-9423129Y-6545713D01*
X-9423129Y-6545713D02*
X-9501224Y-6506666D01*
X-9501224Y-6506666D02*
X-9579319Y-6428571D01*
X-9579319Y-6428571D02*
X-9618367Y-6311428D01*
X-9618367Y-6311428D02*
X-9618367Y-6233332D01*
X-9618367Y-6233332D02*
X-9579319Y-6116190D01*
X-9579319Y-6116190D02*
X-9540272Y-6077142D01*
X-8798367Y-5296190D02*
X-8798367Y-5764761D01*
X-8798367Y-5530475D02*
X-9618367Y-5530475D01*
X-9618367Y-5530475D02*
X-9501224Y-5608571D01*
X-9501224Y-5608571D02*
X-9423129Y-5686666D01*
X-9423129Y-5686666D02*
X-9384081Y-5764761D01*
X-9618367Y-4788571D02*
X-9618367Y-4710476D01*
X-9618367Y-4710476D02*
X-9579319Y-4632380D01*
X-9579319Y-4632380D02*
X-9540272Y-4593333D01*
X-9540272Y-4593333D02*
X-9462176Y-4554285D01*
X-9462176Y-4554285D02*
X-9305986Y-4515238D01*
X-9305986Y-4515238D02*
X-9110748Y-4515238D01*
X-9110748Y-4515238D02*
X-8954557Y-4554285D01*
X-8954557Y-4554285D02*
X-8876462Y-4593333D01*
X-8876462Y-4593333D02*
X-8837415Y-4632380D01*
X-8837415Y-4632380D02*
X-8798367Y-4710476D01*
X-8798367Y-4710476D02*
X-8798367Y-4788571D01*
X-8798367Y-4788571D02*
X-8837415Y-4866666D01*
X-8837415Y-4866666D02*
X-8876462Y-4905714D01*
X-8876462Y-4905714D02*
X-8954557Y-4944761D01*
X-8954557Y-4944761D02*
X-9110748Y-4983809D01*
X-9110748Y-4983809D02*
X-9305986Y-4983809D01*
X-9305986Y-4983809D02*
X-9462176Y-4944761D01*
X-9462176Y-4944761D02*
X-9540272Y-4905714D01*
X-9540272Y-4905714D02*
X-9579319Y-4866666D01*
X-9579319Y-4866666D02*
X-9618367Y-4788571D01*
X-4885237Y17508451D02*
X-4416666Y17508451D01*
X-4650952Y16688451D02*
X-4650952Y17508451D01*
X-4143332Y16688451D02*
X-4143332Y17508451D01*
X-4143332Y17508451D02*
X-3830951Y17508451D01*
X-3830951Y17508451D02*
X-3752856Y17469403D01*
X-3752856Y17469403D02*
X-3713809Y17430356D01*
X-3713809Y17430356D02*
X-3674761Y17352260D01*
X-3674761Y17352260D02*
X-3674761Y17235118D01*
X-3674761Y17235118D02*
X-3713809Y17157022D01*
X-3713809Y17157022D02*
X-3752856Y17117975D01*
X-3752856Y17117975D02*
X-3830951Y17078927D01*
X-3830951Y17078927D02*
X-4143332Y17078927D01*
X-2893809Y16688451D02*
X-3362380Y16688451D01*
X-3128094Y16688451D02*
X-3128094Y17508451D01*
X-3128094Y17508451D02*
X-3206190Y17391308D01*
X-3206190Y17391308D02*
X-3284285Y17313213D01*
X-3284285Y17313213D02*
X-3362380Y17274165D01*
X-2112857Y16688451D02*
X-2581428Y16688451D01*
X-2347142Y16688451D02*
X-2347142Y17508451D01*
X-2347142Y17508451D02*
X-2425238Y17391308D01*
X-2425238Y17391308D02*
X-2503333Y17313213D01*
X-2503333Y17313213D02*
X-2581428Y17274165D01*
X-6488451Y-14222142D02*
X-6878927Y-14495475D01*
X-6488451Y-14690713D02*
X-7308451Y-14690713D01*
X-7308451Y-14690713D02*
X-7308451Y-14378332D01*
X-7308451Y-14378332D02*
X-7269403Y-14300237D01*
X-7269403Y-14300237D02*
X-7230356Y-14261190D01*
X-7230356Y-14261190D02*
X-7152260Y-14222142D01*
X-7152260Y-14222142D02*
X-7035118Y-14222142D01*
X-7035118Y-14222142D02*
X-6957022Y-14261190D01*
X-6957022Y-14261190D02*
X-6917975Y-14300237D01*
X-6917975Y-14300237D02*
X-6878927Y-14378332D01*
X-6878927Y-14378332D02*
X-6878927Y-14690713D01*
X-6488451Y-13441190D02*
X-6488451Y-13909761D01*
X-6488451Y-13675475D02*
X-7308451Y-13675475D01*
X-7308451Y-13675475D02*
X-7191308Y-13753571D01*
X-7191308Y-13753571D02*
X-7113213Y-13831666D01*
X-7113213Y-13831666D02*
X-7074165Y-13909761D01*
X-7308451Y-12933571D02*
X-7308451Y-12855476D01*
X-7308451Y-12855476D02*
X-7269403Y-12777380D01*
X-7269403Y-12777380D02*
X-7230356Y-12738333D01*
X-7230356Y-12738333D02*
X-7152260Y-12699285D01*
X-7152260Y-12699285D02*
X-6996070Y-12660238D01*
X-6996070Y-12660238D02*
X-6800832Y-12660238D01*
X-6800832Y-12660238D02*
X-6644641Y-12699285D01*
X-6644641Y-12699285D02*
X-6566546Y-12738333D01*
X-6566546Y-12738333D02*
X-6527499Y-12777380D01*
X-6527499Y-12777380D02*
X-6488451Y-12855476D01*
X-6488451Y-12855476D02*
X-6488451Y-12933571D01*
X-6488451Y-12933571D02*
X-6527499Y-13011666D01*
X-6527499Y-13011666D02*
X-6566546Y-13050714D01*
X-6566546Y-13050714D02*
X-6644641Y-13089761D01*
X-6644641Y-13089761D02*
X-6800832Y-13128809D01*
X-6800832Y-13128809D02*
X-6996070Y-13128809D01*
X-6996070Y-13128809D02*
X-7152260Y-13089761D01*
X-7152260Y-13089761D02*
X-7230356Y-13050714D01*
X-7230356Y-13050714D02*
X-7269403Y-13011666D01*
X-7269403Y-13011666D02*
X-7308451Y-12933571D01*
X-3048451Y-13825237D02*
X-3868451Y-13825237D01*
X-3868451Y-13825237D02*
X-3868451Y-13629999D01*
X-3868451Y-13629999D02*
X-3829403Y-13512856D01*
X-3829403Y-13512856D02*
X-3751308Y-13434761D01*
X-3751308Y-13434761D02*
X-3673213Y-13395714D01*
X-3673213Y-13395714D02*
X-3517022Y-13356666D01*
X-3517022Y-13356666D02*
X-3399879Y-13356666D01*
X-3399879Y-13356666D02*
X-3243689Y-13395714D01*
X-3243689Y-13395714D02*
X-3165594Y-13434761D01*
X-3165594Y-13434761D02*
X-3087499Y-13512856D01*
X-3087499Y-13512856D02*
X-3048451Y-13629999D01*
X-3048451Y-13629999D02*
X-3048451Y-13825237D01*
X-3595118Y-12653809D02*
X-3048451Y-12653809D01*
X-3907499Y-12849047D02*
X-3321784Y-13044285D01*
X-3321784Y-13044285D02*
X-3321784Y-12536666D01*
X8973453Y-2916666D02*
X9012501Y-2955714D01*
X9012501Y-2955714D02*
X9051548Y-3072856D01*
X9051548Y-3072856D02*
X9051548Y-3150952D01*
X9051548Y-3150952D02*
X9012501Y-3268095D01*
X9012501Y-3268095D02*
X8934405Y-3346190D01*
X8934405Y-3346190D02*
X8856310Y-3385237D01*
X8856310Y-3385237D02*
X8700120Y-3424285D01*
X8700120Y-3424285D02*
X8582977Y-3424285D01*
X8582977Y-3424285D02*
X8426786Y-3385237D01*
X8426786Y-3385237D02*
X8348691Y-3346190D01*
X8348691Y-3346190D02*
X8270596Y-3268095D01*
X8270596Y-3268095D02*
X8231548Y-3150952D01*
X8231548Y-3150952D02*
X8231548Y-3072856D01*
X8231548Y-3072856D02*
X8270596Y-2955714D01*
X8270596Y-2955714D02*
X8309643Y-2916666D01*
X8231548Y-2643333D02*
X8231548Y-2135714D01*
X8231548Y-2135714D02*
X8543929Y-2409047D01*
X8543929Y-2409047D02*
X8543929Y-2291904D01*
X8543929Y-2291904D02*
X8582977Y-2213809D01*
X8582977Y-2213809D02*
X8622024Y-2174761D01*
X8622024Y-2174761D02*
X8700120Y-2135714D01*
X8700120Y-2135714D02*
X8895358Y-2135714D01*
X8895358Y-2135714D02*
X8973453Y-2174761D01*
X8973453Y-2174761D02*
X9012501Y-2213809D01*
X9012501Y-2213809D02*
X9051548Y-2291904D01*
X9051548Y-2291904D02*
X9051548Y-2526190D01*
X9051548Y-2526190D02*
X9012501Y-2604285D01*
X9012501Y-2604285D02*
X8973453Y-2643333D01*
X-14332142Y-5083453D02*
X-14371190Y-5122501D01*
X-14371190Y-5122501D02*
X-14488332Y-5161548D01*
X-14488332Y-5161548D02*
X-14566428Y-5161548D01*
X-14566428Y-5161548D02*
X-14683571Y-5122501D01*
X-14683571Y-5122501D02*
X-14761666Y-5044405D01*
X-14761666Y-5044405D02*
X-14800713Y-4966310D01*
X-14800713Y-4966310D02*
X-14839761Y-4810120D01*
X-14839761Y-4810120D02*
X-14839761Y-4692977D01*
X-14839761Y-4692977D02*
X-14800713Y-4536786D01*
X-14800713Y-4536786D02*
X-14761666Y-4458691D01*
X-14761666Y-4458691D02*
X-14683571Y-4380596D01*
X-14683571Y-4380596D02*
X-14566428Y-4341548D01*
X-14566428Y-4341548D02*
X-14488332Y-4341548D01*
X-14488332Y-4341548D02*
X-14371190Y-4380596D01*
X-14371190Y-4380596D02*
X-14332142Y-4419643D01*
X-13551190Y-5161548D02*
X-14019761Y-5161548D01*
X-13785475Y-5161548D02*
X-13785475Y-4341548D01*
X-13785475Y-4341548D02*
X-13863571Y-4458691D01*
X-13863571Y-4458691D02*
X-13941666Y-4536786D01*
X-13941666Y-4536786D02*
X-14019761Y-4575834D01*
X-12770238Y-5161548D02*
X-13238809Y-5161548D01*
X-13004523Y-5161548D02*
X-13004523Y-4341548D01*
X-13004523Y-4341548D02*
X-13082619Y-4458691D01*
X-13082619Y-4458691D02*
X-13160714Y-4536786D01*
X-13160714Y-4536786D02*
X-13238809Y-4575834D01*
X-4288451Y-14231666D02*
X-4678927Y-14504999D01*
X-4288451Y-14700237D02*
X-5108451Y-14700237D01*
X-5108451Y-14700237D02*
X-5108451Y-14387856D01*
X-5108451Y-14387856D02*
X-5069403Y-14309761D01*
X-5069403Y-14309761D02*
X-5030356Y-14270714D01*
X-5030356Y-14270714D02*
X-4952260Y-14231666D01*
X-4952260Y-14231666D02*
X-4835118Y-14231666D01*
X-4835118Y-14231666D02*
X-4757022Y-14270714D01*
X-4757022Y-14270714D02*
X-4717975Y-14309761D01*
X-4717975Y-14309761D02*
X-4678927Y-14387856D01*
X-4678927Y-14387856D02*
X-4678927Y-14700237D01*
X-5108451Y-13528809D02*
X-5108451Y-13684999D01*
X-5108451Y-13684999D02*
X-5069403Y-13763095D01*
X-5069403Y-13763095D02*
X-5030356Y-13802142D01*
X-5030356Y-13802142D02*
X-4913213Y-13880237D01*
X-4913213Y-13880237D02*
X-4757022Y-13919285D01*
X-4757022Y-13919285D02*
X-4444641Y-13919285D01*
X-4444641Y-13919285D02*
X-4366546Y-13880237D01*
X-4366546Y-13880237D02*
X-4327499Y-13841190D01*
X-4327499Y-13841190D02*
X-4288451Y-13763095D01*
X-4288451Y-13763095D02*
X-4288451Y-13606904D01*
X-4288451Y-13606904D02*
X-4327499Y-13528809D01*
X-4327499Y-13528809D02*
X-4366546Y-13489761D01*
X-4366546Y-13489761D02*
X-4444641Y-13450714D01*
X-4444641Y-13450714D02*
X-4639879Y-13450714D01*
X-4639879Y-13450714D02*
X-4717975Y-13489761D01*
X-4717975Y-13489761D02*
X-4757022Y-13528809D01*
X-4757022Y-13528809D02*
X-4796070Y-13606904D01*
X-4796070Y-13606904D02*
X-4796070Y-13763095D01*
X-4796070Y-13763095D02*
X-4757022Y-13841190D01*
X-4757022Y-13841190D02*
X-4717975Y-13880237D01*
X-4717975Y-13880237D02*
X-4639879Y-13919285D01*
X-4438303Y-16476504D02*
X-4828779Y-16749837D01*
X-4438303Y-16945075D02*
X-5258303Y-16945075D01*
X-5258303Y-16945075D02*
X-5258303Y-16632694D01*
X-5258303Y-16632694D02*
X-5219255Y-16554599D01*
X-5219255Y-16554599D02*
X-5180208Y-16515552D01*
X-5180208Y-16515552D02*
X-5102112Y-16476504D01*
X-5102112Y-16476504D02*
X-4984970Y-16476504D01*
X-4984970Y-16476504D02*
X-4906874Y-16515552D01*
X-4906874Y-16515552D02*
X-4867827Y-16554599D01*
X-4867827Y-16554599D02*
X-4828779Y-16632694D01*
X-4828779Y-16632694D02*
X-4828779Y-16945075D01*
X-4438303Y-15695552D02*
X-4438303Y-16164123D01*
X-4438303Y-15929837D02*
X-5258303Y-15929837D01*
X-5258303Y-15929837D02*
X-5141160Y-16007933D01*
X-5141160Y-16007933D02*
X-5063065Y-16086028D01*
X-5063065Y-16086028D02*
X-5024017Y-16164123D01*
X-5180208Y-15383171D02*
X-5219255Y-15344123D01*
X-5219255Y-15344123D02*
X-5258303Y-15266028D01*
X-5258303Y-15266028D02*
X-5258303Y-15070790D01*
X-5258303Y-15070790D02*
X-5219255Y-14992695D01*
X-5219255Y-14992695D02*
X-5180208Y-14953647D01*
X-5180208Y-14953647D02*
X-5102112Y-14914600D01*
X-5102112Y-14914600D02*
X-5024017Y-14914600D01*
X-5024017Y-14914600D02*
X-4906874Y-14953647D01*
X-4906874Y-14953647D02*
X-4438303Y-15422219D01*
X-4438303Y-15422219D02*
X-4438303Y-14914600D01*
X-6743372Y-2614496D02*
X-6704325Y-2653544D01*
X-6704325Y-2653544D02*
X-6665277Y-2770686D01*
X-6665277Y-2770686D02*
X-6665277Y-2848782D01*
X-6665277Y-2848782D02*
X-6704325Y-2965925D01*
X-6704325Y-2965925D02*
X-6782420Y-3044020D01*
X-6782420Y-3044020D02*
X-6860515Y-3083067D01*
X-6860515Y-3083067D02*
X-7016705Y-3122115D01*
X-7016705Y-3122115D02*
X-7133848Y-3122115D01*
X-7133848Y-3122115D02*
X-7290039Y-3083067D01*
X-7290039Y-3083067D02*
X-7368134Y-3044020D01*
X-7368134Y-3044020D02*
X-7446229Y-2965925D01*
X-7446229Y-2965925D02*
X-7485277Y-2848782D01*
X-7485277Y-2848782D02*
X-7485277Y-2770686D01*
X-7485277Y-2770686D02*
X-7446229Y-2653544D01*
X-7446229Y-2653544D02*
X-7407182Y-2614496D01*
X-7211944Y-1911639D02*
X-6665277Y-1911639D01*
X-7524325Y-2106877D02*
X-6938610Y-2302115D01*
X-6938610Y-2302115D02*
X-6938610Y-1794496D01*
X-8738131Y-16086028D02*
X-9128607Y-16359361D01*
X-8738131Y-16554599D02*
X-9558131Y-16554599D01*
X-9558131Y-16554599D02*
X-9558131Y-16242218D01*
X-9558131Y-16242218D02*
X-9519083Y-16164123D01*
X-9519083Y-16164123D02*
X-9480036Y-16125076D01*
X-9480036Y-16125076D02*
X-9401940Y-16086028D01*
X-9401940Y-16086028D02*
X-9284798Y-16086028D01*
X-9284798Y-16086028D02*
X-9206702Y-16125076D01*
X-9206702Y-16125076D02*
X-9167655Y-16164123D01*
X-9167655Y-16164123D02*
X-9128607Y-16242218D01*
X-9128607Y-16242218D02*
X-9128607Y-16554599D01*
X-9558131Y-15812695D02*
X-9558131Y-15266028D01*
X-9558131Y-15266028D02*
X-8738131Y-15617457D01*
X10451548Y5943333D02*
X10061072Y5670000D01*
X10451548Y5474762D02*
X9631548Y5474762D01*
X9631548Y5474762D02*
X9631548Y5787143D01*
X9631548Y5787143D02*
X9670596Y5865238D01*
X9670596Y5865238D02*
X9709643Y5904285D01*
X9709643Y5904285D02*
X9787739Y5943333D01*
X9787739Y5943333D02*
X9904881Y5943333D01*
X9904881Y5943333D02*
X9982977Y5904285D01*
X9982977Y5904285D02*
X10022024Y5865238D01*
X10022024Y5865238D02*
X10061072Y5787143D01*
X10061072Y5787143D02*
X10061072Y5474762D01*
X10451548Y6724285D02*
X10451548Y6255714D01*
X10451548Y6490000D02*
X9631548Y6490000D01*
X9631548Y6490000D02*
X9748691Y6411904D01*
X9748691Y6411904D02*
X9826786Y6333809D01*
X9826786Y6333809D02*
X9865834Y6255714D01*
X-9596666Y4068451D02*
X-9987142Y4068451D01*
X-9987142Y4068451D02*
X-9987142Y4888451D01*
X-8893809Y4068451D02*
X-9362380Y4068451D01*
X-9128094Y4068451D02*
X-9128094Y4888451D01*
X-9128094Y4888451D02*
X-9206190Y4771308D01*
X-9206190Y4771308D02*
X-9284285Y4693213D01*
X-9284285Y4693213D02*
X-9362380Y4654165D01*
X9600229Y-15226180D02*
X8986948Y-15480209D01*
X8986948Y-15480209D02*
X8929741Y-15546170D01*
X8929741Y-15546170D02*
X8908608Y-15597188D01*
X8908608Y-15597188D02*
X8902419Y-15684281D01*
X8902419Y-15684281D02*
X8962190Y-15828583D01*
X8962190Y-15828583D02*
X9028151Y-15885790D01*
X9028151Y-15885790D02*
X9079170Y-15906923D01*
X9079170Y-15906923D02*
X9166263Y-15913112D01*
X9166263Y-15913112D02*
X9779543Y-15659083D01*
X9899086Y-15947686D02*
X10093344Y-16416665D01*
X10093344Y-16416665D02*
X9700141Y-16283681D01*
X9700141Y-16283681D02*
X9744970Y-16391907D01*
X9744970Y-16391907D02*
X9738780Y-16479000D01*
X9738780Y-16479000D02*
X9717648Y-16530018D01*
X9717648Y-16530018D02*
X9660440Y-16595979D01*
X9660440Y-16595979D02*
X9480064Y-16670694D01*
X9480064Y-16670694D02*
X9392970Y-16664504D01*
X9392970Y-16664504D02*
X9341952Y-16643372D01*
X9341952Y-16643372D02*
X9275991Y-16586164D01*
X9275991Y-16586164D02*
X9186334Y-16369712D01*
X9186334Y-16369712D02*
X9192523Y-16282619D01*
X9192523Y-16282619D02*
X9213656Y-16231601D01*
X-4925356Y-10803095D02*
X-4964403Y-10881190D01*
X-4964403Y-10881190D02*
X-5042499Y-10959285D01*
X-5042499Y-10959285D02*
X-5159641Y-11076428D01*
X-5159641Y-11076428D02*
X-5198689Y-11154523D01*
X-5198689Y-11154523D02*
X-5198689Y-11232619D01*
X-5003451Y-11193571D02*
X-5042499Y-11271666D01*
X-5042499Y-11271666D02*
X-5120594Y-11349761D01*
X-5120594Y-11349761D02*
X-5276784Y-11388809D01*
X-5276784Y-11388809D02*
X-5550118Y-11388809D01*
X-5550118Y-11388809D02*
X-5706308Y-11349761D01*
X-5706308Y-11349761D02*
X-5784403Y-11271666D01*
X-5784403Y-11271666D02*
X-5823451Y-11193571D01*
X-5823451Y-11193571D02*
X-5823451Y-11037380D01*
X-5823451Y-11037380D02*
X-5784403Y-10959285D01*
X-5784403Y-10959285D02*
X-5706308Y-10881190D01*
X-5706308Y-10881190D02*
X-5550118Y-10842142D01*
X-5550118Y-10842142D02*
X-5276784Y-10842142D01*
X-5276784Y-10842142D02*
X-5120594Y-10881190D01*
X-5120594Y-10881190D02*
X-5042499Y-10959285D01*
X-5042499Y-10959285D02*
X-5003451Y-11037380D01*
X-5003451Y-11037380D02*
X-5003451Y-11193571D01*
X-5823451Y-10568809D02*
X-5823451Y-10061190D01*
X-5823451Y-10061190D02*
X-5511070Y-10334523D01*
X-5511070Y-10334523D02*
X-5511070Y-10217380D01*
X-5511070Y-10217380D02*
X-5472022Y-10139285D01*
X-5472022Y-10139285D02*
X-5432975Y-10100237D01*
X-5432975Y-10100237D02*
X-5354879Y-10061190D01*
X-5354879Y-10061190D02*
X-5159641Y-10061190D01*
X-5159641Y-10061190D02*
X-5081546Y-10100237D01*
X-5081546Y-10100237D02*
X-5042499Y-10139285D01*
X-5042499Y-10139285D02*
X-5003451Y-10217380D01*
X-5003451Y-10217380D02*
X-5003451Y-10451666D01*
X-5003451Y-10451666D02*
X-5042499Y-10529761D01*
X-5042499Y-10529761D02*
X-5081546Y-10568809D01*
X9381548Y6323333D02*
X8991072Y6050000D01*
X9381548Y5854762D02*
X8561548Y5854762D01*
X8561548Y5854762D02*
X8561548Y6167143D01*
X8561548Y6167143D02*
X8600596Y6245238D01*
X8600596Y6245238D02*
X8639643Y6284285D01*
X8639643Y6284285D02*
X8717739Y6323333D01*
X8717739Y6323333D02*
X8834881Y6323333D01*
X8834881Y6323333D02*
X8912977Y6284285D01*
X8912977Y6284285D02*
X8952024Y6245238D01*
X8952024Y6245238D02*
X8991072Y6167143D01*
X8991072Y6167143D02*
X8991072Y5854762D01*
X8639643Y6635714D02*
X8600596Y6674762D01*
X8600596Y6674762D02*
X8561548Y6752857D01*
X8561548Y6752857D02*
X8561548Y6948095D01*
X8561548Y6948095D02*
X8600596Y7026190D01*
X8600596Y7026190D02*
X8639643Y7065238D01*
X8639643Y7065238D02*
X8717739Y7104285D01*
X8717739Y7104285D02*
X8795834Y7104285D01*
X8795834Y7104285D02*
X8912977Y7065238D01*
X8912977Y7065238D02*
X9381548Y6596666D01*
X9381548Y6596666D02*
X9381548Y7104285D01*
X14579307Y-10274756D02*
X15159135Y-9694929D01*
X15159135Y-9694929D02*
X15297189Y-9832983D01*
X15297189Y-9832983D02*
X15352411Y-9943426D01*
X15352411Y-9943426D02*
X15352411Y-10053870D01*
X15352411Y-10053870D02*
X15324800Y-10136702D01*
X15324800Y-10136702D02*
X15241967Y-10274756D01*
X15241967Y-10274756D02*
X15159135Y-10357589D01*
X15159135Y-10357589D02*
X15021081Y-10440421D01*
X15021081Y-10440421D02*
X14938248Y-10468032D01*
X14938248Y-10468032D02*
X14827805Y-10468032D01*
X14827805Y-10468032D02*
X14717361Y-10412810D01*
X14717361Y-10412810D02*
X14579307Y-10274756D01*
X15683741Y-10219535D02*
X16042681Y-10578475D01*
X16042681Y-10578475D02*
X15628519Y-10606086D01*
X15628519Y-10606086D02*
X15711351Y-10688919D01*
X15711351Y-10688919D02*
X15738962Y-10771751D01*
X15738962Y-10771751D02*
X15738962Y-10826973D01*
X15738962Y-10826973D02*
X15711351Y-10909805D01*
X15711351Y-10909805D02*
X15573297Y-11047860D01*
X15573297Y-11047860D02*
X15490465Y-11075470D01*
X15490465Y-11075470D02*
X15435243Y-11075470D01*
X15435243Y-11075470D02*
X15352411Y-11047860D01*
X15352411Y-11047860D02*
X15186746Y-10882195D01*
X15186746Y-10882195D02*
X15159135Y-10799362D01*
X15159135Y-10799362D02*
X15159135Y-10744140D01*
X15470865Y10115859D02*
X15470865Y10060637D01*
X15470865Y10060637D02*
X15415643Y9950194D01*
X15415643Y9950194D02*
X15360421Y9894972D01*
X15360421Y9894972D02*
X15249978Y9839750D01*
X15249978Y9839750D02*
X15139535Y9839750D01*
X15139535Y9839750D02*
X15056702Y9867361D01*
X15056702Y9867361D02*
X14918648Y9950194D01*
X14918648Y9950194D02*
X14835815Y10033026D01*
X14835815Y10033026D02*
X14752983Y10171081D01*
X14752983Y10171081D02*
X14725372Y10253913D01*
X14725372Y10253913D02*
X14725372Y10364356D01*
X14725372Y10364356D02*
X14780594Y10474800D01*
X14780594Y10474800D02*
X14835815Y10530021D01*
X14835815Y10530021D02*
X14946259Y10585243D01*
X14946259Y10585243D02*
X15001480Y10585243D01*
X16078303Y10612854D02*
X15746973Y10281524D01*
X15912638Y10447189D02*
X15332810Y11027016D01*
X15332810Y11027016D02*
X15360421Y10888962D01*
X15360421Y10888962D02*
X15360421Y10778519D01*
X15360421Y10778519D02*
X15332810Y10695686D01*
X-4718451Y-5554761D02*
X-4054641Y-5554761D01*
X-4054641Y-5554761D02*
X-3976546Y-5515714D01*
X-3976546Y-5515714D02*
X-3937499Y-5476666D01*
X-3937499Y-5476666D02*
X-3898451Y-5398571D01*
X-3898451Y-5398571D02*
X-3898451Y-5242380D01*
X-3898451Y-5242380D02*
X-3937499Y-5164285D01*
X-3937499Y-5164285D02*
X-3976546Y-5125238D01*
X-3976546Y-5125238D02*
X-4054641Y-5086190D01*
X-4054641Y-5086190D02*
X-4718451Y-5086190D01*
X-4367022Y-4578571D02*
X-4406070Y-4656666D01*
X-4406070Y-4656666D02*
X-4445118Y-4695713D01*
X-4445118Y-4695713D02*
X-4523213Y-4734761D01*
X-4523213Y-4734761D02*
X-4562260Y-4734761D01*
X-4562260Y-4734761D02*
X-4640356Y-4695713D01*
X-4640356Y-4695713D02*
X-4679403Y-4656666D01*
X-4679403Y-4656666D02*
X-4718451Y-4578571D01*
X-4718451Y-4578571D02*
X-4718451Y-4422380D01*
X-4718451Y-4422380D02*
X-4679403Y-4344285D01*
X-4679403Y-4344285D02*
X-4640356Y-4305237D01*
X-4640356Y-4305237D02*
X-4562260Y-4266190D01*
X-4562260Y-4266190D02*
X-4523213Y-4266190D01*
X-4523213Y-4266190D02*
X-4445118Y-4305237D01*
X-4445118Y-4305237D02*
X-4406070Y-4344285D01*
X-4406070Y-4344285D02*
X-4367022Y-4422380D01*
X-4367022Y-4422380D02*
X-4367022Y-4578571D01*
X-4367022Y-4578571D02*
X-4327975Y-4656666D01*
X-4327975Y-4656666D02*
X-4288927Y-4695713D01*
X-4288927Y-4695713D02*
X-4210832Y-4734761D01*
X-4210832Y-4734761D02*
X-4054641Y-4734761D01*
X-4054641Y-4734761D02*
X-3976546Y-4695713D01*
X-3976546Y-4695713D02*
X-3937499Y-4656666D01*
X-3937499Y-4656666D02*
X-3898451Y-4578571D01*
X-3898451Y-4578571D02*
X-3898451Y-4422380D01*
X-3898451Y-4422380D02*
X-3937499Y-4344285D01*
X-3937499Y-4344285D02*
X-3976546Y-4305237D01*
X-3976546Y-4305237D02*
X-4054641Y-4266190D01*
X-4054641Y-4266190D02*
X-4210832Y-4266190D01*
X-4210832Y-4266190D02*
X-4288927Y-4305237D01*
X-4288927Y-4305237D02*
X-4327975Y-4344285D01*
X-4327975Y-4344285D02*
X-4367022Y-4422380D01*
X-15409134Y-10664140D02*
X-15409134Y-10719362D01*
X-15409134Y-10719362D02*
X-15464356Y-10829805D01*
X-15464356Y-10829805D02*
X-15519578Y-10885027D01*
X-15519578Y-10885027D02*
X-15630021Y-10940249D01*
X-15630021Y-10940249D02*
X-15740464Y-10940249D01*
X-15740464Y-10940249D02*
X-15823297Y-10912638D01*
X-15823297Y-10912638D02*
X-15961351Y-10829805D01*
X-15961351Y-10829805D02*
X-16044184Y-10746973D01*
X-16044184Y-10746973D02*
X-16127016Y-10608918D01*
X-16127016Y-10608918D02*
X-16154627Y-10526086D01*
X-16154627Y-10526086D02*
X-16154627Y-10415643D01*
X-16154627Y-10415643D02*
X-16099405Y-10305199D01*
X-16099405Y-10305199D02*
X-16044184Y-10249978D01*
X-16044184Y-10249978D02*
X-15933740Y-10194756D01*
X-15933740Y-10194756D02*
X-15878519Y-10194756D01*
X-15353913Y-10056702D02*
X-15436745Y-10084313D01*
X-15436745Y-10084313D02*
X-15491967Y-10084313D01*
X-15491967Y-10084313D02*
X-15574799Y-10056702D01*
X-15574799Y-10056702D02*
X-15602410Y-10029091D01*
X-15602410Y-10029091D02*
X-15630021Y-9946258D01*
X-15630021Y-9946258D02*
X-15630021Y-9891037D01*
X-15630021Y-9891037D02*
X-15602410Y-9808204D01*
X-15602410Y-9808204D02*
X-15491967Y-9697761D01*
X-15491967Y-9697761D02*
X-15409134Y-9670150D01*
X-15409134Y-9670150D02*
X-15353913Y-9670150D01*
X-15353913Y-9670150D02*
X-15271080Y-9697761D01*
X-15271080Y-9697761D02*
X-15243469Y-9725372D01*
X-15243469Y-9725372D02*
X-15215859Y-9808204D01*
X-15215859Y-9808204D02*
X-15215859Y-9863426D01*
X-15215859Y-9863426D02*
X-15243469Y-9946258D01*
X-15243469Y-9946258D02*
X-15353913Y-10056702D01*
X-15353913Y-10056702D02*
X-15381524Y-10139534D01*
X-15381524Y-10139534D02*
X-15381524Y-10194756D01*
X-15381524Y-10194756D02*
X-15353913Y-10277588D01*
X-15353913Y-10277588D02*
X-15243469Y-10388032D01*
X-15243469Y-10388032D02*
X-15160637Y-10415643D01*
X-15160637Y-10415643D02*
X-15105415Y-10415643D01*
X-15105415Y-10415643D02*
X-15022583Y-10388032D01*
X-15022583Y-10388032D02*
X-14912139Y-10277588D01*
X-14912139Y-10277588D02*
X-14884529Y-10194756D01*
X-14884529Y-10194756D02*
X-14884529Y-10139534D01*
X-14884529Y-10139534D02*
X-14912139Y-10056702D01*
X-14912139Y-10056702D02*
X-15022583Y-9946258D01*
X-15022583Y-9946258D02*
X-15105415Y-9918648D01*
X-15105415Y-9918648D02*
X-15160637Y-9918648D01*
X-15160637Y-9918648D02*
X-15243469Y-9946258D01*
X7323539Y-8289269D02*
X6909376Y-8703431D01*
X6909376Y-8703431D02*
X6798933Y-8758653D01*
X6798933Y-8758653D02*
X6688490Y-8758653D01*
X6688490Y-8758653D02*
X6578046Y-8703431D01*
X6578046Y-8703431D02*
X6522825Y-8648210D01*
X7323539Y-9448924D02*
X6992209Y-9117594D01*
X7157874Y-9283259D02*
X7737701Y-8703431D01*
X7737701Y-8703431D02*
X7599647Y-8731042D01*
X7599647Y-8731042D02*
X7489204Y-8731042D01*
X7489204Y-8731042D02*
X7406371Y-8703431D01*
X-6608131Y-16886504D02*
X-6998607Y-17159837D01*
X-6608131Y-17355075D02*
X-7428131Y-17355075D01*
X-7428131Y-17355075D02*
X-7428131Y-17042694D01*
X-7428131Y-17042694D02*
X-7389083Y-16964599D01*
X-7389083Y-16964599D02*
X-7350036Y-16925552D01*
X-7350036Y-16925552D02*
X-7271940Y-16886504D01*
X-7271940Y-16886504D02*
X-7154798Y-16886504D01*
X-7154798Y-16886504D02*
X-7076702Y-16925552D01*
X-7076702Y-16925552D02*
X-7037655Y-16964599D01*
X-7037655Y-16964599D02*
X-6998607Y-17042694D01*
X-6998607Y-17042694D02*
X-6998607Y-17355075D01*
X-6608131Y-16105552D02*
X-6608131Y-16574123D01*
X-6608131Y-16339837D02*
X-7428131Y-16339837D01*
X-7428131Y-16339837D02*
X-7310988Y-16417933D01*
X-7310988Y-16417933D02*
X-7232893Y-16496028D01*
X-7232893Y-16496028D02*
X-7193845Y-16574123D01*
X-7428131Y-15363647D02*
X-7428131Y-15754123D01*
X-7428131Y-15754123D02*
X-7037655Y-15793171D01*
X-7037655Y-15793171D02*
X-7076702Y-15754123D01*
X-7076702Y-15754123D02*
X-7115750Y-15676028D01*
X-7115750Y-15676028D02*
X-7115750Y-15480790D01*
X-7115750Y-15480790D02*
X-7076702Y-15402695D01*
X-7076702Y-15402695D02*
X-7037655Y-15363647D01*
X-7037655Y-15363647D02*
X-6959559Y-15324600D01*
X-6959559Y-15324600D02*
X-6764321Y-15324600D01*
X-6764321Y-15324600D02*
X-6686226Y-15363647D01*
X-6686226Y-15363647D02*
X-6647179Y-15402695D01*
X-6647179Y-15402695D02*
X-6608131Y-15480790D01*
X-6608131Y-15480790D02*
X-6608131Y-15676028D01*
X-6608131Y-15676028D02*
X-6647179Y-15754123D01*
X-6647179Y-15754123D02*
X-6686226Y-15793171D01*
X6241084Y9049087D02*
X6782214Y8824944D01*
X6782214Y8824944D02*
X6875497Y8744040D01*
X6875497Y8744040D02*
X6917762Y8642004D01*
X6917762Y8642004D02*
X6909008Y8518835D01*
X6909008Y8518835D02*
X6879123Y8446685D01*
X6360627Y9337690D02*
X6554885Y9806669D01*
X6554885Y9806669D02*
X6738887Y9434599D01*
X6738887Y9434599D02*
X6783716Y9542825D01*
X6783716Y9542825D02*
X6849677Y9600032D01*
X6849677Y9600032D02*
X6900695Y9621165D01*
X6900695Y9621165D02*
X6987788Y9627354D01*
X6987788Y9627354D02*
X7168165Y9552640D01*
X7168165Y9552640D02*
X7225373Y9486679D01*
X7225373Y9486679D02*
X7246505Y9435661D01*
X7246505Y9435661D02*
X7252695Y9348567D01*
X7252695Y9348567D02*
X7163037Y9132115D01*
X7163037Y9132115D02*
X7097076Y9074908D01*
X7097076Y9074908D02*
X7046058Y9053775D01*
X-10879836Y15614625D02*
X-10935058Y15614625D01*
X-10935058Y15614625D02*
X-11045501Y15669846D01*
X-11045501Y15669846D02*
X-11100723Y15725068D01*
X-11100723Y15725068D02*
X-11155945Y15835511D01*
X-11155945Y15835511D02*
X-11155945Y15945955D01*
X-11155945Y15945955D02*
X-11128334Y16028787D01*
X-11128334Y16028787D02*
X-11045501Y16166841D01*
X-11045501Y16166841D02*
X-10962669Y16249674D01*
X-10962669Y16249674D02*
X-10824615Y16332506D01*
X-10824615Y16332506D02*
X-10741782Y16360117D01*
X-10741782Y16360117D02*
X-10631339Y16360117D01*
X-10631339Y16360117D02*
X-10520896Y16304896D01*
X-10520896Y16304896D02*
X-10465674Y16249674D01*
X-10465674Y16249674D02*
X-10410452Y16139231D01*
X-10410452Y16139231D02*
X-10410452Y16084009D01*
X-10382841Y15007186D02*
X-10714171Y15338516D01*
X-10548506Y15172851D02*
X-9968679Y15752679D01*
X-9968679Y15752679D02*
X-10106733Y15725068D01*
X-10106733Y15725068D02*
X-10217176Y15725068D01*
X-10217176Y15725068D02*
X-10300009Y15752679D01*
X-9609738Y15393738D02*
X-9250797Y15034797D01*
X-9250797Y15034797D02*
X-9664960Y15007187D01*
X-9664960Y15007187D02*
X-9582127Y14924354D01*
X-9582127Y14924354D02*
X-9554517Y14841521D01*
X-9554517Y14841521D02*
X-9554517Y14786300D01*
X-9554517Y14786300D02*
X-9582127Y14703467D01*
X-9582127Y14703467D02*
X-9720182Y14565413D01*
X-9720182Y14565413D02*
X-9803014Y14537802D01*
X-9803014Y14537802D02*
X-9858236Y14537802D01*
X-9858236Y14537802D02*
X-9941068Y14565413D01*
X-9941068Y14565413D02*
X-10106733Y14731078D01*
X-10106733Y14731078D02*
X-10134344Y14813911D01*
X-10134344Y14813911D02*
X-10134344Y14869132D01*
X-6776546Y-6097142D02*
X-6737499Y-6136190D01*
X-6737499Y-6136190D02*
X-6698451Y-6253332D01*
X-6698451Y-6253332D02*
X-6698451Y-6331428D01*
X-6698451Y-6331428D02*
X-6737499Y-6448571D01*
X-6737499Y-6448571D02*
X-6815594Y-6526666D01*
X-6815594Y-6526666D02*
X-6893689Y-6565713D01*
X-6893689Y-6565713D02*
X-7049879Y-6604761D01*
X-7049879Y-6604761D02*
X-7167022Y-6604761D01*
X-7167022Y-6604761D02*
X-7323213Y-6565713D01*
X-7323213Y-6565713D02*
X-7401308Y-6526666D01*
X-7401308Y-6526666D02*
X-7479403Y-6448571D01*
X-7479403Y-6448571D02*
X-7518451Y-6331428D01*
X-7518451Y-6331428D02*
X-7518451Y-6253332D01*
X-7518451Y-6253332D02*
X-7479403Y-6136190D01*
X-7479403Y-6136190D02*
X-7440356Y-6097142D01*
X-6698451Y-5316190D02*
X-6698451Y-5784761D01*
X-6698451Y-5550475D02*
X-7518451Y-5550475D01*
X-7518451Y-5550475D02*
X-7401308Y-5628571D01*
X-7401308Y-5628571D02*
X-7323213Y-5706666D01*
X-7323213Y-5706666D02*
X-7284165Y-5784761D01*
X-7518451Y-4574285D02*
X-7518451Y-4964761D01*
X-7518451Y-4964761D02*
X-7127975Y-5003809D01*
X-7127975Y-5003809D02*
X-7167022Y-4964761D01*
X-7167022Y-4964761D02*
X-7206070Y-4886666D01*
X-7206070Y-4886666D02*
X-7206070Y-4691428D01*
X-7206070Y-4691428D02*
X-7167022Y-4613333D01*
X-7167022Y-4613333D02*
X-7127975Y-4574285D01*
X-7127975Y-4574285D02*
X-7049879Y-4535238D01*
X-7049879Y-4535238D02*
X-6854641Y-4535238D01*
X-6854641Y-4535238D02*
X-6776546Y-4574285D01*
X-6776546Y-4574285D02*
X-6737499Y-4613333D01*
X-6737499Y-4613333D02*
X-6698451Y-4691428D01*
X-6698451Y-4691428D02*
X-6698451Y-4886666D01*
X-6698451Y-4886666D02*
X-6737499Y-4964761D01*
X-6737499Y-4964761D02*
X-6776546Y-5003809D01*
D13*
%TO.C,U7*%
X-7076986Y17741252D02*
X-7816090Y17435105D01*
X-7076986Y17741252D02*
X-6337883Y18047399D01*
X-5883014Y14858748D02*
X-6622117Y14552601D01*
X-5883014Y14858748D02*
X-4220031Y15547578D01*
%TO.C,R18*%
X-2832500Y-3242742D02*
X-2832500Y-3717258D01*
X-1787500Y-3242742D02*
X-1787500Y-3717258D01*
%TO.C,U4*%
X2903625Y-2170000D02*
X2903625Y-2620000D01*
X2903625Y-5390000D02*
X2903625Y-4940000D01*
X3353625Y-2170000D02*
X2903625Y-2170000D01*
X3353625Y-5390000D02*
X2903625Y-5390000D01*
X5673625Y-2170000D02*
X6123625Y-2170000D01*
X5673625Y-5390000D02*
X5823625Y-5390000D01*
X6123625Y-2170000D02*
X6123625Y-2620000D01*
X6123625Y-4940000D02*
X6123625Y-5150000D01*
X6363625Y-5720000D02*
X5883625Y-5720000D01*
X6123625Y-5390000D01*
X6363625Y-5720000D01*
G36*
X6363625Y-5720000D02*
G01*
X5883625Y-5720000D01*
X6123625Y-5390000D01*
X6363625Y-5720000D01*
G37*
%TO.C,D8*%
X2450000Y2460000D02*
X2450000Y5010000D01*
X2450000Y2460000D02*
X4150000Y2460000D01*
X4150000Y2460000D02*
X4150000Y5010000D01*
%TO.C,C5*%
X8139970Y-13761219D02*
X8338781Y-13960030D01*
X8861219Y-13039970D02*
X9060030Y-13238781D01*
%TO.C,R4*%
X2247500Y-10727258D02*
X2247500Y-10252742D01*
X3292500Y-10727258D02*
X3292500Y-10252742D01*
%TO.C,TP4*%
X-9649586Y-15249390D02*
G75*
G02*
X-11049586Y-15249390I-700000J0D01*
G01*
X-11049586Y-15249390D02*
G75*
G02*
X-9649586Y-15249390I700000J0D01*
G01*
%TO.C,C12*%
X-4319858Y9381D02*
X-4319858Y290541D01*
X-3299858Y9381D02*
X-3299858Y290541D01*
%TO.C,R5*%
X3747500Y-10717258D02*
X3747500Y-10242742D01*
X4792500Y-10717258D02*
X4792500Y-10242742D01*
%TO.C,D9*%
X-10502297Y6604316D02*
X-15664176Y11766195D01*
X-9689124Y7417488D02*
X-10502297Y6604316D01*
X-6613210Y10493403D02*
X-11775089Y15655282D01*
%TO.C,R17*%
X2547500Y-272258D02*
X2547500Y202258D01*
X3592500Y-272258D02*
X3592500Y202258D01*
%TO.C,C7*%
X-4110000Y-15740580D02*
X-4110000Y-15459420D01*
X-3090000Y-15740580D02*
X-3090000Y-15459420D01*
%TO.C,D5*%
X-10493403Y-6613210D02*
X-15655282Y-11775089D01*
X-7417488Y-9689124D02*
X-6604316Y-10502297D01*
X-6604316Y-10502297D02*
X-11766195Y-15664176D01*
%TO.C,TP6*%
X-14599388Y10249590D02*
G75*
G02*
X-15999388Y10249590I-700000J0D01*
G01*
X-15999388Y10249590D02*
G75*
G02*
X-14599388Y10249590I700000J0D01*
G01*
%TO.C,TP8*%
X13470000Y4780000D02*
G75*
G02*
X12070000Y4780000I-700000J0D01*
G01*
X12070000Y4780000D02*
G75*
G02*
X13470000Y4780000I700000J0D01*
G01*
%TO.C,U1*%
X14756365Y6058552D02*
X14450218Y6797655D01*
X14756365Y6058552D02*
X15445195Y4395569D01*
X17638869Y7252524D02*
X17332722Y7991628D01*
X17638869Y7252524D02*
X17945016Y6513421D01*
%TO.C,D6*%
X-12096201Y2756289D02*
X-19396201Y2756289D01*
X-12096201Y-1593711D02*
X-12096201Y-2743711D01*
X-12096201Y-2743711D02*
X-19396201Y-2743711D01*
%TO.C,U9*%
X-920000Y3700000D02*
X-920000Y4500000D01*
X-920000Y3700000D02*
X-920000Y2900000D01*
X2200000Y3700000D02*
X2200000Y5500000D01*
X2200000Y3700000D02*
X2200000Y2900000D01*
%TO.C,R11*%
X-772490Y-10262322D02*
X-772490Y-10736838D01*
X272510Y-10262322D02*
X272510Y-10736838D01*
%TO.C,D7*%
X-7049752Y-7149654D02*
X-7049752Y-9699654D01*
X-5349752Y-7149654D02*
X-7049752Y-7149654D01*
X-5349752Y-7149654D02*
X-5349752Y-9699654D01*
%TO.C,TP5*%
X-17349278Y-3749850D02*
G75*
G02*
X-18749278Y-3749850I-700000J0D01*
G01*
X-18749278Y-3749850D02*
G75*
G02*
X-17349278Y-3749850I700000J0D01*
G01*
%TO.C,R8*%
X7014587Y-277258D02*
X7014587Y197258D01*
X8059587Y-277258D02*
X8059587Y197258D01*
%TO.C,R9*%
X727450Y-10736838D02*
X727450Y-10262322D01*
X1772450Y-10736838D02*
X1772450Y-10262322D01*
%TO.C,TP3*%
X4249858Y-18049278D02*
G75*
G02*
X2849858Y-18049278I-700000J0D01*
G01*
X2849858Y-18049278D02*
G75*
G02*
X4249858Y-18049278I700000J0D01*
G01*
%TO.C,D10*%
X-2743711Y12096201D02*
X-2743711Y19396201D01*
X-1593711Y12096201D02*
X-2743711Y12096201D01*
X2756289Y12096201D02*
X2756289Y19396201D01*
%TO.C,TP10*%
X-2930000Y18180000D02*
G75*
G02*
X-4330000Y18180000I-700000J0D01*
G01*
X-4330000Y18180000D02*
G75*
G02*
X-2930000Y18180000I700000J0D01*
G01*
%TO.C,C2*%
X11030000Y45580D02*
X11030000Y-235580D01*
X12050000Y45580D02*
X12050000Y-235580D01*
%TO.C,R19*%
X-3412500Y11017258D02*
X-3412500Y10542742D01*
X-2367500Y11017258D02*
X-2367500Y10542742D01*
%TO.C,C9*%
X-7319857Y9381D02*
X-7319857Y290541D01*
X-6299857Y9381D02*
X-6299857Y290541D01*
%TO.C,J2*%
X-3755004Y-8279722D02*
X-3755004Y-6949722D01*
X-2425004Y-8279722D02*
X-3755004Y-8279722D01*
X-1155004Y-5619722D02*
X3984996Y-5619722D01*
X-1155004Y-8279722D02*
X-1155004Y-5619722D01*
X-1155004Y-8279722D02*
X3984996Y-8279722D01*
X3984996Y-8279722D02*
X3984996Y-5619722D01*
%TO.C,TP1*%
X18749278Y3799848D02*
G75*
G02*
X17349278Y3799848I-700000J0D01*
G01*
X17349278Y3799848D02*
G75*
G02*
X18749278Y3799848I700000J0D01*
G01*
%TO.C,Q2*%
X-5530000Y11680000D02*
X-7205000Y11680000D01*
X-5530000Y11680000D02*
X-4880000Y11680000D01*
X-5530000Y8560000D02*
X-6180000Y8560000D01*
X-5530000Y8560000D02*
X-4880000Y8560000D01*
%TO.C,C14*%
X-4159854Y13669420D02*
X-4159854Y13950580D01*
X-3139854Y13669420D02*
X-3139854Y13950580D01*
%TO.C,Q1*%
X7910000Y3360000D02*
X7910000Y4010000D01*
X7910000Y3360000D02*
X7910000Y2710000D01*
X11030000Y3360000D02*
X11030000Y5035000D01*
X11030000Y3360000D02*
X11030000Y2710000D01*
%TO.C,TP2*%
X18750000Y-3430000D02*
G75*
G02*
X17350000Y-3430000I-700000J0D01*
G01*
X17350000Y-3430000D02*
G75*
G02*
X18750000Y-3430000I700000J0D01*
G01*
%TO.C,R20*%
X-1962500Y11037258D02*
X-1962500Y10562742D01*
X-917500Y11037258D02*
X-917500Y10562742D01*
%TO.C,LS1*%
X-5249590Y-3899844D02*
G75*
G02*
X-12049590Y-3899844I-3400000J0D01*
G01*
X-12049590Y-3899844D02*
G75*
G02*
X-5249590Y-3899844I3400000J0D01*
G01*
%TO.C,U5*%
X-5269857Y1919961D02*
X-7109857Y1919961D01*
X-5109857Y5179961D02*
X-7109857Y5179961D01*
X-4949857Y1879961D02*
X-4949857Y2159961D01*
X-4669857Y2159961D01*
X-4949857Y1879961D01*
G36*
X-4949857Y1879961D02*
G01*
X-4949857Y2159961D01*
X-4669857Y2159961D01*
X-4949857Y1879961D01*
G37*
%TO.C,R16*%
X4007500Y-287258D02*
X4007500Y187258D01*
X5052500Y-287258D02*
X5052500Y187258D01*
%TO.C,U6*%
X-17661252Y-7076986D02*
X-17967399Y-6337883D01*
X-17661252Y-7076986D02*
X-17355105Y-7816090D01*
X-14778748Y-5883014D02*
X-15467578Y-4220031D01*
X-14778748Y-5883014D02*
X-14472601Y-6622117D01*
%TO.C,R3*%
X5257500Y-10247742D02*
X5257500Y-10722258D01*
X6302500Y-10247742D02*
X6302500Y-10722258D01*
%TO.C,R13*%
X-7481883Y6624947D02*
X-7481883Y7099463D01*
X-6436883Y6624947D02*
X-6436883Y7099463D01*
%TO.C,D2*%
X12096201Y2743711D02*
X19396201Y2743711D01*
X12096201Y1593711D02*
X12096201Y2743711D01*
X12096201Y-2756289D02*
X19396201Y-2756289D01*
%TO.C,D11*%
X-1895944Y7687259D02*
X155068Y6837702D01*
X-208310Y11761568D02*
X-1895944Y7687259D01*
X155068Y6837702D02*
X1842702Y10912011D01*
%TO.C,R14*%
X-4481882Y6624947D02*
X-4481882Y7099463D01*
X-3436882Y6624947D02*
X-3436882Y7099463D01*
%TO.C,C6*%
X-4320000Y3260580D02*
X-4320000Y2979420D01*
X-3300000Y3260580D02*
X-3300000Y2979420D01*
%TO.C,D1*%
X6604316Y10502297D02*
X11766195Y15664176D01*
X7417488Y9689124D02*
X6604316Y10502297D01*
X10493403Y6613210D02*
X15655282Y11775089D01*
%TO.C,TP9*%
X-11210000Y5640000D02*
G75*
G02*
X-12610000Y5640000I-700000J0D01*
G01*
X-12610000Y5640000D02*
G75*
G02*
X-11210000Y5640000I700000J0D01*
G01*
%TO.C,TP7*%
X-7249682Y-8099676D02*
G75*
G02*
X-8649682Y-8099676I-700000J0D01*
G01*
X-8649682Y-8099676D02*
G75*
G02*
X-7249682Y-8099676I700000J0D01*
G01*
%TO.C,Q4*%
X4430000Y3380000D02*
X4430000Y4030000D01*
X4430000Y3380000D02*
X4430000Y1705000D01*
X7550000Y3380000D02*
X7550000Y4030000D01*
X7550000Y3380000D02*
X7550000Y2730000D01*
%TO.C,C10*%
X-5819858Y9381D02*
X-5819858Y290541D01*
X-4799858Y9381D02*
X-4799858Y290541D01*
%TO.C,TP11*%
X-2750000Y16000000D02*
G75*
G02*
X-4150000Y16000000I-700000J0D01*
G01*
X-4150000Y16000000D02*
G75*
G02*
X-2750000Y16000000I700000J0D01*
G01*
%TO.C,R10*%
X5514587Y197258D02*
X5514587Y-277258D01*
X6559587Y197258D02*
X6559587Y-277258D01*
%TO.C,D4*%
X-2756289Y-12096201D02*
X-2756289Y-19396201D01*
X1593711Y-12096201D02*
X2743711Y-12096201D01*
X2743711Y-12096201D02*
X2743711Y-19396201D01*
%TO.C,C3*%
X6868625Y-3489420D02*
X6868625Y-3770580D01*
X7888625Y-3489420D02*
X7888625Y-3770580D01*
%TO.C,C11*%
X-13744420Y-2980000D02*
X-14025580Y-2980000D01*
X-13744420Y-4000000D02*
X-14025580Y-4000000D01*
%TO.C,R6*%
X9117500Y-277258D02*
X9117500Y197258D01*
X10162500Y-277258D02*
X10162500Y197258D01*
%TO.C,R12*%
X-8981883Y6624947D02*
X-8981883Y7099463D01*
X-7936883Y6624947D02*
X-7936883Y7099463D01*
%TO.C,C4*%
X-2795000Y3621252D02*
X-2795000Y3098748D01*
X-1325000Y3621252D02*
X-1325000Y3098748D01*
%TO.C,R7*%
X-2972500Y7097258D02*
X-2972500Y6622742D01*
X-1927500Y7097258D02*
X-1927500Y6622742D01*
%TO.C,R1*%
X5547500Y7117258D02*
X5547500Y6642742D01*
X6592500Y7117258D02*
X6592500Y6642742D01*
%TO.C,L1*%
X-12144000Y-304074D02*
X-12144000Y4003926D01*
X-7836000Y4003926D02*
X-7836000Y-304074D01*
%TO.C,U3*%
X6013014Y-14718748D02*
X4350031Y-15407578D01*
X6013014Y-14718748D02*
X6752117Y-14412601D01*
X7206986Y-17601252D02*
X6467883Y-17907399D01*
X7206986Y-17601252D02*
X7946090Y-17295105D01*
%TO.C,Q3*%
X-2970022Y-8969538D02*
X-3620022Y-8969538D01*
X-2970022Y-8969538D02*
X-2320022Y-8969538D01*
X-2970022Y-12089538D02*
X-3620022Y-12089538D01*
X-2970022Y-12089538D02*
X-1295022Y-12089538D01*
%TO.C,R2*%
X7157500Y6632742D02*
X7157500Y7107258D01*
X8202500Y6632742D02*
X8202500Y7107258D01*
%TO.C,D3*%
X6613210Y-10493403D02*
X11775089Y-15655282D01*
X9689124Y-7417488D02*
X10502297Y-6604316D01*
X10502297Y-6604316D02*
X15664176Y-11766195D01*
%TO.C,C1*%
X13039970Y8861219D02*
X13238781Y9060030D01*
X13761219Y8139970D02*
X13960030Y8338781D01*
%TO.C,U8*%
X-1370000Y-1890000D02*
X-1370000Y-4890000D01*
X1870000Y-890000D02*
X1870000Y-2890000D01*
%TO.C,C8*%
X-13961219Y-8139970D02*
X-14160030Y-8338781D01*
X-13239970Y-8861219D02*
X-13438781Y-9060030D01*
%TO.C,J1*%
X7967574Y-5061522D02*
X11602102Y-1426994D01*
X8010000Y-8780904D02*
X7069548Y-7840452D01*
X8950452Y-7840452D02*
X8010000Y-8780904D01*
X9848478Y-6942426D02*
X7967574Y-5061522D01*
X9848478Y-6942426D02*
X13483006Y-3307898D01*
X13483006Y-3307898D02*
X11602102Y-1426994D01*
%TO.C,R15*%
X-5981883Y7099463D02*
X-5981883Y6624947D01*
X-4936883Y7099463D02*
X-4936883Y6624947D01*
%TO.C,J3*%
X1252130Y8374367D02*
X1542970Y9076515D01*
X1954279Y8083528D02*
X1252130Y8374367D01*
X2257410Y10631475D02*
X2686016Y11666220D01*
X2327000Y10602650D02*
X2257410Y10631475D01*
X2686016Y11666220D02*
X6316862Y10162274D01*
X3087903Y11499753D02*
X4618637Y15195271D01*
X3143336Y11476792D02*
X4674070Y15172310D01*
X3254202Y11430870D02*
X4784935Y15126388D01*
X3365067Y11384948D02*
X4895801Y15080466D01*
X3472014Y10128370D02*
X3500327Y10116642D01*
X3475933Y11339026D02*
X5006667Y15034544D01*
X3486170Y10122506D02*
X3914776Y11157251D01*
X4261230Y11013745D02*
X5791964Y14709263D01*
X4618637Y15195271D02*
X5099055Y14996276D01*
X4645341Y9642362D02*
X4673654Y9630634D01*
X4659497Y9636498D02*
X5088103Y10671243D01*
X5099055Y14996276D02*
X3568321Y11300757D01*
X5434557Y10527737D02*
X6965291Y14223255D01*
X5791964Y14709263D02*
X6272382Y14510268D01*
X5888257Y9127529D02*
X5818668Y9156354D01*
X6272382Y14510268D02*
X4741648Y10814749D01*
X6316862Y10162274D02*
X5888257Y9127529D01*
X6965291Y14223255D02*
X7445709Y14024261D01*
X7445709Y14024261D02*
X5914975Y10328741D01*
%TO.C,C13*%
X-8761219Y13239970D02*
X-8960030Y13438781D01*
X-8039970Y13961219D02*
X-8238781Y14160030D01*
%TO.C,C15*%
X-2810000Y270580D02*
X-2810000Y-10580D01*
X-1790000Y270580D02*
X-1790000Y-10580D01*
%TD*%
M02*
