%TF.GenerationSoftware,KiCad,Pcbnew,8.0.2*%
%TF.CreationDate,2024-09-09T19:27:49+02:00*%
%TF.ProjectId,AGS_Klingel_V2-1,4147535f-4b6c-4696-9e67-656c5f56322d,rev?*%
%TF.SameCoordinates,Original*%
%TF.FileFunction,Copper,L2,Bot*%
%TF.FilePolarity,Positive*%
%FSLAX46Y46*%
G04 Gerber Fmt 4.6, Leading zero omitted, Abs format (unit mm)*
G04 Created by KiCad (PCBNEW 8.0.2) date 2024-09-09 19:27:49*
%MOMM*%
%LPD*%
G01*
G04 APERTURE LIST*
G04 Aperture macros list*
%AMRoundRect*
0 Rectangle with rounded corners*
0 $1 Rounding radius*
0 $2 $3 $4 $5 $6 $7 $8 $9 X,Y pos of 4 corners*
0 Add a 4 corners polygon primitive as box body*
4,1,4,$2,$3,$4,$5,$6,$7,$8,$9,$2,$3,0*
0 Add four circle primitives for the rounded corners*
1,1,$1+$1,$2,$3*
1,1,$1+$1,$4,$5*
1,1,$1+$1,$6,$7*
1,1,$1+$1,$8,$9*
0 Add four rect primitives between the rounded corners*
20,1,$1+$1,$2,$3,$4,$5,0*
20,1,$1+$1,$4,$5,$6,$7,0*
20,1,$1+$1,$6,$7,$8,$9,0*
20,1,$1+$1,$8,$9,$2,$3,0*%
%AMHorizOval*
0 Thick line with rounded ends*
0 $1 width*
0 $2 $3 position (X,Y) of the first rounded end (center of the circle)*
0 $4 $5 position (X,Y) of the second rounded end (center of the circle)*
0 Add line between two ends*
20,1,$1,$2,$3,$4,$5,0*
0 Add two circle primitives to create the rounded ends*
1,1,$1,$2,$3*
1,1,$1,$4,$5*%
%AMRotRect*
0 Rectangle, with rotation*
0 The origin of the aperture is its center*
0 $1 length*
0 $2 width*
0 $3 Rotation angle, in degrees counterclockwise*
0 Add horizontal line*
21,1,$1,$2,0,0,$3*%
G04 Aperture macros list end*
%TA.AperFunction,ComponentPad*%
%ADD10C,1.000000*%
%TD*%
%TA.AperFunction,ComponentPad*%
%ADD11R,1.700000X1.700000*%
%TD*%
%TA.AperFunction,ComponentPad*%
%ADD12O,1.700000X1.700000*%
%TD*%
%TA.AperFunction,ComponentPad*%
%ADD13R,1.600000X1.600000*%
%TD*%
%TA.AperFunction,ComponentPad*%
%ADD14C,1.600000*%
%TD*%
%TA.AperFunction,ComponentPad*%
%ADD15C,0.500000*%
%TD*%
%TA.AperFunction,SMDPad,CuDef*%
%ADD16R,0.840000X2.400000*%
%TD*%
%TA.AperFunction,ComponentPad*%
%ADD17RotRect,1.700000X1.700000X135.000000*%
%TD*%
%TA.AperFunction,ComponentPad*%
%ADD18HorizOval,1.700000X0.000000X0.000000X0.000000X0.000000X0*%
%TD*%
%TA.AperFunction,SMDPad,CuDef*%
%ADD19RoundRect,0.225000X-0.375719X-1.495020X0.791465X1.322813X0.375719X1.495020X-0.791465X-1.322813X0*%
%TD*%
%TA.AperFunction,ViaPad*%
%ADD20C,0.800000*%
%TD*%
%TA.AperFunction,Conductor*%
%ADD21C,0.500000*%
%TD*%
%TA.AperFunction,Conductor*%
%ADD22C,0.250000*%
%TD*%
%TA.AperFunction,Conductor*%
%ADD23C,0.350000*%
%TD*%
%TA.AperFunction,Conductor*%
%ADD24C,0.200000*%
%TD*%
%TA.AperFunction,Conductor*%
%ADD25C,0.450000*%
%TD*%
G04 APERTURE END LIST*
D10*
%TO.P,TP8,1,1*%
%TO.N,+5V*%
X12770000Y4780000D03*
%TD*%
D11*
%TO.P,J2,1,Pin_1*%
%TO.N,+5V*%
X-2425004Y-6949722D03*
D12*
%TO.P,J2,2,Pin_2*%
%TO.N,Net-(J2-Pin_2)*%
X114996Y-6949722D03*
%TO.P,J2,3,Pin_3*%
%TO.N,GND*%
X2654996Y-6949722D03*
%TD*%
D13*
%TO.P,LS1,1,1*%
%TO.N,+5V*%
X-7049590Y-3899844D03*
D14*
%TO.P,LS1,2,2*%
%TO.N,Net-(D7-A)*%
X-10249590Y-3899844D03*
%TD*%
D15*
%TO.P,U5,11,PAD*%
%TO.N,GND*%
X-6109857Y2599961D03*
X-6109857Y3549961D03*
D16*
X-6109857Y3549961D03*
D15*
X-6109857Y4499961D03*
%TD*%
D10*
%TO.P,TP9,1,1*%
%TO.N,GND*%
X-11910000Y5640000D03*
%TD*%
D17*
%TO.P,J1,1,Pin_1*%
%TO.N,+5V*%
X8010000Y-6900000D03*
D18*
%TO.P,J1,2,Pin_2*%
%TO.N,Net-(J1-Pin_2)*%
X9806051Y-5103949D03*
%TO.P,J1,3,Pin_3*%
%TO.N,GND*%
X11602102Y-3307898D03*
%TD*%
D19*
%TO.P,J3,1,Pin_1*%
%TO.N,/PWR_IN*%
X2245118Y8785676D03*
%TO.P,J3,3,Pin_3*%
%TO.N,COIL*%
X3418445Y8299668D03*
%TO.P,J3,5,Pin_5*%
%TO.N,GND*%
X4591772Y7813660D03*
%TD*%
D20*
%TO.N,+24V*%
X3730000Y3530000D03*
X-1080000Y5990000D03*
X3710000Y2440000D03*
X2870000Y2450000D03*
X-1080000Y6810000D03*
X2897027Y3571373D03*
%TO.N,GND*%
X12830000Y-6670000D03*
X-6600000Y-11400000D03*
X-920000Y-1094502D03*
X-3500000Y-8520000D03*
X-3340000Y-5320000D03*
X10580000Y-6700000D03*
X-3135039Y924961D03*
X-1020462Y-9579538D03*
X-9400000Y-1720000D03*
X11820000Y8980000D03*
X11980000Y-9870000D03*
X-4970000Y-16660000D03*
X-7330000Y-12310000D03*
X-11790000Y-11820000D03*
X-160000Y-1094502D03*
X13400000Y-10300000D03*
X-2300000Y1610000D03*
X-5920000Y-8590000D03*
X2000000Y-16800000D03*
X-16593711Y-406289D03*
X14820000Y3700000D03*
X-3820000Y-12280000D03*
X16600000Y1900000D03*
X-12800000Y10900000D03*
X6050000Y-14110000D03*
X4513625Y-3780000D03*
X16600000Y300000D03*
X9000000Y-11800000D03*
X-4330000Y-7920000D03*
X-6450000Y13490000D03*
X6120000Y-5525000D03*
X13140000Y3630000D03*
X-2693213Y13040000D03*
X-7033034Y14069041D03*
X-7720000Y-14290000D03*
X1560000Y11946699D03*
X14760000Y1300000D03*
X11700000Y11800000D03*
X-900000Y16700000D03*
X-11250000Y-12370000D03*
X-374816Y11946699D03*
X5650000Y-6730000D03*
X450000Y12000000D03*
X11950000Y5750000D03*
X-14080002Y-6330000D03*
X400000Y-16800000D03*
X6680000Y-13400000D03*
X-4160000Y-2740000D03*
X13970000Y-4420000D03*
X5940000Y2549898D03*
X-8620000Y-12340000D03*
X-1700000Y16700000D03*
X700000Y16700000D03*
X-11540000Y-1817524D03*
X-14350000Y3310000D03*
X-400000Y-16800000D03*
X6965000Y4815000D03*
X-11540000Y-790000D03*
X15120000Y-3200000D03*
X-4665039Y924961D03*
X14760000Y-390000D03*
X-11660000Y-3440000D03*
X-13270000Y-6560000D03*
X-9980000Y-11090000D03*
X11100000Y12400000D03*
X5660000Y-8350000D03*
X12180000Y2680000D03*
X-8650000Y-4120000D03*
X-12600000Y-4860000D03*
X-2020000Y-8460000D03*
X6940000Y8750000D03*
X-10660000Y-12910000D03*
X-5900000Y-6310000D03*
X4250000Y-17110000D03*
X-3020000Y2420000D03*
X-15830000Y2290000D03*
X810000Y-15040000D03*
X-11570000Y-5940000D03*
X1400000Y14770000D03*
X3250000Y-14680000D03*
X9510000Y4270000D03*
X-9030000Y12060000D03*
X860000Y5960000D03*
X-16593711Y-1206289D03*
X-11860000Y7140000D03*
X13220000Y-8820000D03*
X-14970000Y390000D03*
X4350000Y-12920000D03*
X1200000Y-16800000D03*
X-4010000Y4944500D03*
X16600000Y1100000D03*
X-9649614Y5799768D03*
X-3809858Y1900142D03*
X-395000Y11015000D03*
X9689917Y10974781D03*
X-5340000Y-4100000D03*
X14030000Y6910000D03*
X-3310000Y5050000D03*
X9030000Y6860000D03*
X16600000Y-500000D03*
X-5720000Y11990000D03*
X-12080000Y4550000D03*
X13300000Y6610000D03*
X-2050000Y-15790000D03*
X10500000Y13000000D03*
X-16593711Y-1906289D03*
X-13400000Y10300000D03*
X12800000Y-10900000D03*
X11540000Y2040000D03*
X-16593711Y393711D03*
X-15830000Y4000000D03*
X7030000Y4000000D03*
X7910000Y2085000D03*
X-5050000Y12480000D03*
X16280000Y-2740000D03*
X-4450000Y-9500000D03*
X-5710000Y-16620000D03*
X-12200000Y11500000D03*
X-100000Y16700000D03*
X-8000000Y8790000D03*
X-920000Y-1890000D03*
X-6109858Y924961D03*
X15940000Y-4070000D03*
X4580000Y5360000D03*
X12200000Y-11500000D03*
%TO.N,+5V*%
X14690000Y9790000D03*
X9398938Y-2800000D03*
X-1141203Y1435642D03*
X-4710000Y14590000D03*
X650000Y3575500D03*
X15162226Y9142226D03*
X-13960000Y-4740000D03*
X10200000Y-13940000D03*
X-5860000Y-14520000D03*
X-14106103Y-10330773D03*
X9410000Y-3620000D03*
X8568625Y-2780000D03*
X9120000Y-15090000D03*
X-15098008Y-9148008D03*
X9790000Y-14630000D03*
X-9700000Y14780000D03*
X-5860000Y-15290000D03*
X-8459384Y4589160D03*
X-2300000Y-1580000D03*
X8570000Y-3597191D03*
X-9048008Y15233946D03*
X-14690000Y-9840000D03*
X-5040000Y-15290000D03*
X-14730000Y-4730000D03*
X-4710000Y13830000D03*
X14130000Y10340000D03*
X-5070000Y-14510000D03*
X-10210000Y14150000D03*
%TO.N,/PWR_IN*%
X1150000Y9890000D03*
X300000Y9975000D03*
X630000Y9320000D03*
%TO.N,COIL*%
X2630000Y5040000D03*
X3470000Y5650000D03*
%TD*%
D21*
%TO.N,+24V*%
X1100000Y4610000D02*
X-200000Y4610000D01*
D22*
X3410000Y2810000D02*
X3710000Y3110000D01*
D21*
X-1080000Y5490000D02*
X-1080000Y6810000D01*
X-1080000Y5490000D02*
X-1080000Y5990000D01*
X-200000Y4610000D02*
X-1080000Y5490000D01*
D22*
X2890000Y2810000D02*
X3410000Y2810000D01*
X-1080000Y5990000D02*
X-1080000Y6850000D01*
D21*
X2340000Y3370000D02*
X1100000Y4610000D01*
X3300000Y3370000D02*
X2340000Y3370000D01*
D22*
%TO.N,GND*%
X-9400000Y-1720000D02*
X-8650000Y-2470000D01*
X-13850002Y-6560000D02*
X-14080002Y-6330000D01*
D23*
X9164781Y10974781D02*
X6940000Y8750000D01*
X13210000Y3700000D02*
X13140000Y3630000D01*
X7140000Y8750000D02*
X9030000Y6860000D01*
D22*
X-4450000Y-9500000D02*
X-4450000Y-8040000D01*
X-2000000Y-8410000D02*
X-3390000Y-8410000D01*
X-5010000Y-9500000D02*
X-5920000Y-8590000D01*
D23*
X12800000Y-10900000D02*
X13400000Y-10300000D01*
D22*
X-15140000Y3310000D02*
X-15830000Y4000000D01*
X-3850000Y-12310000D02*
X-3820000Y-12280000D01*
X-8650000Y-2470000D02*
X-8650000Y-4120000D01*
X-920000Y-1094502D02*
X-160000Y-1094502D01*
D23*
X11100000Y12384864D02*
X9689917Y10974781D01*
D22*
X-9649614Y5799768D02*
X-10799614Y5799768D01*
X-12810000Y7780000D02*
X-12170000Y7140000D01*
D23*
X11100000Y12400000D02*
X11100000Y12384864D01*
X-11600000Y12100000D02*
X-12200000Y11500000D01*
D22*
X-5710000Y-16620000D02*
X-5010000Y-16620000D01*
X-3390000Y-8410000D02*
X-3500000Y-8520000D01*
X-11790000Y-11830000D02*
X-11250000Y-12370000D01*
D24*
X5430278Y-6949722D02*
X5650000Y-6730000D01*
D23*
X16600000Y1100000D02*
X16600000Y1900000D01*
X16600000Y-500000D02*
X16600000Y300000D01*
D22*
X-11790000Y-11820000D02*
X-11790000Y-11830000D01*
X-5050000Y12480000D02*
X-5050000Y12410000D01*
D23*
X15120000Y-3200000D02*
X15120000Y-3270000D01*
X16600000Y1900000D02*
X15360000Y1900000D01*
X-12800000Y10900000D02*
X-13400000Y10300000D01*
D22*
X-13270000Y-6560000D02*
X-13850002Y-6560000D01*
X4250000Y-17110000D02*
X4250000Y-15680000D01*
X-10800000Y5830000D02*
X-12080000Y4550000D01*
X-7360000Y-12340000D02*
X-7330000Y-12310000D01*
X-11790000Y-11820000D02*
X-10710000Y-11820000D01*
X400000Y-16800000D02*
X1200000Y-16800000D01*
X-920000Y-1690000D02*
X-920000Y-1890000D01*
X-920000Y-1094502D02*
X-920000Y-1690000D01*
D23*
X15360000Y1900000D02*
X14760000Y1300000D01*
D22*
X-10710000Y-11820000D02*
X-9980000Y-11090000D01*
X-12170000Y7140000D02*
X-11860000Y7140000D01*
X-5010000Y-16620000D02*
X-4970000Y-16660000D01*
X8280000Y2340000D02*
X10520000Y2340000D01*
X-4160000Y-2920000D02*
X-5340000Y-4100000D01*
D23*
X700000Y15470000D02*
X1400000Y14770000D01*
X9689917Y10974781D02*
X9164781Y10974781D01*
D22*
X-16593711Y-406289D02*
X-16593711Y-1206289D01*
X-8620000Y-12340000D02*
X-7360000Y-12340000D01*
X4250000Y-15910000D02*
X6050000Y-14110000D01*
X-14350000Y3310000D02*
X-15140000Y3310000D01*
D24*
X2654996Y-6949722D02*
X5430278Y-6949722D01*
D22*
X13300000Y6610000D02*
X12810000Y6610000D01*
D23*
X-900000Y16700000D02*
X-1700000Y16700000D01*
X11100000Y12400000D02*
X10500000Y13000000D01*
D22*
X-4450000Y-9500000D02*
X-5010000Y-9500000D01*
X12810000Y6610000D02*
X11950000Y5750000D01*
X4250000Y-15680000D02*
X3250000Y-14680000D01*
X-4160000Y-2740000D02*
X-4160000Y-2920000D01*
D23*
X13220000Y-7060000D02*
X12830000Y-6670000D01*
D22*
X4250000Y-17110000D02*
X4250000Y-15910000D01*
D23*
X13220000Y-8820000D02*
X13220000Y-7060000D01*
X700000Y16700000D02*
X-100000Y16700000D01*
D22*
X-4450000Y-8040000D02*
X-4330000Y-7920000D01*
D23*
X6940000Y8750000D02*
X7140000Y8750000D01*
X14820000Y3700000D02*
X13210000Y3700000D01*
X700000Y16700000D02*
X700000Y15470000D01*
D22*
X-7330000Y-12310000D02*
X-3850000Y-12310000D01*
D23*
X15120000Y-3270000D02*
X13970000Y-4420000D01*
D22*
%TO.N,+5V*%
X-384358Y1435642D02*
X-1141203Y1435642D01*
D24*
X8280000Y-2780000D02*
X9040000Y-2780000D01*
D21*
X-5040000Y-14540000D02*
X-5070000Y-14510000D01*
D22*
X-2425004Y-6949722D02*
X-3999712Y-6949722D01*
X-4710000Y14590000D02*
X-4710000Y13830000D01*
D21*
X-14596876Y-9840000D02*
X-14106103Y-10330773D01*
X14690000Y9790000D02*
X14680000Y9790000D01*
X17760000Y-1840000D02*
X17840000Y-1760000D01*
X-9048008Y15233946D02*
X-9246054Y15233946D01*
X9398938Y-2800000D02*
X10358938Y-1840000D01*
X-14730000Y-4730000D02*
X-13970000Y-4730000D01*
D22*
X-3999712Y-6949722D02*
X-7049590Y-3899844D01*
D21*
X9790000Y-14630000D02*
X9790000Y-14350000D01*
D22*
X650000Y3575500D02*
X650000Y2470000D01*
D21*
X9790000Y-14350000D02*
X10200000Y-13940000D01*
D22*
X-7049590Y-3899844D02*
X-13990000Y-10840254D01*
X-6360000Y-1580000D02*
X-8459384Y519384D01*
D24*
X17400000Y6530000D02*
X17340000Y5640000D01*
D22*
X-4710000Y17630000D02*
X-4800000Y17720000D01*
D21*
X12770000Y4780000D02*
X17400000Y6530000D01*
D22*
X-2300000Y-1580000D02*
X-6360000Y-1580000D01*
X-14106103Y-10139913D02*
X-15098008Y-9148008D01*
D21*
X-4710000Y14590000D02*
X-4710000Y17630000D01*
X-9246054Y15233946D02*
X-9700000Y14780000D01*
X-7710000Y-16230000D02*
X-7710000Y-16400000D01*
X-5860000Y-15290000D02*
X-6770000Y-15290000D01*
X10358938Y-1840000D02*
X17760000Y-1840000D01*
X14680000Y9790000D02*
X14130000Y10340000D01*
X-5860000Y-14520000D02*
X-5860000Y-15290000D01*
X-13970000Y-4730000D02*
X-13960000Y-4740000D01*
X-14730000Y-4730000D02*
X-17450000Y-5520000D01*
D22*
X-8459384Y519384D02*
X-8459384Y4589160D01*
D21*
X-6770000Y-15290000D02*
X-7710000Y-16230000D01*
D22*
X-14106103Y-10330773D02*
X-14106103Y-10139913D01*
D21*
X-5040000Y-15290000D02*
X-5040000Y-14540000D01*
D22*
X650000Y2470000D02*
X-384358Y1435642D01*
D21*
X-14690000Y-9840000D02*
X-14596876Y-9840000D01*
X17740000Y-1870000D02*
X18130000Y-1480000D01*
D22*
X-13990000Y-10840254D02*
X-13990000Y-11050000D01*
D24*
X9040000Y-2780000D02*
X9060000Y-2800000D01*
D22*
%TO.N,/PWR_IN*%
X1150000Y9880794D02*
X1150000Y9890000D01*
X2245118Y8785676D02*
X1150000Y9880794D01*
X1150000Y9890000D02*
X1150000Y9840000D01*
X1150000Y9840000D02*
X630000Y9320000D01*
%TO.N,COIL*%
X3081698Y6038302D02*
X3470000Y5650000D01*
X3418445Y8299668D02*
X3081698Y7962921D01*
D25*
X3010000Y7454619D02*
X3010000Y5530000D01*
%TD*%
%TA.AperFunction,Conductor*%
%TO.N,+5V*%
G36*
X9782121Y-2350002D02*
G01*
X9828614Y-2403658D01*
X9840000Y-2456000D01*
X9840000Y-3873449D01*
X9819998Y-3941570D01*
X9766342Y-3988063D01*
X9714000Y-3999449D01*
X9703704Y-3999449D01*
X9502495Y-4037061D01*
X9502490Y-4037062D01*
X9311628Y-4111003D01*
X9311618Y-4111008D01*
X9311430Y-4111125D01*
X9311322Y-4111155D01*
X9306405Y-4113604D01*
X9305947Y-4112685D01*
X9245096Y-4130000D01*
X8176000Y-4130000D01*
X8107879Y-4109998D01*
X8061386Y-4056342D01*
X8050000Y-4004000D01*
X8050000Y-2456000D01*
X8070002Y-2387879D01*
X8123658Y-2341386D01*
X8176000Y-2330000D01*
X9714000Y-2330000D01*
X9782121Y-2350002D01*
G37*
%TD.AperFunction*%
%TD*%
%TA.AperFunction,Conductor*%
%TO.N,+5V*%
G36*
X-4530000Y-15840000D02*
G01*
X-6320000Y-15840000D01*
X-6320000Y-14040000D01*
X-4530000Y-14040000D01*
X-4530000Y-15840000D01*
G37*
%TD.AperFunction*%
%TD*%
%TA.AperFunction,Conductor*%
%TO.N,+5V*%
G36*
X-13507879Y-4200002D02*
G01*
X-13461386Y-4253658D01*
X-13450000Y-4306000D01*
X-13450000Y-5104000D01*
X-13470002Y-5172121D01*
X-13523658Y-5218614D01*
X-13576000Y-5230000D01*
X-15114000Y-5230000D01*
X-15182121Y-5209998D01*
X-15228614Y-5156342D01*
X-15240000Y-5104000D01*
X-15240000Y-4306000D01*
X-15219998Y-4237879D01*
X-15166342Y-4191386D01*
X-15114000Y-4180000D01*
X-13576000Y-4180000D01*
X-13507879Y-4200002D01*
G37*
%TD.AperFunction*%
%TD*%
%TA.AperFunction,Conductor*%
%TO.N,+24V*%
G36*
X-558116Y7309998D02*
G01*
X-511623Y7256342D01*
X-500237Y7203764D01*
X-503479Y5478999D01*
X-502448Y5473962D01*
X-499504Y5469747D01*
X-499500Y5469743D01*
X-113343Y5104609D01*
X-109311Y5102036D01*
X-104618Y5101137D01*
X-104617Y5101137D01*
X1336788Y5101137D01*
X1404909Y5081135D01*
X1426713Y5063394D01*
X1870881Y4610826D01*
X2212586Y4262658D01*
X2318651Y4154587D01*
X2489947Y3980052D01*
X2490000Y3980000D01*
X2490042Y3979958D01*
X2493163Y3976836D01*
X2496280Y3973719D01*
X2496281Y3973718D01*
X2500398Y3970967D01*
X2502344Y3970580D01*
X2505261Y3970000D01*
X3974000Y3970000D01*
X4042121Y3949998D01*
X4088614Y3896342D01*
X4100000Y3844000D01*
X4100000Y2166000D01*
X4079998Y2097879D01*
X4026342Y2051386D01*
X3974000Y2040000D01*
X2616000Y2040000D01*
X2547879Y2060002D01*
X2501386Y2113658D01*
X2490000Y2166000D01*
X2490000Y2734779D01*
X2489046Y2739608D01*
X2489045Y2739609D01*
X2486330Y2743706D01*
X2486329Y2743707D01*
X2486326Y2743712D01*
X1001338Y4243868D01*
X997201Y4246655D01*
X992311Y4247634D01*
X-381967Y4247504D01*
X-450089Y4267500D01*
X-472073Y4285419D01*
X-819983Y4641269D01*
X-1603817Y5442992D01*
X-1637137Y5505683D01*
X-1639720Y5531757D01*
X-1630677Y7204681D01*
X-1610307Y7272693D01*
X-1556401Y7318895D01*
X-1504679Y7330000D01*
X-626237Y7330000D01*
X-558116Y7309998D01*
G37*
%TD.AperFunction*%
%TD*%
%TA.AperFunction,Conductor*%
%TO.N,+5V*%
G36*
X-4287879Y15029998D02*
G01*
X-4241386Y14976342D01*
X-4230000Y14924000D01*
X-4230000Y13376000D01*
X-4250002Y13307879D01*
X-4303658Y13261386D01*
X-4356000Y13250000D01*
X-5034000Y13250000D01*
X-5102121Y13270002D01*
X-5148614Y13323658D01*
X-5160000Y13376000D01*
X-5160000Y14924000D01*
X-5139998Y14992121D01*
X-5086342Y15038614D01*
X-5034000Y15050000D01*
X-4356000Y15050000D01*
X-4287879Y15029998D01*
G37*
%TD.AperFunction*%
%TD*%
%TA.AperFunction,Conductor*%
%TO.N,COIL*%
G36*
X3416824Y6189998D02*
G01*
X3434562Y6176219D01*
X3524023Y6092927D01*
X3524027Y6092924D01*
X3574425Y6065404D01*
X3902219Y5929626D01*
X3957499Y5885077D01*
X3979920Y5817714D01*
X3980000Y5813217D01*
X3980000Y5646736D01*
X3971812Y5602055D01*
X3939849Y5517779D01*
X3920693Y5360003D01*
X3920693Y5359996D01*
X3939850Y5202219D01*
X3971812Y5117943D01*
X3980000Y5073263D01*
X3980000Y4746000D01*
X3959998Y4677879D01*
X3906342Y4631386D01*
X3854000Y4620000D01*
X2366000Y4620000D01*
X2297879Y4640002D01*
X2251386Y4693658D01*
X2240000Y4746000D01*
X2240000Y5460216D01*
X2260002Y5528337D01*
X2286306Y5557812D01*
X2395206Y5646736D01*
X3050215Y6181596D01*
X3115631Y6209188D01*
X3129909Y6210000D01*
X3348703Y6210000D01*
X3416824Y6189998D01*
G37*
%TD.AperFunction*%
%TD*%
%TA.AperFunction,Conductor*%
%TO.N,/PWR_IN*%
G36*
X1507846Y9431270D02*
G01*
X1525243Y9361670D01*
X1532872Y9290177D01*
X1534689Y9218964D01*
X1534650Y9150201D01*
X1536711Y9086060D01*
X1544826Y9028712D01*
X1562953Y8980328D01*
X1595047Y8943080D01*
X1645064Y8919138D01*
X1716960Y8910676D01*
X1716960Y8660676D01*
X1630821Y8667377D01*
X1560212Y8685565D01*
X1501595Y8712370D01*
X1451434Y8744918D01*
X1406192Y8780338D01*
X1362333Y8815758D01*
X1316321Y8848306D01*
X1264619Y8875111D01*
X1203690Y8893299D01*
X1130000Y8900001D01*
X988579Y9441421D01*
X1507846Y9431270D01*
G37*
%TD.AperFunction*%
%TD*%
%TA.AperFunction,Conductor*%
%TO.N,GND*%
G36*
X4378156Y-16407425D02*
G01*
X4378156Y-16407426D01*
X4378155Y-16407426D01*
X4378265Y-16410455D01*
X4378265Y-16410456D01*
X4378266Y-16410461D01*
X4387658Y-16486222D01*
X4402564Y-16550388D01*
X4402566Y-16550395D01*
X4422373Y-16606064D01*
X4446474Y-16656349D01*
X4474257Y-16704352D01*
X4505116Y-16753187D01*
X4505115Y-16753187D01*
X4505117Y-16753189D01*
X4538319Y-16805762D01*
X4538512Y-16806077D01*
X4573442Y-16865464D01*
X4573735Y-16865993D01*
X4606118Y-16928190D01*
X4606899Y-16937111D01*
X4604173Y-16941703D01*
X4258433Y-17301230D01*
X4250229Y-17304818D01*
X4241890Y-17301553D01*
X4241567Y-17301230D01*
X3895826Y-16941703D01*
X3892561Y-16933364D01*
X3893881Y-16928190D01*
X3926263Y-16865993D01*
X3926547Y-16865479D01*
X3961511Y-16806035D01*
X3961645Y-16805817D01*
X3994883Y-16753187D01*
X4025738Y-16704359D01*
X4053523Y-16656352D01*
X4077625Y-16606064D01*
X4097435Y-16550389D01*
X4112341Y-16486222D01*
X4121733Y-16410461D01*
X4125000Y-16320000D01*
X4375000Y-16320000D01*
X4378156Y-16407425D01*
G37*
%TD.AperFunction*%
%TD*%
%TA.AperFunction,Conductor*%
%TO.N,COIL*%
G36*
X3548313Y8426033D02*
G01*
X3549911Y8417221D01*
X3548313Y8413365D01*
X3219463Y7902590D01*
X3212104Y7897489D01*
X3211084Y7897316D01*
X3210233Y7897210D01*
X3210192Y7897202D01*
X3210189Y7897202D01*
X3209633Y7897099D01*
X3206401Y7896505D01*
X3201966Y7895405D01*
X3197111Y7893843D01*
X3192019Y7891750D01*
X3186874Y7889057D01*
X3184579Y7887520D01*
X3175802Y7885761D01*
X3169797Y7888965D01*
X3007743Y8051019D01*
X3004317Y8059291D01*
X3006296Y8065801D01*
X3007834Y8068097D01*
X3010527Y8073242D01*
X3012620Y8078334D01*
X3014182Y8083189D01*
X3015282Y8087624D01*
X3015987Y8091456D01*
X3016091Y8092291D01*
X3020510Y8100078D01*
X3021367Y8100686D01*
X3532142Y8429536D01*
X3540954Y8431134D01*
X3548313Y8426033D01*
G37*
%TD.AperFunction*%
%TD*%
%TA.AperFunction,Conductor*%
%TO.N,+5V*%
G36*
X309025Y19237784D02*
G01*
X1174529Y19204383D01*
X1180228Y19204034D01*
X2043347Y19131455D01*
X2049024Y19130848D01*
X2588494Y19060752D01*
X2653470Y19032139D01*
X2692662Y18972940D01*
X2698259Y18935826D01*
X2698589Y17173443D01*
X2678600Y17105318D01*
X2624953Y17058815D01*
X2554681Y17048698D01*
X2554390Y17048740D01*
X1710491Y17173922D01*
X1697851Y17175481D01*
X1697835Y17175483D01*
X1688419Y17176409D01*
X1685546Y17176693D01*
X1672842Y17177630D01*
X1161269Y17202761D01*
X1094212Y17226081D01*
X1083913Y17234284D01*
X1074529Y17242599D01*
X933793Y17316463D01*
X779471Y17354500D01*
X620529Y17354500D01*
X466207Y17316463D01*
X358552Y17259961D01*
X288941Y17246015D01*
X241449Y17259960D01*
X133793Y17316463D01*
X-20529Y17354500D01*
X-179471Y17354500D01*
X-333793Y17316463D01*
X-424712Y17268744D01*
X-441445Y17259963D01*
X-511058Y17246016D01*
X-558555Y17259963D01*
X-591503Y17277255D01*
X-666207Y17316463D01*
X-820529Y17354500D01*
X-979471Y17354500D01*
X-1133793Y17316463D01*
X-1224712Y17268744D01*
X-1241445Y17259963D01*
X-1311058Y17246016D01*
X-1358555Y17259963D01*
X-1391503Y17277255D01*
X-1466207Y17316463D01*
X-1620529Y17354500D01*
X-1779471Y17354500D01*
X-1933793Y17316463D01*
X-2074529Y17242599D01*
X-2193498Y17137201D01*
X-2193501Y17137195D01*
X-2198551Y17131497D01*
X-2201151Y17133800D01*
X-2243955Y17098821D01*
X-2274478Y17090261D01*
X-3348484Y16930948D01*
X-3361025Y16928772D01*
X-3373153Y16926360D01*
X-3385588Y16923568D01*
X-4173169Y16726289D01*
X-4195901Y16719476D01*
X-4217627Y16711866D01*
X-4301778Y16663073D01*
X-4355434Y16616580D01*
X-4387556Y16583291D01*
X-4434487Y16493572D01*
X-4454489Y16425451D01*
X-4465000Y16352342D01*
X-4465000Y15350425D01*
X-4456355Y15284004D01*
X-4439845Y15221650D01*
X-4439841Y15221639D01*
X-4426923Y15184494D01*
X-4426918Y15184485D01*
X-4369176Y15101328D01*
X-4369172Y15101322D01*
X-4329781Y15063317D01*
X-4318081Y15052028D01*
X-4315268Y15050000D01*
X-5075181Y15050000D01*
X-5061873Y15063308D01*
X-5038378Y15090424D01*
X-5032443Y15097526D01*
X-4985514Y15187241D01*
X-4985513Y15187244D01*
X-4965512Y15255362D01*
X-4965511Y15255365D01*
X-4955000Y15328474D01*
X-4955000Y15989013D01*
X-4955000Y15989040D01*
X-4956305Y16015007D01*
X-4956307Y16015035D01*
X-4958839Y16040160D01*
X-4987626Y16135443D01*
X-5020818Y16198214D01*
X-5046002Y16237018D01*
X-5122817Y16302981D01*
X-5184662Y16337834D01*
X-5184664Y16337835D01*
X-5184668Y16337837D01*
X-5226831Y16356865D01*
X-5327115Y16370828D01*
X-5397992Y16366712D01*
X-5470371Y16351979D01*
X-6587213Y15952368D01*
X-6599097Y15947784D01*
X-6610521Y15943052D01*
X-6619085Y15939254D01*
X-6622143Y15937900D01*
X-6622151Y15937896D01*
X-6622165Y15937890D01*
X-8119100Y15229891D01*
X-8130479Y15224163D01*
X-8141384Y15218334D01*
X-8152464Y15212058D01*
X-9572798Y14360743D01*
X-9583570Y14353921D01*
X-9593852Y14347050D01*
X-9604256Y14339722D01*
X-9674278Y14287789D01*
X-9698167Y14267737D01*
X-9720117Y14246941D01*
X-9722590Y14244568D01*
X-9779997Y14161163D01*
X-9793888Y14128892D01*
X-9796958Y14125187D01*
X-9806876Y14099035D01*
X-9809020Y14093746D01*
X-9809686Y14092202D01*
X-9809741Y14092062D01*
X-9818992Y14070569D01*
X-9822974Y14056587D01*
X-9852254Y13979382D01*
X-9866365Y13952495D01*
X-9903477Y13898731D01*
X-9923612Y13876001D01*
X-9972520Y13832672D01*
X-9997511Y13815422D01*
X-10055363Y13785060D01*
X-10083752Y13774293D01*
X-10122881Y13764649D01*
X-10147182Y13758661D01*
X-10177333Y13755000D01*
X-10265339Y13755000D01*
X-10272111Y13754886D01*
X-10273988Y13754855D01*
X-10282416Y13754573D01*
X-10363339Y13738758D01*
X-10429969Y13714244D01*
X-10494656Y13679296D01*
X-10494950Y13679137D01*
X-10494955Y13679134D01*
X-10528170Y13654500D01*
X-10934297Y13353296D01*
X-10944337Y13345461D01*
X-10953895Y13337617D01*
X-10963540Y13329297D01*
X-12190497Y12217249D01*
X-12199722Y12208466D01*
X-12208466Y12199722D01*
X-12217249Y12190497D01*
X-12217261Y12190483D01*
X-12217574Y12190155D01*
X-12278678Y12154695D01*
X-12279469Y12154500D01*
X-12279471Y12154500D01*
X-12433793Y12116463D01*
X-12574529Y12042599D01*
X-12693498Y11937201D01*
X-12783787Y11806395D01*
X-12840149Y11657782D01*
X-12841379Y11647646D01*
X-12869442Y11582434D01*
X-12928309Y11542744D01*
X-12936281Y11540497D01*
X-13033793Y11516463D01*
X-13174529Y11442599D01*
X-13293498Y11337201D01*
X-13383787Y11206395D01*
X-13440149Y11057782D01*
X-13441379Y11047646D01*
X-13469442Y10982434D01*
X-13528309Y10942744D01*
X-13536281Y10940497D01*
X-13633793Y10916463D01*
X-13774529Y10842599D01*
X-13893498Y10737201D01*
X-13983787Y10606395D01*
X-14038030Y10463368D01*
X-14040150Y10457779D01*
X-14059307Y10300003D01*
X-14059307Y10299996D01*
X-14043448Y10169390D01*
X-14040149Y10142218D01*
X-14030940Y10117938D01*
X-14025487Y10047155D01*
X-14047546Y9998205D01*
X-14339725Y9604251D01*
X-14347055Y9593844D01*
X-14353925Y9583563D01*
X-14360744Y9572796D01*
X-15062033Y8402766D01*
X-15070548Y8387401D01*
X-15078301Y8372223D01*
X-15104870Y8284983D01*
X-15107067Y8266598D01*
X-15107673Y8261540D01*
X-15135622Y8196276D01*
X-15194418Y8156482D01*
X-15232782Y8150500D01*
X-15381288Y8150500D01*
X-15598637Y8121885D01*
X-15621782Y8118839D01*
X-15621782Y8118838D01*
X-15621789Y8118838D01*
X-15856100Y8056054D01*
X-16080212Y7963224D01*
X-16290289Y7841936D01*
X-16482738Y7694265D01*
X-16654265Y7522738D01*
X-16801936Y7330289D01*
X-16923224Y7120212D01*
X-17016054Y6896100D01*
X-17078838Y6661789D01*
X-17110500Y6421288D01*
X-17110500Y6178712D01*
X-17078838Y5938211D01*
X-17016054Y5703900D01*
X-16923224Y5479788D01*
X-16923218Y5479779D01*
X-16923217Y5479775D01*
X-16819576Y5300264D01*
X-16801936Y5269711D01*
X-16654265Y5077262D01*
X-16654259Y5077256D01*
X-16654255Y5077251D01*
X-16546075Y4969071D01*
X-16512049Y4906759D01*
X-16517114Y4835944D01*
X-16535395Y4805630D01*
X-16534230Y4804782D01*
X-16537869Y4799780D01*
X-16537876Y4799773D01*
X-16573831Y4738554D01*
X-16601792Y4670189D01*
X-16622089Y4589159D01*
X-16707385Y4248638D01*
X-16743339Y4187421D01*
X-16806683Y4155359D01*
X-16854186Y4155676D01*
X-16908597Y4166500D01*
X-17071403Y4166500D01*
X-17231081Y4134738D01*
X-17381495Y4072435D01*
X-17516863Y3981984D01*
X-17631984Y3866863D01*
X-17722435Y3731495D01*
X-17784738Y3581081D01*
X-17816500Y3421403D01*
X-17816500Y3258597D01*
X-17784738Y3098919D01*
X-17722435Y2948505D01*
X-17631984Y2813137D01*
X-17631979Y2813131D01*
X-17516868Y2698020D01*
X-17516863Y2698016D01*
X-17381495Y2607565D01*
X-17231081Y2545262D01*
X-17185218Y2536139D01*
X-17172936Y2533696D01*
X-17110027Y2500787D01*
X-17074896Y2439092D01*
X-17072883Y2391632D01*
X-17173922Y1710491D01*
X-17175278Y1699498D01*
X-17175483Y1697835D01*
X-17176409Y1688419D01*
X-17176693Y1685546D01*
X-17177630Y1672842D01*
X-17231837Y569425D01*
X-17233349Y559110D01*
X-17232941Y559061D01*
X-17233859Y551493D01*
X-17233860Y551493D01*
X-17253018Y393711D01*
X-17245376Y330783D01*
X-17244610Y309426D01*
X-17258883Y18916D01*
X-17259196Y6183D01*
X-17259196Y-6183D01*
X-17258883Y-18916D01*
X-17244170Y-318381D01*
X-17244936Y-339738D01*
X-17253018Y-406289D01*
X-17241640Y-500000D01*
X-17232941Y-571638D01*
X-17233041Y-571650D01*
X-17231066Y-585131D01*
X-17212522Y-962574D01*
X-17220557Y-1013432D01*
X-17233860Y-1048507D01*
X-17233860Y-1048510D01*
X-17233861Y-1048514D01*
X-17253018Y-1206285D01*
X-17253018Y-1206292D01*
X-17235713Y-1348807D01*
X-17233860Y-1364071D01*
X-17193746Y-1469839D01*
X-17185711Y-1508333D01*
X-17182077Y-1582298D01*
X-17190112Y-1633156D01*
X-17212362Y-1691822D01*
X-17233861Y-1748509D01*
X-17253018Y-1906285D01*
X-17253018Y-1906292D01*
X-17233861Y-2064068D01*
X-17233860Y-2064070D01*
X-17233860Y-2064071D01*
X-17177498Y-2212684D01*
X-17094696Y-2332642D01*
X-17073760Y-2385721D01*
X-16930948Y-3348484D01*
X-16928772Y-3361025D01*
X-16926360Y-3373153D01*
X-16923568Y-3385589D01*
X-16794754Y-3899843D01*
X-16778960Y-3962894D01*
X-16617679Y-4606763D01*
X-16596340Y-4663140D01*
X-16569582Y-4714757D01*
X-16552789Y-4742701D01*
X-16480133Y-4813221D01*
X-16420520Y-4851779D01*
X-16379597Y-4873338D01*
X-16280349Y-4893384D01*
X-16257929Y-4893450D01*
X-16209366Y-4893593D01*
X-16209365Y-4893592D01*
X-16209353Y-4893593D01*
X-16136211Y-4883296D01*
X-15517979Y-4703736D01*
X-15500030Y-4697806D01*
X-15500029Y-4697805D01*
X-15500021Y-4697803D01*
X-15482838Y-4691423D01*
X-15482834Y-4691421D01*
X-15482831Y-4691420D01*
X-15403222Y-4644265D01*
X-15349566Y-4597772D01*
X-15349558Y-4597764D01*
X-15317444Y-4564484D01*
X-15317444Y-4564483D01*
X-15270514Y-4474766D01*
X-15270513Y-4474763D01*
X-15259885Y-4438567D01*
X-15250511Y-4406643D01*
X-15240000Y-4333534D01*
X-15240000Y-5191770D01*
X-15294926Y-5180975D01*
X-15365901Y-5180766D01*
X-15365913Y-5180767D01*
X-15365916Y-5180767D01*
X-15439058Y-5191064D01*
X-15439059Y-5191064D01*
X-15439063Y-5191065D01*
X-15963082Y-5343262D01*
X-15963085Y-5343263D01*
X-16021295Y-5368217D01*
X-16021302Y-5368221D01*
X-16074038Y-5398931D01*
X-16074042Y-5398933D01*
X-16074049Y-5398938D01*
X-16103568Y-5418966D01*
X-16169532Y-5495782D01*
X-16204388Y-5557633D01*
X-16223416Y-5599796D01*
X-16237379Y-5700080D01*
X-16233263Y-5770957D01*
X-16218530Y-5843335D01*
X-15965817Y-6549623D01*
X-15952361Y-6587231D01*
X-15947785Y-6599095D01*
X-15947784Y-6599097D01*
X-15943052Y-6610521D01*
X-15937890Y-6622165D01*
X-15229891Y-8119100D01*
X-15224163Y-8130479D01*
X-15218334Y-8141384D01*
X-15212058Y-8152464D01*
X-14360744Y-9572796D01*
X-14353925Y-9583563D01*
X-14347055Y-9593844D01*
X-14339725Y-9604251D01*
X-14184497Y-9813552D01*
X-14174866Y-9825757D01*
X-14165170Y-9837314D01*
X-14096944Y-9894780D01*
X-14035590Y-9930504D01*
X-13967981Y-9957858D01*
X-13956717Y-9963077D01*
X-13896654Y-9994601D01*
X-13893617Y-9996195D01*
X-13868619Y-10013450D01*
X-13856182Y-10024469D01*
X-13817738Y-10052675D01*
X-13778217Y-10076418D01*
X-13760737Y-10086025D01*
X-13663093Y-10112813D01*
X-13592278Y-10117878D01*
X-13546022Y-10117052D01*
X-13449397Y-10086795D01*
X-13387085Y-10052769D01*
X-13387080Y-10052765D01*
X-13387072Y-10052761D01*
X-13383295Y-10050334D01*
X-13382539Y-10051510D01*
X-13321729Y-10028825D01*
X-13252354Y-10043913D01*
X-13202150Y-10094113D01*
X-13187055Y-10163486D01*
X-13211862Y-10230008D01*
X-13223639Y-10243599D01*
X-13357068Y-10377028D01*
X-13372898Y-10395255D01*
X-13380965Y-10404543D01*
X-13402187Y-10432760D01*
X-13407292Y-10439790D01*
X-13448117Y-10532447D01*
X-13463518Y-10601753D01*
X-13469488Y-10647627D01*
X-13453737Y-10747646D01*
X-13429223Y-10814276D01*
X-13394115Y-10879259D01*
X-13353296Y-10934297D01*
X-13345461Y-10944337D01*
X-13337617Y-10953895D01*
X-13329297Y-10963540D01*
X-12459020Y-11923742D01*
X-12433860Y-11971037D01*
X-12432852Y-11970655D01*
X-12430149Y-11977782D01*
X-12373787Y-12126395D01*
X-12283498Y-12257201D01*
X-12164529Y-12362599D01*
X-12023793Y-12436463D01*
X-11978780Y-12447557D01*
X-11917428Y-12483277D01*
X-11891122Y-12525215D01*
X-11890149Y-12527779D01*
X-11890149Y-12527782D01*
X-11833787Y-12676395D01*
X-11743498Y-12807201D01*
X-11624529Y-12912599D01*
X-11483793Y-12986463D01*
X-11379439Y-13012183D01*
X-11318086Y-13047906D01*
X-11291783Y-13089839D01*
X-11243787Y-13216395D01*
X-11153498Y-13347201D01*
X-11034529Y-13452599D01*
X-10893793Y-13526463D01*
X-10739471Y-13564500D01*
X-10691145Y-13564500D01*
X-10623024Y-13584502D01*
X-10616093Y-13589291D01*
X-9604251Y-14339725D01*
X-9593844Y-14347055D01*
X-9583563Y-14353925D01*
X-9572796Y-14360744D01*
X-8152464Y-15212058D01*
X-8141384Y-15218334D01*
X-8130479Y-15224163D01*
X-8119099Y-15229891D01*
X-7643043Y-15455048D01*
X-7632997Y-15459542D01*
X-7623157Y-15463695D01*
X-7540763Y-15483455D01*
X-7469948Y-15488519D01*
X-7423700Y-15487693D01*
X-7327074Y-15457438D01*
X-7264763Y-15423414D01*
X-7205633Y-15379150D01*
X-6932162Y-15105679D01*
X-6906067Y-15085657D01*
X-6901105Y-15082792D01*
X-6901099Y-15082789D01*
X-6878929Y-15069989D01*
X-6848534Y-15057400D01*
X-6838015Y-15054582D01*
X-6838016Y-15054582D01*
X-6818276Y-15049293D01*
X-6785667Y-15045000D01*
X-6705506Y-15045000D01*
X-6705500Y-15045000D01*
X-6650341Y-15039070D01*
X-6597999Y-15027684D01*
X-6571209Y-15020334D01*
X-6483222Y-14970231D01*
X-6483218Y-14970227D01*
X-6483213Y-14970224D01*
X-6429576Y-14923747D01*
X-6429558Y-14923730D01*
X-6397444Y-14890450D01*
X-6397444Y-14890449D01*
X-6350514Y-14800732D01*
X-6350513Y-14800729D01*
X-6330511Y-14732609D01*
X-6320000Y-14659500D01*
X-6320000Y-15840000D01*
X-4612330Y-15840000D01*
X-4634312Y-15846816D01*
X-4673986Y-15853748D01*
X-4673991Y-15853749D01*
X-4741247Y-15876467D01*
X-4741254Y-15876470D01*
X-4741257Y-15876471D01*
X-4783590Y-15895122D01*
X-4851460Y-15952360D01*
X-4860994Y-15960400D01*
X-4865312Y-15964835D01*
X-4866750Y-15963433D01*
X-4917318Y-15998875D01*
X-4957636Y-16005500D01*
X-5049472Y-16005500D01*
X-5203796Y-16043537D01*
X-5243338Y-16064291D01*
X-5312951Y-16078238D01*
X-5360448Y-16064292D01*
X-5476208Y-16003536D01*
X-5630527Y-15965500D01*
X-5630529Y-15965500D01*
X-5789471Y-15965500D01*
X-5789472Y-15965500D01*
X-5943790Y-16003536D01*
X-5943791Y-16003536D01*
X-5943793Y-16003537D01*
X-5943795Y-16003538D01*
X-5943797Y-16003539D01*
X-6084525Y-16077398D01*
X-6084528Y-16077400D01*
X-6084529Y-16077401D01*
X-6203498Y-16182799D01*
X-6293787Y-16313605D01*
X-6336538Y-16426331D01*
X-6350150Y-16462220D01*
X-6369307Y-16619996D01*
X-6369307Y-16620003D01*
X-6350150Y-16777779D01*
X-6350149Y-16777781D01*
X-6350149Y-16777782D01*
X-6293787Y-16926395D01*
X-6203498Y-17057201D01*
X-6084529Y-17162599D01*
X-5943793Y-17236463D01*
X-5789471Y-17274500D01*
X-5789470Y-17274500D01*
X-5630530Y-17274500D01*
X-5630529Y-17274500D01*
X-5476207Y-17236463D01*
X-5456933Y-17226347D01*
X-5436661Y-17215708D01*
X-5367048Y-17201761D01*
X-5319554Y-17215706D01*
X-5203793Y-17276463D01*
X-5049471Y-17314500D01*
X-5049470Y-17314500D01*
X-4890530Y-17314500D01*
X-4890529Y-17314500D01*
X-4736207Y-17276463D01*
X-4670200Y-17241820D01*
X-4595474Y-17202601D01*
X-4595472Y-17202599D01*
X-4595471Y-17202599D01*
X-4476502Y-17097201D01*
X-4386213Y-16966395D01*
X-4371042Y-16926392D01*
X-4329849Y-16817779D01*
X-4329767Y-16817443D01*
X-4329639Y-16817223D01*
X-4327148Y-16810655D01*
X-4326055Y-16811069D01*
X-4294042Y-16756089D01*
X-4230818Y-16723790D01*
X-4176817Y-16725375D01*
X-3385590Y-16923568D01*
X-3385563Y-16923574D01*
X-3373160Y-16926360D01*
X-3362532Y-16928473D01*
X-3361032Y-16928772D01*
X-3348487Y-16930948D01*
X-3348475Y-16930949D01*
X-3348468Y-16930951D01*
X-3109503Y-16966398D01*
X-1710491Y-17173922D01*
X-1697851Y-17175481D01*
X-1685546Y-17176693D01*
X-1672842Y-17177630D01*
X-963158Y-17212494D01*
X-896103Y-17235814D01*
X-885795Y-17244024D01*
X-774529Y-17342599D01*
X-633793Y-17416463D01*
X-479471Y-17454500D01*
X-479470Y-17454500D01*
X-320530Y-17454500D01*
X-320529Y-17454500D01*
X-166207Y-17416463D01*
X-58555Y-17359963D01*
X11058Y-17346016D01*
X58555Y-17359963D01*
X166207Y-17416463D01*
X320529Y-17454500D01*
X320530Y-17454500D01*
X479470Y-17454500D01*
X479471Y-17454500D01*
X633793Y-17416463D01*
X741445Y-17359963D01*
X811058Y-17346016D01*
X858555Y-17359963D01*
X966207Y-17416463D01*
X1120529Y-17454500D01*
X1120530Y-17454500D01*
X1279470Y-17454500D01*
X1279471Y-17454500D01*
X1433793Y-17416463D01*
X1541445Y-17359963D01*
X1611058Y-17346016D01*
X1658555Y-17359963D01*
X1766207Y-17416463D01*
X1920529Y-17454500D01*
X1920530Y-17454500D01*
X2079470Y-17454500D01*
X2079471Y-17454500D01*
X2233793Y-17416463D01*
X2374529Y-17342599D01*
X2493498Y-17237201D01*
X2583787Y-17106395D01*
X2583788Y-17106392D01*
X2583791Y-17106388D01*
X2587329Y-17099648D01*
X2589373Y-17100720D01*
X2625336Y-17053206D01*
X2681819Y-17029837D01*
X3205093Y-16952218D01*
X3348465Y-16930951D01*
X3348472Y-16930949D01*
X3348484Y-16930948D01*
X3361029Y-16928772D01*
X3362529Y-16928473D01*
X3373157Y-16926360D01*
X3376822Y-16925536D01*
X3385587Y-16923568D01*
X3442686Y-16909265D01*
X3513622Y-16912115D01*
X3571760Y-16952865D01*
X3598637Y-17018578D01*
X3598381Y-17046676D01*
X3590693Y-17109995D01*
X3590693Y-17110003D01*
X3609849Y-17267779D01*
X3644811Y-17359963D01*
X3666213Y-17416395D01*
X3756502Y-17547201D01*
X3875471Y-17652599D01*
X3875472Y-17652599D01*
X3875474Y-17652601D01*
X3950200Y-17691820D01*
X4016207Y-17726463D01*
X4170529Y-17764500D01*
X4170530Y-17764500D01*
X4329470Y-17764500D01*
X4329471Y-17764500D01*
X4483793Y-17726463D01*
X4624529Y-17652599D01*
X4743498Y-17547201D01*
X4833787Y-17416395D01*
X4890149Y-17267782D01*
X4890149Y-17267781D01*
X4890150Y-17267779D01*
X4909307Y-17110003D01*
X4909307Y-17109996D01*
X4890150Y-16952220D01*
X4840383Y-16820998D01*
X4837233Y-16811591D01*
X4836289Y-16808351D01*
X4803906Y-16746154D01*
X4800741Y-16740260D01*
X4800448Y-16739731D01*
X4797648Y-16734828D01*
X4781240Y-16665755D01*
X4804779Y-16598774D01*
X4860795Y-16555153D01*
X4876453Y-16550125D01*
X4991881Y-16521213D01*
X5004148Y-16517819D01*
X5015981Y-16514230D01*
X5028085Y-16510232D01*
X6587212Y-15952368D01*
X6599096Y-15947784D01*
X6610520Y-15943052D01*
X6622164Y-15937890D01*
X8119100Y-15229892D01*
X8130479Y-15224164D01*
X8141384Y-15218335D01*
X8152464Y-15212058D01*
X8845544Y-14796641D01*
X8865531Y-14783369D01*
X8884305Y-14769610D01*
X8884304Y-14769610D01*
X8885484Y-14768746D01*
X8885569Y-14768863D01*
X8902153Y-14758234D01*
X8952530Y-14731795D01*
X8958983Y-14728291D01*
X8965202Y-14724799D01*
X8971560Y-14721110D01*
X9369994Y-14482298D01*
X9414093Y-14449007D01*
X9453010Y-14412512D01*
X9489062Y-14370640D01*
X9493573Y-14364103D01*
X9497779Y-14360694D01*
X9512239Y-14337571D01*
X9512741Y-14336839D01*
X9513841Y-14335010D01*
X9513993Y-14334766D01*
X9517251Y-14329801D01*
X9522641Y-14321994D01*
X9523817Y-14321041D01*
X9523924Y-14320856D01*
X9529357Y-14312264D01*
X9530289Y-14310913D01*
X9533873Y-14303623D01*
X9537477Y-14297381D01*
X9537530Y-14297298D01*
X9537621Y-14297141D01*
X9539996Y-14293183D01*
X9555417Y-14268522D01*
X9560608Y-14257321D01*
X9580965Y-14222061D01*
X9585659Y-14213929D01*
X9605681Y-14187834D01*
X9700928Y-14092588D01*
X9709291Y-14083825D01*
X9717208Y-14075132D01*
X9763710Y-14002992D01*
X9791778Y-13937779D01*
X9811026Y-13866470D01*
X9811815Y-13859966D01*
X9819085Y-13830471D01*
X9842251Y-13769387D01*
X9856363Y-13742498D01*
X9893477Y-13688729D01*
X9913611Y-13666003D01*
X9962523Y-13622671D01*
X9987510Y-13605423D01*
X10045359Y-13575062D01*
X10073754Y-13564293D01*
X10122055Y-13552389D01*
X10137181Y-13548661D01*
X10167333Y-13545000D01*
X10232664Y-13545000D01*
X10262817Y-13548661D01*
X10402434Y-13583073D01*
X10413502Y-13584043D01*
X10453764Y-13590037D01*
X10481553Y-13592656D01*
X10481553Y-13592655D01*
X10481554Y-13592656D01*
X10498177Y-13590038D01*
X10581572Y-13576905D01*
X10648202Y-13552391D01*
X10713184Y-13517284D01*
X10934296Y-13353297D01*
X10944337Y-13345461D01*
X10953895Y-13337617D01*
X10963540Y-13329297D01*
X12190497Y-12217249D01*
X12199722Y-12208466D01*
X12208466Y-12199722D01*
X12217249Y-12190497D01*
X12217261Y-12190483D01*
X12217574Y-12190155D01*
X12278678Y-12154695D01*
X12279469Y-12154500D01*
X12279471Y-12154500D01*
X12433793Y-12116463D01*
X12574529Y-12042599D01*
X12693498Y-11937201D01*
X12783787Y-11806395D01*
X12840149Y-11657782D01*
X12841379Y-11647646D01*
X12869442Y-11582434D01*
X12928309Y-11542744D01*
X12936281Y-11540497D01*
X13033793Y-11516463D01*
X13174529Y-11442599D01*
X13293498Y-11337201D01*
X13383787Y-11206395D01*
X13440149Y-11057782D01*
X13441379Y-11047646D01*
X13469442Y-10982434D01*
X13528309Y-10942744D01*
X13536281Y-10940497D01*
X13633793Y-10916463D01*
X13774529Y-10842599D01*
X13893498Y-10737201D01*
X13983787Y-10606395D01*
X14019515Y-10512187D01*
X14062373Y-10455587D01*
X14129029Y-10431142D01*
X14161907Y-10433288D01*
X14278597Y-10456500D01*
X14278598Y-10456500D01*
X14441402Y-10456500D01*
X14441403Y-10456500D01*
X14601081Y-10424738D01*
X14751495Y-10362435D01*
X14886863Y-10271984D01*
X15001984Y-10156863D01*
X15092435Y-10021495D01*
X15154738Y-9871081D01*
X15186500Y-9711403D01*
X15186500Y-9548597D01*
X15154738Y-9388919D01*
X15092435Y-9238505D01*
X15001984Y-9103137D01*
X15001979Y-9103131D01*
X14886868Y-8988020D01*
X14886863Y-8988016D01*
X14861209Y-8970874D01*
X14815683Y-8916396D01*
X14806836Y-8845953D01*
X14823136Y-8801338D01*
X15055484Y-8413690D01*
X15063996Y-8398332D01*
X15071749Y-8383155D01*
X15098321Y-8295909D01*
X15101234Y-8271542D01*
X15129181Y-8206278D01*
X15187976Y-8166483D01*
X15226343Y-8160500D01*
X15371281Y-8160500D01*
X15371288Y-8160500D01*
X15599385Y-8130471D01*
X15611782Y-8128839D01*
X15611782Y-8128838D01*
X15611789Y-8128838D01*
X15846100Y-8066054D01*
X16070212Y-7973224D01*
X16280289Y-7851936D01*
X16472738Y-7704265D01*
X16644265Y-7532738D01*
X16791936Y-7340289D01*
X16913224Y-7130212D01*
X17006054Y-6906100D01*
X17068838Y-6671789D01*
X17100500Y-6431288D01*
X17100500Y-6188712D01*
X17074903Y-5994277D01*
X17068839Y-5948217D01*
X17068838Y-5948215D01*
X17068838Y-5948211D01*
X17006054Y-5713900D01*
X16913224Y-5489788D01*
X16913218Y-5489779D01*
X16913217Y-5489775D01*
X16791938Y-5279714D01*
X16753791Y-5230000D01*
X16644265Y-5087262D01*
X16644259Y-5087256D01*
X16644255Y-5087251D01*
X16541320Y-4984316D01*
X16507294Y-4922004D01*
X16512359Y-4851189D01*
X16531641Y-4819191D01*
X16530778Y-4818563D01*
X16534417Y-4813561D01*
X16534424Y-4813554D01*
X16570379Y-4752335D01*
X16589594Y-4705354D01*
X16598337Y-4683978D01*
X16598341Y-4683965D01*
X16615018Y-4617388D01*
X16923568Y-3385588D01*
X16926360Y-3373153D01*
X16928772Y-3361025D01*
X16930948Y-3348484D01*
X17052795Y-2527065D01*
X17052827Y-2526850D01*
X17052909Y-2526294D01*
X17053045Y-2451501D01*
X17042941Y-2381227D01*
X17032302Y-2336209D01*
X17032301Y-2336207D01*
X17032301Y-2336206D01*
X16982202Y-2248227D01*
X16982201Y-2248225D01*
X16982199Y-2248222D01*
X16982195Y-2248218D01*
X16982192Y-2248213D01*
X16935715Y-2194576D01*
X16935698Y-2194558D01*
X16902417Y-2162444D01*
X16812700Y-2115514D01*
X16812699Y-2115513D01*
X16812698Y-2115513D01*
X16744577Y-2095511D01*
X16671468Y-2085000D01*
X12827648Y-2085000D01*
X12827642Y-2085000D01*
X12771541Y-2091138D01*
X12771533Y-2091140D01*
X12718365Y-2102915D01*
X12718319Y-2102926D01*
X12690652Y-2110683D01*
X12690647Y-2110685D01*
X12603043Y-2161447D01*
X12549742Y-2208338D01*
X12549740Y-2208340D01*
X12549737Y-2208342D01*
X12549736Y-2208344D01*
X12528488Y-2230697D01*
X12517862Y-2241876D01*
X12471610Y-2331940D01*
X12471609Y-2331943D01*
X12465083Y-2354806D01*
X12427149Y-2414819D01*
X12362792Y-2444797D01*
X12292444Y-2435222D01*
X12275769Y-2425368D01*
X12275516Y-2425778D01*
X12096535Y-2314957D01*
X12096530Y-2314955D01*
X12096529Y-2314954D01*
X11958172Y-2261354D01*
X11905661Y-2241011D01*
X11905662Y-2241011D01*
X11905659Y-2241010D01*
X11905658Y-2241010D01*
X11704449Y-2203398D01*
X11499755Y-2203398D01*
X11298546Y-2241010D01*
X11298541Y-2241011D01*
X11107679Y-2314952D01*
X11107668Y-2314957D01*
X10933638Y-2422712D01*
X10782368Y-2560613D01*
X10659015Y-2723961D01*
X10567773Y-2907199D01*
X10511756Y-3104078D01*
X10492870Y-3307893D01*
X10492870Y-3307902D01*
X10511756Y-3511717D01*
X10511757Y-3511719D01*
X10567774Y-3708599D01*
X10659014Y-3891833D01*
X10659015Y-3891834D01*
X10782368Y-4055182D01*
X10821855Y-4091179D01*
X10858721Y-4151853D01*
X10856932Y-4222827D01*
X10817056Y-4281567D01*
X10787020Y-4299927D01*
X10764024Y-4309880D01*
X10738668Y-4327408D01*
X10671258Y-4349689D01*
X10602503Y-4331988D01*
X10582139Y-4316877D01*
X10474513Y-4218763D01*
X10471026Y-4216604D01*
X10300484Y-4111008D01*
X10300479Y-4111006D01*
X10300478Y-4111005D01*
X10253581Y-4092837D01*
X10109610Y-4037062D01*
X10109611Y-4037062D01*
X10109608Y-4037061D01*
X10109607Y-4037061D01*
X9908398Y-3999449D01*
X9840000Y-3999449D01*
X9840000Y-2330000D01*
X9362788Y-2330000D01*
X9362788Y-2329999D01*
X9390521Y-2328513D01*
X9417304Y-2325633D01*
X9513926Y-2295377D01*
X9576236Y-2261353D01*
X9635364Y-2217090D01*
X9820645Y-2031809D01*
X10005969Y-1846486D01*
X10005971Y-1846484D01*
X10023691Y-1828764D01*
X10023692Y-1828764D01*
X10196780Y-1655673D01*
X10222866Y-1635656D01*
X10250011Y-1619985D01*
X10280402Y-1607400D01*
X10310682Y-1599290D01*
X10343280Y-1595000D01*
X16814422Y-1595000D01*
X16814429Y-1595000D01*
X16863350Y-1590347D01*
X16910005Y-1581391D01*
X16930852Y-1576489D01*
X17021191Y-1530764D01*
X17077064Y-1486960D01*
X17110782Y-1455286D01*
X17162059Y-1367977D01*
X17185379Y-1300920D01*
X17199464Y-1228416D01*
X17224637Y-715990D01*
X17232674Y-677490D01*
X17240149Y-657782D01*
X17240149Y-657779D01*
X17240150Y-657778D01*
X17259307Y-500002D01*
X17259307Y-499999D01*
X17247928Y-406289D01*
X17243470Y-369581D01*
X17242704Y-348223D01*
X17258883Y-18916D01*
X17259196Y-6183D01*
X17259196Y6183D01*
X17258883Y18916D01*
X17249699Y205834D01*
X17250465Y227191D01*
X17259307Y300000D01*
X17259307Y300002D01*
X17240151Y457768D01*
X17240150Y457770D01*
X17240149Y457782D01*
X17240144Y457792D01*
X17239534Y460272D01*
X17236022Y484250D01*
X17217867Y853795D01*
X17225904Y904657D01*
X17240149Y942218D01*
X17259307Y1099996D01*
X17259307Y1100003D01*
X17240150Y1257778D01*
X17240150Y1257779D01*
X17240149Y1257782D01*
X17198809Y1366783D01*
X17190774Y1405279D01*
X17183072Y1562051D01*
X17191107Y1612907D01*
X17240149Y1742218D01*
X17240150Y1742220D01*
X17259307Y1899996D01*
X17259307Y1900003D01*
X17240150Y2057779D01*
X17240149Y2057782D01*
X17183787Y2206395D01*
X17094166Y2336232D01*
X17073227Y2389319D01*
X17072884Y2391629D01*
X16955318Y3184196D01*
X16930951Y3348468D01*
X16930948Y3348487D01*
X16928772Y3361032D01*
X16926360Y3373159D01*
X16923568Y3385590D01*
X16521213Y4991882D01*
X16517813Y5004167D01*
X16514223Y5016000D01*
X16510230Y5028086D01*
X16357601Y5454652D01*
X16332207Y5506537D01*
X16302278Y5553573D01*
X16284685Y5577974D01*
X16206710Y5642563D01*
X16144250Y5676315D01*
X16101756Y5694592D01*
X16001239Y5706772D01*
X15930446Y5701398D01*
X15858341Y5685382D01*
X14498938Y5171569D01*
X13912297Y4949836D01*
X13841509Y4944463D01*
X13779048Y4978215D01*
X13747178Y5031124D01*
X13705777Y5167605D01*
X13705774Y5167613D01*
X13672023Y5230758D01*
X13657551Y5300264D01*
X13682954Y5366560D01*
X13738597Y5408016D01*
X15700683Y6149626D01*
X15700684Y6149626D01*
X15758821Y6180529D01*
X15810587Y6217157D01*
X15810594Y6217162D01*
X15840063Y6241455D01*
X15898179Y6324367D01*
X15926805Y6389337D01*
X15941609Y6433161D01*
X15945676Y6534332D01*
X15934633Y6604464D01*
X15912876Y6675051D01*
X15229892Y8119100D01*
X15224164Y8130479D01*
X15218335Y8141384D01*
X15212058Y8152464D01*
X14372243Y9553607D01*
X14367849Y9560679D01*
X14364698Y9565571D01*
X14363468Y9567484D01*
X14359917Y9572808D01*
X14358852Y9574406D01*
X14322190Y9627521D01*
X14319640Y9631148D01*
X14317147Y9634631D01*
X14314563Y9638177D01*
X14170776Y9832051D01*
X14161157Y9844241D01*
X14151470Y9855789D01*
X14083251Y9913259D01*
X14059636Y9927011D01*
X14052455Y9934599D01*
X14016801Y9953310D01*
X14016802Y9953312D01*
X13995644Y9964416D01*
X13993185Y9965777D01*
X13992520Y9966055D01*
X13917508Y10005424D01*
X13892519Y10022673D01*
X13843611Y10066002D01*
X13823478Y10088728D01*
X13786363Y10142499D01*
X13772254Y10169379D01*
X13749081Y10230478D01*
X13741814Y10259965D01*
X13732263Y10338641D01*
X13715694Y10403492D01*
X13691817Y10463363D01*
X13677476Y10489071D01*
X13659215Y10521811D01*
X13659212Y10521814D01*
X13659210Y10521819D01*
X13353296Y10934297D01*
X13345461Y10944337D01*
X13337617Y10953895D01*
X13329297Y10963540D01*
X12258440Y12145047D01*
X12248110Y12158080D01*
X12193498Y12237201D01*
X12074529Y12342599D01*
X12035650Y12363003D01*
X12009598Y12381204D01*
X11723510Y12640499D01*
X11690317Y12689176D01*
X11683787Y12706395D01*
X11593498Y12837201D01*
X11474529Y12942599D01*
X11333793Y13016463D01*
X11330219Y13017343D01*
X11327113Y13018996D01*
X11326669Y13019165D01*
X11326690Y13019221D01*
X11275756Y13046319D01*
X11155981Y13154877D01*
X11122789Y13203554D01*
X11083787Y13306395D01*
X10993498Y13437201D01*
X10874529Y13542599D01*
X10733793Y13616463D01*
X10579471Y13654500D01*
X10579470Y13654500D01*
X10569795Y13654500D01*
X10501674Y13674502D01*
X10494737Y13679296D01*
X10316058Y13811813D01*
X10261171Y13852519D01*
X10218372Y13909164D01*
X10212991Y13979956D01*
X10246738Y14042420D01*
X10247133Y14042817D01*
X11493133Y15288864D01*
X11555444Y15322890D01*
X11626260Y15317826D01*
X11659176Y15299546D01*
X12089705Y14967527D01*
X12094146Y14963939D01*
X12755373Y14404454D01*
X12759647Y14400668D01*
X13394837Y13811813D01*
X13398936Y13807837D01*
X14006815Y13190791D01*
X14010728Y13186634D01*
X14590004Y12542711D01*
X14593726Y12538381D01*
X15143258Y11868849D01*
X15146779Y11864355D01*
X15665402Y11170632D01*
X15668717Y11165982D01*
X16155390Y10449460D01*
X16158490Y10444665D01*
X16612189Y9706852D01*
X16615069Y9701922D01*
X17034889Y8944293D01*
X17037542Y8939238D01*
X17422601Y8163382D01*
X17425023Y8158211D01*
X17774540Y7365700D01*
X17776725Y7360425D01*
X18089978Y6552902D01*
X18091922Y6547533D01*
X18368273Y5726636D01*
X18369971Y5721185D01*
X18608854Y4888597D01*
X18610304Y4883075D01*
X18811210Y4040568D01*
X18812409Y4034985D01*
X18974950Y3184196D01*
X18975894Y3178565D01*
X19099722Y2321303D01*
X19100410Y2315635D01*
X19185276Y1453632D01*
X19185706Y1447939D01*
X19231432Y582994D01*
X19231604Y577287D01*
X19238098Y-288833D01*
X19238012Y-294542D01*
X19205261Y-1160091D01*
X19204916Y-1165791D01*
X19132985Y-2028966D01*
X19132382Y-2034643D01*
X19021422Y-2893672D01*
X19020562Y-2899317D01*
X18870803Y-3752414D01*
X18869689Y-3758014D01*
X18681429Y-4603482D01*
X18680062Y-4609025D01*
X18453696Y-5445086D01*
X18452079Y-5450562D01*
X18188074Y-6275491D01*
X18186211Y-6280889D01*
X17885101Y-7093021D01*
X17882996Y-7098328D01*
X17545396Y-7896006D01*
X17543052Y-7901212D01*
X17169666Y-8682765D01*
X17167088Y-8687860D01*
X16758691Y-9451671D01*
X16755886Y-9456644D01*
X16313284Y-10201206D01*
X16310256Y-10206046D01*
X15834388Y-10929775D01*
X15831143Y-10934474D01*
X15322983Y-11635893D01*
X15319530Y-11640439D01*
X14780112Y-12318120D01*
X14776456Y-12322506D01*
X14206868Y-12975082D01*
X14203016Y-12979297D01*
X13604489Y-13605355D01*
X13600451Y-13609392D01*
X12974152Y-14207716D01*
X12969936Y-14211565D01*
X12317180Y-14780897D01*
X12312793Y-14784552D01*
X11634906Y-15323733D01*
X11630358Y-15327185D01*
X10928753Y-15835094D01*
X10924053Y-15838337D01*
X10200142Y-16313950D01*
X10195300Y-16316976D01*
X9450613Y-16759288D01*
X9445640Y-16762092D01*
X8681638Y-17170236D01*
X8676542Y-17172811D01*
X7894871Y-17545906D01*
X7889664Y-17548248D01*
X7091884Y-17885553D01*
X7086576Y-17887657D01*
X6274322Y-18188477D01*
X6268924Y-18190338D01*
X5443893Y-18454047D01*
X5438416Y-18455662D01*
X4602275Y-18681726D01*
X4596731Y-18683091D01*
X3751200Y-18871045D01*
X3745600Y-18872157D01*
X2892449Y-19021608D01*
X2886804Y-19022466D01*
X2027732Y-19133116D01*
X2022054Y-19133717D01*
X1158856Y-19205334D01*
X1153157Y-19205677D01*
X287594Y-19238117D01*
X281885Y-19238201D01*
X-584232Y-19231394D01*
X-589939Y-19231220D01*
X-1454890Y-19185180D01*
X-1460583Y-19184747D01*
X-2322533Y-19099573D01*
X-2328201Y-19098883D01*
X-3185418Y-18974745D01*
X-3191049Y-18973799D01*
X-4041762Y-18810954D01*
X-4047344Y-18809754D01*
X-4889814Y-18608534D01*
X-4895336Y-18607082D01*
X-5727822Y-18367903D01*
X-5733272Y-18366202D01*
X-6554052Y-18089561D01*
X-6559421Y-18087616D01*
X-7366841Y-17774068D01*
X-7372115Y-17771881D01*
X-8164507Y-17422074D01*
X-8169677Y-17419650D01*
X-8945395Y-17034310D01*
X-8950449Y-17031655D01*
X-9707927Y-16611562D01*
X-9712856Y-16608680D01*
X-10450504Y-16154714D01*
X-10455298Y-16151612D01*
X-11171640Y-15664683D01*
X-11176288Y-15661367D01*
X-11869827Y-15142491D01*
X-11874320Y-15138968D01*
X-12543641Y-14589205D01*
X-12547970Y-14585482D01*
X-13191695Y-14005963D01*
X-13195851Y-14002048D01*
X-13812677Y-13393945D01*
X-13816651Y-13389845D01*
X-14405278Y-12754443D01*
X-14409062Y-12750168D01*
X-14968306Y-12088741D01*
X-14971893Y-12084298D01*
X-15500589Y-11398226D01*
X-15503971Y-11393626D01*
X-16001055Y-10684291D01*
X-16004225Y-10679542D01*
X-16468666Y-9948411D01*
X-16471617Y-9943523D01*
X-16902444Y-9192128D01*
X-16905171Y-9187112D01*
X-17301524Y-8416952D01*
X-17304021Y-8411817D01*
X-17665071Y-7624506D01*
X-17667333Y-7619264D01*
X-17992352Y-6816385D01*
X-17994374Y-6811045D01*
X-18282683Y-5994277D01*
X-18284461Y-5988851D01*
X-18535465Y-5159878D01*
X-18536995Y-5154378D01*
X-18750201Y-4314832D01*
X-18751481Y-4309267D01*
X-18926423Y-3460973D01*
X-18927449Y-3455357D01*
X-19063783Y-2600000D01*
X-19064554Y-2594342D01*
X-19161998Y-1733685D01*
X-19162512Y-1727999D01*
X-19220867Y-863787D01*
X-19221122Y-858083D01*
X-19240264Y7850D01*
X-19240261Y13560D01*
X-19220154Y879494D01*
X-19219892Y885198D01*
X-19160577Y1749322D01*
X-19160057Y1755007D01*
X-19061655Y2615561D01*
X-19060878Y2621218D01*
X-18923593Y3476416D01*
X-18922561Y3482032D01*
X-18746668Y4330161D01*
X-18745382Y4335724D01*
X-18531249Y5175004D01*
X-18529712Y5180503D01*
X-18277780Y6009209D01*
X-18275996Y6014632D01*
X-17986780Y6831073D01*
X-17984752Y6836411D01*
X-17658848Y7638909D01*
X-17656581Y7644149D01*
X-17294643Y8431083D01*
X-17292140Y8436215D01*
X-16894929Y9205933D01*
X-16892196Y9210946D01*
X-16460527Y9961871D01*
X-16457570Y9966755D01*
X-15992332Y10697343D01*
X-15989157Y10702089D01*
X-15491276Y11410880D01*
X-15487889Y11415476D01*
X-14958440Y12100945D01*
X-14954849Y12105384D01*
X-14394847Y12766214D01*
X-14391057Y12770485D01*
X-13801736Y13405220D01*
X-13797758Y13409315D01*
X-13180265Y14016719D01*
X-13176105Y14020630D01*
X-12531724Y14599443D01*
X-12527390Y14603161D01*
X-11857457Y15152178D01*
X-11852961Y15155696D01*
X-11158845Y15673800D01*
X-11154193Y15677111D01*
X-10437320Y16163235D01*
X-10432523Y16166332D01*
X-9694344Y16619492D01*
X-9689411Y16622368D01*
X-8931476Y17041612D01*
X-8926419Y17044261D01*
X-8150273Y17428737D01*
X-8145100Y17431155D01*
X-7352334Y17780074D01*
X-7347058Y17782255D01*
X-6539292Y18094902D01*
X-6533922Y18096842D01*
X-5712824Y18372573D01*
X-5707371Y18374268D01*
X-4874604Y18612525D01*
X-4869081Y18613970D01*
X-4026403Y18814248D01*
X-4020819Y18815442D01*
X-3169929Y18977338D01*
X-3164297Y18978278D01*
X-2306946Y19101461D01*
X-2301278Y19102145D01*
X-1439209Y19186362D01*
X-1433515Y19186788D01*
X-568537Y19231864D01*
X-562830Y19232032D01*
X303316Y19237875D01*
X309025Y19237784D01*
G37*
%TD.AperFunction*%
%TA.AperFunction,Conductor*%
G36*
X-2890929Y-6756729D02*
G01*
X-2925004Y-6883896D01*
X-2925004Y-7015548D01*
X-2890929Y-7142715D01*
X-2855707Y-7203722D01*
X-3315065Y-7203722D01*
X-3383186Y-7183720D01*
X-3402551Y-7168397D01*
X-3424554Y-7147166D01*
X-3424553Y-7147166D01*
X-3424555Y-7147165D01*
X-3514270Y-7100236D01*
X-3514273Y-7100235D01*
X-3582396Y-7080232D01*
X-3582393Y-7080232D01*
X-3617638Y-7075165D01*
X-3682218Y-7045671D01*
X-3720601Y-6985944D01*
X-3720599Y-6914948D01*
X-3682215Y-6855222D01*
X-3617633Y-6825730D01*
X-3613247Y-6825179D01*
X-3600345Y-6823792D01*
X-3548003Y-6812406D01*
X-3521213Y-6805056D01*
X-3433226Y-6754953D01*
X-3400385Y-6726496D01*
X-3335805Y-6697004D01*
X-3317874Y-6695722D01*
X-2855707Y-6695722D01*
X-2890929Y-6756729D01*
G37*
%TD.AperFunction*%
%TA.AperFunction,Conductor*%
G36*
X9137592Y-4218760D02*
G01*
X9137577Y-4218772D01*
X9137256Y-4219065D01*
X9137068Y-4219156D01*
X9132943Y-4222272D01*
X9132332Y-4221463D01*
X9073433Y-4250164D01*
X9002928Y-4241821D01*
X8964896Y-4216604D01*
X8955403Y-4207444D01*
X8865686Y-4160514D01*
X8865685Y-4160513D01*
X8865684Y-4160513D01*
X8797563Y-4140511D01*
X8724454Y-4130000D01*
X9280944Y-4130000D01*
X9137592Y-4218760D01*
G37*
%TD.AperFunction*%
%TA.AperFunction,Conductor*%
G36*
X-2237181Y-1188661D02*
G01*
X-2205468Y-1196477D01*
X-2173754Y-1204293D01*
X-2145359Y-1215062D01*
X-2087510Y-1245423D01*
X-2062523Y-1262671D01*
X-2013611Y-1306002D01*
X-1993478Y-1328728D01*
X-1956363Y-1382499D01*
X-1942252Y-1409386D01*
X-1919083Y-1470473D01*
X-1911815Y-1499964D01*
X-1903942Y-1564809D01*
X-1903942Y-1595182D01*
X-1911816Y-1660035D01*
X-1919086Y-1689530D01*
X-1928496Y-1714341D01*
X-1928499Y-1714350D01*
X-1928500Y-1714350D01*
X-1931021Y-1720997D01*
X-1931022Y-1720999D01*
X-1941455Y-1748509D01*
X-1942252Y-1750610D01*
X-1956368Y-1777505D01*
X-1993475Y-1831264D01*
X-2013617Y-1854000D01*
X-2062512Y-1897318D01*
X-2087479Y-1914557D01*
X-2089225Y-1915474D01*
X-2089228Y-1915467D01*
X-2089256Y-1915490D01*
X-2145355Y-1944933D01*
X-2173755Y-1955704D01*
X-2237182Y-1971338D01*
X-2267337Y-1975000D01*
X-2332663Y-1975000D01*
X-2362818Y-1971338D01*
X-2426241Y-1955705D01*
X-2454643Y-1944934D01*
X-2512487Y-1914574D01*
X-2537484Y-1897319D01*
X-2605757Y-1836834D01*
X-2614170Y-1828650D01*
X-2615311Y-1827430D01*
X-2650882Y-1793015D01*
X-2650884Y-1793012D01*
X-2668503Y-1777446D01*
X-2758223Y-1730514D01*
X-2758226Y-1730513D01*
X-2826349Y-1710510D01*
X-2826346Y-1710510D01*
X-2860124Y-1705654D01*
X-2924704Y-1676160D01*
X-2963087Y-1616433D01*
X-2963086Y-1545437D01*
X-2924701Y-1485711D01*
X-2860120Y-1456219D01*
X-2854636Y-1455554D01*
X-2848477Y-1454943D01*
X-2848468Y-1454941D01*
X-2848459Y-1454940D01*
X-2827702Y-1450780D01*
X-2799938Y-1445218D01*
X-2777122Y-1439561D01*
X-2687533Y-1392383D01*
X-2657477Y-1368025D01*
X-2655433Y-1367172D01*
X-2646871Y-1359587D01*
X-2642647Y-1356008D01*
X-2633761Y-1348807D01*
X-2633760Y-1348806D01*
X-2628893Y-1344862D01*
X-2628890Y-1344859D01*
X-2613087Y-1332052D01*
X-2598525Y-1316756D01*
X-2597833Y-1316143D01*
X-2537479Y-1262674D01*
X-2512483Y-1245421D01*
X-2454639Y-1215063D01*
X-2426239Y-1204292D01*
X-2362818Y-1188660D01*
X-2332666Y-1185000D01*
X-2267333Y-1185000D01*
X-2237181Y-1188661D01*
G37*
%TD.AperFunction*%
%TA.AperFunction,Conductor*%
G36*
X-1078386Y1826980D02*
G01*
X-1014962Y1811347D01*
X-986561Y1800577D01*
X-928716Y1770218D01*
X-903718Y1752963D01*
X-821680Y1680283D01*
X-783237Y1652078D01*
X-783235Y1652077D01*
X-783224Y1652070D01*
X-743729Y1628342D01*
X-726232Y1618725D01*
X-672677Y1604034D01*
X-628590Y1591940D01*
X-628588Y1591939D01*
X-628585Y1591939D01*
X-557782Y1586876D01*
X-557776Y1586876D01*
X-557775Y1586876D01*
X-511530Y1587701D01*
X-511529Y1587701D01*
X-414901Y1617956D01*
X-352584Y1651982D01*
X-348807Y1654410D01*
X-348058Y1653244D01*
X-287190Y1675928D01*
X-217820Y1660818D01*
X-167631Y1610602D01*
X-152558Y1541224D01*
X-177387Y1474711D01*
X-189133Y1461159D01*
X-295109Y1355184D01*
X-295120Y1355174D01*
X-297749Y1352546D01*
X-298834Y1351953D01*
X-308593Y1343489D01*
X-308605Y1343480D01*
X-310274Y1345706D01*
X-360061Y1318520D01*
X-386844Y1315641D01*
X-440054Y1315641D01*
X-440119Y1315642D01*
X-442054Y1315642D01*
X-541747Y1315642D01*
X-592726Y1310585D01*
X-592743Y1310581D01*
X-592747Y1310581D01*
X-609001Y1307324D01*
X-641265Y1300860D01*
X-664083Y1295202D01*
X-753672Y1248024D01*
X-783742Y1223653D01*
X-785782Y1222802D01*
X-794327Y1215232D01*
X-798512Y1211684D01*
X-805940Y1205665D01*
X-805939Y1205664D01*
X-812206Y1200590D01*
X-812279Y1200526D01*
X-828149Y1187664D01*
X-842679Y1172396D01*
X-854820Y1161640D01*
X-903719Y1118319D01*
X-928717Y1101064D01*
X-986559Y1070706D01*
X-1014958Y1059935D01*
X-1059958Y1048844D01*
X-1078384Y1044303D01*
X-1108536Y1040642D01*
X-1173869Y1040642D01*
X-1204022Y1044303D01*
X-1267442Y1059934D01*
X-1295842Y1070705D01*
X-1353686Y1101063D01*
X-1378683Y1118317D01*
X-1427586Y1161641D01*
X-1447727Y1184376D01*
X-1449997Y1187664D01*
X-1484836Y1238138D01*
X-1498952Y1265034D01*
X-1522117Y1326115D01*
X-1529385Y1355603D01*
X-1537260Y1420456D01*
X-1537260Y1450827D01*
X-1534360Y1474711D01*
X-1529386Y1515674D01*
X-1522118Y1545166D01*
X-1513424Y1568090D01*
X-1513423Y1568092D01*
X-1498949Y1606254D01*
X-1484833Y1633148D01*
X-1447726Y1686906D01*
X-1427585Y1709641D01*
X-1378687Y1752961D01*
X-1353690Y1770216D01*
X-1295846Y1800576D01*
X-1267444Y1811347D01*
X-1204021Y1826980D01*
X-1173866Y1830642D01*
X-1108540Y1830642D01*
X-1078386Y1826980D01*
G37*
%TD.AperFunction*%
%TA.AperFunction,Conductor*%
G36*
X904908Y3968123D02*
G01*
X926344Y3950760D01*
X1116900Y3758256D01*
X1150608Y3695772D01*
X1145183Y3624983D01*
X1111038Y3575419D01*
X1102014Y3567402D01*
X1059161Y3510807D01*
X1059151Y3510792D01*
X1040135Y3476416D01*
X1023404Y3446172D01*
X1014010Y3421401D01*
X1007748Y3404890D01*
X993632Y3377995D01*
X956520Y3324229D01*
X936383Y3301499D01*
X899864Y3269145D01*
X874899Y3243765D01*
X874893Y3243758D01*
X874889Y3243754D01*
X862057Y3228779D01*
X852455Y3217574D01*
X847444Y3211545D01*
X800513Y3121826D01*
X780511Y3053705D01*
X776069Y3022810D01*
X746577Y2958231D01*
X686851Y2919847D01*
X615854Y2919847D01*
X556128Y2958230D01*
X526635Y3022811D01*
X526538Y3023499D01*
X522842Y3050245D01*
X522837Y3050282D01*
X521647Y3058028D01*
X485614Y3152651D01*
X469360Y3178565D01*
X447892Y3212792D01*
X447889Y3212796D01*
X400135Y3269146D01*
X380983Y3286112D01*
X363618Y3301497D01*
X343478Y3324229D01*
X306359Y3378005D01*
X292254Y3404879D01*
X269082Y3465977D01*
X261814Y3495466D01*
X259953Y3510792D01*
X253941Y3560317D01*
X253942Y3590687D01*
X261814Y3655525D01*
X269082Y3685017D01*
X273161Y3695772D01*
X284374Y3725340D01*
X292998Y3752492D01*
X299905Y3779247D01*
X299917Y3779292D01*
X300088Y3779956D01*
X304842Y3868811D01*
X328455Y3935766D01*
X384518Y3979326D01*
X430650Y3988080D01*
X836785Y3988119D01*
X904908Y3968123D01*
G37*
%TD.AperFunction*%
%TA.AperFunction,Conductor*%
G36*
X-8396565Y4980498D02*
G01*
X-8333140Y4964864D01*
X-8304744Y4954095D01*
X-8279773Y4940990D01*
X-8279769Y4940988D01*
X-8246893Y4923734D01*
X-8221900Y4906481D01*
X-8173004Y4863163D01*
X-8152862Y4840428D01*
X-8115754Y4786669D01*
X-8101638Y4759776D01*
X-8081441Y4706526D01*
X-8081442Y4706526D01*
X-8078468Y4698685D01*
X-8071198Y4669194D01*
X-8063458Y4605438D01*
X-8063325Y4604346D01*
X-8063325Y4573981D01*
X-8068664Y4530000D01*
X-8071198Y4509125D01*
X-8078464Y4479640D01*
X-8101640Y4418535D01*
X-8115743Y4391665D01*
X-8152862Y4337889D01*
X-8173003Y4315156D01*
X-8209509Y4282815D01*
X-8209519Y4282806D01*
X-8234485Y4257425D01*
X-8256929Y4231234D01*
X-8261940Y4225205D01*
X-8308871Y4135486D01*
X-8328873Y4067365D01*
X-8333314Y4036471D01*
X-8362804Y3971894D01*
X-8422529Y3933508D01*
X-8493526Y3933506D01*
X-8553253Y3971888D01*
X-8582748Y4036467D01*
X-8582845Y4037154D01*
X-8586547Y4063947D01*
X-8587736Y4071684D01*
X-8587737Y4071690D01*
X-8623770Y4166311D01*
X-8623773Y4166317D01*
X-8661492Y4226452D01*
X-8687731Y4257414D01*
X-8709248Y4282805D01*
X-8745766Y4315158D01*
X-8765904Y4337889D01*
X-8803017Y4391657D01*
X-8817133Y4418552D01*
X-8840299Y4479636D01*
X-8847567Y4509126D01*
X-8855441Y4573976D01*
X-8855441Y4604346D01*
X-8847567Y4669194D01*
X-8840298Y4698685D01*
X-8817133Y4759766D01*
X-8803017Y4786662D01*
X-8765908Y4840424D01*
X-8745765Y4863161D01*
X-8696867Y4906480D01*
X-8671871Y4923734D01*
X-8614027Y4954094D01*
X-8585625Y4964865D01*
X-8522202Y4980498D01*
X-8492047Y4984160D01*
X-8426721Y4984160D01*
X-8396565Y4980498D01*
G37*
%TD.AperFunction*%
%TD*%
%TA.AperFunction,Conductor*%
%TO.N,GND*%
G36*
X-5163658Y-16319499D02*
G01*
X-4885136Y-16575136D01*
X-4782498Y-16669339D01*
X-4778722Y-16677456D01*
X-4781791Y-16685868D01*
X-4784363Y-16687973D01*
X-5227284Y-16955429D01*
X-5236138Y-16956772D01*
X-5241132Y-16954133D01*
X-5275460Y-16923425D01*
X-5275461Y-16923426D01*
X-5313635Y-16889400D01*
X-5350699Y-16858196D01*
X-5388243Y-16830097D01*
X-5427794Y-16805442D01*
X-5470925Y-16784539D01*
X-5519158Y-16767724D01*
X-5561639Y-16758119D01*
X-5574049Y-16755314D01*
X-5581936Y-16754353D01*
X-5637140Y-16747632D01*
X-5637154Y-16747631D01*
X-5698723Y-16745407D01*
X-5706867Y-16741684D01*
X-5710000Y-16733715D01*
X-5710000Y-16675776D01*
X-5710000Y-16506368D01*
X-5706573Y-16498095D01*
X-5698636Y-16494673D01*
X-5630512Y-16492714D01*
X-5561681Y-16486069D01*
X-5501634Y-16475377D01*
X-5448499Y-16460953D01*
X-5400405Y-16443111D01*
X-5355482Y-16422164D01*
X-5311857Y-16398429D01*
X-5267659Y-16372217D01*
X-5250910Y-16362029D01*
X-5221015Y-16343844D01*
X-5221007Y-16343856D01*
X-5220913Y-16343783D01*
X-5177531Y-16318056D01*
X-5168671Y-16316785D01*
X-5163658Y-16319499D01*
G37*
%TD.AperFunction*%
%TD*%
%TA.AperFunction,Conductor*%
%TO.N,GND*%
G36*
X-5331491Y-16466708D02*
G01*
X-5306418Y-16467204D01*
X-5269721Y-16465423D01*
X-5223713Y-16463537D01*
X-5170706Y-16463718D01*
X-5113012Y-16468136D01*
X-5052943Y-16478963D01*
X-4992812Y-16498371D01*
X-4935959Y-16527993D01*
X-4934026Y-16529260D01*
X-4889501Y-16565237D01*
X-4885220Y-16573101D01*
X-4885158Y-16574086D01*
X-4885135Y-16575135D01*
X-5058388Y-16748388D01*
X-5090716Y-16724241D01*
X-5126095Y-16711167D01*
X-5163054Y-16707275D01*
X-5200125Y-16710673D01*
X-5235839Y-16719470D01*
X-5268726Y-16731774D01*
X-5297318Y-16745694D01*
X-5320145Y-16759338D01*
X-5335738Y-16770815D01*
X-5342629Y-16778234D01*
X-5710000Y-16675777D01*
X-5710000Y-16675776D01*
X-5869589Y-16631269D01*
X-5876638Y-16625746D01*
X-5877716Y-16616856D01*
X-5872193Y-16609807D01*
X-5869594Y-16608731D01*
X-5710000Y-16564222D01*
X-5342629Y-16461766D01*
X-5331491Y-16466708D01*
G37*
%TD.AperFunction*%
%TD*%
%TA.AperFunction,Conductor*%
%TO.N,GND*%
G36*
X4378156Y-16407425D02*
G01*
X4378156Y-16407426D01*
X4378155Y-16407426D01*
X4378265Y-16410455D01*
X4378265Y-16410456D01*
X4378266Y-16410461D01*
X4387658Y-16486222D01*
X4402564Y-16550388D01*
X4402566Y-16550395D01*
X4422373Y-16606064D01*
X4446474Y-16656349D01*
X4474257Y-16704352D01*
X4505116Y-16753187D01*
X4505115Y-16753187D01*
X4505117Y-16753189D01*
X4538319Y-16805762D01*
X4538512Y-16806077D01*
X4573442Y-16865464D01*
X4573735Y-16865993D01*
X4606118Y-16928190D01*
X4606899Y-16937111D01*
X4604173Y-16941703D01*
X4258433Y-17301230D01*
X4250229Y-17304818D01*
X4241890Y-17301553D01*
X4241567Y-17301230D01*
X3895826Y-16941703D01*
X3892561Y-16933364D01*
X3893881Y-16928190D01*
X3926263Y-16865993D01*
X3926547Y-16865479D01*
X3961511Y-16806035D01*
X3961645Y-16805817D01*
X3994883Y-16753187D01*
X4025738Y-16704359D01*
X4053523Y-16656352D01*
X4077625Y-16606064D01*
X4097435Y-16550389D01*
X4112341Y-16486222D01*
X4121733Y-16410461D01*
X4125000Y-16320000D01*
X4375000Y-16320000D01*
X4378156Y-16407425D01*
G37*
%TD.AperFunction*%
%TD*%
%TA.AperFunction,Conductor*%
%TO.N,GND*%
G36*
X1660109Y16918443D02*
G01*
X1672414Y16917231D01*
X2591174Y16780945D01*
X2655623Y16751164D01*
X2693739Y16691267D01*
X2698686Y16656333D01*
X2699366Y13027147D01*
X2689078Y12977256D01*
X1914521Y11180010D01*
X1906456Y11161297D01*
X1861126Y11106655D01*
X1793451Y11085194D01*
X1772820Y11086447D01*
X1751588Y11089500D01*
X541362Y11089500D01*
X541351Y11089500D01*
X518509Y11088275D01*
X513621Y11088013D01*
X487263Y11085179D01*
X487258Y11085177D01*
X487251Y11085176D01*
X390642Y11054926D01*
X390640Y11054925D01*
X329313Y11021438D01*
X270191Y10977178D01*
X270179Y10977168D01*
X-7226Y10699762D01*
X-197175Y10509813D01*
X-215740Y10489145D01*
X-232374Y10468503D01*
X-232375Y10468499D01*
X-232377Y10468498D01*
X-232378Y10468496D01*
X-279298Y10378800D01*
X-279299Y10378796D01*
X-279303Y10378789D01*
X-298988Y10311750D01*
X-309499Y10238643D01*
X-309500Y10238638D01*
X-309500Y10236687D01*
X-309728Y10235437D01*
X-309821Y10234150D01*
X-309963Y10234160D01*
X-317687Y10192006D01*
X-331498Y10155591D01*
X-340150Y10132779D01*
X-359307Y9975003D01*
X-359307Y9974996D01*
X-340149Y9817219D01*
X-317688Y9757992D01*
X-309500Y9713312D01*
X-309500Y8901350D01*
X-308256Y8878170D01*
X-308013Y8873621D01*
X-306582Y8860312D01*
X-305179Y8847265D01*
X-305176Y8847251D01*
X-274926Y8750642D01*
X-274925Y8750640D01*
X-241438Y8689313D01*
X-197178Y8630191D01*
X-197168Y8630179D01*
X750171Y7682839D01*
X770855Y7664259D01*
X791501Y7647622D01*
X791503Y7647621D01*
X881199Y7600701D01*
X881210Y7600697D01*
X883847Y7599923D01*
X885061Y7599142D01*
X886945Y7598382D01*
X886800Y7598024D01*
X943571Y7561537D01*
X973062Y7496955D01*
X974263Y7474536D01*
X972909Y7436611D01*
X971997Y7411077D01*
X971997Y7411076D01*
X1006098Y7277479D01*
X1006099Y7277476D01*
X1076453Y7158899D01*
X1177364Y7064946D01*
X1177373Y7064940D01*
X1227774Y7037418D01*
X1728271Y6830105D01*
X1783383Y6813922D01*
X1921182Y6809001D01*
X1921187Y6809002D01*
X2045034Y6840613D01*
X2115985Y6838079D01*
X2174303Y6797589D01*
X2184557Y6782821D01*
X2249781Y6672890D01*
X2350691Y6578938D01*
X2350700Y6578932D01*
X2401105Y6551409D01*
X2401108Y6551407D01*
X2452719Y6530029D01*
X2508000Y6485480D01*
X2530420Y6418117D01*
X2530500Y6413621D01*
X2530500Y6152021D01*
X2510498Y6083900D01*
X2484193Y6054425D01*
X2231080Y5847742D01*
X2231077Y5847739D01*
X2231075Y5847737D01*
X2122175Y5758813D01*
X2122167Y5758805D01*
X2122153Y5758793D01*
X2092695Y5730598D01*
X2092693Y5730596D01*
X2066389Y5701121D01*
X2057944Y5691165D01*
X2011013Y5601446D01*
X1991011Y5533325D01*
X1981056Y5464082D01*
X1980500Y5460213D01*
X1980500Y5177874D01*
X1960498Y5109753D01*
X1906842Y5063260D01*
X1836568Y5053156D01*
X1771988Y5082650D01*
X1764584Y5089607D01*
X1611918Y5245161D01*
X1590492Y5264681D01*
X1568688Y5282422D01*
X1567737Y5283193D01*
X1478018Y5330124D01*
X1409897Y5350126D01*
X1336788Y5360637D01*
X1336785Y5360637D01*
X43728Y5360637D01*
X-24393Y5380639D01*
X-42840Y5395084D01*
X-204243Y5547700D01*
X-239998Y5609036D01*
X-243675Y5639490D01*
X-240737Y7203274D01*
X-240737Y7203276D01*
X-246616Y7258687D01*
X-246616Y7258689D01*
X-246617Y7258694D01*
X-258000Y7311259D01*
X-265403Y7338292D01*
X-265404Y7338295D01*
X-315502Y7426272D01*
X-315512Y7426286D01*
X-361989Y7479923D01*
X-362006Y7479941D01*
X-395287Y7512055D01*
X-395288Y7512056D01*
X-485007Y7558987D01*
X-553128Y7578989D01*
X-626237Y7589500D01*
X-1504679Y7589500D01*
X-1504682Y7589500D01*
X-1504683Y7589499D01*
X-1559154Y7583718D01*
X-1610876Y7572613D01*
X-1637019Y7565555D01*
X-1725275Y7515928D01*
X-1779181Y7469726D01*
X-1810463Y7437654D01*
X-1811483Y7436610D01*
X-1858897Y7347147D01*
X-1879267Y7279135D01*
X-1890173Y7206084D01*
X-1890173Y7206078D01*
X-1899096Y5555279D01*
X-1899216Y5533160D01*
X-1897956Y5506175D01*
X-1895373Y5480101D01*
X-1885671Y5448016D01*
X-1872285Y5403744D01*
X-1866282Y5383893D01*
X-1832962Y5321202D01*
X-1789370Y5261580D01*
X-1188096Y4646583D01*
X-1005536Y4459857D01*
X-673205Y4119941D01*
X-657626Y4104007D01*
X-636026Y4084273D01*
X-636016Y4084265D01*
X-636008Y4084258D01*
X-614171Y4066458D01*
X-612904Y4065431D01*
X-612898Y4065427D01*
X-523177Y4018504D01*
X-455065Y3998511D01*
X-455051Y3998508D01*
X-381945Y3988004D01*
X-381944Y3988004D01*
X-381942Y3988004D01*
X-381866Y3988004D01*
X-76087Y3988032D01*
X-7965Y3968036D01*
X38533Y3914385D01*
X48643Y3844112D01*
X41736Y3817357D01*
X22721Y3767217D01*
X9850Y3733281D01*
X-9307Y3575503D01*
X-9307Y3575496D01*
X9849Y3417720D01*
X66212Y3269107D01*
X66215Y3269101D01*
X156500Y3138300D01*
X156503Y3138297D01*
X228054Y3074908D01*
X265779Y3014763D01*
X270500Y2980596D01*
X270500Y2679384D01*
X250498Y2611263D01*
X233600Y2590294D01*
X-476956Y1879737D01*
X-539265Y1845715D01*
X-610080Y1850779D01*
X-649599Y1874521D01*
X-766674Y1978241D01*
X-766675Y1978241D01*
X-766677Y1978243D01*
X-868551Y2031710D01*
X-907410Y2052105D01*
X-1061732Y2090142D01*
X-1220674Y2090142D01*
X-1374996Y2052105D01*
X-1515732Y1978241D01*
X-1634701Y1872843D01*
X-1724990Y1742037D01*
X-1756061Y1660109D01*
X-1781353Y1593421D01*
X-1800510Y1435645D01*
X-1800510Y1435638D01*
X-1781353Y1277862D01*
X-1781352Y1277860D01*
X-1724990Y1129247D01*
X-1634701Y998441D01*
X-1515733Y893044D01*
X-1515728Y893040D01*
X-1375000Y819181D01*
X-1374996Y819179D01*
X-1374994Y819178D01*
X-1374993Y819178D01*
X-1220675Y781142D01*
X-1220674Y781142D01*
X-1061730Y781142D01*
X-907412Y819178D01*
X-907405Y819181D01*
X-766677Y893040D01*
X-766672Y893044D01*
X-647706Y998439D01*
X-647705Y998440D01*
X-645444Y1001717D01*
X-643171Y1003558D01*
X-642652Y1004145D01*
X-642554Y1004058D01*
X-590286Y1046417D01*
X-541747Y1056142D01*
X-442054Y1056142D01*
X-442038Y1056141D01*
X-434320Y1056141D01*
X-334398Y1056141D01*
X-334396Y1056141D01*
X-258273Y1076538D01*
X-237876Y1082004D01*
X-237875Y1082004D01*
X-237873Y1082005D01*
X-237872Y1082005D01*
X-151342Y1131963D01*
X-151337Y1131967D01*
X-116010Y1167295D01*
X-80682Y1202623D01*
X-80680Y1202625D01*
X389109Y1672414D01*
X878613Y2161918D01*
X878624Y2161928D01*
X953670Y2236974D01*
X953678Y2236984D01*
X1003636Y2323514D01*
X1003638Y2323519D01*
X1009101Y2343909D01*
X1009103Y2343915D01*
X1029500Y2420036D01*
X1029501Y2420038D01*
X1029501Y2530112D01*
X1029500Y2530125D01*
X1029500Y2980596D01*
X1049502Y3048717D01*
X1071946Y3074908D01*
X1143496Y3138297D01*
X1143499Y3138300D01*
X1233784Y3269101D01*
X1233787Y3269105D01*
X1266041Y3354152D01*
X1308899Y3410753D01*
X1375555Y3435198D01*
X1444845Y3419726D01*
X1473400Y3398114D01*
X2189798Y2674400D01*
X2223506Y2611915D01*
X2225332Y2570571D01*
X2210693Y2450003D01*
X2210693Y2449997D01*
X2229581Y2294441D01*
X2230500Y2279253D01*
X2230500Y2165993D01*
X2236430Y2110838D01*
X2247812Y2058516D01*
X2247816Y2058499D01*
X2249571Y2052102D01*
X2255165Y2031710D01*
X2305270Y1943720D01*
X2305275Y1943713D01*
X2351752Y1890076D01*
X2351769Y1890058D01*
X2385050Y1857944D01*
X2474767Y1811014D01*
X2474770Y1811013D01*
X2542891Y1791011D01*
X2616000Y1780500D01*
X2616003Y1780500D01*
X3974006Y1780500D01*
X4029161Y1786430D01*
X4081483Y1797812D01*
X4081484Y1797812D01*
X4081501Y1797816D01*
X4099584Y1802777D01*
X4108289Y1805165D01*
X4108291Y1805166D01*
X4196278Y1855269D01*
X4196279Y1855270D01*
X4196286Y1855275D01*
X4249923Y1901752D01*
X4249941Y1901769D01*
X4282055Y1935049D01*
X4282055Y1935050D01*
X4286591Y1943720D01*
X4328987Y2024770D01*
X4348989Y2092891D01*
X4359500Y2166000D01*
X4359500Y2351612D01*
X4360419Y2366800D01*
X4369307Y2439998D01*
X4369307Y2440002D01*
X4360419Y2513199D01*
X4359500Y2528387D01*
X4359500Y3321048D01*
X4367688Y3365729D01*
X4370150Y3372220D01*
X4389307Y3529996D01*
X4389307Y3530003D01*
X4370150Y3687774D01*
X4370149Y3687774D01*
X4370149Y3687782D01*
X4367688Y3694268D01*
X4359500Y3738950D01*
X4359500Y3843994D01*
X4359499Y3844006D01*
X4357042Y3866863D01*
X4353570Y3899159D01*
X4342184Y3951501D01*
X4334834Y3978291D01*
X4284731Y4066278D01*
X4238238Y4119934D01*
X4204949Y4152056D01*
X4115230Y4198987D01*
X4100416Y4203336D01*
X4040692Y4241717D01*
X4011197Y4306297D01*
X4021299Y4376571D01*
X4067790Y4430228D01*
X4073551Y4433716D01*
X4076278Y4435269D01*
X4076281Y4435272D01*
X4076286Y4435275D01*
X4129923Y4481752D01*
X4129941Y4481769D01*
X4162055Y4515049D01*
X4162055Y4515050D01*
X4177170Y4543944D01*
X4208987Y4604770D01*
X4228989Y4672891D01*
X4239500Y4746000D01*
X4239500Y5073263D01*
X4235249Y5120040D01*
X4227061Y5164720D01*
X4214448Y5209964D01*
X4199083Y5250475D01*
X4191816Y5279956D01*
X4183941Y5344823D01*
X4183941Y5375182D01*
X4191815Y5440040D01*
X4199082Y5469521D01*
X4214447Y5510032D01*
X4214448Y5510036D01*
X4215226Y5512087D01*
X4258085Y5568687D01*
X4312964Y5591795D01*
X4417404Y5608648D01*
X4575713Y5674222D01*
X4714631Y5774537D01*
X4826669Y5904181D01*
X4874562Y5993002D01*
X5379646Y7212383D01*
X4376313Y7627977D01*
X4321032Y7672525D01*
X4298611Y7739889D01*
X4308122Y7792604D01*
X4406089Y8029117D01*
X4450637Y8084398D01*
X4518001Y8106819D01*
X4570716Y8097308D01*
X5574049Y7681714D01*
X6062241Y8860312D01*
X6106789Y8915593D01*
X6174153Y8938014D01*
X6178650Y8938094D01*
X6224914Y8938094D01*
X6227280Y8938072D01*
X6257604Y8937502D01*
X6273591Y8937202D01*
X6273805Y8937198D01*
X6274806Y8937397D01*
X6277118Y8937834D01*
X6278109Y8938011D01*
X6299797Y8946995D01*
X6321116Y8955825D01*
X6323259Y8956689D01*
X6366560Y8973679D01*
X6367413Y8974250D01*
X6369408Y8975556D01*
X6370229Y8976082D01*
X6403146Y9009000D01*
X6404839Y9010661D01*
X6438291Y9042877D01*
X6438870Y9043744D01*
X6440201Y9045696D01*
X6440764Y9046505D01*
X6458582Y9089522D01*
X6459509Y9091701D01*
X7350819Y11134083D01*
X7377203Y11172778D01*
X7601962Y11397545D01*
X9881499Y13677169D01*
X9943810Y13711195D01*
X10014626Y13706132D01*
X10045654Y13689279D01*
X10779713Y13144864D01*
X10789271Y13137020D01*
X12016228Y12024972D01*
X12024972Y12016228D01*
X13137020Y10789271D01*
X13144864Y10779713D01*
X13450778Y10367235D01*
X13474655Y10307364D01*
X13489849Y10182220D01*
X13546212Y10033607D01*
X13546215Y10033601D01*
X13636501Y9902800D01*
X13755469Y9797402D01*
X13755474Y9797398D01*
X13896206Y9723536D01*
X13903335Y9720833D01*
X13902373Y9718299D01*
X13952657Y9689015D01*
X13962344Y9677467D01*
X14106131Y9483593D01*
X14108624Y9480110D01*
X14145286Y9426995D01*
X14149663Y9420197D01*
X14989478Y8019054D01*
X14995307Y8008149D01*
X15678291Y6564100D01*
X15689334Y6493968D01*
X15660708Y6428998D01*
X15608937Y6392367D01*
X13170115Y5470565D01*
X13099324Y5465192D01*
X13083963Y5469496D01*
X12938954Y5520237D01*
X12770000Y5539274D01*
X12601046Y5520237D01*
X12440563Y5464082D01*
X12406063Y5442404D01*
X12296600Y5373624D01*
X12296597Y5373622D01*
X12176377Y5253402D01*
X12176375Y5253399D01*
X12085919Y5109439D01*
X12085918Y5109437D01*
X12029763Y4948954D01*
X12010726Y4780000D01*
X12029763Y4611046D01*
X12029763Y4611043D01*
X12029764Y4611043D01*
X12085918Y4450562D01*
X12085919Y4450560D01*
X12176375Y4306600D01*
X12176377Y4306597D01*
X12296597Y4186377D01*
X12296600Y4186375D01*
X12440560Y4095919D01*
X12440562Y4095918D01*
X12536418Y4062377D01*
X12601046Y4039763D01*
X12770000Y4020726D01*
X12938954Y4039763D01*
X13099437Y4095918D01*
X13099439Y4095919D01*
X13243399Y4186375D01*
X13243402Y4186377D01*
X13363624Y4306599D01*
X13454079Y4450558D01*
X13454080Y4450560D01*
X13454082Y4450563D01*
X13454292Y4451163D01*
X13454531Y4451496D01*
X13457154Y4456943D01*
X13458107Y4456483D01*
X13495663Y4508859D01*
X13528675Y4527421D01*
X14590686Y4928829D01*
X15950089Y5442642D01*
X16020882Y5448016D01*
X16083342Y5414264D01*
X16113271Y5367228D01*
X16265900Y4940662D01*
X16269490Y4928829D01*
X16671845Y3322537D01*
X16674257Y3310410D01*
X16917231Y1672414D01*
X16918443Y1660109D01*
X16999696Y6183D01*
X16999696Y-6183D01*
X16940277Y-1215683D01*
X16916957Y-1282740D01*
X16861084Y-1326544D01*
X16814429Y-1335500D01*
X10292519Y-1335500D01*
X10206978Y-1358420D01*
X10164207Y-1369881D01*
X10122098Y-1394192D01*
X10049169Y-1436297D01*
X9840197Y-1645270D01*
X9451870Y-2033596D01*
X9389560Y-2067620D01*
X9362777Y-2070500D01*
X8175993Y-2070500D01*
X8120838Y-2076430D01*
X8068516Y-2087812D01*
X8068510Y-2087813D01*
X8068499Y-2087816D01*
X8055707Y-2091325D01*
X8041710Y-2095165D01*
X8041709Y-2095166D01*
X7993530Y-2122601D01*
X7953720Y-2145270D01*
X7953713Y-2145275D01*
X7900076Y-2191752D01*
X7900058Y-2191769D01*
X7867944Y-2225049D01*
X7867944Y-2225050D01*
X7821014Y-2314767D01*
X7821013Y-2314770D01*
X7801011Y-2382891D01*
X7795941Y-2418158D01*
X7790500Y-2456002D01*
X7790500Y-4004006D01*
X7796430Y-4059161D01*
X7807708Y-4111005D01*
X7807816Y-4111501D01*
X7815166Y-4138291D01*
X7849460Y-4198516D01*
X7865270Y-4226279D01*
X7865275Y-4226286D01*
X7909866Y-4277746D01*
X7911762Y-4279934D01*
X7945051Y-4312056D01*
X8034770Y-4358987D01*
X8102891Y-4378989D01*
X8176000Y-4389500D01*
X8724454Y-4389500D01*
X8792575Y-4409502D01*
X8839068Y-4463158D01*
X8849172Y-4533432D01*
X8837245Y-4571661D01*
X8808570Y-4629249D01*
X8771722Y-4703250D01*
X8715705Y-4900129D01*
X8696819Y-5103944D01*
X8696819Y-5103953D01*
X8715705Y-5307768D01*
X8764421Y-5478987D01*
X8771723Y-5504650D01*
X8862963Y-5687884D01*
X8862964Y-5687885D01*
X8986317Y-5851233D01*
X9137587Y-5989134D01*
X9311617Y-6096889D01*
X9311619Y-6096889D01*
X9311624Y-6096893D01*
X9502495Y-6170837D01*
X9703704Y-6208449D01*
X9703706Y-6208449D01*
X9908396Y-6208449D01*
X9908398Y-6208449D01*
X10109607Y-6170837D01*
X10300478Y-6096893D01*
X10474513Y-5989135D01*
X10625783Y-5851234D01*
X10749139Y-5687884D01*
X10840379Y-5504650D01*
X10896396Y-5307770D01*
X10904648Y-5218720D01*
X10915283Y-5103953D01*
X10915283Y-5103944D01*
X10896396Y-4900129D01*
X10896396Y-4900128D01*
X10840379Y-4703248D01*
X10838334Y-4699142D01*
X10825875Y-4629249D01*
X10853181Y-4563714D01*
X10911583Y-4523344D01*
X10982540Y-4520958D01*
X11011095Y-4532165D01*
X11054734Y-4555781D01*
X11267585Y-4628853D01*
X11267592Y-4628855D01*
X11489579Y-4665898D01*
X11714625Y-4665898D01*
X11936611Y-4628855D01*
X11936618Y-4628853D01*
X12149471Y-4555781D01*
X12149473Y-4555779D01*
X12347400Y-4448667D01*
X12367790Y-4432796D01*
X11727049Y-3792055D01*
X11795095Y-3773823D01*
X11909109Y-3707997D01*
X12002201Y-3614905D01*
X12068027Y-3500891D01*
X12086259Y-3432845D01*
X12725178Y-4071764D01*
X12725179Y-4071764D01*
X12800521Y-3956446D01*
X12890922Y-3750354D01*
X12890925Y-3750347D01*
X12946169Y-3532190D01*
X12964755Y-3307898D01*
X12946169Y-3083605D01*
X12890925Y-2865448D01*
X12890922Y-2865441D01*
X12800521Y-2659349D01*
X12722165Y-2539416D01*
X12701652Y-2471447D01*
X12721141Y-2403178D01*
X12774446Y-2356283D01*
X12827648Y-2344500D01*
X16671468Y-2344500D01*
X16739589Y-2364502D01*
X16786082Y-2418158D01*
X16796186Y-2488432D01*
X16796104Y-2488988D01*
X16674257Y-3310407D01*
X16671845Y-3322535D01*
X16346617Y-4620916D01*
X16310662Y-4682135D01*
X16247318Y-4714197D01*
X16176695Y-4706923D01*
X16161393Y-4699419D01*
X16070223Y-4646782D01*
X16070218Y-4646779D01*
X16070212Y-4646776D01*
X15846100Y-4553946D01*
X15846097Y-4553945D01*
X15846095Y-4553944D01*
X15611782Y-4491160D01*
X15371290Y-4459500D01*
X15371288Y-4459500D01*
X15128712Y-4459500D01*
X15128709Y-4459500D01*
X14888217Y-4491160D01*
X14653904Y-4553944D01*
X14653900Y-4553946D01*
X14473054Y-4628855D01*
X14429786Y-4646777D01*
X14429775Y-4646782D01*
X14219714Y-4768061D01*
X14027262Y-4915735D01*
X14027251Y-4915744D01*
X13855744Y-5087251D01*
X13855735Y-5087262D01*
X13708061Y-5279714D01*
X13586782Y-5489775D01*
X13586777Y-5489786D01*
X13586776Y-5489788D01*
X13534776Y-5615328D01*
X13493946Y-5713900D01*
X13493944Y-5713904D01*
X13431160Y-5948217D01*
X13399500Y-6188709D01*
X13399500Y-6431290D01*
X13431160Y-6671782D01*
X13493944Y-6906095D01*
X13493945Y-6906097D01*
X13493946Y-6906100D01*
X13586776Y-7130212D01*
X13586777Y-7130213D01*
X13586782Y-7130224D01*
X13708061Y-7340285D01*
X13708063Y-7340288D01*
X13708064Y-7340289D01*
X13855735Y-7532738D01*
X13855739Y-7532742D01*
X13855744Y-7532748D01*
X14027251Y-7704255D01*
X14027256Y-7704259D01*
X14027262Y-7704265D01*
X14197520Y-7834908D01*
X14219714Y-7851938D01*
X14429775Y-7973217D01*
X14429779Y-7973218D01*
X14429788Y-7973224D01*
X14653900Y-8066054D01*
X14757442Y-8093798D01*
X14818063Y-8130749D01*
X14849084Y-8194609D01*
X14840656Y-8265104D01*
X14832903Y-8280281D01*
X14555976Y-8742307D01*
X14503799Y-8790453D01*
X14447593Y-8800763D01*
X14447593Y-8803500D01*
X14278594Y-8803500D01*
X14118918Y-8835262D01*
X14118913Y-8835264D01*
X13968505Y-8897565D01*
X13833137Y-8988015D01*
X13833131Y-8988020D01*
X13718020Y-9103131D01*
X13718015Y-9103137D01*
X13627565Y-9238505D01*
X13565264Y-9388913D01*
X13565262Y-9388918D01*
X13533500Y-9548594D01*
X13533500Y-9711405D01*
X13565262Y-9871081D01*
X13565264Y-9871087D01*
X13628786Y-10024444D01*
X13636375Y-10095034D01*
X13613581Y-10147720D01*
X13144864Y-10779713D01*
X13137020Y-10789271D01*
X12024972Y-12016228D01*
X12016228Y-12024972D01*
X10789271Y-13137020D01*
X10779713Y-13144864D01*
X10558601Y-13308851D01*
X10491971Y-13333365D01*
X10438866Y-13325460D01*
X10433799Y-13323538D01*
X10279472Y-13285500D01*
X10279471Y-13285500D01*
X10120529Y-13285500D01*
X10120527Y-13285500D01*
X9966209Y-13323536D01*
X9966202Y-13323539D01*
X9825474Y-13397398D01*
X9825469Y-13397402D01*
X9706501Y-13502800D01*
X9616215Y-13633601D01*
X9616212Y-13633607D01*
X9559850Y-13782220D01*
X9553418Y-13835188D01*
X9525350Y-13900401D01*
X9517433Y-13909094D01*
X9386300Y-14040228D01*
X9386295Y-14040234D01*
X9356226Y-14092319D01*
X9356225Y-14092321D01*
X9334330Y-14130243D01*
X9319876Y-14155278D01*
X9319294Y-14156684D01*
X9316306Y-14161461D01*
X9315752Y-14162422D01*
X9315718Y-14162402D01*
X9300691Y-14186433D01*
X9300830Y-14186529D01*
X9298720Y-14189584D01*
X9297216Y-14191991D01*
X9296507Y-14192791D01*
X9275501Y-14223222D01*
X9236584Y-14259717D01*
X8838150Y-14498529D01*
X8831931Y-14502021D01*
X8745470Y-14547401D01*
X8730908Y-14560302D01*
X8712134Y-14574061D01*
X8019054Y-14989478D01*
X8008149Y-14995307D01*
X6511213Y-15703305D01*
X6499789Y-15708037D01*
X4940662Y-16265901D01*
X4928829Y-16269490D01*
X4378156Y-16407423D01*
X4375000Y-16320000D01*
X4125000Y-16320000D01*
X4121733Y-16410461D01*
X4113903Y-16473616D01*
X4113902Y-16473617D01*
X4113903Y-16473617D01*
X3322534Y-16671845D01*
X3310407Y-16674257D01*
X1672414Y-16917231D01*
X1660109Y-16918443D01*
X6183Y-16999696D01*
X-6183Y-16999696D01*
X-1660109Y-16918443D01*
X-1672414Y-16917231D01*
X-3310410Y-16674257D01*
X-3322537Y-16671845D01*
X-4616503Y-16347724D01*
X-4677723Y-16311769D01*
X-4709785Y-16248425D01*
X-4702511Y-16177802D01*
X-4658210Y-16122323D01*
X-4590947Y-16099602D01*
X-4585888Y-16099500D01*
X-4530001Y-16099500D01*
X-4530000Y-16099500D01*
X-4529997Y-16099499D01*
X-4529994Y-16099499D01*
X-4505848Y-16094696D01*
X-4430694Y-16079747D01*
X-4430692Y-16079746D01*
X-4409502Y-16065587D01*
X-4346506Y-16023494D01*
X-4318379Y-15981400D01*
X-4290253Y-15939307D01*
X-4270500Y-15840005D01*
X-4270500Y-14039994D01*
X-4290253Y-13940692D01*
X-4346506Y-13856506D01*
X-4430692Y-13800253D01*
X-4529994Y-13780500D01*
X-4530000Y-13780500D01*
X-6320000Y-13780500D01*
X-6320005Y-13780500D01*
X-6419307Y-13800253D01*
X-6461400Y-13828379D01*
X-6503494Y-13856506D01*
X-6532824Y-13900401D01*
X-6559283Y-13940000D01*
X-6559747Y-13940694D01*
X-6574696Y-14015848D01*
X-6579499Y-14039994D01*
X-6579500Y-14040001D01*
X-6579500Y-14659500D01*
X-6599502Y-14727621D01*
X-6653158Y-14774114D01*
X-6705500Y-14785500D01*
X-6836419Y-14785500D01*
X-6905179Y-14803924D01*
X-6964728Y-14819880D01*
X-6964729Y-14819880D01*
X-6964730Y-14819881D01*
X-7002609Y-14841751D01*
X-7002610Y-14841751D01*
X-7030852Y-14858057D01*
X-7079770Y-14886299D01*
X-7389127Y-15195656D01*
X-7451438Y-15229680D01*
X-7522253Y-15224616D01*
X-7532093Y-15220463D01*
X-8008149Y-14995306D01*
X-8019054Y-14989477D01*
X-9439386Y-14138163D01*
X-9449667Y-14131293D01*
X-10779713Y-13144864D01*
X-10789271Y-13137020D01*
X-12016228Y-12024972D01*
X-12024972Y-12016228D01*
X-13137020Y-10789271D01*
X-13144864Y-10779713D01*
X-13185683Y-10724675D01*
X-13210197Y-10658045D01*
X-13194796Y-10588739D01*
X-13173574Y-10560522D01*
X-10586275Y-7973224D01*
X-7604299Y-4991248D01*
X-7541987Y-4957222D01*
X-7515204Y-4954343D01*
X-6583974Y-4954343D01*
X-6515853Y-4974345D01*
X-6494879Y-4991248D01*
X-4313762Y-7172364D01*
X-4313755Y-7172374D01*
X-4303388Y-7182741D01*
X-4232731Y-7253398D01*
X-4146194Y-7303360D01*
X-4132191Y-7307112D01*
X-4049674Y-7329223D01*
X-4049673Y-7329223D01*
X-3942032Y-7329223D01*
X-3942016Y-7329222D01*
X-3655503Y-7329222D01*
X-3587382Y-7349224D01*
X-3540889Y-7402880D01*
X-3529503Y-7455222D01*
X-3529503Y-7824785D01*
X-3529502Y-7824794D01*
X-3527490Y-7834908D01*
X-3514738Y-7899023D01*
X-3458488Y-7983206D01*
X-3374305Y-8039456D01*
X-3300071Y-8054222D01*
X-1549938Y-8054221D01*
X-1549935Y-8054220D01*
X-1549930Y-8054220D01*
X-1475703Y-8039456D01*
X-1441509Y-8016608D01*
X-1391520Y-7983206D01*
X-1384850Y-7973224D01*
X-1335270Y-7899024D01*
X-1320504Y-7824791D01*
X-1320504Y-6949717D01*
X-994236Y-6949717D01*
X-994236Y-6949726D01*
X-983810Y-7062234D01*
X-975349Y-7153543D01*
X-919332Y-7350423D01*
X-828092Y-7533657D01*
X-704736Y-7697007D01*
X-553466Y-7834908D01*
X-379431Y-7942666D01*
X-188560Y-8016610D01*
X12649Y-8054222D01*
X12651Y-8054222D01*
X217341Y-8054222D01*
X217343Y-8054222D01*
X418552Y-8016610D01*
X609423Y-7942666D01*
X783458Y-7834908D01*
X934728Y-7697007D01*
X1058084Y-7533657D01*
X1134994Y-7379200D01*
X1183261Y-7327140D01*
X1252015Y-7309437D01*
X1319426Y-7331716D01*
X1364090Y-7386903D01*
X1365559Y-7390774D01*
X1456576Y-7598270D01*
X1579670Y-7786680D01*
X1732093Y-7952256D01*
X1909694Y-8090489D01*
X1909695Y-8090490D01*
X2107624Y-8197604D01*
X2107626Y-8197605D01*
X2320479Y-8270677D01*
X2320488Y-8270679D01*
X2400996Y-8284113D01*
X2400996Y-7380424D01*
X2462003Y-7415647D01*
X2589170Y-7449722D01*
X2720822Y-7449722D01*
X2847989Y-7415647D01*
X2908996Y-7380424D01*
X2908996Y-8284112D01*
X2989503Y-8270679D01*
X2989512Y-8270677D01*
X3202365Y-8197605D01*
X3202367Y-8197604D01*
X3400296Y-8090490D01*
X3400297Y-8090489D01*
X3577898Y-7952256D01*
X3730321Y-7786680D01*
X3853415Y-7598270D01*
X3943816Y-7392178D01*
X3943819Y-7392171D01*
X3991540Y-7203722D01*
X3085699Y-7203722D01*
X3120921Y-7142715D01*
X3154996Y-7015548D01*
X3154996Y-6899999D01*
X6548433Y-6899999D01*
X6548433Y-6900000D01*
X6568184Y-6999300D01*
X6610235Y-7062234D01*
X6610238Y-7062238D01*
X7847760Y-8299759D01*
X7847763Y-8299761D01*
X7847766Y-8299764D01*
X7847769Y-8299766D01*
X7910697Y-8341814D01*
X7910699Y-8341815D01*
X8010000Y-8361567D01*
X8109301Y-8341815D01*
X8172234Y-8299765D01*
X9409764Y-7062234D01*
X9451815Y-6999301D01*
X9471567Y-6900000D01*
X9451815Y-6800699D01*
X9409765Y-6737766D01*
X9409764Y-6737765D01*
X9409761Y-6737761D01*
X8172239Y-5500240D01*
X8172230Y-5500233D01*
X8109302Y-5458185D01*
X8010000Y-5438433D01*
X7910699Y-5458184D01*
X7847765Y-5500235D01*
X7847761Y-5500238D01*
X6610240Y-6737760D01*
X6610233Y-6737769D01*
X6568185Y-6800697D01*
X6548433Y-6899999D01*
X3154996Y-6899999D01*
X3154996Y-6883896D01*
X3120921Y-6756729D01*
X3085699Y-6695722D01*
X3991540Y-6695722D01*
X3991540Y-6695721D01*
X3943819Y-6507272D01*
X3943816Y-6507265D01*
X3853415Y-6301173D01*
X3730321Y-6112763D01*
X3577898Y-5947187D01*
X3400297Y-5808954D01*
X3400296Y-5808953D01*
X3202367Y-5701839D01*
X3202365Y-5701838D01*
X2989508Y-5628765D01*
X2989497Y-5628762D01*
X2908996Y-5615328D01*
X2908996Y-6519019D01*
X2847989Y-6483797D01*
X2720822Y-6449722D01*
X2589170Y-6449722D01*
X2462003Y-6483797D01*
X2400996Y-6519019D01*
X2400996Y-5615329D01*
X2400995Y-5615328D01*
X2320494Y-5628762D01*
X2320483Y-5628765D01*
X2107626Y-5701838D01*
X2107624Y-5701839D01*
X1909695Y-5808953D01*
X1909694Y-5808954D01*
X1732093Y-5947187D01*
X1579670Y-6112763D01*
X1456576Y-6301173D01*
X1364080Y-6512042D01*
X1362468Y-6511334D01*
X1325899Y-6562940D01*
X1260049Y-6589479D01*
X1190305Y-6576203D01*
X1138809Y-6527328D01*
X1135001Y-6520257D01*
X1058084Y-6365787D01*
X991956Y-6278219D01*
X934729Y-6202437D01*
X783459Y-6064536D01*
X609429Y-5956781D01*
X609424Y-5956779D01*
X609423Y-5956778D01*
X540495Y-5930075D01*
X418555Y-5882835D01*
X418556Y-5882835D01*
X418553Y-5882834D01*
X418552Y-5882834D01*
X217343Y-5845222D01*
X12649Y-5845222D01*
X-188560Y-5882834D01*
X-188561Y-5882834D01*
X-188564Y-5882835D01*
X-310503Y-5930075D01*
X-379431Y-5956778D01*
X-379432Y-5956779D01*
X-379437Y-5956781D01*
X-553467Y-6064536D01*
X-704737Y-6202437D01*
X-761964Y-6278219D01*
X-828092Y-6365787D01*
X-919332Y-6549021D01*
X-973033Y-6737761D01*
X-975349Y-6745902D01*
X-994236Y-6949717D01*
X-1320504Y-6949717D01*
X-1320504Y-6074658D01*
X-1320505Y-6074648D01*
X-1335269Y-6000421D01*
X-1391520Y-5916237D01*
X-1475701Y-5859988D01*
X-1549936Y-5845222D01*
X-3300067Y-5845222D01*
X-3300077Y-5845223D01*
X-3374304Y-5859987D01*
X-3458488Y-5916238D01*
X-3510500Y-5994079D01*
X-3514738Y-6000421D01*
X-3529503Y-6074652D01*
X-3529504Y-6074656D01*
X-3529504Y-6444222D01*
X-3549506Y-6512343D01*
X-3603162Y-6558836D01*
X-3655504Y-6570222D01*
X-3790328Y-6570222D01*
X-3858449Y-6550220D01*
X-3879423Y-6533317D01*
X-5958185Y-4454553D01*
X-5992211Y-4392241D01*
X-5995090Y-4365458D01*
X-5995090Y-3074780D01*
X-5995091Y-3074770D01*
X-6009855Y-3000543D01*
X-6066106Y-2916359D01*
X-6150287Y-2860110D01*
X-6224522Y-2845344D01*
X-7874653Y-2845344D01*
X-7874663Y-2845345D01*
X-7948890Y-2860109D01*
X-7956880Y-2865448D01*
X-8033074Y-2916360D01*
X-8089324Y-3000543D01*
X-8104090Y-3074777D01*
X-8104089Y-3750347D01*
X-8104089Y-4365458D01*
X-8124091Y-4433579D01*
X-8140994Y-4454553D01*
X-10839983Y-7153543D01*
X-13511453Y-9825013D01*
X-13573765Y-9859039D01*
X-13644580Y-9853974D01*
X-13684101Y-9830231D01*
X-13731572Y-9788175D01*
X-13731577Y-9788171D01*
X-13872305Y-9714312D01*
X-13872311Y-9714309D01*
X-13905015Y-9706249D01*
X-13966369Y-9670525D01*
X-13976065Y-9658968D01*
X-14131293Y-9449667D01*
X-14138163Y-9439386D01*
X-14989477Y-8019054D01*
X-14995306Y-8008149D01*
X-15703305Y-6511214D01*
X-15708037Y-6499790D01*
X-15974199Y-5755913D01*
X-15978315Y-5685036D01*
X-15943459Y-5623185D01*
X-15890707Y-5592465D01*
X-15366680Y-5440266D01*
X-15295686Y-5440475D01*
X-15273143Y-5449616D01*
X-15255230Y-5458987D01*
X-15187109Y-5478989D01*
X-15114000Y-5489500D01*
X-15113997Y-5489500D01*
X-13576006Y-5489500D01*
X-13576000Y-5489500D01*
X-13520841Y-5483570D01*
X-13468499Y-5472184D01*
X-13441709Y-5464834D01*
X-13353722Y-5414731D01*
X-13353718Y-5414727D01*
X-13353713Y-5414724D01*
X-13300076Y-5368247D01*
X-13300058Y-5368230D01*
X-13267944Y-5334950D01*
X-13267944Y-5334949D01*
X-13221014Y-5245232D01*
X-13221013Y-5245229D01*
X-13201012Y-5177111D01*
X-13201011Y-5177109D01*
X-13190500Y-5104000D01*
X-13190500Y-4306000D01*
X-13190500Y-4305993D01*
X-13196430Y-4250838D01*
X-13207812Y-4198516D01*
X-13207813Y-4198510D01*
X-13207816Y-4198499D01*
X-13211325Y-4185707D01*
X-13215165Y-4171710D01*
X-13265270Y-4083720D01*
X-13265275Y-4083713D01*
X-13311752Y-4030076D01*
X-13311769Y-4030058D01*
X-13345050Y-3997944D01*
X-13434767Y-3951014D01*
X-13434770Y-3951013D01*
X-13443509Y-3948447D01*
X-13502891Y-3931011D01*
X-13576000Y-3920500D01*
X-15114000Y-3920500D01*
X-15114006Y-3920500D01*
X-15169161Y-3926430D01*
X-15221483Y-3937812D01*
X-15221501Y-3937816D01*
X-15239584Y-3942777D01*
X-15248289Y-3945165D01*
X-15248291Y-3945166D01*
X-15336278Y-3995269D01*
X-15336279Y-3995270D01*
X-15336286Y-3995275D01*
X-15389923Y-4041752D01*
X-15389941Y-4041769D01*
X-15422055Y-4075049D01*
X-15422056Y-4075051D01*
X-15468987Y-4164770D01*
X-15488989Y-4232891D01*
X-15499499Y-4305993D01*
X-15499500Y-4306002D01*
X-15499500Y-4333534D01*
X-15519502Y-4401655D01*
X-15573158Y-4448148D01*
X-15590357Y-4454534D01*
X-16208589Y-4634094D01*
X-16279585Y-4633885D01*
X-16339198Y-4595327D01*
X-16365956Y-4543710D01*
X-16527237Y-3899840D01*
X-11309192Y-3899840D01*
X-11309192Y-3899847D01*
X-11291083Y-4083713D01*
X-11288832Y-4106562D01*
X-11228535Y-4305336D01*
X-11146132Y-4459500D01*
X-11130615Y-4488530D01*
X-11042969Y-4595327D01*
X-10998842Y-4649096D01*
X-10838276Y-4780868D01*
X-10838276Y-4780869D01*
X-10838274Y-4780869D01*
X-10838273Y-4780871D01*
X-10655082Y-4878789D01*
X-10456308Y-4939086D01*
X-10456302Y-4939086D01*
X-10456301Y-4939087D01*
X-10249593Y-4959446D01*
X-10249590Y-4959446D01*
X-10249587Y-4959446D01*
X-10042878Y-4939087D01*
X-10042876Y-4939086D01*
X-10042872Y-4939086D01*
X-9844098Y-4878789D01*
X-9660907Y-4780871D01*
X-9660903Y-4780869D01*
X-9660903Y-4780868D01*
X-9500337Y-4649096D01*
X-9368565Y-4488530D01*
X-9368564Y-4488530D01*
X-9270645Y-4305336D01*
X-9246666Y-4226286D01*
X-9210348Y-4106562D01*
X-9210347Y-4106561D01*
X-9210346Y-4106555D01*
X-9189988Y-3899847D01*
X-9189988Y-3899840D01*
X-9210346Y-3693132D01*
X-9270645Y-3494351D01*
X-9368564Y-3311157D01*
X-9500337Y-3150591D01*
X-9660903Y-3018819D01*
X-9660903Y-3018818D01*
X-9844097Y-2920899D01*
X-10042878Y-2860600D01*
X-10249587Y-2840242D01*
X-10249593Y-2840242D01*
X-10456301Y-2860600D01*
X-10456307Y-2860601D01*
X-10456308Y-2860602D01*
X-10640119Y-2916360D01*
X-10655082Y-2920899D01*
X-10838276Y-3018818D01*
X-10838276Y-3018819D01*
X-10998842Y-3150591D01*
X-11130614Y-3311157D01*
X-11130615Y-3311157D01*
X-11130617Y-3311161D01*
X-11228535Y-3494352D01*
X-11288832Y-3693126D01*
X-11288832Y-3693130D01*
X-11288833Y-3693132D01*
X-11309192Y-3899840D01*
X-16527237Y-3899840D01*
X-16671845Y-3322535D01*
X-16674257Y-3310407D01*
X-16917231Y-1672414D01*
X-16918443Y-1660109D01*
X-16999696Y-6183D01*
X-16999696Y6183D01*
X-16918443Y1660109D01*
X-16917231Y1672414D01*
X-16800771Y2457516D01*
X-16770990Y2521965D01*
X-16724353Y2555437D01*
X-16598505Y2607565D01*
X-16463137Y2698015D01*
X-16463131Y2698020D01*
X-16348020Y2813131D01*
X-16348015Y2813137D01*
X-16257565Y2948505D01*
X-16195264Y3098913D01*
X-16195262Y3098918D01*
X-16163500Y3258594D01*
X-16163500Y3421405D01*
X-16195262Y3581081D01*
X-16195264Y3581086D01*
X-16223793Y3649961D01*
X-16257565Y3731495D01*
X-16348016Y3866863D01*
X-16447472Y3966319D01*
X-16481496Y4028629D01*
X-16480600Y4086029D01*
X-16350069Y4607135D01*
X-16314114Y4668354D01*
X-16250770Y4700416D01*
X-16180147Y4693142D01*
X-16164845Y4685638D01*
X-16080224Y4636782D01*
X-16080216Y4636778D01*
X-16080212Y4636776D01*
X-15856100Y4543946D01*
X-15856097Y4543945D01*
X-15856095Y4543944D01*
X-15621782Y4481160D01*
X-15381290Y4449500D01*
X-15381288Y4449500D01*
X-15138709Y4449500D01*
X-14898217Y4481160D01*
X-14663904Y4543944D01*
X-14663900Y4543946D01*
X-14554753Y4589156D01*
X-14554736Y4589163D01*
X-9118691Y4589163D01*
X-9118691Y4589156D01*
X-9099534Y4431380D01*
X-9099533Y4431378D01*
X-9043171Y4282765D01*
X-9043168Y4282761D01*
X-8952883Y4151960D01*
X-8952880Y4151957D01*
X-8881330Y4088568D01*
X-8843605Y4028423D01*
X-8838884Y3994256D01*
X-8838884Y579509D01*
X-8838885Y579496D01*
X-8838885Y569346D01*
X-8838885Y469422D01*
X-8828388Y430249D01*
X-8828388Y430246D01*
X-8813021Y372900D01*
X-8763062Y286368D01*
X-8763054Y286358D01*
X-8688014Y211318D01*
X-8687991Y211297D01*
X-6674050Y-1802642D01*
X-6674043Y-1802652D01*
X-6663676Y-1813019D01*
X-6593019Y-1883676D01*
X-6588304Y-1886398D01*
X-6506486Y-1933636D01*
X-6506485Y-1933636D01*
X-6506482Y-1933638D01*
X-6409962Y-1959500D01*
X-2899456Y-1959500D01*
X-2831335Y-1979502D01*
X-2795759Y-2013924D01*
X-2793498Y-2017201D01*
X-2674529Y-2122599D01*
X-2533793Y-2196463D01*
X-2379471Y-2234500D01*
X-2379470Y-2234500D01*
X-2220530Y-2234500D01*
X-2220529Y-2234500D01*
X-2066207Y-2196463D01*
X-1968665Y-2145269D01*
X-1925474Y-2122601D01*
X-1925472Y-2122599D01*
X-1925471Y-2122599D01*
X-1806502Y-2017201D01*
X-1716213Y-1886395D01*
X-1688385Y-1813019D01*
X-1659849Y-1737779D01*
X-1640693Y-1580003D01*
X-1640693Y-1579996D01*
X-1659849Y-1422220D01*
X-1716212Y-1273607D01*
X-1716215Y-1273601D01*
X-1806501Y-1142800D01*
X-1925469Y-1037402D01*
X-1925474Y-1037398D01*
X-2066202Y-963539D01*
X-2066209Y-963536D01*
X-2220527Y-925500D01*
X-2220529Y-925500D01*
X-2379471Y-925500D01*
X-2379472Y-925500D01*
X-2533790Y-963536D01*
X-2533791Y-963536D01*
X-2533793Y-963537D01*
X-2533795Y-963538D01*
X-2533797Y-963539D01*
X-2674525Y-1037398D01*
X-2674528Y-1037400D01*
X-2674529Y-1037401D01*
X-2793498Y-1142799D01*
X-2795759Y-1146075D01*
X-2798031Y-1147916D01*
X-2798551Y-1148503D01*
X-2798648Y-1148416D01*
X-2850917Y-1190775D01*
X-2899456Y-1200500D01*
X-6150616Y-1200500D01*
X-6218737Y-1180498D01*
X-6239711Y-1163595D01*
X-8042979Y639673D01*
X-8077005Y701985D01*
X-8079884Y728768D01*
X-8079884Y2301375D01*
X-7037857Y2301375D01*
X-7037856Y2301363D01*
X-7031351Y2240867D01*
X-6980301Y2103996D01*
X-6980301Y2103995D01*
X-6892761Y1987056D01*
X-6775822Y1899516D01*
X-6638950Y1848466D01*
X-6578454Y1841961D01*
X-6363857Y1841961D01*
X-6363857Y2500407D01*
X-6483302Y2619852D01*
X-6209857Y2619852D01*
X-6209857Y2580070D01*
X-6194633Y2543316D01*
X-6166502Y2515185D01*
X-6129748Y2499961D01*
X-6089966Y2499961D01*
X-6088889Y2500407D01*
X-5855857Y2500407D01*
X-5855857Y1841961D01*
X-5641259Y1841961D01*
X-5580763Y1848466D01*
X-5443892Y1899516D01*
X-5443891Y1899516D01*
X-5326952Y1987056D01*
X-5239412Y2103995D01*
X-5239412Y2103996D01*
X-5188362Y2240867D01*
X-5181857Y2301363D01*
X-5181857Y3295961D01*
X-5502303Y3295961D01*
X-5455783Y3249441D01*
X-5421758Y3187129D01*
X-5426822Y3116313D01*
X-5452071Y3077023D01*
X-5452071Y3071876D01*
X-5421756Y3016360D01*
X-5426821Y2945545D01*
X-5455782Y2900481D01*
X-5855857Y2500407D01*
X-6088889Y2500407D01*
X-6053212Y2515185D01*
X-6025081Y2543316D01*
X-6009857Y2580070D01*
X-6009857Y2619852D01*
X-6025081Y2656606D01*
X-6053212Y2684737D01*
X-6089966Y2699961D01*
X-6129748Y2699961D01*
X-6166502Y2684737D01*
X-6194633Y2656606D01*
X-6209857Y2619852D01*
X-6483302Y2619852D01*
X-6763930Y2900480D01*
X-6797955Y2962793D01*
X-6792891Y3033608D01*
X-6767642Y3072897D01*
X-6767642Y3078047D01*
X-6797956Y3133562D01*
X-6792891Y3204377D01*
X-6763930Y3249440D01*
X-6717409Y3295960D01*
X-6717410Y3295961D01*
X-7037857Y3295961D01*
X-7037857Y2301375D01*
X-8079884Y2301375D01*
X-8079884Y3569852D01*
X-6209857Y3569852D01*
X-6209857Y3530070D01*
X-6194633Y3493316D01*
X-6166502Y3465185D01*
X-6129748Y3449961D01*
X-6089966Y3449961D01*
X-6053212Y3465185D01*
X-6025081Y3493316D01*
X-6009857Y3530070D01*
X-6009857Y3569852D01*
X-6025081Y3606606D01*
X-6053212Y3634737D01*
X-6089966Y3649961D01*
X-6129748Y3649961D01*
X-6166502Y3634737D01*
X-6194633Y3606606D01*
X-6209857Y3569852D01*
X-8079884Y3569852D01*
X-8079884Y3994256D01*
X-8059882Y4062377D01*
X-8037438Y4088568D01*
X-7965887Y4151957D01*
X-7965884Y4151960D01*
X-7875599Y4282761D01*
X-7875596Y4282767D01*
X-7819233Y4431380D01*
X-7800077Y4589156D01*
X-7800077Y4589163D01*
X-7819233Y4746939D01*
X-7838805Y4798546D01*
X-7037857Y4798546D01*
X-7037857Y3803961D01*
X-6717411Y3803961D01*
X-6763930Y3850480D01*
X-6797955Y3912792D01*
X-6792891Y3983608D01*
X-6767642Y4022897D01*
X-6767642Y4028047D01*
X-6797956Y4083562D01*
X-6792891Y4154377D01*
X-6763930Y4199440D01*
X-6443517Y4519852D01*
X-6209857Y4519852D01*
X-6209857Y4480070D01*
X-6194633Y4443316D01*
X-6166502Y4415185D01*
X-6129748Y4399961D01*
X-6089966Y4399961D01*
X-6053212Y4415185D01*
X-6025081Y4443316D01*
X-6009857Y4480070D01*
X-6009857Y4519852D01*
X-6025081Y4556606D01*
X-6053212Y4584737D01*
X-6088887Y4599514D01*
X-5855857Y4599514D01*
X-5455783Y4199441D01*
X-5421758Y4137128D01*
X-5426822Y4066313D01*
X-5452071Y4027023D01*
X-5452071Y4021876D01*
X-5421756Y3966360D01*
X-5426821Y3895545D01*
X-5455782Y3850481D01*
X-5502303Y3803961D01*
X-5181857Y3803961D01*
X-5181857Y4798558D01*
X-5188362Y4859054D01*
X-5239412Y4995925D01*
X-5239412Y4995926D01*
X-5326952Y5112865D01*
X-5443891Y5200405D01*
X-5580763Y5251455D01*
X-5641259Y5257960D01*
X-5641272Y5257961D01*
X-5855857Y5257961D01*
X-5855857Y4599514D01*
X-6088887Y4599514D01*
X-6089966Y4599961D01*
X-6129748Y4599961D01*
X-6166502Y4584737D01*
X-6194633Y4556606D01*
X-6209857Y4519852D01*
X-6443517Y4519852D01*
X-6363857Y4599512D01*
X-6363857Y5257961D01*
X-6578442Y5257961D01*
X-6578454Y5257960D01*
X-6638950Y5251455D01*
X-6775821Y5200405D01*
X-6775822Y5200405D01*
X-6892761Y5112865D01*
X-6980301Y4995926D01*
X-6980301Y4995925D01*
X-7031351Y4859054D01*
X-7037856Y4798558D01*
X-7037857Y4798546D01*
X-7838805Y4798546D01*
X-7875596Y4895552D01*
X-7875597Y4895555D01*
X-7965886Y5026361D01*
X-8084855Y5131759D01*
X-8084856Y5131759D01*
X-8084858Y5131761D01*
X-8172720Y5177874D01*
X-8225591Y5205623D01*
X-8379913Y5243660D01*
X-8538855Y5243660D01*
X-8693177Y5205623D01*
X-8833913Y5131759D01*
X-8952882Y5026361D01*
X-9043171Y4895555D01*
X-9095315Y4758064D01*
X-9099534Y4746939D01*
X-9118691Y4589163D01*
X-14554736Y4589163D01*
X-14439788Y4636776D01*
X-14439786Y4636777D01*
X-14439775Y4636782D01*
X-14229714Y4758061D01*
X-14214100Y4770042D01*
X-12420747Y4770042D01*
X-12297608Y4704223D01*
X-12107606Y4646585D01*
X-12107595Y4646583D01*
X-11910003Y4627123D01*
X-11909997Y4627123D01*
X-11712404Y4646583D01*
X-11712393Y4646585D01*
X-11522400Y4704219D01*
X-11522385Y4704225D01*
X-11399252Y4770041D01*
X-11399251Y4770042D01*
X-11909999Y5280790D01*
X-11910000Y5280790D01*
X-12420746Y4770042D01*
X-12420747Y4770042D01*
X-14214100Y4770042D01*
X-14037262Y4905735D01*
X-14037251Y4905744D01*
X-13865744Y5077251D01*
X-13865735Y5077262D01*
X-13718061Y5269714D01*
X-13596782Y5479775D01*
X-13596777Y5479786D01*
X-13596646Y5480101D01*
X-13530413Y5640003D01*
X-12922877Y5640003D01*
X-12922877Y5639996D01*
X-12903416Y5442404D01*
X-12903414Y5442393D01*
X-12845776Y5252391D01*
X-12779956Y5129252D01*
X-12269210Y5639999D01*
X-12269210Y5640001D01*
X-12318937Y5689728D01*
X-12160000Y5689728D01*
X-12160000Y5590272D01*
X-12121940Y5498386D01*
X-12051614Y5428060D01*
X-11959728Y5390000D01*
X-11860272Y5390000D01*
X-11768386Y5428060D01*
X-11698060Y5498386D01*
X-11660000Y5590272D01*
X-11660000Y5639999D01*
X-11550790Y5639999D01*
X-11040042Y5129251D01*
X-11040041Y5129252D01*
X-10974225Y5252385D01*
X-10974219Y5252400D01*
X-10916585Y5442393D01*
X-10916583Y5442404D01*
X-10897123Y5639996D01*
X-10897123Y5640003D01*
X-10916583Y5837595D01*
X-10916585Y5837606D01*
X-10974223Y6027608D01*
X-11040042Y6150746D01*
X-11550790Y5639999D01*
X-11660000Y5639999D01*
X-11660000Y5689728D01*
X-11698060Y5781614D01*
X-11768386Y5851940D01*
X-11860272Y5890000D01*
X-11959728Y5890000D01*
X-12051614Y5851940D01*
X-12121940Y5781614D01*
X-12160000Y5689728D01*
X-12318937Y5689728D01*
X-12779956Y6150747D01*
X-12845775Y6027612D01*
X-12845776Y6027608D01*
X-12903414Y5837606D01*
X-12903416Y5837595D01*
X-12922877Y5640003D01*
X-13530413Y5640003D01*
X-13503946Y5703900D01*
X-13503944Y5703904D01*
X-13441160Y5938217D01*
X-13409500Y6178709D01*
X-13409500Y6421290D01*
X-13421173Y6509956D01*
X-12420747Y6509956D01*
X-11910001Y5999210D01*
X-11910000Y5999210D01*
X-11399252Y6509956D01*
X-11522391Y6575776D01*
X-11712393Y6633414D01*
X-11712404Y6633416D01*
X-11909997Y6652877D01*
X-11910003Y6652877D01*
X-12107595Y6633416D01*
X-12107606Y6633414D01*
X-12297608Y6575776D01*
X-12297612Y6575775D01*
X-12420747Y6509956D01*
X-13421173Y6509956D01*
X-13441160Y6661782D01*
X-13503944Y6896095D01*
X-13503946Y6896099D01*
X-13503946Y6896100D01*
X-13596776Y7120212D01*
X-13596778Y7120216D01*
X-13596782Y7120224D01*
X-13718061Y7330285D01*
X-13780057Y7411080D01*
X-13865735Y7522738D01*
X-13865739Y7522742D01*
X-13865744Y7522748D01*
X-14037251Y7694255D01*
X-14037256Y7694259D01*
X-14037262Y7694265D01*
X-14229711Y7841936D01*
X-14229714Y7841938D01*
X-14439775Y7963217D01*
X-14439779Y7963218D01*
X-14439788Y7963224D01*
X-14663900Y8056054D01*
X-14763991Y8082873D01*
X-14824611Y8119823D01*
X-14855633Y8183684D01*
X-14847205Y8254178D01*
X-14839452Y8269356D01*
X-14138163Y9439386D01*
X-14131293Y9449667D01*
X-13144864Y10779713D01*
X-13137020Y10789271D01*
X-12024972Y12016228D01*
X-12016228Y12024972D01*
X-10789271Y13137020D01*
X-10779713Y13144864D01*
X-10340368Y13470704D01*
X-10273738Y13495218D01*
X-10265310Y13495500D01*
X-10130527Y13495500D01*
X-9976209Y13533536D01*
X-9976202Y13533539D01*
X-9835474Y13607398D01*
X-9835469Y13607402D01*
X-9731819Y13699229D01*
X-9716502Y13712799D01*
X-9716501Y13712800D01*
X-9626215Y13843601D01*
X-9626212Y13843607D01*
X-9569850Y13992221D01*
X-9569713Y13993351D01*
X-9569382Y13994118D01*
X-9568027Y13999618D01*
X-9567112Y13999392D01*
X-9541642Y14058562D01*
X-9519692Y14079358D01*
X-9449670Y14131291D01*
X-9439388Y14138162D01*
X-8019054Y14989477D01*
X-8008149Y14995306D01*
X-6511214Y15703305D01*
X-6499790Y15708037D01*
X-5382948Y16107648D01*
X-5312071Y16111764D01*
X-5250220Y16076908D01*
X-5217032Y16014145D01*
X-5214500Y15989013D01*
X-5214500Y15328474D01*
X-5234502Y15260353D01*
X-5257986Y15233250D01*
X-5309934Y15188238D01*
X-5342056Y15154949D01*
X-5388987Y15065230D01*
X-5408989Y14997109D01*
X-5419500Y14924000D01*
X-5419500Y13376000D01*
X-5413570Y13320841D01*
X-5402184Y13268499D01*
X-5394834Y13241709D01*
X-5344731Y13153722D01*
X-5344729Y13153720D01*
X-5344724Y13153713D01*
X-5298247Y13100076D01*
X-5298230Y13100058D01*
X-5264949Y13067944D01*
X-5186957Y13027147D01*
X-5175230Y13021013D01*
X-5107109Y13001011D01*
X-5034000Y12990500D01*
X-5033997Y12990500D01*
X-4355993Y12990500D01*
X-4300838Y12996430D01*
X-4248516Y13007812D01*
X-4248510Y13007813D01*
X-4248499Y13007816D01*
X-4235707Y13011325D01*
X-4221710Y13015165D01*
X-4221709Y13015166D01*
X-4133722Y13065269D01*
X-4133720Y13065270D01*
X-4133713Y13065275D01*
X-4080076Y13111752D01*
X-4080058Y13111769D01*
X-4047944Y13145049D01*
X-4047944Y13145050D01*
X-4001014Y13234767D01*
X-4001013Y13234770D01*
X-3981012Y13302888D01*
X-3981011Y13302891D01*
X-3970500Y13376000D01*
X-3970500Y14924000D01*
X-3970500Y14924006D01*
X-3976430Y14979161D01*
X-3987812Y15031483D01*
X-3987812Y15031484D01*
X-3987816Y15031501D01*
X-3995166Y15058291D01*
X-4045269Y15146278D01*
X-4045270Y15146279D01*
X-4045275Y15146286D01*
X-4091752Y15199923D01*
X-4091770Y15199942D01*
X-4125046Y15232053D01*
X-4125050Y15232055D01*
X-4125051Y15232056D01*
X-4137898Y15238775D01*
X-4188990Y15288071D01*
X-4205500Y15350425D01*
X-4205500Y16352342D01*
X-4185498Y16420463D01*
X-4131842Y16466956D01*
X-4110116Y16474566D01*
X-3322535Y16671845D01*
X-3310407Y16674257D01*
X-1672414Y16917231D01*
X-1660109Y16918443D01*
X-6183Y16999696D01*
X6183Y16999696D01*
X1660109Y16918443D01*
G37*
%TD.AperFunction*%
%TD*%
%TA.AperFunction,Conductor*%
%TO.N,/PWR_IN*%
G36*
X1818627Y10810315D02*
G01*
X1854689Y10774893D01*
X1857295Y10770993D01*
X1858271Y10769509D01*
X1858732Y10768795D01*
X1892124Y10735404D01*
X1893359Y10734152D01*
X1926375Y10700184D01*
X1926986Y10699777D01*
X1928464Y10698774D01*
X1929162Y10698292D01*
X1972781Y10680224D01*
X1974398Y10679541D01*
X2023803Y10658250D01*
X2031946Y10655716D01*
X2235072Y10571578D01*
X2275300Y10544698D01*
X2473681Y10346318D01*
X2507166Y10284995D01*
X2510000Y10258637D01*
X2510000Y8911362D01*
X2490315Y8844323D01*
X2473681Y8823681D01*
X1516319Y7866319D01*
X1454996Y7832834D01*
X1428638Y7830000D01*
X1021362Y7830000D01*
X954323Y7849685D01*
X933681Y7866319D01*
X-13681Y8813681D01*
X-47166Y8875004D01*
X-50000Y8901362D01*
X-50000Y9441421D01*
X988579Y9441421D01*
X1130000Y8900001D01*
X1203690Y8893299D01*
X1264619Y8875111D01*
X1316321Y8848306D01*
X1362333Y8815758D01*
X1406192Y8780338D01*
X1451434Y8744918D01*
X1501595Y8712370D01*
X1560212Y8685565D01*
X1630821Y8667377D01*
X1716960Y8660676D01*
X1716960Y8910676D01*
X1645064Y8919138D01*
X1595047Y8943080D01*
X1562953Y8980328D01*
X1544826Y9028712D01*
X1536711Y9086060D01*
X1534650Y9150201D01*
X1534689Y9218964D01*
X1532872Y9290177D01*
X1525243Y9361670D01*
X1507846Y9431270D01*
X988579Y9441421D01*
X-50000Y9441421D01*
X-50000Y10238638D01*
X-30315Y10305677D01*
X-13681Y10326319D01*
X453681Y10793681D01*
X515004Y10827166D01*
X541362Y10830000D01*
X1751588Y10830000D01*
X1818627Y10810315D01*
G37*
%TD.AperFunction*%
%TD*%
M02*
