%TF.GenerationSoftware,KiCad,Pcbnew,8.0.2*%
%TF.CreationDate,2024-09-09T19:27:49+02:00*%
%TF.ProjectId,AGS_Klingel_V2-1,4147535f-4b6c-4696-9e67-656c5f56322d,rev?*%
%TF.SameCoordinates,Original*%
%TF.FileFunction,Paste,Top*%
%TF.FilePolarity,Positive*%
%FSLAX46Y46*%
G04 Gerber Fmt 4.6, Leading zero omitted, Abs format (unit mm)*
G04 Created by KiCad (PCBNEW 8.0.2) date 2024-09-09 19:27:49*
%MOMM*%
%LPD*%
G01*
G04 APERTURE LIST*
G04 Aperture macros list*
%AMRoundRect*
0 Rectangle with rounded corners*
0 $1 Rounding radius*
0 $2 $3 $4 $5 $6 $7 $8 $9 X,Y pos of 4 corners*
0 Add a 4 corners polygon primitive as box body*
4,1,4,$2,$3,$4,$5,$6,$7,$8,$9,$2,$3,0*
0 Add four circle primitives for the rounded corners*
1,1,$1+$1,$2,$3*
1,1,$1+$1,$4,$5*
1,1,$1+$1,$6,$7*
1,1,$1+$1,$8,$9*
0 Add four rect primitives between the rounded corners*
20,1,$1+$1,$2,$3,$4,$5,0*
20,1,$1+$1,$4,$5,$6,$7,0*
20,1,$1+$1,$6,$7,$8,$9,0*
20,1,$1+$1,$8,$9,$2,$3,0*%
%AMRotRect*
0 Rectangle, with rotation*
0 The origin of the aperture is its center*
0 $1 length*
0 $2 width*
0 $3 Rotation angle, in degrees counterclockwise*
0 Add horizontal line*
21,1,$1,$2,0,0,$3*%
%AMFreePoly0*
4,1,14,0.334644,0.085355,0.385355,0.034644,0.400000,-0.000711,0.400000,-0.050000,0.385355,-0.085355,0.350000,-0.100000,-0.350000,-0.100000,-0.385355,-0.085355,-0.400000,-0.050000,-0.400000,0.050000,-0.385355,0.085355,-0.350000,0.100000,0.299289,0.100000,0.334644,0.085355,0.334644,0.085355,$1*%
%AMFreePoly1*
4,1,14,0.385355,0.085355,0.400000,0.050000,0.400000,0.000711,0.385355,-0.034644,0.334644,-0.085355,0.299289,-0.100000,-0.350000,-0.100000,-0.385355,-0.085355,-0.400000,-0.050000,-0.400000,0.050000,-0.385355,0.085355,-0.350000,0.100000,0.350000,0.100000,0.385355,0.085355,0.385355,0.085355,$1*%
%AMFreePoly2*
4,1,14,0.085355,0.385355,0.100000,0.350000,0.100000,-0.350000,0.085355,-0.385355,0.050000,-0.400000,-0.050000,-0.400000,-0.085355,-0.385355,-0.100000,-0.350000,-0.100000,0.299289,-0.085355,0.334644,-0.034644,0.385355,0.000711,0.400000,0.050000,0.400000,0.085355,0.385355,0.085355,0.385355,$1*%
%AMFreePoly3*
4,1,14,0.034644,0.385355,0.085355,0.334644,0.100000,0.299289,0.100000,-0.350000,0.085355,-0.385355,0.050000,-0.400000,-0.050000,-0.400000,-0.085355,-0.385355,-0.100000,-0.350000,-0.100000,0.350000,-0.085355,0.385355,-0.050000,0.400000,-0.000711,0.400000,0.034644,0.385355,0.034644,0.385355,$1*%
%AMFreePoly4*
4,1,14,0.385355,0.085355,0.400000,0.050000,0.400000,-0.050000,0.385355,-0.085355,0.350000,-0.100000,-0.299289,-0.100000,-0.334644,-0.085355,-0.385355,-0.034644,-0.400000,0.000711,-0.400000,0.050000,-0.385355,0.085355,-0.350000,0.100000,0.350000,0.100000,0.385355,0.085355,0.385355,0.085355,$1*%
%AMFreePoly5*
4,1,14,0.385355,0.085355,0.400000,0.050000,0.400000,-0.050000,0.385355,-0.085355,0.350000,-0.100000,-0.350000,-0.100000,-0.385355,-0.085355,-0.400000,-0.050000,-0.400000,-0.000711,-0.385355,0.034644,-0.334644,0.085355,-0.299289,0.100000,0.350000,0.100000,0.385355,0.085355,0.385355,0.085355,$1*%
%AMFreePoly6*
4,1,14,0.085355,0.385355,0.100000,0.350000,0.100000,-0.299289,0.085355,-0.334644,0.034644,-0.385355,-0.000711,-0.400000,-0.050000,-0.400000,-0.085355,-0.385355,-0.100000,-0.350000,-0.100000,0.350000,-0.085355,0.385355,-0.050000,0.400000,0.050000,0.400000,0.085355,0.385355,0.085355,0.385355,$1*%
%AMFreePoly7*
4,1,14,0.085355,0.385355,0.100000,0.350000,0.100000,-0.350000,0.085355,-0.385355,0.050000,-0.400000,0.000711,-0.400000,-0.034644,-0.385355,-0.085355,-0.334644,-0.100000,-0.299289,-0.100000,0.350000,-0.085355,0.385355,-0.050000,0.400000,0.050000,0.400000,0.085355,0.385355,0.085355,0.385355,$1*%
G04 Aperture macros list end*
%ADD10RoundRect,0.150000X0.416086X0.334707X-0.530891X-0.057543X-0.416086X-0.334707X0.530891X0.057543X0*%
%ADD11RoundRect,0.200000X-0.275000X0.200000X-0.275000X-0.200000X0.275000X-0.200000X0.275000X0.200000X0*%
%ADD12RoundRect,0.172500X0.172500X0.172500X-0.172500X0.172500X-0.172500X-0.172500X0.172500X-0.172500X0*%
%ADD13FreePoly0,180.000000*%
%ADD14RoundRect,0.050000X0.350000X0.050000X-0.350000X0.050000X-0.350000X-0.050000X0.350000X-0.050000X0*%
%ADD15FreePoly1,180.000000*%
%ADD16FreePoly2,180.000000*%
%ADD17RoundRect,0.050000X0.050000X0.350000X-0.050000X0.350000X-0.050000X-0.350000X0.050000X-0.350000X0*%
%ADD18FreePoly3,180.000000*%
%ADD19FreePoly4,180.000000*%
%ADD20FreePoly5,180.000000*%
%ADD21FreePoly6,180.000000*%
%ADD22FreePoly7,180.000000*%
%ADD23R,0.500000X0.500000*%
%ADD24RoundRect,0.225000X-0.335876X-0.017678X-0.017678X-0.335876X0.335876X0.017678X0.017678X0.335876X0*%
%ADD25RoundRect,0.200000X0.275000X-0.200000X0.275000X0.200000X-0.275000X0.200000X-0.275000X-0.200000X0*%
%ADD26RoundRect,0.225000X0.250000X-0.225000X0.250000X0.225000X-0.250000X0.225000X-0.250000X-0.225000X0*%
%ADD27RotRect,1.500000X1.000000X135.000000*%
%ADD28RotRect,1.500000X1.000000X225.000000*%
%ADD29RoundRect,0.150000X0.334707X-0.416086X-0.057543X0.530891X-0.334707X0.416086X0.057543X-0.530891X0*%
%ADD30R,1.500000X1.000000*%
%ADD31RoundRect,0.150000X-0.150000X0.512500X-0.150000X-0.512500X0.150000X-0.512500X0.150000X0.512500X0*%
%ADD32R,1.000000X1.500000*%
%ADD33RoundRect,0.225000X-0.250000X0.225000X-0.250000X-0.225000X0.250000X-0.225000X0.250000X0.225000X0*%
%ADD34RoundRect,0.150000X-0.587500X-0.150000X0.587500X-0.150000X0.587500X0.150000X-0.587500X0.150000X0*%
%ADD35RoundRect,0.150000X-0.150000X0.587500X-0.150000X-0.587500X0.150000X-0.587500X0.150000X0.587500X0*%
%ADD36R,0.650000X0.700000*%
%ADD37RoundRect,0.062500X0.187500X0.062500X-0.187500X0.062500X-0.187500X-0.062500X0.187500X-0.062500X0*%
%ADD38RoundRect,0.150000X-0.334707X0.416086X0.057543X-0.530891X0.334707X-0.416086X-0.057543X0.530891X0*%
%ADD39RoundRect,0.250000X0.401254X-0.599162X0.707401X0.139942X-0.401254X0.599162X-0.707401X-0.139942X0*%
%ADD40RotRect,1.500000X1.000000X45.000000*%
%ADD41RoundRect,0.150000X0.150000X-0.587500X0.150000X0.587500X-0.150000X0.587500X-0.150000X-0.587500X0*%
%ADD42RoundRect,0.225000X0.225000X0.250000X-0.225000X0.250000X-0.225000X-0.250000X0.225000X-0.250000X0*%
%ADD43RoundRect,0.250000X-0.475000X0.250000X-0.475000X-0.250000X0.475000X-0.250000X0.475000X0.250000X0*%
%ADD44R,3.400000X0.980000*%
%ADD45RoundRect,0.150000X-0.416086X-0.334707X0.530891X0.057543X0.416086X0.334707X-0.530891X-0.057543X0*%
%ADD46RoundRect,0.150000X0.587500X0.150000X-0.587500X0.150000X-0.587500X-0.150000X0.587500X-0.150000X0*%
%ADD47RotRect,1.500000X1.000000X315.000000*%
%ADD48RoundRect,0.225000X0.017678X-0.335876X0.335876X-0.017678X-0.017678X0.335876X-0.335876X0.017678X0*%
%ADD49R,0.450000X1.450000*%
%ADD50RoundRect,0.225000X-0.017678X0.335876X-0.335876X0.017678X0.017678X-0.335876X0.335876X-0.017678X0*%
%ADD51RoundRect,0.225000X0.335876X0.017678X0.017678X0.335876X-0.335876X-0.017678X-0.017678X-0.335876X0*%
G04 APERTURE END LIST*
D10*
%TO.C,U7*%
X-5065538Y15857617D03*
X-5429087Y16735302D03*
X-5792636Y17612988D03*
X-7894462Y16742383D03*
X-7530913Y15864698D03*
X-7167364Y14987012D03*
%TD*%
D11*
%TO.C,R18*%
X-2310000Y-2655000D03*
X-2310000Y-4305000D03*
%TD*%
D12*
%TO.C,U4*%
X4938625Y-4205000D03*
X4938625Y-3355000D03*
X4088625Y-4205000D03*
X4088625Y-3355000D03*
D13*
X5963625Y-4580000D03*
D14*
X5963625Y-4180000D03*
X5963625Y-3780000D03*
X5963625Y-3380000D03*
D15*
X5963625Y-2980000D03*
D16*
X5313625Y-2330000D03*
D17*
X4913625Y-2330000D03*
X4513625Y-2330000D03*
X4113625Y-2330000D03*
D18*
X3713625Y-2330000D03*
D19*
X3063625Y-2980000D03*
D14*
X3063625Y-3380000D03*
X3063625Y-3780000D03*
X3063625Y-4180000D03*
D20*
X3063625Y-4580000D03*
D21*
X3713625Y-5230000D03*
D17*
X4113625Y-5230000D03*
X4513625Y-5230000D03*
X4913625Y-5230000D03*
D22*
X5313625Y-5230000D03*
%TD*%
D23*
%TO.C,D8*%
X3300000Y2860000D03*
X3300000Y5060000D03*
%TD*%
D24*
%TO.C,C5*%
X8051992Y-12951992D03*
X9148008Y-14048008D03*
%TD*%
D25*
%TO.C,R4*%
X2770000Y-11315000D03*
X2770000Y-9665000D03*
%TD*%
D26*
%TO.C,C12*%
X-3809858Y-625039D03*
X-3809858Y924961D03*
%TD*%
D25*
%TO.C,R5*%
X4270000Y-11305000D03*
X4270000Y-9655000D03*
%TD*%
D27*
%TO.C,D9*%
X-10537652Y8266017D03*
X-9406281Y9397387D03*
X-8274911Y10528758D03*
X-11739734Y13993581D03*
X-12871105Y12862211D03*
X-14002475Y11730840D03*
%TD*%
D25*
%TO.C,R17*%
X3070000Y-860000D03*
X3070000Y790000D03*
%TD*%
D26*
%TO.C,C7*%
X-3600000Y-16375000D03*
X-3600000Y-14825000D03*
%TD*%
D28*
%TO.C,D5*%
X-8266017Y-10537652D03*
X-9397387Y-9406281D03*
X-10528758Y-8274911D03*
X-13993581Y-11739734D03*
X-12862211Y-12871105D03*
X-11730840Y-14002475D03*
%TD*%
D29*
%TO.C,U1*%
X15755234Y5241076D03*
X16632919Y5604625D03*
X17510605Y5968174D03*
X16640000Y8070000D03*
X15762315Y7706451D03*
X14884629Y7342902D03*
%TD*%
D30*
%TO.C,D6*%
X-13296201Y-1593711D03*
X-13296201Y6289D03*
X-13296201Y1606289D03*
X-18196201Y1606289D03*
X-18196201Y6289D03*
X-18196201Y-1593711D03*
%TD*%
D31*
%TO.C,U9*%
X1590000Y4837500D03*
X640000Y4837500D03*
X-310000Y4837500D03*
X-310000Y2562500D03*
X640000Y2562500D03*
X1590000Y2562500D03*
%TD*%
D11*
%TO.C,R11*%
X-249990Y-9674580D03*
X-249990Y-11324580D03*
%TD*%
D23*
%TO.C,D7*%
X-6199752Y-7549654D03*
X-6199752Y-9749654D03*
%TD*%
D25*
%TO.C,R8*%
X7537087Y-865000D03*
X7537087Y785000D03*
%TD*%
%TO.C,R9*%
X1249950Y-11324580D03*
X1249950Y-9674580D03*
%TD*%
D32*
%TO.C,D10*%
X-1593711Y13296201D03*
X6289Y13296201D03*
X1606289Y13296201D03*
X1606289Y18196201D03*
X6289Y18196201D03*
X-1593711Y18196201D03*
%TD*%
D33*
%TO.C,C2*%
X11540000Y680000D03*
X11540000Y-870000D03*
%TD*%
D11*
%TO.C,R19*%
X-2890000Y11605000D03*
X-2890000Y9955000D03*
%TD*%
D26*
%TO.C,C9*%
X-6809857Y-625039D03*
X-6809857Y924961D03*
%TD*%
D34*
%TO.C,Q2*%
X-6467500Y11070000D03*
X-6467500Y9170000D03*
X-4592500Y10120000D03*
%TD*%
D26*
%TO.C,C14*%
X-3649854Y13035000D03*
X-3649854Y14585000D03*
%TD*%
D35*
%TO.C,Q1*%
X10420000Y4297500D03*
X8520000Y4297500D03*
X9470000Y2422500D03*
%TD*%
D11*
%TO.C,R20*%
X-1440000Y11625000D03*
X-1440000Y9975000D03*
%TD*%
D36*
%TO.C,U5*%
X-6109857Y3074961D03*
X-6109857Y4024961D03*
D37*
X-5159857Y2549961D03*
X-5159857Y3049961D03*
X-5159857Y3549961D03*
X-5159857Y4049961D03*
X-5159857Y4549961D03*
X-7059857Y4549961D03*
X-7059857Y4049961D03*
X-7059857Y3549961D03*
X-7059857Y3049961D03*
X-7059857Y2549961D03*
%TD*%
D25*
%TO.C,R16*%
X4530000Y-875000D03*
X4530000Y775000D03*
%TD*%
D38*
%TO.C,U6*%
X-15777617Y-5065538D03*
X-16655302Y-5429087D03*
X-17532988Y-5792636D03*
X-16662383Y-7894462D03*
X-15784698Y-7530913D03*
X-14907012Y-7167364D03*
%TD*%
D11*
%TO.C,R3*%
X5780000Y-9660000D03*
X5780000Y-11310000D03*
%TD*%
D25*
%TO.C,R13*%
X-6959383Y6037205D03*
X-6959383Y7687205D03*
%TD*%
D30*
%TO.C,D2*%
X13296201Y1593711D03*
X13296201Y-6289D03*
X13296201Y-1606289D03*
X18196201Y-1606289D03*
X18196201Y-6289D03*
X18196201Y1593711D03*
%TD*%
D39*
%TO.C,D11*%
X-522196Y8103211D03*
X817196Y11336789D03*
%TD*%
D25*
%TO.C,R14*%
X-3959382Y6037205D03*
X-3959382Y7687205D03*
%TD*%
D33*
%TO.C,C6*%
X-3810000Y3895000D03*
X-3810000Y2345000D03*
%TD*%
D40*
%TO.C,D1*%
X8266017Y10537652D03*
X9397387Y9406281D03*
X10528758Y8274911D03*
X13993581Y11739734D03*
X12862211Y12871105D03*
X11730840Y14002475D03*
%TD*%
D41*
%TO.C,Q4*%
X5040000Y2442500D03*
X6940000Y2442500D03*
X5990000Y4317500D03*
%TD*%
D26*
%TO.C,C10*%
X-5309858Y-625039D03*
X-5309858Y924961D03*
%TD*%
D11*
%TO.C,R10*%
X6037087Y785000D03*
X6037087Y-865000D03*
%TD*%
D32*
%TO.C,D4*%
X1593711Y-13296201D03*
X-6289Y-13296201D03*
X-1606289Y-13296201D03*
X-1606289Y-18196201D03*
X-6289Y-18196201D03*
X1593711Y-18196201D03*
%TD*%
D33*
%TO.C,C3*%
X7378625Y-2855000D03*
X7378625Y-4405000D03*
%TD*%
D42*
%TO.C,C11*%
X-13110000Y-3490000D03*
X-14660000Y-3490000D03*
%TD*%
D25*
%TO.C,R6*%
X9640000Y-865000D03*
X9640000Y785000D03*
%TD*%
%TO.C,R12*%
X-8459383Y6037205D03*
X-8459383Y7687205D03*
%TD*%
D43*
%TO.C,C4*%
X-2060000Y4310000D03*
X-2060000Y2410000D03*
%TD*%
D11*
%TO.C,R7*%
X-2450000Y7685000D03*
X-2450000Y6035000D03*
%TD*%
%TO.C,R1*%
X6070000Y7705000D03*
X6070000Y6055000D03*
%TD*%
D44*
%TO.C,L1*%
X-9990000Y3034926D03*
X-9990000Y664926D03*
%TD*%
D45*
%TO.C,U3*%
X5195538Y-15717617D03*
X5559087Y-16595302D03*
X5922636Y-17472988D03*
X8024462Y-16602383D03*
X7660913Y-15724698D03*
X7297364Y-14847012D03*
%TD*%
D46*
%TO.C,Q3*%
X-2032522Y-11479538D03*
X-2032522Y-9579538D03*
X-3907522Y-10529538D03*
%TD*%
D25*
%TO.C,R2*%
X7680000Y6045000D03*
X7680000Y7695000D03*
%TD*%
D47*
%TO.C,D3*%
X10537652Y-8266017D03*
X9406281Y-9397387D03*
X8274911Y-10528758D03*
X11739734Y-13993581D03*
X12871105Y-12862211D03*
X14002475Y-11730840D03*
%TD*%
D48*
%TO.C,C1*%
X12951992Y8051992D03*
X14048008Y9148008D03*
%TD*%
D49*
%TO.C,U8*%
X-725000Y-4090000D03*
X-75000Y-4090000D03*
X575000Y-4090000D03*
X1225000Y-4090000D03*
X1225000Y310000D03*
X575000Y310000D03*
X-75000Y310000D03*
X-725000Y310000D03*
%TD*%
D50*
%TO.C,C8*%
X-13151992Y-8051992D03*
X-14248008Y-9148008D03*
%TD*%
D11*
%TO.C,R15*%
X-5459383Y7687205D03*
X-5459383Y6037205D03*
%TD*%
D51*
%TO.C,C13*%
X-7951992Y13151992D03*
X-9048008Y14248008D03*
%TD*%
D33*
%TO.C,C15*%
X-2300000Y905000D03*
X-2300000Y-645000D03*
%TD*%
M02*
